<?xml version="1.0" encoding="utf-8"?>
<!-- Generator: Adobe Illustrator 19.2.1, SVG Export Plug-In . SVG Version: 6.00 Build 0)  -->
<svg version="1.1" id="Layer_1" xmlns="http://www.w3.org/2000/svg" xmlns:xlink="http://www.w3.org/1999/xlink" x="0px" y="0px"
	 viewBox="0 0 529 121" style="enable-background:new 0 0 529 121;" xml:space="preserve">
<style type="text/css">
	.st0{fill:#3C5A99;}
	.st1{fill:#FFFFFF;}
	.st2{fill:none;}
	.st3{font-family:'GaramondPremrPro-Disp';}
	.st4{font-size:100px;}
</style>
<path id="Blue_1_" class="st0" d="M110.2,115c3.4,0,6.1-2.7,6.1-6.1V10.7c0-3.4-2.7-6.1-6.1-6.1H12c-3.4,0-6.1,2.7-6.1,6.1v98.2
	c0,3.4,2.7,6.1,6.1,6.1H110.2z"/>
<path id="f" class="st1" d="M82.1,115V72.2h14.4l2.1-16.7H82.1V44.9c0-4.8,1.3-8.1,8.3-8.1l8.8,0V21.9c-1.5-0.2-6.8-0.7-12.9-0.7
	c-12.7,0-21.4,7.8-21.4,22v12.3H50.5v16.7h14.4V115H82.1z"/>
<rect x="142" y="23.8" class="st2" width="364" height="72"/>
<text transform="matrix(1 0 0 1 142 92.7927)" class="st1 st3 st4">Facebook</text>
</svg>
