<?xml version="1.0" encoding="utf-8"?>
<!-- Generator: Adobe Illustrator 22.0.1, SVG Export Plug-In . SVG Version: 6.00 Build 0)  -->
<svg version="1.1"
	 id="svg3070" inkscape:version="0.48.0 r9654" sodipodi:docname="New document 4" xmlns:cc="http://creativecommons.org/ns#" xmlns:dc="http://purl.org/dc/elements/1.1/" xmlns:inkscape="http://www.inkscape.org/namespaces/inkscape" xmlns:rdf="http://www.w3.org/1999/02/22-rdf-syntax-ns#" xmlns:sodipodi="http://sodipodi.sourceforge.net/DTD/sodipodi-0.dtd" xmlns:svg="http://www.w3.org/2000/svg"
	 xmlns="http://www.w3.org/2000/svg" xmlns:xlink="http://www.w3.org/1999/xlink" x="0px" y="0px" viewBox="0 0 488 121"
	 style="enable-background:new 0 0 488 121;" xml:space="preserve">
<style type="text/css">
	.st0{fill:#FFFFFF;}
	.st1{font-family:"a-otf-ryumin-pr6n", serif;}
	.st2{font-size:100px;}
	.st3{fill:#DF316F;}
	.st4{fill:#FAA142;}
	.st5{fill:#FBA948;}
	.st6{fill:#DA2E7A;}
	.st7{fill:#D82E7E;}
	.st8{fill:#D42F86;}
	.st9{fill:#AB34A8;}
	.st10{fill:#FBA544;}
	.st11{fill:#D62E82;}
	.st12{fill:#DE2F73;}
	.st13{fill:#E23568;}
	.st14{fill:#B431A3;}
	.st15{fill:#C72F94;}
	.st16{fill:#B033A5;}
	.st17{fill:#CF2E8D;}
	.st18{fill:#DC2F77;}
	.st19{fill:#A338AC;}
	.st20{fill:#CD2F8E;}
	.st21{fill:#973DAC;}
	.st22{fill:#BE309C;}
	.st23{fill:#903CA7;}
	.st24{fill:#A53796;}
	.st25{fill:#FCB04D;}
	.st26{fill:#CA3092;}
	.st27{fill:#9A399E;}
	.st28{fill:#EC6A40;}
	.st29{fill:#BB319F;}
	.st30{fill:#C43097;}
	.st31{fill:#9639A1;}
	.st32{fill:#E33765;}
	.st33{fill:#9F379B;}
	.st34{fill:#A836A9;}
	.st35{fill:#F48338;}
	.st36{fill:#C2319A;}
	.st37{fill:#9E3BAC;}
	.st38{fill:#8842B1;}
	.st39{fill:#FCB453;}
	.st40{fill:#A93792;}
	.st41{fill:#8241B0;}
	.st42{fill:#B63887;}
	.st43{fill:#FA9C3E;}
	.st44{fill:#CC416F;}
	.st45{fill:#F99445;}
	.st46{fill:#B1378B;}
	.st47{fill:#FBA54A;}
	.st48{fill:#F8953A;}
	.st49{fill:#853FAE;}
	.st50{fill:#C43D79;}
	.st51{fill:#F27D39;}
	.st52{fill:#EC514F;}
	.st53{fill:#FCAF50;}
	.st54{fill:#C83E73;}
	.st55{fill:#E43A62;}
	.st56{fill:#BA3883;}
	.st57{fill:#E73F5C;}
	.st58{fill:#F17839;}
	.st59{fill:#EE703C;}
	.st60{fill:#B732A3;}
	.st61{fill:#BD3A7F;}
	.st62{fill:#E96544;}
	.st63{fill:#F99B46;}
	.st64{fill:#DB5159;}
	.st65{fill:#E84456;}
	.st66{fill:#F57843;}
	.st67{fill:#F05C48;}
	.st68{fill:#E05751;}
	.st69{fill:#F9983C;}
	.st70{fill:#E35A4E;}
	.st71{fill:#F0743B;}
	.st72{fill:#D24666;}
	.st73{fill:#CF446B;}
	.st74{fill:#923FAD;}
	.st75{fill:#F78543;}
	.st76{fill:#E86447;}
	.st77{fill:#C13B7C;}
	.st78{fill:#F88E43;}
	.st79{fill:#D84C5F;}
	.st80{fill:#F68B38;}
	.st81{fill:#8F41AE;}
	.st82{fill:#EB4B52;}
	.st83{fill:#F58738;}
	.st84{fill:#EA4855;}
	.st85{fill:#F26646;}
	.st86{fill:#E8425A;}
	.st87{fill:#D94F5C;}
	.st88{fill:#D54963;}
	.st89{fill:#F36D45;}
	.st90{fill:#FBAA4E;}
	.st91{fill:#9239A3;}
	.st92{fill:#8345B3;}
	.st93{fill:#F88A43;}
	.st94{fill:#D22E8A;}
	.st95{fill:#EF594C;}
	.st96{fill:#883EAB;}
	.st97{fill:#FAA049;}
	.st98{fill:#F7903A;}
	.st99{fill:#F16049;}
	.st100{fill:#F47345;}
	.st101{fill:#8B3CA9;}
	.st102{fill:#8047B5;}
	.st103{fill:#8D3CA8;}
	.st104{fill:#F67D46;}
	.st105{fill:#FBA046;}
	.st106{fill:#FA9A42;}
	.st107{fill:#F98F40;}
	.st108{fill:#F88840;}
	.st109{fill:#F67C3F;}
	.st110{fill:#F99441;}
	.st111{fill:#F78240;}
	.st112{fill:#FBAC4C;}
	.st113{fill:#D12E89;}
	.st114{fill:#AB35A3;}
	.st115{fill:#A837A2;}
	.st116{fill:#B135A1;}
	.st117{fill:#B831A0;}
	.st118{fill:#A538A5;}
	.st119{fill:#A239A8;}
	.st120{fill:#9A3BA8;}
	.st121{fill:#9B3BAB;}
	.st122{fill:#923FAC;}
	.st123{fill:#963CA8;}
	.st124{fill:#8D3FAC;}
	.st125{fill:#953CA6;}
	.st126{fill:#8B3DAB;}
	.st127{fill:#943AA4;}
	.st128{fill:#9F3AA7;}
	.st129{fill:#883FAD;}
	.st130{fill:#AE368F;}
	.st131{fill:#EE544C;}
	.st132{fill:#E63C5F;}
	.st133{fill:#DF5455;}
	.st134{fill:#DD5555;}
	.st135{fill:#F57340;}
	.st136{fill:#F67F42;}
	.st137{fill:#F16245;}
	.st138{fill:#E65F4A;}
	.st139{fill:#F36A45;}
	.st140{fill:#F46E42;}
	.st141{fill:#D03081;}
	.st142{fill:#F3673B;}
	.st143{fill:#C5318A;}
	.st144{fill:#DB3173;}
	.st145{fill:#D52F7C;}
	.st146{fill:#C13095;}
	.st147{fill:#F1633E;}
	.st148{fill:#C63287;}
	.st149{fill:#D83078;}
	.st150{fill:#C53091;}
	.st151{fill:#D32F7E;}
	.st152{fill:#EF5A43;}
	.st153{fill:#CC3083;}
	.st154{fill:#CE347A;}
	.st155{fill:#DE326E;}
	.st156{fill:#EE5546;}
	.st157{fill:#ED5049;}
	.st158{fill:#E23666;}
	.st159{fill:#C82F8F;}
	.st160{fill:#E43A61;}
	.st161{fill:#C73381;}
	.st162{fill:#CA347D;}
	.st163{fill:#DF346A;}
	.st164{fill:#D03676;}
	.st165{fill:#EF6041;}
	.st166{fill:#E7514E;}
	.st167{fill:#E54D53;}
	.st168{fill:#C93188;}
	.st169{fill:#E63E5C;}
	.st170{fill:#E34958;}
	.st171{fill:#D93F67;}
	.st172{fill:#D33871;}
	.st173{fill:#D53B6E;}
	.st174{fill:#EC4B4E;}
	.st175{fill:#9E39A3;}
	.st176{fill:#EA4751;}
	.st177{fill:#EB5748;}
	.st178{fill:#E74158;}
	.st179{fill:#DD445F;}
	.st180{fill:#EA544A;}
	.st181{fill:#E94455;}
	.st182{fill:#A33BA4;}
	.st183{fill:#ED5946;}
	.st184{fill:#CA308D;}
	.st185{fill:#F05C41;}
	.st186{fill:#ED5C43;}
	.st187{fill:#E0465D;}
	.st188{fill:#D73C6B;}
	.st189{fill:#DB4263;}
	.st190{fill:#CC3086;}
	.st191{fill:#9B3DA6;}
	.st192{fill:#9B3BA5;}
	.st193{fill:#923CA9;}
	.st194{fill:#CA3185;}
	.st195{fill:#EF5D41;}
	.st196{fill:#F1603F;}
	.st197{fill:#CA3181;}
</style>
<sodipodi:namedview  bordercolor="#666666" borderopacity="1.0" fit-margin-bottom="0" fit-margin-left="0" fit-margin-right="0" fit-margin-top="0" id="base" inkscape:current-layer="layer1" inkscape:cx="142.93233" inkscape:cy="33.703355" inkscape:document-units="px" inkscape:pageopacity="0.0" inkscape:pageshadow="2" inkscape:window-height="750" inkscape:window-maximized="1" inkscape:window-width="1280" inkscape:window-x="-8" inkscape:window-y="-8" inkscape:zoom="2.8" pagecolor="#ffffff" showgrid="false">
	</sodipodi:namedview>
<text transform="matrix(1 0 0 1 142 89.7927)" class="st0 st1 st2">Instagram</text>
<g>
	<path class="st3" d="M115.7,90.3c-0.3,2.4-1,4.8-2.1,7c-0.5-0.5-0.5-1.2-0.8-1.8c-1.2-3-3-5.6-5.3-7.8c-0.5-0.5-0.7-1.4-1.5-1.7
		c0.1-3.1,0.1-6.1,0.6-9.1c0.7-0.7,0.9,0.1,0.9,0.5c0,1.4,0.4,2.5,1.8,3c0.1,0,0.2,0.1,0.2,0.2c1.4,3.2,4.4,5.2,6,8.3
		C115.7,89.2,116,89.7,115.7,90.3z"/>
	<path class="st4" d="M17.7,107.6c-0.8-0.5-1.3-1.1-1.9-1.8c2.2-0.4,4.4-1.4,6.8-1.1c0.8,0.1,1.6-0.1,2.2-0.7c0.5-0.5,1.3-0.5,2-0.5
		c1.5-0.1,3,0.1,4.5-0.1c11.2,2.1,22.6,1.1,33.9,1.3c2.7,0.1,5.5,0,8.2,0c0.7,0,1.4-0.1,2.1,0.4c0.2,0.8-0.5,0.7-0.9,0.8
		c-0.8,0.2-1.6,0-2.3,0c-1.2,0.1-2.5,0-3.7,0c-1.3,0.1-2.7,0-4,0c-2.4,0.1-4.8,0-7.2,0c-0.9,0-1.8,0-2.8,0c-1.5,0-3,0-4.5,0
		c-0.5,0-1.1-0.1-1.5,0.5c-0.7,0.3-1.1,1-1.6,1.4c-1.4,0.4-2.7,0.4-3.9-0.6c-0.5-0.4-1.1-0.4-1.7-0.4c-6.4,0-12.7-0.1-19.1,0
		c-0.9,0-1.7,0.2-2.5,0.6C19.1,107.8,18.4,108,17.7,107.6z"/>
	<path class="st5" d="M23.4,111.3c-1.2-0.4-2.3-1-3.3-1.9c0.2-0.9,1-0.9,1.7-1c1.4-0.1,2.8-0.2,4.1-1c0.4-0.2,0.9-0.3,1.3-0.2
		c2.9,0.2,5.9-0.2,8.8,0c0.8,0,1.6,0,2.4,0.4c0.1,0,0.2,0.1,0.3,0.1c3.1-1,5.8,1.4,8.9,1.2c0.6,0,1,0.3,1.4,0.8c0.5,0.6,1.4,1,0.8,2
		c-0.7,0.5-1.6,0.6-2.1,0.1c-1.5-1.3-3.4-0.8-5.1-1.1c-0.2,0-0.5,0.1-0.6,0c-1.7-1.1-3.3-0.2-5,0.2c-3.4,0.2-6.9-0.2-10.3,0
		C25.5,110.8,24.5,111.3,23.4,111.3z"/>
	<path class="st6" d="M116.9,73.5c0,2.5,0.1,4.9-0.2,7.3c-1.2-1.6-3.2-2.4-3.6-4.6c-0.1-0.5-0.6-0.7-1-0.9c-0.5-0.3-1-0.5-1.4-0.9
		c-1.2-1.2-2-2.7-3.7-3.3c-0.2-1.9-0.3-3.7,0-5.6c0.4-0.7,0.9-0.4,1.4,0c0.6,0.5,1.2,1,1.6,1.6c0.7,0.9,1.5,1.5,2.7,1.5
		c0.8,0,1.2,0.4,1.3,1.2c0,0.5,0.1,1.1,0.8,1.1c1.3,0,1.8,0.7,1.8,1.9C116.5,73.1,116.7,73.3,116.9,73.5z"/>
	<path class="st7" d="M116.9,73.5c-0.6-0.1-0.9-0.5-0.9-1c0.1-1-0.5-1.2-1.3-1.1c-1,0.1-1.4-0.5-1.2-1.4c0.2-0.8-0.2-1.2-0.9-1.1
		c-1.5,0.3-2.2-0.8-3-1.7c-0.7-0.7-1.3-1.6-2.3-2c-0.9-1.7-0.4-3.4-0.3-5.1c0.9-1.2,1.7-0.3,2.5,0.1c1.4,0.8,2.6,2,3.7,3.1
		c1.3,1.4,2.8,2.7,3.9,4.3C116.9,69.7,116.9,71.6,116.9,73.5z"/>
	<path class="st8" d="M116.9,55.2c0,2,0,4.1,0,6.1c-1.3,0.6-2.3-0.1-3-1c-1.1-1.4-2.2-2.6-4.2-2.6c-0.6,0-1.1-0.3-1.3-0.9
		c-0.2-0.9-0.9-1.4-1.5-2c-0.3-1.2-0.3-2.4,0-3.6c1-0.9,2.1-0.6,3,0.1c0.7,0.5,1.3,0.9,2.2,0.8c0.7-0.1,1.2,0.3,1.4,1
		c0.2,1.3,1.1,1.7,2.3,1.7C116.3,54.7,116.6,55,116.9,55.2z"/>
	<path class="st9" d="M100.8,9.3c1.7,0.7,3.3,1.7,4.6,3c-0.1,0.4-0.4,0.6-0.8,0.6c-1.9,0-3.9,0.8-5.8,0.3c-1.7-0.4-3.4-0.2-5.1-0.2
		c-2.1,0.1-4.1,0.1-6.2,0c-1.1-0.4-2.1-0.9-3.3-0.9c-0.7,0-1.2-0.4-1.6-0.9c-0.1-0.3-0.1-0.7,0.1-1c0.5-0.4,1.2-0.4,1.8-0.3
		C87,10,89.4,9.6,91.9,10c1.8,0.3,4-0.2,5.9-0.8C98.9,8.8,99.8,8.8,100.8,9.3z"/>
	<path class="st10" d="M48.4,110c0-0.6-0.2-1.1-0.9-0.9c-1.7,0.6-3.1-1.2-4.8-0.4c-0.1,0-0.4-0.2-0.5-0.3c-0.7-1.3-1.7-1-2.6-0.4
		c-0.6,0.4-1,0.5-1.6-0.1c-0.1-0.2-0.4-0.3-0.7-0.3c-2.7,0.1-5.5-0.4-8.1,0.3c-0.4,0.1-0.6-0.2-1-0.2c-1-0.1-2-0.3-3,0.4
		c-0.9,0.7-2.2,0.7-3.3,0.7c-0.8,0-1.4,0.2-2,0.6c-0.9-0.5-1.7-1.1-2.4-1.8c0.3,0,0.8,0.1,1-0.1c1.7-1.3,3.6-1.1,5.5-1.1
		c5.9,0,11.8,0,17.7,0c0.8,0,1.3,0.1,1.9,0.8c0.8,1,2.2,0.3,3.3,0.4c1.5-0.5,2,0.8,2.9,1.6C49.9,110.3,49.2,110.3,48.4,110z"/>
	<path class="st11" d="M107.2,54.9c1-0.2,1.4,0.5,1.4,1.3c0.1,0.9,0.5,1.3,1.4,1.2c1.8-0.2,3,1,3.8,2.2s1.8,1.6,3.1,1.8
		c0,2.1,0,4.3,0,6.4c-1.3-1-2.4-2.3-3.5-3.4c-1.8-1.8-3.4-4-6.2-4.5C106.5,58.2,106.5,56.6,107.2,54.9z"/>
	<path class="st12" d="M115.7,90.3c0.2-1-0.7-1.7-1.1-2.1c-1.1-1-1.2-2.8-2.8-3.4c-0.8-0.3-1.2-1.3-1.5-2c-0.5-1.2-0.9-2.4-2.5-2.7
		c-0.6-0.1-0.6-0.8-0.7-1.4c0-0.7,0.2-1.4-0.2-2.1c-0.6-0.7-0.5-1.4-0.3-2.2c0.7-0.7,1,0.1,1.3,0.4c0.7,0.9,1.9,1.4,2.4,2.2
		c1.5,2.1,3.8,3.3,5,5.7c0.5,1.1,1.3,2,1,3.3C116.3,87.5,116.1,88.9,115.7,90.3z"/>
	<path class="st13" d="M106.3,86.3c0.1-0.3,0.3-0.5,0.6-1.1c0,2,1.6,2.4,2.3,3.6c1.6,2.7,4.1,5,4.3,8.5c-0.6,1.7-1.4,3.2-2.4,4.5
		c-0.5-0.3-0.6-0.9-0.7-1.4c-0.1-2.2-0.8-4.2-2.3-5.9c-1.1-1.3-1.4-3.1-2.7-4.3C105.3,88.8,105.4,87.4,106.3,86.3z"/>
	<path class="st14" d="M109.5,16.3c0.2,0.3,0.4,0.6,0.7,1c-1.4,1.9-3.3,2.1-5.4,1.9c-2.3,0.1-4.6-0.4-6.9,0
		c-1.3-0.4-2.6-0.7-3.4-1.9c-0.1-1.4,1.2-1.6,1.9-2.4c2.9-0.2,5.8-0.7,8.6-0.1C106.5,15,108.1,15.5,109.5,16.3z"/>
	<path class="st15" d="M116.5,36.4c0.1,2.5,0.4,5.1,0.3,7.6c-0.8-0.3-0.6-1.1-0.6-1.7c0-1-0.1-1.7-1.3-2.1c-0.7-0.2-1.2-0.9-1.9-1.3
		c-1.1-0.7-2.2-1-3.4-0.9c-1.3,0.1-1.9-1-2.7-1.7c-0.3-0.3-0.4-0.7-0.7-0.9c-0.6-0.8-0.4-1.6-0.4-2.5c0.4-1.4,1.4-1.9,2.6-1.1
		c2.1,1.4,4.6,1.9,6.8,3.1C115.9,35.2,116.3,35.7,116.5,36.4z"/>
	<path class="st16" d="M109.5,16.3c-1.4-0.2-2.7-0.2-3.9-1.1c-0.7-0.5-2-0.5-2.9-0.4c-2.2,0.4-4.3,0.1-6.5,0.2
		c-0.7,0.5-1.5,0.6-2.1,0.2c-1.6-1.1-3.4-0.9-5.2-1c-0.6,0-1.2,0-1.8-0.3c-0.4-0.6-0.3-1,0.3-1.3c3-0.1,6,0.2,9-0.3
		c0.3,0,0.6,0.1,0.9,0.2c2.7,0.6,5.5,0.2,8.2-0.2C107,13.4,108.4,14.7,109.5,16.3z"/>
	<path class="st17" d="M107.2,54.9c0,1.6,0,3.2,0,4.9c0,1.8,0,3.7,0,5.5c0,2,0,4.1,0,6.1c0.6,1.4,0.6,1.9-0.4,2.4
		c-0.4-0.6-0.4-1.2-0.4-1.9c0-8.9,0-17.7,0-26.6c0-0.5,0-1,0.2-1.5c0.5-1,1.2-0.6,1.7-0.1c0.8,1,1.8,1.1,3,1.1
		c2.4-0.1,2.4-0.1,3,2.1c0.9-0.4,1.7-1.6,2.6-0.2c0,1.5,0,3.1,0,4.6c-1.1,0.7-2.1,0.4-2.8-0.4c-0.8-1-1.7-1.7-3-1.9
		c-0.2,0-0.4-0.2-0.6-0.4c-0.8-0.6-2-0.5-2.6-1.6c-0.6,1.4,0.2,2.8-0.6,4C107.2,52.3,107.2,53.6,107.2,54.9z"/>
	<path class="st18" d="M107,73.8c0.4-0.8,0.1-1.6,0.2-2.4c1.1-0.1,2,0,2.5,1.4c0.4,1,1.4,1.8,2.5,2.2c0.9,0.3,1.5,0.8,1.4,1.9
		c-0.2,1.1,1.1,1.2,1.5,1.8c0.6,0.7,1.1,1.4,1.5,2.2c0,1.7,0.1,3.5-0.3,5.2c-0.6-2.6-1.8-4.7-4.1-6.2c-0.5-0.3-0.8-0.8-0.9-1.3
		c-0.1-0.7-0.6-1.1-1.1-1.3c-1.4-0.7-2.3-1.9-3.2-3.1c-0.1-0.1-0.1-0.1-0.1-0.2C106.9,73.8,106.9,73.8,107,73.8z"/>
	<path class="st19" d="M85.2,5.4c0.1,0,0.2,0,0.3,0c0.6,0.2,1.3-0.1,1.9,0.2c3.1,0.1,6.2,0.7,9.1,1.8c-0.1,0.4-0.4,0.7-0.7,0.7
		c-2.1,0.1-3.9,1.3-6.1,0.8C87.9,8.5,86,9.1,84.1,9c-1.9,0-3.9,0.1-5.8,0c-0.8-0.2-1.3-0.7-1.1-1.6C77.7,7,78.2,7,78.8,7
		c0.9,0,1.7-0.1,2.3-0.8c0.5-0.5,1.2-0.4,1.8-0.4C83.7,5.8,84.5,5.9,85.2,5.4z"/>
	<path class="st20" d="M116.9,46.7c-0.9-0.4-1.8-0.7-2.1,0.7c-0.1,0.2-0.2,0.5-0.5,0.4c-0.4-0.1-0.6-0.5-0.6-0.8
		c0.2-2-0.8-2.1-2.4-1.8c-1.2,0.2-2.7,0.5-3.3-1.3c-0.1-0.3-0.6-0.5-1-0.5c-0.8-0.8-0.4-1.8-0.5-2.8c0.2-2.3,1.2-2.8,3-1.4
		c2.4,1.9,4.9,3.6,7.5,5.1C116.9,45.1,116.9,45.9,116.9,46.7z"/>
	<path class="st21" d="M64.5,5c2.9,0,5.9,0,8.8,0c0.6,1.2-0.2,1.5-1.1,1.6c-1.8,0-3.6-0.1-5.3,0.9C66.1,8,65,7.8,64.1,7.8
		S62.5,8,62,8.8c-1.2,0.5-2.4,0.2-3.6,0.3c-0.9,0-1.8,0.1-2.5,0.7c-0.6,0.5-1.4,0.5-2.2,0.5c-1.4,0-2.7,0-4.1,0
		c-0.4-0.1-0.9,0-1.3-0.3c0-1.3,0.3-1.7,1.8-1.7c1.2-0.1,2.4,0.1,3.3-1C54.2,7,54.9,7,55.5,7c1.6,0.1,3.1,0,4.5-0.9
		c0.8-0.4,1.7-0.3,2.5-0.4C63.3,5.8,64,5.7,64.5,5z"/>
	<path class="st22" d="M114.8,26.3c0.4,0.7,0.6,1.6,0.7,2.4c-1.7,0.6-3.5,0.9-5.1-0.4c-0.5-0.4-1-0.5-1.5-0.1c-1,0.7-1.7,0.4-2-0.7
		c-0.2-0.7-0.6-1-1.3-0.8c-0.5,0.1-0.9,0.1-1.3-0.2c-1-1.1-1.7-2.2-2.1-3.7c0-0.1,0.1-0.4,0.2-0.4c1.6,0.3,3.2-1,4.8,0.3
		c1.1,0.9,2.5,1.2,3.7,1.7C112.3,25,113.4,25.9,114.8,26.3z"/>
	<path class="st23" d="M10.1,22.7c0.2-0.6,0.4-1.1,0.8-1.6c2.1-0.6,4-1.5,5.9-2.5c0.1-0.1,0.3-0.1,0.4-0.2c2-1.3,4.3-2,6.1-3.6
		c1-0.2,1.9-0.3,2.7-1.1c0.6-0.6,1.5-0.3,2.3-0.3c0.8,0.1,1.6-0.1,2.3,0.3c0.5,1.2-0.5,2.6-2,2.9c-0.6,0.1-1.3,0.1-1.8,0.7
		c-0.4,0.4-0.9,0.6-1.5,0.6c-1,0-2,0-2.7,0.9c-0.1,0.1-0.2,0.1-0.3,0.1c-2.3-0.1-3.7,1.7-5.6,2.5c-1.8,0.4-3.6,0.6-5.3,1.3
		C11.2,22.9,10.6,23,10.1,22.7z"/>
	<path class="st24" d="M7,37.6c-0.1-1.2,0-2.5,0.3-3.7c1.5-1.5,3.3-2.6,5.4-3.1c1.4-0.3,2.6-1.1,3.9-1.9c0.7-0.4,1.3-0.8,1.9,0.2
		c0,1.4-0.3,2.6-0.9,3.8c-1,1-2.1,1.4-3.5,1.4c-1.9,0-3.5,0.8-4.3,2.7C9.3,38.1,8.5,38.2,7,37.6z"/>
	<path class="st25" d="M23.4,111.3c0.8-0.8,1.8-1,2.9-1c3.6,0.1,7.2,0,10.9,0c0.4,0.6,1,0.6,1.6,0.5c1.2-0.1,2.4,0.2,3.6,0.3
		c0.8,0.1,1.3,0.5,1,1.4c-0.3,0.5-0.9,0.6-1.3,0.4c-1.2-0.6-2.2-0.4-3.3,0.2c-3.9,0-7.8,0.4-11.7-0.4
		C25.8,112.5,24.5,112,23.4,111.3z"/>
	<path class="st26" d="M116.9,44.3c-2.3-0.5-4.1-2-5.9-3.4c-0.7-0.5-1.3-1.1-2-1.6c-0.5-0.4-1.1-0.7-1.7-0.4c-0.7,0.3-0.3,1-0.4,1.5
		c-0.3,0-0.5-0.2-0.5-0.4c-0.3-1.6-0.6-3.2,0.2-4.8c0.8,0.3,1.3,1.1,1.7,1.6c0.5,0.8,1,0.9,1.7,0.8c2.1-0.2,3.3,1.4,5,2
		c2.5,0.8,1.6,2.5,1.8,4c0,0.1,0.1,0.3,0.2,0.4C116.8,44.1,116.9,44.2,116.9,44.3z"/>
	<path class="st27" d="M7.6,31.5c0.1-1.4,0.3-2.7,0.9-4c0.3-0.1,0.6-0.3,0.9-0.3c1.7,0.1,2.7-0.8,3.9-1.9c1-0.9,2.4-1.4,3.7-1.8
		c0.9-0.3,1.8-0.6,2.6-1.2c0.8-0.5,1.6-1.4,2.7-0.5c-0.2,1.6-1.3,2.6-2.4,3.7c-0.4,0-0.8,0.2-1.1,0.5c-1.2,0.9-2.4,1.6-3.9,2.1
		c-1.9,0.7-4,1.2-5.5,2.8C8.9,31.4,8.4,32,7.6,31.5z"/>
	<path class="st28" d="M7.2,85.1C6.9,84.3,7,83.5,7,82.6c0.5-1.3,1.5-1.8,2.8-1.7c1.2,0.1,2.4,0,3.6-0.8c1-0.7,2.3-0.4,3.5-0.3
		c0.9,1.3,0.7,2.7,0.2,4.1c-1.1,0.7-2.2,0.4-3.4,0.4c-1.1,0-2,0.2-3,0.8C9.7,85.8,8.4,85.8,7.2,85.1z"/>
	<path class="st29" d="M114.8,26.3c-0.9,0-1.7,0.1-2.3-0.8c-0.1-0.2-0.5-0.4-0.8-0.4c-0.9,0-1.8,0.1-2.3-1c-0.1-0.2-0.5-0.2-0.8-0.2
		c-0.7,0-1.3-0.1-1.8-0.8c-0.5-0.7-1.3-1-2-0.2c-0.4,0.5-0.8,0.3-1.2,0c-0.4-0.3-1-0.8-1.3,0.1c-1.2-0.3-2-1-2.2-2.3
		c0.7-1,1.5-1.2,2.5-0.3c0.7,0.6,1.7,0.9,2.5,0.7c1.4-0.3,2.7,0,4,0c1.2,0.4,2.4,1.2,3.7,0.4C113.7,23,114.5,24.6,114.8,26.3z"/>
	<path class="st30" d="M116.5,36.4c-1.5-1.1-3.1-2-4.9-2.5c-1-0.3-2.3-0.7-3.2-1.6c-0.9-0.9-1.8-0.6-2.2,0.5c-1.2-1-1-2.4-1.1-3.7
		c0.6-1,1.4-0.8,2.2-0.4c1.9,0.9,3.9,1.5,5.9,2.2c1.2,0.4,2.2,1.1,3,2.1C116.3,34.1,116.4,35.2,116.5,36.4z"/>
	<path class="st31" d="M22.2,22.1c-1.1-0.7-1.8,0.3-2.5,0.7c-0.3,0.2-0.5,0.7-0.9,0.7c-1.7,0-2.9,1.6-4.6,1.6c-1,0-1.2,1.1-1.5,1.6
		c-0.7,1-1.5,0.9-2.3,0.8c-0.6,0-1.2,0.3-1.7,0c0.1-1.1,0.4-2.1,0.9-3c0.5,0.1,1.1,0.2,1.6-0.2c0.8-0.6,1.6-0.8,2.5-0.8
		c1,0,1.6-0.9,2.6-1.1c2.3-1.2,4.8-1.9,7-3.4c0.8-0.6,1.7-1,2.6-0.1C24.9,20.4,23.9,21.6,22.2,22.1z"/>
	<path class="st32" d="M105.6,90.2c0.9,0.2,1.5,0.7,1.6,1.7c0.1,0.9,0.7,1.6,1.2,2.2c1.7,1.9,2.4,4.2,2.4,6.7c0,0.3,0.2,0.7,0.3,1
		c-0.2,0.3-0.4,0.6-0.6,0.9c-0.3,0.3-0.7,0.3-0.9,0c-0.5-1-1.3-1.8-1.6-2.9c-0.4-1.6-1.1-3.1-2.3-4.2c-0.7-0.7-1.1-1.5-1.3-2.5
		C104.5,92,104.5,90.9,105.6,90.2z"/>
	<path class="st33" d="M7.6,31.5c1.4-0.2,2.1-1.4,3.1-2.1c0.5-0.4,0.8-0.6,1.4-0.6c0.7,0,1.5,0.2,1.6-0.9c0-0.3,0.4-0.4,0.6-0.3
		c1.9,0.4,2.9-0.9,4.1-2c0.3-0.3,0.8-0.7,1.3-0.1c0.1,1.5-0.3,2.7-1.5,3.7c-0.4-0.4-0.9-0.5-1.2-0.1c-0.5,0.8-1.5,0.7-2,1.1
		c-1.8,1.5-4.4,1.2-6.1,2.8c-0.5,0.4-0.8,1.3-1.7,1.1C7.3,33.1,7.3,32.3,7.6,31.5z"/>
	<path class="st34" d="M84.3,8.7c1.5-0.1,3,0,4.5-0.3c0.9-0.2,2,0.1,3,0.3C93,8.9,93.4,7.6,94,7.6c0.8,0.1,1.6,0.6,2.4-0.2h0.1
		c1.5,0.3,3,1,4.3,1.8c-1.7-0.7-3.1,0.7-4.7,0.8c-1.3,0.1-2.9-0.2-4.1,0.8c-0.1,0.1-0.2,0.1-0.3,0c-2.3-1.7-4.8-0.2-7.2-0.7
		c-0.5-0.1-1.1,0-1.7,0c-0.4,0.8-1,1.2-1.9,0.7c-0.3-1.1,0.6-1.1,1.2-1.3C83,9.4,83.8,9.4,84.3,8.7z"/>
	<path class="st35" d="M9.7,96.4c-0.5-0.8-0.8-1.6-0.9-2.5c0.4-0.4,0.9-0.4,1.4-0.4c0.6,0,1.2-0.1,1.6-0.6c0.1-0.1,0.2-0.3,0.4-0.3
		c2.2,0.1,3.8-1.7,6-1.6c1.2,0.8,1.4,2,1.4,3.4c-0.9,1.2-2.4,0.9-3.7,1.1c-1.1,0.2-2.1,0.2-3.1,0.9C11.9,97,10.7,97,9.7,96.4z"/>
	<path class="st36" d="M116.2,33c-1.7-1.4-3.8-1.8-5.7-2.7c-1.3-0.6-2.8-0.7-4.1-1.5c-0.3-0.2-0.8-0.1-1.1,0.3
		c-1.1-0.6-1.3-1.6-1.1-2.7c0.5,0.1,0.9,0.3,1.4,0c0.8-0.5,1.4-0.3,1.5,0.8c0.1,1,0.1,2.1,1.4,0.7c0.5-0.5,1.7-0.5,1.9,0
		c0.6,1.5,1.8,0.9,2.8,1c0.7,0.1,1.4,0,2.1,0C116,30.1,116.1,31.6,116.2,33z"/>
	<path class="st37" d="M72.2,6.2C73.1,6.3,73.6,6,73.4,5c4-0.2,7.9,0.1,11.9,0.3c-0.4,1.1-1.3,0.8-2.2,0.9c-0.9,0-1.8-0.2-2.3,0.9
		c-0.2,0.6-1.1,0.2-1.7,0.3c-0.6,0-1.2,0-1.8,0c-0.9,0.5-1.8,0.8-2.6,1.4c-0.8,0.6-1.7-0.2-2.6-0.3c-0.8-0.1-1.6,0.2-2.4-0.1
		c-0.4-0.9,0.2-1.2,0.9-1.3C71.2,7,71.8,6.8,72.2,6.2z"/>
	<path class="st38" d="M41.1,5.3c2.7-0.4,5.5-0.3,8.2-0.2c0.4,0.5,0.4,1.2-0.1,1.3c-1.8,0.3-3.1,2-5,1.6c-1.3,0-2.4,0.1-3.6,0.9
		c-1.1,0.8-2.7,0.3-4,0.3c-0.5-0.1-1.1,0-1.6-0.3c-0.3-0.4-0.3-0.8-0.1-1.3c1.8-0.4,3.2-1.8,5.2-1.7C40.4,5.8,40.8,5.5,41.1,5.3z"/>
	<path class="st39" d="M27.1,112.8c4.1,0,8.1,0,12.2,0c0.8,0.6,1.7,0.8,2.7,0.8c1.5,0,2.9-0.1,4.4,0c1,0.1,1.7,0.4,1.4,1.6
		c-6.4,0-12.8-0.1-19-1.8C28.2,113.3,27.6,113.2,27.1,112.8z"/>
	<path class="st40" d="M7,37.6c1.3,0.1,2.1,0,2.8-1.6c0.5-1.3,2.1-2.1,3.7-2.1c1.5,0.1,2.8-0.2,3.9-1.2c0.6,0.9,0.5,1.7,0,2.5
		c-1.6,1.4-3.7,1.9-5.6,2.9c-1,0.5-1.9,0.9-2.9,1.4S7.3,41,7.4,42.2c-0.1,0.2-0.2,0.4-0.5,0.5C6.7,41,6.9,39.3,7,37.6z"/>
	<path class="st41" d="M35,7.4c0,0.4,0,0.8,0,1.2c-0.7,0.6-1.5,0.4-2.3,0.5C31.5,9,30.2,9,29.3,10c-0.1,0.1-0.3,0.2-0.4,0.2
		c-2.2-0.2-3.9,1.2-6,1.4c-0.8,0.1-1.4,0.3-2.1,0.8c-1,0.8-2,0.9-3.1,0.2c1.8-1.7,3.9-3.1,6.3-4c0.8-0.3,1.5-0.4,2.3-0.4
		c0.7,0,1.3-0.2,1.9-0.7c1-0.7,2.1-0.5,3.2-0.5C32.6,7.1,33.9,6.6,35,7.4z"/>
	<path class="st42" d="M6.8,47.6c0-0.8,0-1.6,0-2.4c0-0.9,0.5-1.3,1.4-1.8c1.7-0.9,3.7-1,5.3-2.2c0.9-0.6,2.2-0.9,3.4-0.5
		c0.4,0.6,0.3,1.3,0.1,2c-1.8,0.9-3.4,2-5.3,2.8c-1.1,0.5-2.2,1.2-3.1,2C7.9,47.9,7.4,48.1,6.8,47.6z"/>
	<path class="st43" d="M31.1,103.7c-1.5,0.5-3.1,0.1-4.6,0.2c-0.6,0-1.3-0.1-1.6,0.8c-0.2,0.5-0.7,0.5-1.2,0.5c-1.3,0-2.6,0-4,0
		c-0.6,0-1.3-0.1-1.5,0.8c-0.1,0.5-0.6,0.5-1,0.2s-0.9-0.5-1.4-0.4c-0.1-0.1-0.2-0.2-0.3-0.3c-0.3-1.4-0.1-1.8,1.2-2
		c0.6-0.1,1.2-0.1,1.8-0.1c0.4,0,0.9,0.1,1.2-0.1c1.9-1.7,4.2-0.9,6.3-1.1c0.5,0,1.1,0,1.7,0C29,102.4,30.2,102.7,31.1,103.7z"/>
	<path class="st44" d="M6.7,60.1c0-0.7,0-1.4,0-2.1c0.7-1.1,1.6-2,3-2c0.5,0,0.9-0.2,1.2-0.5c0.9-0.7,1.9-1.1,3-0.9
		c1,0.1,1.6-0.8,2.5-1c0.2,0,0.3,0.1,0.4,0.2c0.3,0.5,0.2,1,0.1,1.5c-0.6,2.6-0.8,2.9-3.4,2.8c-2.1-0.1-3.5,1-5.1,1.9
		C7.9,60.4,7.4,60.6,6.7,60.1z"/>
	<path class="st45" d="M72.2,115.2c-1.2,0-2.4,0-3.7,0c-1-1-1.9-2.2-3.5-2.2c-0.7,0-0.9-0.9-1.4-1.3c-0.5-0.5-0.9-1.2-1.4-1.8
		c-0.3-0.3-0.7-0.8-0.3-1.3c0.4-0.3,0.9-0.3,1.4-0.3c1.2,0,2.3,0.2,3,1.3c0.9,0.7,1.7,1.4,2.9,1.7c1.4,0.4,2.1,1.9,3,3
		C72.5,114.6,72.4,114.9,72.2,115.2z"/>
	<path class="st46" d="M16.8,40.6c-2.3,0.2-4.1,1.9-6.4,2.2c-1,0.1-1.8,1.2-3,1.2c-0.5,0-0.2,0.8-0.6,1.1c0-0.8,0-1.6,0.1-2.4
		c0-0.1,0.1-0.1,0.1-0.2c1.1-1.6,3.1-1.8,4.5-2.8c1.3-1,3.1-1,4.4-2.1c0.4-0.4,0.9-0.3,1.4,0.1C17.5,38.7,17.8,39.8,16.8,40.6z"/>
	<path class="st47" d="M48.4,110c0.8,0.1,1.3-0.2,1.5-0.9c0.1-0.1,0.3-0.3,0.4-0.2c1.4,1,3.2,0.6,4.5,1.7c0.7,0.6,1.5,0.4,2.3,0.6
		c1.6,0.7,2.9,2,4.7,2.5c0.7,0.2,0.8,0.8,0.4,1.4c-1.2,0-2.4,0-3.7,0c-1.6-0.8-3-2.1-5-2c-0.7,0-1.3-0.1-1.8-0.7
		c-0.4-0.5-1.1-0.5-1.7-0.7c-0.2-0.1-0.3-0.2-0.4-0.3C49.9,110.5,49,110.4,48.4,110z"/>
	<path class="st48" d="M13.1,102.7c-0.3-0.4-0.6-0.8-0.9-1.2l0.1-0.1c1.7-0.2,3.1-0.8,4.5-1.7c1.4,0.1,2.7-0.4,4-0.3
		c0.8,0.1,1.2-0.7,1.9-0.8c1.2,0.7,2.7,1.2,2.7,3c-1.1,0.6-2.3,0.3-3.4,0.4c-1,0-1.9,0.3-2.8,0.7C17.3,103.6,15.2,103.5,13.1,102.7z
		"/>
	<path class="st49" d="M17.7,12.6c1.8,0.6,2.9-1.2,4.4-1.3c2.3-0.1,4.2-1.9,6.5-1.5c0.2,0,0.5-0.1,0.5-0.2c0.8-1.5,2.2-0.9,3.4-1
		c0.1,1.2-0.7,1.5-1.7,1.6c-1.5,0.1-2.7,0.5-3.6,1.9c-0.6,1-1.8,0.4-2.7,0.8c-1,0.1-2.1,0.1-2.8,1.1c-0.2,0.3-0.7,0.3-1.1,0.3
		c-1.3,0.1-2.7-0.2-3.8,1c-0.4,0.4-1.1,0.3-1.6-0.2C15.9,14.1,16.8,13.3,17.7,12.6z"/>
	<path class="st50" d="M16.6,53.7c-0.1,0-0.1,0-0.2,0c-0.9-1-2.8-1.2-3.9-0.3c-0.8,0.7-1.7,1-2.8,1c-0.5,0-1,0.2-1.4,0.5
		c-0.5,0.3-1,0.7-1.7,0.3c0-0.5,0-1,0-1.5c1.7-1.7,4.1-2.3,5.9-3.8c0.3-0.2,0.7-0.2,1-0.2c1.8-0.2,2.1-0.5,2.4-2.3
		c0.2-0.4-0.1-1.2,0.9-0.8c0.6,2.1,0.3,4.3,0.2,6.4C17.1,53.3,16.9,53.6,16.6,53.7z"/>
	<path class="st51" d="M18.3,91.2c-0.3,0.4-0.8,0.3-1.3,0.3c-0.3,0-0.8,0-0.9,0.1c-0.6,1.7-2,1-3,1.1c-0.2,0-0.5,0-0.6,0.1
		c-0.8,1.7-2.4,1-3.7,1.1c-0.4-0.8-0.6-1.6-0.7-2.4c2.4-0.8,4.8-1.8,7.3-2.2c1-0.2,1.8,0.4,2.6,0.7C18.5,90.3,18.6,90.7,18.3,91.2z"
		/>
	<path class="st52" d="M101.4,110.7c-0.8,0.6-1.6,1-2.5,1.2c-1.1,0.2-2.2,0.2-2.2-1.4c-0.2-1.9-0.5-3.8-2-5.3
		c-0.6-0.6-0.6-1.4-0.5-2.1c0.3-0.6,0.8-0.8,1.4-0.8c0.8,0.9,2,1.6,2,3c0,0.5,0.6,0.6,0.9,0.9C99.8,107.6,101.2,108.7,101.4,110.7z"
		/>
	<path class="st53" d="M47.8,115.2c-0.2-0.9-0.7-1.3-1.7-1.2c-1.8,0.1-3.5,0-5.3,0c-0.9,0-1.4-0.3-1.5-1.2c0.6-0.9,1.3-1.2,2.3-0.3
		c0.4,0.4,1.1,0.4,1.7,0.3c2-0.9,4.2-0.4,6.2-0.4c1.1,0.7,2.3,1.2,3.8,1.2c0.9,0,1.6,0.5,1,1.6C52.1,115.2,49.9,115.2,47.8,115.2z"
		/>
	<path class="st54" d="M6.7,55.2c1.5-0.4,2.7-1.6,4.4-1.3c0.2,0,0.4-0.1,0.5-0.3c1-1.8,2.8-1,4.2-1.2c1-0.2,0.4,0.9,0.6,1.3
		c-0.8,1-1.9,1.4-3.2,1.2c-0.5-0.1-1,0.1-1.4,0.4c-0.9,0.7-1.7,1.2-3,1.2c-0.9,0-1.2,1.3-2.2,1.5C6.7,57.1,6.7,56.2,6.7,55.2z"/>
	<path class="st55" d="M104.7,92.9c0.4,1.2,0.7,2.4,2.1,2.9c0.4,0.1,0.3,0.5,0.3,0.8c0,0.6,0,1.2,0.8,1.4c0.4,0.1,0.5,0.5,0.4,0.9
		c-0.4,1.6,1.2,2.3,1.4,3.7c0,0.1,0.4,0.1,0.7,0.2c-0.4,0.9-1.2,1.4-1.8,2.1c-1.1-0.3-1.9-0.9-1.9-2.1c0-0.9,0.1-1.8-0.9-2.4
		c-0.3-0.2-0.3-0.6-0.3-1c0.1-1.7-1-2.9-2-4.1C103.3,94.2,103.7,93.4,104.7,92.9z"/>
	<path class="st56" d="M6.8,47.6c0.7,0,1.2,0,1.7-0.8c0.4-0.7,1.6-1.2,2.4-1.4c1.9-0.6,3.3-1.9,5.1-2.5c0.2-0.1,0.5,0,0.8,0
		c0.7,0.7,0.5,1.5,0.3,2.3c-2.4,0.6-3.9,2.7-6.4,3.2c-1.3,0.2-2.5,1.3-3.8,1.9C6.8,49.3,6.8,48.4,6.8,47.6z"/>
	<path class="st57" d="M107.2,102.7c-0.4,1.3,1.3,1.2,1.5,2.1c-0.4,1-1.3,1.5-2.1,2.1c-1.2-0.8-2.2-1.7-2.2-3.3
		c0-0.9-0.2-1.7-1.1-2.2c-1.4-0.8-1.3-2.3-1.7-3.6c0.3-1,0.6-1.8,1.8-2c0.8,1.3,1.8,2.5,1.9,4.2
		C105.3,101.3,106.5,101.9,107.2,102.7z"/>
	<path class="st58" d="M18,90.3c-1.8-1.2-3.7,0.1-5.5,0c-0.2,0-0.5,0-0.6,0.2c-1,1.4-2.4,1-3.8,1c-0.3-0.4-0.3-0.8-0.3-1.2
		c1.3-1.1,2.9-1.8,4.4-2.6c1.6-0.9,3.4-0.5,5.2-0.3C18.3,88.2,18.3,89.2,18,90.3z"/>
	<path class="st59" d="M7.2,85.1c1.5-0.1,2.9,0.2,4.3-1c0.7-0.6,2.3-0.2,3.5-0.2c0.7,0,1.3,0,2,0c0.4,0.3,0.4,0.7,0.2,1.1
		c-0.5,0.5-1.3,0.9-1.9,0.8c-1.2-0.1-1.9,0.5-2.7,1.1c-1.3,1-2.8,1-4.3,1.1c-0.6,0.1-0.9-0.2-1-0.8C7.3,86.5,7.3,85.8,7.2,85.1z"/>
	<path class="st60" d="M112.9,21.5c-1.2,1.8-2.4,0.4-3.6,0c-1.4-0.2-2.5-1.1-3.9-1.2c-0.9-0.1-1.1-0.7-0.6-1.5c0.7,0,1.5,0,2.2,0
		c0.6,0,1.3,0.1,1.6-0.7c0.2-0.8,1.2-0.2,1.7-0.7C111.5,18.4,112.2,19.9,112.9,21.5z"/>
	<path class="st61" d="M6.8,50.1c0.6-0.6,1.5-0.9,2-1.3c1.8-1.5,4.5-1.2,5.9-3.2c0.5-0.7,1.3-0.2,2-0.3c0.4,0.4,0.4,0.8,0,1.2
		c-0.3,0.4-0.2,0.8-0.2,1.2c-1.7,0.6-3.3,1.3-4.6,2.6c-0.1,0.1-0.2,0.1-0.3,0.1c-2.1-0.5-3.3,1.3-4.8,2.2
		C6.7,51.7,6.7,50.9,6.8,50.1z"/>
	<path class="st62" d="M16.8,79.8c-0.5,0.6-1.1,0.3-1.7,0.4c-0.8,0.1-1.8-0.2-2.1,0.9c-0.1,0.3-0.5,0.3-0.8,0.3
		c-0.6,0-1.1,0.1-1.7,0C9.1,81.1,8,81.7,7,82.6c0-0.4,0-0.8,0-1.2c0.4-1,1.2-1.4,2.2-1.7c1.3-0.4,2.6-1.1,3.7-1.8
		c1-0.6,2.2-0.8,3.3-1.2c0.2-0.1,0.5,0,0.7,0.3C17.3,78,17.4,78.9,16.8,79.8z"/>
	<path class="st63" d="M63.6,111.6c0.2,0.1,0.7,0.1,0.7,0.2c0.2,1.2,1.2,0.9,2,1.1c1.1,0.3,2,1.1,2.2,2.4c-1.3,0-2.6,0-4,0
		c-1.3-1.7-3.3-2.4-5.1-3.4c-1.4-0.8-2.2-2.2-3.6-3.1c0.1-1.1,0.6-1.2,1.4-0.7c0.5,0.3,1,0.7,1.4,1.2c0.3,0.4,0.6,0.8,1.1,0.7
		C61.5,109.6,62.5,110.6,63.6,111.6z"/>
	<path class="st64" d="M6.8,71.4c0-0.8,0-1.6,0-2.4c0.4-0.7,0.9-1.4,1.7-1.4c2.2-0.1,3.8-1.6,5.8-2.1c0.8-0.2,1.6-0.8,2.2-0.1
		c0.7,0.7,0.6,1.7,0.1,2.5c-1.9,0.1-3.4,1.2-5.1,1.6c-0.9,0.7-1.9,1.3-3.2,1.2c-0.5-0.1-0.8,0.4-1.1,0.7C7,71.4,6.9,71.5,6.8,71.4z"
		/>
	<path class="st65" d="M104.7,108.5c-0.3,0.2-0.6,0.5-0.9,0.7c-0.6,0.1-0.6-0.4-0.7-0.7c-0.2-1.3-1-2.3-2.1-3
		c-0.4-0.2-0.6-0.5-0.8-0.9c-0.5-1.2-1.1-2.4-1.9-3.6c0.3-1.1,0.9-1.9,2.1-2.1c1.5,1.8,3.4,3.4,3.3,6.1c0,0.5,0.3,0.9,0.6,1.2
		C105.2,106.9,105.3,107.7,104.7,108.5z"/>
	<path class="st66" d="M87.5,114.6c-1.3,0.4-2.7,0.3-4,0.3c-0.2-0.3-0.5-0.4-0.9-0.5c-1.1-0.1-1.8-0.7-1.9-1.8
		c-0.1-0.5-0.5-0.7-0.8-1c-0.1-0.1-0.2-0.2-0.3-0.4c-0.4-0.9-1.4-1.5-1.9-2.3c-0.3-0.6-0.8-1.1-0.3-1.8c1.4-0.4,2.2,0.9,3.1,1.4
		c1,0.6,2,1.2,3.1,1.7C83.9,112.6,85.4,113.9,87.5,114.6z"/>
	<path class="st67" d="M96.2,112.8c-0.5,0.4-1.1,0.6-1.8,0.6c-0.7,0.1-1.2-0.2-1.2-0.8c-0.3-2.3-2-3.5-3.5-4.9c-0.5-0.8-1.2-1.5-2-2
		c-1.2-0.8-0.5-1.1,0.3-1.4c1.1-0.2,2.1-0.7,3.2-0.5c0.4,0.9,1.5,1.4,1.4,2.6c-0.1,1.1,0.2,2.1,1.1,2.8c0.8,0.6,1.2,1.6,2,2.2
		C96.3,111.8,96.3,112.3,96.2,112.8z"/>
	<path class="st68" d="M6.8,71.4c0.1,0,0.2,0,0.3,0c1-0.8,2.2-0.3,3.3-0.5c1-1,2.3-1.3,3.6-1.1c1.1,0.2,1.7-0.7,2.6-0.9
		c0.9,0.7,0.7,1.6,0.4,2.4c-0.1,0.2-0.2,0.3-0.4,0.3c-2.4,0.5-4.8,1.3-7,2.4c-0.9,0.4-1.9,0.4-2.8,0.1C6.8,73.2,6.8,72.3,6.8,71.4z"
		/>
	<path class="st69" d="M13.1,102.7c1.4,0,2.7,0,4.1,0c0.9,0,1.8,0.2,2.3-0.9c0.2-0.5,0.9-0.2,1.4-0.3c1.5-0.2,3.1,0.4,4.6-0.3
		c1,0.1,1.8,0.5,2.4,1.3c-1.9,0.5-3.9,0.1-5.8,0.2c-0.6,0-1.3-0.2-1.5,0.8c-0.1,0.5-0.6,0.4-1,0.4c-0.9,0-1.7,0.1-2.6,0
		c-1.2-0.1-1.7,0.5-1.6,1.6C14.5,104.8,13.8,103.8,13.1,102.7z"/>
	<path class="st70" d="M6.8,74.1c0.5-0.3,1.1-0.2,1.6-0.3c1.6-0.5,3.3-1,4.8-1.6c1.2-0.5,2.2-0.7,3.3-0.7c0.9,1.9,0.4,2.8-1.6,2.8
		c-0.9,0-1.8,0.1-2.5,0.7c-0.4,0.3-0.8,0.5-1.3,0.4c-1.4-0.1-2.5,0.4-3.7,1c-0.2,0-0.3,0-0.5-0.2C6.8,75.5,6.8,74.8,6.8,74.1z"/>
	<path class="st71" d="M7.4,87.2c1.3,1,2.7,0.3,3.9,0c0.8-0.2,1.7-0.7,2.3-1.5c0.1-0.2,0.4-0.4,0.4-0.4c1.1,0.8,2-0.6,3.1-0.2
		c1.1,0.7,0.8,1.5,0.3,2.4c-0.9,0-1.8,0-2.7,0c-1.1,0-2,0.5-3,0.9c-1.3,0.6-2.2,2-3.8,1.8C7.5,89.3,7.4,88.3,7.4,87.2z"/>
	<path class="st72" d="M6.7,63.8c0-0.8,0-1.6,0-2.4C7,61.1,7.2,61,7.5,61c2.2,0.1,3.8-1.2,5.6-2.1c1.1-0.6,2.2-0.5,3.3,0
		c0.5,1.7-0.2,2.9-1.9,3c-1,0.1-1.8,0.4-2.7,0.8c-1.3,0.7-2.9,0.7-4.2,1.5C7.4,64.2,7,64,6.7,63.8z"/>
	<path class="st73" d="M16.4,58.9c-0.7,0-1.3,0-2,0c-0.2,0-0.5-0.1-0.6,0c-0.8,1.3-2.6,0.8-3.4,1.9c-0.5,0.7-1.2,0.4-1.8,0.5
		c-0.7,0-1.3,0-2,0c0-0.4,0-0.8,0-1.2c0.7,0,1.5,0.2,1.6-0.9c0.1-0.4,0.6-0.3,0.9-0.3c0.3,0,0.8,0,0.9-0.1c0.8-1.6,2.3-1,3.5-1.1
		c2.5-0.1,2.5,0,3-2.5c0.9,1.1,0.6,2.3,0.3,3.5C16.8,58.9,16.6,59,16.4,58.9z"/>
	<path class="st74" d="M64.5,5c0.1,0.9-0.3,1.3-1.2,1.2c-1.7-0.1-3.2,0.3-4.7,1s-3.4,0.1-5.1,0.2c-0.1,0.1-0.3,0.1-0.4,0
		c-0.3-0.7,0-1.1,0.6-1.5c0.5-0.3,1-0.5,1.3-0.9C58.3,5,61.4,5,64.5,5z"/>
	<path class="st75" d="M82.5,114.9c-1.9,0.4-3.9,0.2-5.8,0.2c-1.6-1.9-3.2-3.8-5.3-5.2c-0.1-0.6,0.2-0.9,0.7-1.1
		c0.8-0.1,1.6-0.4,2.4-0.2c0.5,0.7,1.1,1.3,2,1.6c0.7,0.2,0.9,0.7,1.1,1.4c0.5,1.8,2.1,2.4,3.7,2.9
		C81.7,114.5,82.2,114.5,82.5,114.9z"/>
	<path class="st76" d="M6.8,76.3c0.1,0,0.1,0,0.2,0c0.8,1.7,0.8,1.6,2.8,1.2c1.6-0.4,2.9-1.4,4.6-1.5c0.8,0,1.6-0.3,2.4,0.2
		c0.1,0.2,0.1,0.5-0.1,0.7c-2,0.4-4,1.3-5.5,2.4c-1.4,1-3.4,0.4-4.2,2.2C6.7,79.7,6.7,78,6.8,76.3z"/>
	<path class="st77" d="M6.7,52.5c0.8-1.9,2.1-2.6,4.1-2.5c0.2,0,0.7,0,0.7-0.1c0.2-1.5,2.1-0.9,2.6-2c0.4-0.7,1.5-0.2,2.3-0.3
		c-0.2,1.7-0.9,2.4-2.5,2.4c-0.6,0-1.2-0.1-1.6,0.8c-0.4,0.8-1.6,0.4-2.3,1.2c-0.6,0.6-1.8,0.5-2.1,1.6c0,0.1-0.8,0.1-1.2,0.1
		C6.7,53.3,6.7,52.9,6.7,52.5z"/>
	<path class="st78" d="M72.2,115.2c-0.2-1.4-2.5-3.6-3.8-3.6c-1.2,0-1.3-1.4-2.3-1.6c0.2-0.3,0.3-0.7,0-1.1
		c-0.4-0.6-0.2-1.1,0.3-1.5c1-0.2,1.3,1.1,2.2,1.1c2.4,1.3,4,3.6,6,5.3c0.4,0.3,0.4,0.8,0,1.2C73.8,115.2,73,115.2,72.2,115.2z"/>
	<path class="st79" d="M6.7,67.4c0-0.7,0-1.4,0-2.1c1.2-1.1,2.5-2,4.2-1.9c0.8,0,1.5-0.2,2.2-0.7c1-0.8,2.2-0.7,3.3-0.2
		c0.7,1.1,0.2,1.8-0.7,2.4c-0.4,0.2-0.8,0.5-1.3,0.5C11.7,65.4,9.3,66.8,6.7,67.4z"/>
	<path class="st80" d="M11.5,100.3c-0.6-0.7-0.9-1.6-1.2-2.4c0.4-0.8,1.1-0.8,1.8-0.8c1.6,0,3,0,4.5-0.9c1-0.6,2.4-0.5,3.7-0.5
		c0.8,0.2,1.2,0.7,1.2,1.5C21,98.3,19.9,98,19.1,98c-1,0-1.6,0.3-2,1.2c-0.3,0.2-0.7,0.3-1,0.3C14.5,99.4,13,99.6,11.5,100.3z"/>
	<path class="st81" d="M55.1,5c0.1,0.7-0.3,1-0.9,1.1c-0.7,0.2-1,0.6-0.9,1.3c-0.9,0.7-2,0.4-3.1,0.4c-1.3,0-2.6,0-3.7,0.9
		c-0.5,0.4-1.2,0.4-1.9,0.1C44.1,8.4,44,8,44.2,7.4c1-0.1,2.2,0.3,2.8-1c0.2-0.4,0.8-0.2,1.3-0.2c0.9,0.1,1.2-0.4,1.1-1.2
		C51.3,5.1,53.2,5,55.1,5z"/>
	<path class="st82" d="M101.4,110.7c-0.6-0.9-1.3-1.8-1.9-2.7c-0.2-0.3-0.4-0.6-0.6-0.8c-1-0.7-2-1.2-1.9-2.8c0-0.3-1.2-1-1.3-1.8
		c0.5-1,1.4-1.4,2.5-1.4c1,2.4,2.6,4.6,3.3,7.1c0.2,0.7,0.8,1.2,1,1.9C102.1,110.3,101.8,110.5,101.4,110.7z"/>
	<path class="st83" d="M20.5,96c-1.2,0.1-2.3,0.5-3.5,0.4c-0.1,0-0.2,0-0.3,0c-1.5,1.8-3.6,1-5.5,1.2c-0.3,0-0.7,0.2-1,0.3
		c-0.4-0.4-0.5-1-0.6-1.5c1.4-0.1,2.7,0.1,4-1c0.9-0.8,2.8-0.4,4.2-0.5c0.6,0,1.2-0.1,1.6-0.6C20.4,94.5,20.4,95.3,20.5,96z"/>
	<path class="st84" d="M102.4,110.1c-0.8-0.4-1.4-1-1.4-2c0-1.2-0.9-2-1.4-2.9c-0.8-1.3-1.2-2.6-1.6-4c0-0.4,0.3-0.4,0.6-0.4
		c0.8,0.8,1.4,1.6,1.7,2.7c0.3,1.1,1.2,1.6,2,2.2c1,0.9,1.3,2.2,1.6,3.5C103.5,109.6,103,109.9,102.4,110.1z"/>
	<path class="st85" d="M92.3,114c-0.7,0.3-1.4,0.4-2.1,0.3c-0.8,0-0.9-0.8-1.1-1.2c-0.6-1.4-2-2.3-2.3-3.9c0-0.6-0.3-1-0.6-1.4
		c-0.4-0.4-0.6-0.9-0.2-1.5c0.4-0.3,1-0.4,1.2,0c0.8,1.5,2.5,2,3.4,3.4c0.3,0.6,0.7,1.1,0.9,1.7c0.1,0.4,0.4,0.8,0.8,1
		C92.6,113,92.7,113.4,92.3,114z"/>
	<path class="st86" d="M104.7,108.5c0-0.9,0.3-1.9-1-2.2c-0.1,0-0.2-0.4-0.2-0.7c-0.2-1.1,0.2-2.2-1-3.3c-0.7-0.7-1.5-2-2-3.2
		c-0.1-0.9,0.3-1.2,1.2-1.2c0.2,0.4,0.7,0.8,0.6,1.3c-0.1,1.1,0.6,1.8,1.4,2.1c1,0.4,1.1,1,1.1,1.8s-0.4,1.8,0.9,2.2
		c0.5,0.2,0,1.3,0.8,1.6C106.1,107.7,105.5,108.1,104.7,108.5z"/>
	<path class="st87" d="M6.7,67.4c0.3-0.4,0.5-0.9,1.2-1c2.3-0.1,4.2-1.7,6.7-1.5c1.2,0.1,2.1-0.9,1.8-2.3c-0.3-0.5-0.5-1,0.4-1.2
		c0.6,2.1,0.5,4.1,0.1,6.2c-0.1,0.2-0.3,0.2-0.5,0.1c0-2.7,0-2.7-2.4-1.8c-1.1,0.4-2.3,0.6-3.1,1.5c-0.1,0.2-0.5,0.3-0.7,0.2
		c-1.5-0.3-2.5,0.6-3.6,1.2C6.7,68.4,6.7,67.9,6.7,67.4z"/>
	<path class="st88" d="M16.6,61.3c-0.3,0.4-0.1,0.8-0.2,1.2c-1.3,0.1-2.8-0.5-3.6,1.1c0,0.1-0.3,0.1-0.4,0.1
		c-2.2-0.5-3.8,0.9-5.7,1.5c0-0.5,0-1,0-1.5c0.7,0.1,1.4-0.1,1.9-0.6c0.4-0.5,1-0.7,1.6-0.6c0.8,0.1,1.5,0,2-0.9
		c0.3-0.6,1-0.3,1.5-0.3c2.1,0,2.4-0.3,2.7-2.4c0.1,0,0.1,0,0.2,0C17.4,59.7,17.4,60.5,16.6,61.3z"/>
	<path class="st89" d="M87.1,109.1c0,0.3,0,0.8,0.1,0.9c1.8,0.3,1.1,2.4,2.4,3c0.5,0.3,0.1,1,0.6,1.3c-0.6,0.3-1.2,0.3-1.8,0.3
		c-1.2-0.7-2.4-1.3-3-2.7c-0.3-0.6-0.6-1.1-0.9-1.7c-0.1-0.1-0.1-0.3-0.1-0.4c0-0.4,0-0.8,0.4-1.1C85.6,108.4,86.4,108.6,87.1,109.1
		z"/>
	<path class="st90" d="M54.2,115.2c0.2-1.1-0.4-1.3-1.3-1.2c-1.3,0.2-2.5,0-3.2-1.2c-0.2-0.5,0-0.9,0.3-1.2c0.8,0.1,1.8-0.3,2.3,0.9
		c0.3,0.7,1.2,0.2,1.8,0.3c0.8,0.1,1.8-0.4,2.2,1c0.1,0.4,0.7,0.3,1.1,0.3c0.9-0.1,1.3,0.3,1.2,1.2C57,115.2,55.6,115.2,54.2,115.2z
		"/>
	<path class="st91" d="M16.1,22.7C15,23.3,14,24.1,12.5,24c-0.5-0.1-1,0.5-1.4,0.8c-0.6,0.4-1.3,0.8-1.7-0.3
		c0.1-0.7,0.4-1.3,0.7-1.8c2.2-0.5,4.3-1.4,6.6-1.5C17.3,22,16.7,22.3,16.1,22.7z"/>
	<path class="st92" d="M35,7.4c-1.2,0-2.4,0-3.7,0c-0.4-0.5-0.2-0.9,0.3-1.2c3.1-0.8,6.3-1,9.4-0.9C40.8,5.6,40.7,6,40.5,6
		C38.6,5.7,37.1,8,35,7.4z"/>
	<path class="st93" d="M74.6,115.2c0.4-1.2-1-1.6-1.5-2.1c-1.5-1.4-2.9-3.1-4.6-4.3c1.7-0.8,2.3-0.5,3,1.2c1.4,0.3,2.3,1.3,3.2,2.3
		c0.5,0.6,1,1.2,1.6,1.6c0.5,0.3,0.4,0.8,0.4,1.2C76,115.2,75.3,115.2,74.6,115.2z"/>
	<path class="st94" d="M110.5,48.2L110.5,48.2c1.8,0.5,3.2,1.3,4.3,2.8c0.5,0.6,1.3,0.2,2,0.3c0,1.3,0,2.6,0,4c-0.3,0-0.7,0-0.9-0.3
		c-1.5-0.5-1.9-2.1-2.8-3.2c-0.5-0.6-0.9-1.1-1.7-1.4C110.6,50,110.1,49.3,110.5,48.2z"/>
	<path class="st95" d="M96.2,112.8c-1-1.2-1.8-2.7-3-3.6s-0.9-1.8-1-2.8c0.6-0.5,1.1-0.2,1.6,0.3c1.2,1.1,2.3,2.4,3.3,3.7
		c-0.2,1.5,1.1,1.2,1.8,1.5C98.1,112.4,97.2,112.8,96.2,112.8z"/>
	<path class="st96" d="M15.2,15.1c0.8,0,1.5,0,2.2-0.9c0.7-0.9,2.2-0.2,3.3-0.4c0.3,0.3,0.3,0.7,0.2,1.1c-0.6,0.8-2,0.1-2.4,1.3
		c-0.1,0.1-0.2,0.2-0.3,0.3c-1.6,1.6-3.7,1.4-5.7,1.9C13.3,17.2,14.1,16,15.2,15.1z"/>
	<path class="st97" d="M59.4,111.6c0.7,0,1.4-0.2,1.7,0.8c0.1,0.5,0.8,0.3,1.2,0.4c1.1,0.4,2.2,1,2.3,2.4c-0.8,0-1.6,0-2.4,0
		c-0.1-0.4,0.1-1.2-0.4-1.1c-1.6,0.5-2-1.4-3.4-1.5c-0.5,0-0.9-0.7-1.4-1.1c0.1-1,0.6-1,1.3-0.6C58.6,111.1,59,111.3,59.4,111.6z"/>
	<path class="st98" d="M11.5,100.3c0.7-1.2,1.7-1.4,3-1.3c0.8,0.1,1.7,0,2.6,0c0.3,0.3,0.2,0.6,0,0.9c-1.3,1.3-2.9,1.8-4.8,1.5
		C12,101.1,11.8,100.7,11.5,100.3z"/>
	<path class="st99" d="M92.3,114c0-0.5,0.2-1.1-0.6-1.2c-0.8-0.1-0.6-0.7-0.7-1.2c0-1.4-1-2.6-1.2-4c1.2,0.2,1.6,1.3,2.4,2
		c0.9,0.8,1.5,1.8,1.3,3.1c-0.1,0.4,0.5,0.5,0.9,0.7C93.8,113.8,93,113.9,92.3,114z"/>
	<path class="st100" d="M85.6,111.6c0.6,1.3,2,1.9,2.7,3c-0.3,0-0.6,0-0.8,0.1c-2.6-0.1-4-1.6-4-4.3c-0.1-0.2-0.1-0.3,0.1-0.4
		c0.4-0.2,0.8-0.2,1.1,0.1C84.9,110.6,84.9,111.3,85.6,111.6z"/>
	<path class="st101" d="M12.4,18.4c0.9-0.8,2-1,3.3-0.9c0.4,0.1,0.9,0,1.1-0.6c0.2-0.8,0.9-0.6,1.5-0.7c0.4,0.5,0.3,1-0.1,1.4
		c-0.4,0.3-0.8,0.6-1.1,1l0,0c-1.4,0.6-3.1,0.2-4.4,1.3c-0.4,0.3-1.1,0.1-0.8-0.7C12,19,12.1,18.6,12.4,18.4z"/>
	<path class="st102" d="M31.7,6.2c-0.2,0.4-0.4,0.8-0.3,1.2c-1.2,0.1-2.3-0.2-3.5,1c-0.6,0.7-2.6,0.2-3.9,0.2
		C26.4,7.4,29,6.6,31.7,6.2z"/>
	<path class="st103" d="M11.9,19.3c0.1,0.5,0.6,0.8,0.8,0.4c1-1.6,2.5-0.9,3.8-1c0.2,0,0.4,0,0.6,0c-0.7,0.7-1.5,1.3-2.6,1.3
		c-1,0-1.4,1.2-2.5,1.2c-0.4,0-0.8,0.3-1.1-0.2C11.1,20.4,11.5,19.9,11.9,19.3z"/>
	<path class="st104" d="M82.5,114.9c-0.5,0-1,0-1.5-0.1c-1.2-0.8-1.7-1.9-1.2-3.3c0.6,0,1.3-0.1,1.2,0.9c0,1.1,0.5,1.6,1.6,1.6
		c0.7,0,0.9,0.3,0.9,0.9C83.1,114.9,82.8,114.9,82.5,114.9z"/>
	<path class="st37" d="M87.5,5.6c-0.6,0-1.3,0.2-1.9-0.2C86.2,5.4,86.9,5.3,87.5,5.6z"/>
	<path class="st105" d="M59.4,111.6c-0.4,0-0.8-0.1-1.1-0.3c-0.6-0.5-1-0.3-1.3,0.3c-1,0-2.2,0.3-2.8-1c0-0.1-0.2-0.1-0.3-0.1
		c-1.4-0.1-2.7-0.6-4-1.3c-1.1-0.2-1.5-1.6-2.7-1.5c-0.1-0.9,0.3-1.4,1.2-1.2c1-0.6,1.9-0.6,2.7,0.2c0.3,0.3,0.6,0.6,1,0.5
		c1.6-0.1,2.7,0.7,3.8,1.7C57.7,109,58.2,110.7,59.4,111.6z"/>
	<path class="st106" d="M56,108.8c-0.1,0-0.2,0-0.3,0c-1.4-0.7-2.8-1.6-4.5-1.3c-0.5-1.5-1.7-1.1-2.8-1.2c-0.1-0.9,0.5-0.9,1.2-0.9
		c1.6,0,3.3,0,4.9,0c1.9,0.5,3.4,1.6,4.9,2.7c0.7,0.5,1.7-0.1,2.4,0.6c0.4,1.1,1.7,1.5,1.8,2.7c-0.3,0-0.9,0-1-0.1
		c-0.7-1.4-2-1-3.1-1.1c-1.2-0.1-1.4-1.4-2.3-2C56.3,107.8,56.2,108.1,56,108.8z"/>
	<path class="st107" d="M66.4,107.6c0,0.5-0.4,0.9,0.2,1.4c0.7,0.6,0.3,1-0.5,1c-0.6-1.2-1.6-1.3-2.7-1.2c-0.2-0.3-0.5-0.6-0.8-0.6
		c-1.7,0.1-3.1-0.9-4.6-1.5c-0.6-0.2-1.1-0.5-0.7-1.3c2.4,0,4.9,0,7.3,0C65.2,106.2,65.9,106.8,66.4,107.6z"/>
	<path class="st108" d="M66.4,107.6c-1-0.4-1.6-1.1-1.8-2.1c1.3,0,2.6,0,4,0c1.1,0.6,1.8,1.6,3.2,1.9c1,0.2,1,1,0.5,1.8
		c-0.4,0.2-0.6,0.5-0.6,0.9c-0.8-1.1-1.8-1.5-3-1.2C67.3,109.3,67.3,107.6,66.4,107.6z"/>
	<path class="st109" d="M75.5,105.3c0.1,0,0.2,0,0.3,0c0.4,0.4,0.7,0.7,1.1,1c0.4,0.2,0.8,0.6,0.4,1.1c-0.1,1.4,1.1,2,1.9,2.9
		c0.3,0.4,0.6,0.6,0.6,1.1c-1.4,0.2-2.1-0.9-3-1.6c-0.7-0.6-1.3-1.3-2.3-1.5c-1.6-0.6-2.4-1.6-2.3-2.7
		C73.3,105.4,74.4,105.7,75.5,105.3z"/>
	<path class="st110" d="M57.2,105.5c0.1,0.2,0.1,0.7,0.2,0.7c1.8-0.2,2.8,1.9,4.6,1.5c0.8-0.2,1.4,0.3,1.3,1.2c-0.5,0-1,0-1.5,0
		c-2.1,0.3-3.8-0.4-5-2.2c-0.3-0.4-0.8-0.3-1.3-0.2c-0.7,0-1.1-0.1-1-0.9C55.4,105.5,56.3,105.5,57.2,105.5z"/>
	<path class="st111" d="M72.2,105.5c0.5,1.1,1.4,1.8,2.4,2.4c0.2,0.3,0.3,0.6,0,0.9c-0.8,0-1.6,0.5-2.4,0.3c0.1-1-0.1-1.6-1.3-1.6
		c-1.2,0-1.8-1.1-2.3-2.1C69.7,105.5,70.9,105.5,72.2,105.5z"/>
	<path class="st112" d="M49.9,111.6c0,0.4-0.1,0.8-0.3,1.2c-2.1,0-4.3,0-6.4,0c0-0.6,0.1-1.3-0.9-1.2c-1.5,0.1-2.9-0.6-4.4-0.2
		c-0.8,0.3-0.8-0.5-0.8-1.1c0.6,0.1,1.2-0.3,1.7-0.5c0.8-0.4,1.3-0.8,2.3,0.2c0.6,0.6,2.1,0.3,3.2,0.4c1.2,0.1,2.4-0.3,3.2,1
		c0.4,0.5,1.3,0.1,2,0.2C49.7,111.6,49.8,111.6,49.9,111.6z"/>
	<path class="st113" d="M110.5,48.2c0.2,0.9,0.3,2,1.7,1.9c0.5,0,0.7,0.5,0.9,0.9c0.9,1.3,1.9,2.6,2.8,3.9c-1.5,0.1-2.8,0-2.8-2
		c0-0.6-0.5-0.9-1.1-0.6c-0.7,0.3-1.4,0.2-1.8-0.3c-0.8-1.1-2-1.1-3.1-1c0-1.3,0-2.6,0-3.9c0-0.8,0.7-0.9,0.8-0.6
		C108.4,47.9,109.9,47.4,110.5,48.2z"/>
	<path class="st114" d="M87.4,12.6c-0.2,0.4-0.4,0.8-0.3,1.2c-0.6,0.6-1.3,0.5-2,0.5c-2.8,0-5.6,0-8.3,0c-0.8,0-1.5,0.1-2.2,0.5
		c-2.1,0.1-4.2,0-6.2,0c-0.7-0.6-0.3-1.1,0.3-1.4c1.7-0.7,3.5-1.4,5.4-1.3c1.8,0,3.6-0.3,5.3-0.9c1.1-0.4,2.3-0.2,3.4-0.2
		C84.2,12,86.1,11.4,87.4,12.6z"/>
	<path class="st115" d="M82.8,11.1c-3.3,0.3-6.3,1.8-9.8,1.6c-1.5-0.1-3.1,0.8-4.6,1.2c-0.3,0.1-0.3,0.5-0.3,0.8
		c-2.1,0.4-4.3,0.1-6.4,0.2c-1.5,0-2.9,0-4.4,0c-0.8-0.8-0.2-1.1,0.5-1.4c0.5-0.2,1.1-0.1,1.7-0.1c0.7,0,1.5,0.1,2.1-0.3
		c1.6-1.1,3.4-1,5.3-1c1.4,0,2.8,0,4.1-0.9c0.2-0.1,0.4-0.2,0.6-0.2c3.2-0.2,6.3-0.8,9.5-0.3c0.7,0.1,1.3-0.2,1.8-0.6
		C82.8,10.5,82.8,10.8,82.8,11.1z"/>
	<path class="st116" d="M74.6,14.7c0.3-0.8,0.9-0.9,1.7-0.9c3.6,0,7.2,0,10.8,0c1.8,0,3.7,0,5.5,0.1c0.2,0,0.6,0.1,0.7,0.2
		c0.7,1.2,1.9,0.9,3,0.9c-0.3,0.5-0.2,1.2-1.1,1.3c-0.5,0-0.4,0.6-0.5,1c-5.3-2.1-11-2-16.6-2.2c-0.8,0-1.5,0-2.3-0.1
		C75.4,14.8,74.9,15.1,74.6,14.7z"/>
	<path class="st117" d="M100.2,20.8c-0.9-0.7-1.7-1.4-2.6-2.1c2.4-0.4,4.7,0.1,7.1,0c0,0.5-0.1,1.3,0.7,1.2c1.6-0.2,2.6,1,3.9,1.6
		c-1.9-0.4-3.9,0.4-5.8-0.1c-0.3-0.1-0.9-0.1-1-0.3C101.8,19.5,101,20.2,100.2,20.8z"/>
	<path class="st118" d="M81,10.8c-1.7,0.7-3.6,0.1-5.4,0.4c-2,0.4-4,0.1-6,1.2c-1.4,0.8-3.3,0.2-4.9,0.2c-0.9,0-1.8,0.1-2.5,0.8
		c-1.1,0.9-2.4,0.3-3.6,0.4c-0.6,0.1-1.4-0.2-1.3,0.9c-0.6,0.2-1.4,0.5-1.6-0.3c-0.2-0.8,0.4-1.5,1.2-1.6c0.9-0.1,1.7-0.6,2.7-0.3
		c0.6,0.2,0.8-0.1,1-0.6C61,11,61.7,11,62.5,11c1,0,2,0,3-0.4c0.9-0.7,1.9-0.9,3-0.4c1,0.5,1.8-0.4,2.8-0.5c2.4-0.3,4.9,0,7.1-1
		c2,0,4.1,0,6.1,0c0.1,0.9-0.4,1.2-1.2,1.2C82.3,9.9,81.4,9.8,81,10.8z"/>
	<path class="st119" d="M78.2,8.7c-1,0.9-2.1,1.3-3.5,1.3c-1.8,0-3.7-0.1-5.4,0.8c-0.4,0.2-0.9,0.1-1.3-0.2c-1-0.6-1.7-0.4-2.3,0.6
		c-0.5-1.2,0.4-1.6,1.2-1.6c2,0.2,3.5-0.8,5.2-1.5c0.5,0,0.9,0.2,1.2,0.4c0.4,0.3,1.2,0.4,1.4,0c0.6-1.2,1.6-0.9,2.6-1
		C77.4,8,77.5,8.6,78.2,8.7z"/>
	<path class="st120" d="M49.6,9.9c1.4,0,2.8,0,4.3,0c0.9,0,1.7,0.1,2.3-0.8c0.3-0.5,0.9-0.4,1.4-0.4c1.5,0,3,0,4.6,0
		c0.2-0.1,0.3-0.1,0.4,0.1c-0.1,1.3-1,1.6-2,1.5c-1.7,0-3.4-0.2-4.9,1c-0.6,0.5-1.5,0.1-2.2,0.4c-0.3,0.1-0.7,0.1-1,0.1
		c-1.2,0-2.3,0.2-3.4-0.5C48.3,10.4,49.2,10.3,49.6,9.9z"/>
	<path class="st121" d="M62.4,8.7c-0.1,0-0.2,0-0.3,0c-0.1-0.9,0.2-1.3,1.2-1.2c1.8,0,3.5,0.1,5.2-1c0.9-0.6,2.4-0.2,3.7-0.2
		C72.3,7.1,72,7.5,71,7.5c-0.6-0.1-1.4-0.1-1.3,0.9c0,0.2-0.1,0.5-0.3,0.5C67.1,9.1,64.7,9.8,62.4,8.7z"/>
	<path class="st122" d="M44.5,8.7c1,0.1,1.9,0,2.6-0.9c0.3-0.5,0.9-0.3,1.4-0.3c1.6,0,3.2,0,4.8,0c0.1,0,0.2,0,0.3,0
		c-0.2,1.2-1,1.2-2,1.2c-1.2,0-2.6-0.6-3.2,1.2c-0.4,0.4-1,0.4-1.5,0.4c-0.8,0-1.5-0.1-2.3,0.1c-0.6,0.1-1.1,0.1-1.5-0.4
		C43,9,43.3,8.4,44.5,8.7z"/>
	<path class="st123" d="M46.9,9.9c0.5,0,1,0,1.5,0c0.4,0,0.8,0,1.2,0c-0.3,0.4-0.6,0.8-0.9,1.2c0,0.1-0.1,0.1-0.1,0.2
		c-0.5,0.4-1.1,0.7-1.5,1.2c-1.9,1-3.9,0.5-5.9,0.4c-0.2,0-0.3-0.1-0.4-0.2c-0.1-1.1,0.7-1.5,1.4-1.6C43.9,11,45.2,9.9,46.9,9.9z"/>
	<path class="st124" d="M44.5,8.7c-0.7,0.1-1.1,0.5-1.2,1.2c-0.4,0.5-1,0.4-1.6,0.4c-1.3,0-2.4,0.3-3.5,1.1s-2.7,0.7-3.9,1.4
		c-1,0.5-2.4-0.3-3.3,0.9c-0.1,0-0.1,0.1-0.2,0.1c-0.8,0-1.6,0-2.4,0c-0.1-1,0.5-1.3,1.3-1.6c1.4-0.6,2.7-1.1,3.7-2.3
		c1-0.7,2.4-0.4,3.2-1.3c0.9,0,1.8,0,2.7,0c0.7,0,1.2,0,1.8-0.8c0.7-1,2.1-0.3,3.1-0.5C44.4,7.8,44.5,8.2,44.5,8.7z"/>
	<path class="st125" d="M35.3,15.6c-2.6,0.4-5.1,1.2-7.6,2.2c-0.4-0.1-1,0.1-0.9-0.6c-0.1-1.1,0.7-0.9,1.3-0.9
		c1.2,0,2.5-1.3,2.6-2.4c0.4-0.4,1-0.5,1.6-0.4c0.9,0.1,1.7-0.3,2.3-1c2.1-0.4,4.2-0.7,6.2,0.2l0,0c0.2,0.3,0.3,0.6,0.1,0.9
		c-0.2,0.3-0.5,0.6-0.8,0.6C38.3,13.9,36.9,15.2,35.3,15.6z"/>
	<path class="st126" d="M33.5,10.2c-0.8,1.4-2.3,1.8-3.6,2.3c-0.8,0.3-1.2,0.7-1.6,1.3c-1,0.1-2.1-0.4-2.8,1
		c-0.3,0.6-1.6,0.1-2.4,0.2c-0.7,0.5-1.5,0.6-2.3,0.4c-0.2-0.1-0.2-0.3-0.1-0.4c0-0.4,0-0.8,0-1.2c0.3,0,0.8,0,0.9-0.1
		c0.6-1.6,2-1,3.1-1.1c2.2,0,4.1-0.7,5.9-1.8C31.5,10.3,32.5,10.1,33.5,10.2z"/>
	<path class="st127" d="M26.8,17.2c0.3,0.2,0.6,0.4,0.9,0.6c-0.7,0.4-1.4,0.8-2.1,1.2c-0.8-0.5-1.4-0.4-2.2,0.2
		c-1.3,0.9-2.5,2-4.3,2c-0.7,0-0.7,0.8-1.1,1.1c-0.6,0.3-1.2,0.3-1.9,0.5c0.3-0.5,0.7-0.9,0.6-1.5c0.8-0.9,2.4-0.9,3-2.2
		c0.1-0.4,0.7-0.2,1.1-0.2c0.8-0.1,1.8,0.4,2.2-1c0.1-0.4,0.7-0.2,1.1-0.2C25,17.4,26,17.7,26.8,17.2z"/>
	<path class="st103" d="M20.7,15.4c0.8-0.2,1.6-0.4,2.4-0.3c-0.1,0.6-0.3,1-1,1.3c-1.3,0.5-2.6,1.2-3.7,2c-0.5,0.3-0.8,0.4-1.3,0.4
		c0.1-0.5-0.2-1.1,0.5-1.2c0.8-0.1,0.6-0.7,0.7-1.2l0,0C19,15.7,20,16,20.7,15.4z"/>
	<path class="st128" d="M62.4,8.7c2,0,3.9,0,5.9,0c0.5,0,1,0.2,1.4-0.3c0.8-0.5,1.6-0.3,2.4-0.3c-1.3,1.3-2.8,2.2-4.8,1.8
		c-0.9-0.1-1.7,0-1.6,1.2c-1.2,0.3-2.5,0.4-3.7,0.3c-0.7,0-1.2,0-1.2,0.9c-1.7,0-3.4,0.5-5.1,0.2c-0.7-0.7-1.8-0.6-2.6-1.1
		c2.5-0.4,4.6-2.2,7.4-1.4C61.5,10.2,62.1,9.5,62.4,8.7z"/>
	<path class="st129" d="M33.5,10.2c-0.7,0.9-2,0.3-2.8,1c-1.7,1.5-3.9,1.5-6,1.4c0.2-0.1,0.4-0.3,0.7-0.3c1,0.1,1.6-0.1,2.1-1.1
		c0.6-1,1.9-1.4,3-1.3c1.1,0.1,1.7-0.4,2.1-1.3c0.8,0,1.6,0,2.4,0c0.5,0,1,0,1.5,0C36.1,10.4,34.4,9.5,33.5,10.2z"/>
	<path class="st130" d="M17.1,35.2c0,0.8-0.1,1.6-0.1,2.4c-1.2,1.2-3.1,0.8-4.2,2.1c-0.1,0.1-0.1,0.2-0.2,0.2
		c-1.8,0.5-3.5,1.2-4.9,2.5c-0.1,0.1-0.4,0-0.6,0c0-2.5,0.5-3.1,3-3.7c0.3-0.1,0.6-0.1,0.7-0.5c0.1-0.7,0.6-0.7,1.1-0.7
		c0.6,0,1.3,0.1,1.4-0.8c0-0.1,0.2-0.4,0.3-0.3C14.9,36.8,15.8,35.6,17.1,35.2z"/>
	<path class="st98" d="M21.4,97.2c0.5,0.5,1,1.1,1.5,1.6c-1.7,1.7-3.8,1.2-5.8,1.2c0-0.3,0-0.6,0-0.9c-0.1-1.1,0-1.7,1.5-1.5
		C19.4,97.8,20.5,97.8,21.4,97.2z"/>
	<path class="st131" d="M91.3,104c1-0.3,2-0.6,3.1-0.9c0.2,1,0.7,1.7,1.3,2.5c0.9,1.3,1.4,3,1.4,4.7c-0.6,0-1.3,0.1-1.2-0.9
		c0-0.9-1.4-0.6-1.3-1.6c-1.1-0.1-1-1.8-2.3-1.5c0-0.5,0.1-1.1-0.7-1.2C90.7,105,91.1,104.5,91.3,104z"/>
	<path class="st132" d="M103.2,95.9c0.1-0.3,0.3-0.5,0.4-0.8c0.5,0,0.9-0.1,1.2,0.6c0.5,1.3,1,2.6,1.4,4c0.3,0.9,1,1.9,1,3
		c-1.3-0.3-2.5-1.5-2.4-2.8c0.1-1-0.6-1.6-1-2.4C103.5,97.1,103.4,96.5,103.2,95.9z"/>
	<path class="st133" d="M16.7,67.7c-0.1,0.4-0.1,0.8-0.2,1.2c-0.5,1-1.3,1.4-2.4,1.2c-1.3-0.1-2.6-0.3-3.4,1.2
		c-0.7-0.9,0.1-1.6,0.3-2.4c0.9-0.1,1.6,0.1,2.3-0.9c0.6-0.9,2.1-0.2,3.2-0.3C16.5,67.7,16.6,67.7,16.7,67.7z"/>
	<path class="st134" d="M11,68.9c-0.1,0.8-0.2,1.6-0.3,2.4c-1.2,0-2.4,0-3.7,0c-0.2-1,0.4-1.4,1.3-1.2C9.5,70.3,10.4,70,11,68.9z"/>
	<path class="st135" d="M77.3,107.3c0-0.5-0.3-0.9-0.8-0.9c-0.8-0.1-0.7-0.6-0.7-1.2c1.3,0,2.6,0,4,0c1.3,1.1,1.9,2.8,3.5,3.7
		c0.4,0.3,0.6,0.7,0.2,1.1c0,0.1,0,0.2,0,0.3c-1-0.1-1.8-0.4-2.7-1.1C79.7,108.6,78.7,107.5,77.3,107.3z"/>
	<path class="st136" d="M74.6,108.8c0-0.3,0-0.6,0-0.9c1.1-0.2,1.8,0.7,2.3,1.3c0.8,0.9,1.8,1.4,2.8,2c0,0.1,0,0.2,0,0.3
		c0.1,1.2,0.5,2.3,1.2,3.3c-1.4-0.1-3.6-1.7-3.8-2.9c-0.1-1.1-0.7-1.4-1.5-1.7C75,110.1,74.4,109.7,74.6,108.8z"/>
	<path class="st137" d="M84.9,104.9c1-0.1,2-0.2,3-0.3c-0.2,0.1-0.4,0.2-0.6,0.4c1.1,0.6,2.2,1.3,2.4,2.6c1.2,1.1,1.4,2.5,1.2,4
		c-0.8-1.1-1.2-2.4-2.6-3.1c-0.5-0.3-1.2-0.7-1.4-1.5c-0.1-0.7-0.7-0.5-1.2-0.6c-0.5,0.3-1,0.4-1.3-0.1
		C84.2,105.8,84.3,105.2,84.9,104.9z"/>
	<path class="st138" d="M16.6,71.4c0,1.6,0,3.2,0.1,4.9c-2.7-0.4-4.9,1.1-7.3,1.7S7,78.7,7,76.3c1.2-1.1,2.7-0.9,4.1-1.4
		c1.6-0.5,3.1-1.1,4.9-1.2c1-0.1,0.3-1.5,0.5-2.3H16.6z"/>
	<path class="st139" d="M84.9,104.9c-0.6,1-0.3,1.6,0.9,1.5c-0.1,0.6,0.2,1.1,0.7,1.4c0.6,0.3,0.6,0.8,0.6,1.4
		c-0.8-0.1-1.6-0.2-2.4-0.3c-1-1.2-2.6-2-3.1-3.7C82.6,104.9,83.8,104.9,84.9,104.9z"/>
	<path class="st140" d="M81.5,105.1c0.9,1.3,2.7,1.9,3.1,3.7c0,0.4,0,0.8,0,1.2c-0.4,0-0.8,0-1.2,0c0-0.5-0.2-0.7-0.6-1
		c-1.4-0.9-2.5-2.2-3-3.9C80.4,105.2,80.9,105.2,81.5,105.1z"/>
	<path class="st140" d="M85.6,111.6c-1-0.1-0.9-0.8-0.9-1.5C85.1,110.4,85.2,111.1,85.6,111.6z"/>
	<path class="st101" d="M20.7,15.4c-0.3,1.8-1.6,0.5-2.4,0.9c0-2.1,1.6-0.9,2.4-1.2C20.7,15.2,20.7,15.3,20.7,15.4z"/>
	<path class="st141" d="M82.9,41.2c1.5,1.4,2.6,3.1,3.5,4.9c-0.8,0.5-1.8,0.3-2.5-0.1c-1.7-0.9-3.6-0.8-5.4-1.3
		c-2.4-0.8-5-1.2-7.6-0.2c-2.6-1.1-5.3-1.8-8-2.6c0.3-1.5,2.3-2.7,3.7-2c0.7,0.4,1.3,0.8,2,0.1c0.2-0.2,0.5-0.2,0.7-0.1
		c1.9,1.3,4,0.8,6,0.9c1.6,0.1,3.3-0.2,4.9,0.6C81.1,41.9,81.9,40.7,82.9,41.2z"/>
	<path class="st142" d="M62.4,88.4c-7.3,0.2-13.7-2.1-19.2-7c1.4-0.7,2.8-0.8,4.1,0.3c0.7,0.6,1.4,0.4,2.2,0.5
		c1.1,0,2.3-0.1,3.2,0.9c0.5,0.6,1.4,0.3,2.2,0.3c1.2,0,2.2,0.2,3,1.1c1.1,1.2,2.7,1.5,3.9,2.6C62.1,87.4,62.8,87.7,62.4,88.4z"/>
	<path class="st143" d="M48.6,35.1c8.3-4.3,16.7-4.5,25.2-0.6c-0.9,1.1-2.1,0.6-3.1,0.3c-1.6-0.5-3-0.7-4.4,0.6
		c-0.4,0.4-1.1,0.4-1.7,0.3c-0.7-0.2-1.3-0.1-2-0.4c-1.3-1.1-2.7-1.2-4.2-0.4c-0.7,0.4-1.4,0.5-2.2,0.6c-2.1,0.1-4.1,0.1-6.2,0.1
		C49.5,35.6,49,35.6,48.6,35.1z"/>
	<path class="st144" d="M90.1,58.9c0,1.6,0.2,3.1-0.2,4.6c-2.2-1.5-4.7-2.5-6.9-4c-1-0.6-1.8-0.2-2.2,1c-0.1,0.4,0,1-0.8,0.7
		c-0.3-2.5-0.8-4.9-1-7.4c1.5-0.7,2.4-0.6,3.6,0.4c0.9,0.7,2,1.2,3,1.5C87.4,56.5,88.6,57.8,90.1,58.9z"/>
	<path class="st145" d="M88.3,50.1c0.6,1.3,1,2.6,1.2,4c-0.9,0.6-1.4-0.1-2-0.5s-1.2-0.7-1.8-1c-1.7-0.8-3.3-1.2-5.2-0.9
		c-0.9,0.2-1.7-0.5-2.6-0.6c-1.2-0.7-1.8-2-2.7-3.1c-0.2-0.3-0.4-0.7,0-1.1c2-0.8,3.7-1,5.9,0c1.5,0.7,3.1,1.8,5,1.7
		C87,48.5,87.5,49.6,88.3,50.1z"/>
	<path class="st146" d="M85.5,27.5c1.6-2.7,4.4-4,7.5-3.2c2.7,0.7,4.6,3,4.8,5.7c-1.2,0.8-2.4,0.5-3.6-0.1c-0.9-0.5-1.9-0.8-2.9-0.7
		c-1.6,0.1-3-0.7-4.6-0.5C85.9,28.8,85.6,28.1,85.5,27.5z"/>
	<path class="st147" d="M62.4,88.4c-0.4-1.1-1.5-1.7-2.2-1.9c-1.3-0.4-2.2-1.3-3-2.2c-0.7-0.7-1.4-0.3-2.1-0.4
		c-1.1-0.2-2.6,0.7-3.2-1.1c-0.1-0.1-0.6-0.1-0.8-0.2c-0.9,0-1.8,0-2.7,0c-0.3,0-0.8,0.1-0.9-0.1c-1-1.9-2.7-0.9-4.1-1.1
		c-0.7-0.5-1.3-1.1-1.9-1.8c0-0.9,0.7-0.8,1.2-0.7c2.7,0.6,5.4,0.7,8.2,1c0.7,1,1.9,0.9,2.9,1.3c0.3,0.3,0.4,0.8,0.9,0.8
		c1.7-0.2,3,1,4.5,1.4c0.9,0.3,1.6,0.9,2.3,1.3c1.9,1.1,4.4,0.9,5.9,2.8c0,0.1,0.1,0.1,0.1,0.2C65.7,88.3,64.1,88.5,62.4,88.4z"/>
	<path class="st148" d="M48.6,35.1c2.6,0,5.2,0,7.7,0c0.7,0,1.4-0.2,2-0.6c1.3-1.1,3.4-0.7,4.4,0.7c-0.9,0.7-1.3,1.8-2,2.7
		c-0.8,0.3-1.5,0.2-2.3,0.2c-3.1,0.1-6.1-0.1-9.2,0c-1,0-1.9,0.1-2.7,0.8c-0.5,0.5-1.2,0.5-1.8,0.2c-0.5-0.3-0.5-0.7-0.2-1.2
		C45.7,36.7,47.1,35.8,48.6,35.1z"/>
	<path class="st149" d="M77.6,50.7c1.4-0.2,2.7,1.2,4.2,0.4c0.7-0.4,1.6-0.1,2.2,0.3c1.3,0.9,3.1,1,4.2,2.2c0.3,0.3,0.7,0.5,1.2,0.5
		c0.4,1.6,0.7,3.2,0.6,4.9c-1.3-0.1-2-1.1-2.8-1.8c-0.4-0.3-0.7-0.7-1.3-0.7c-0.5,0-1,0-1.2-0.6s-0.6-0.5-1.1-0.6
		c-0.3,0-0.8,0-0.9-0.1c-0.7-1.9-2.4-1-3.6-1.4C78,53,77.4,52,77.6,50.7z"/>
	<path class="st150" d="M85.5,27.5c0.6,0.7,1.4,0.6,2.1,0.8c2.3,0.7,4.8-0.2,6.9,1.3c1,0.7,2.2,0.2,3.2,0.3c0.3,1.3,0.1,2.5-0.6,3.6
		c-1.7-0.8-3.4-1.5-5.3-0.9c-0.4,0.1-0.9,0.2-1.2,0c-1.5-1-3.2,0.2-4.8-0.4c-0.2-0.1-0.6,0.2-0.9,0.2C84.3,30.7,84.5,29.1,85.5,27.5
		z"/>
	<path class="st151" d="M88.3,50.1c-0.1,0-0.2,0-0.3,0c-1.3-0.9-2.6-1.5-4.2-1.3c-0.7-2-3.1-0.6-4.2-2.2c-0.4-0.6-1.7-0.3-2.6,0
		c-0.7,0.2-1.4,0.5-2.2,0.5c-1.6-0.5-2.8-1.6-3.8-2.9c2.2-1,4.4-0.7,6.7-0.2c2.9,0.7,5.8,1.4,8.8,2.1C87.2,47.4,87.9,48.7,88.3,50.1
		z"/>
	<path class="st152" d="M72.2,86.3c-0.7,0.6-1.6,0.8-2.5,0.9c-1.7-1.5-3.3-3-5.8-3c-0.3,0-0.6-0.2-0.8-0.4c-0.6-1-1.6-1.4-2.6-1.9
		c-0.4-0.1-0.7-0.1-1.1-0.4c-0.4-0.7-1-0.9-1.8-0.9c-1.3,0.1-2.4-0.3-3.5-0.9c-2.2-1.1-4.4-2.3-6.8-3c-0.3-0.2-0.5-0.4-0.4-0.8
		c0.6-0.6,1.4-0.7,2.1-0.4c1.3,0.5,2.6,0.3,3.8,0.4c2,0.7,4.1,1.4,6.1,2.2c0.5,0.9,1.5,1.1,2.2,1.4c2.8,1.4,5.4,2.8,7.8,4.7
		C70.1,85,71.4,85.4,72.2,86.3z"/>
	<path class="st153" d="M82.9,41.2c-1.3,0.7-2.5,1.1-4,0.2c-0.8-0.5-2.1-0.2-3.1-0.1c-1.8,0.2-3.6,0-5.4-0.2c-1-0.1-1.8-1-2.7,0.2
		c0,0-0.3-0.1-0.4-0.1C65.2,39.8,65,39.9,63,42c-0.7,0.7-1.5,0.6-2.3,0.2c0.3-0.7,0.3-0.7,1.3-0.7c-0.4-0.8-0.9-1.7-0.2-2.6
		c0.4-0.3,1-0.3,1.5-0.3c2.9,0.1,5.8-0.1,8.7,0c1.1,0,2.2,0,3.3,0.4c0.2,0.1,0.4,0.2,0.6,0.1c2.2-1,3.9,0.7,5.8,1.2
		C82.1,40.3,82.6,40.7,82.9,41.2z"/>
	<path class="st154" d="M36.4,47.6c0.3-0.9,0.7-1.7,1.3-2.4c1-0.6,2.3-1.2,3.2-1.2c1.7,0.1,3.2-0.5,4.8-0.6c2.4-0.2,4.7-0.8,7.1-1.2
		c0.9-0.1,1.8-0.4,2.6,0.3c0.2,0.5-0.1,0.8-0.4,1c-2.5,1.1-4.5,3.1-6.9,4.5c-0.2,0-0.4,0.1-0.6-0.1c-2.4-1.8-5.1-0.8-7.7-0.9
		c-0.5,0-0.8,0.3-1.2,0.6C37.9,48.1,37.2,48.3,36.4,47.6z"/>
	<path class="st155" d="M80.1,61.3c0.1-0.2,0.2-0.5,0.2-0.7c0.2-0.6-0.4-1.5,0.5-1.7c0.9-0.1,2-0.5,2.8,0.6c0.3,0.4,0.7,0.6,1.2,0.6
		s1,0,1.1,0.7c0.1,0.5,0.6,0.4,1,0.5c1.2,0.5,2.5,0.8,3,2.2c0,1.2-0.2,2.4-0.7,3.6c-0.6,0.4-1.2,0.1-1.5-0.3c-1.5-1.5-3.7-2-4.9-3.7
		c-0.7-0.9-1.9-0.6-2.7-1.2C79.9,61.7,79.9,61.5,80.1,61.3z"/>
	<path class="st156" d="M72.2,86.3c-0.5-0.1-1.2,0.1-1.3-0.7c0-0.3-0.2-0.5-0.5-0.5c-1.6,0-2.4-1.2-3.4-2.1c-0.6-0.6-1.5-1-2.3-1.3
		c-2-0.8-3.7-2.2-5.8-2.7c-0.8-0.2-0.4-0.5,0.1-0.6c1.4-0.8,2.8-0.4,4.3-0.3c1.9,0.6,3.4,1.9,5.2,2.6c1.6,0.6,2.7,1.3,3.9,2.4
		c0.8,0.7,1.6,1.5,2.6,2C74.1,85.7,73.3,86.2,72.2,86.3z"/>
	<path class="st157" d="M75,85.1c-1.9-0.2-2.9-1.7-4-2.9c-0.2-0.2-0.1-0.7-0.5-0.7c-1.6,0.4-2.7-0.6-3.8-1.3c-1-0.7-2.1-1.1-3.1-1.7
		c1.5-0.8,3.2-1.2,4.9-1.4c0.5,0.2,1,0.5,1.4,1c1.5,1.6,3.4,2.4,5.4,3.1c1.2,0.5,2,1.7,1.8,2.8C76.5,84.5,75.8,84.9,75,85.1z"/>
	<path class="st158" d="M88.3,69.9c-0.3,1.2-0.8,2.3-1.5,3.4c-0.2,0.1-0.5,0.2-0.6,0.1c-0.7-1.5-2.5-1.5-3.5-2.5
		c-0.7-0.7-1.4-1.4-2.5-1.6c-0.8-0.1-1.2-0.9-1.7-1.4c-0.3-1.1,0.4-2,0.8-2.9c0.8-0.9,1.7-0.5,2.5,0C84,66.4,86.2,68.1,88.3,69.9z"
		/>
	<path class="st159" d="M84.9,32.5c0.4-1.2,1.3-0.6,2-0.5c0.3,0,0.7,0.4,0.8,0.4c1.1-1.2,2-0.4,3,0.1c0.2,0.1,0.7,0.1,0.9,0
		c1.7-1.1,3.2,0.3,4.8,0.3c0.6,0,0.8,0.4,0.7,0.9c-0.4,1.3-1.3,2.1-2.4,2.7c-0.4-0.4-1-0.6-1.5-0.6c-2.5,0.2-4.6-1.2-7-1.5
		c-0.3,0-0.5-0.2-0.7-0.3C85.1,33.5,84.9,33.1,84.9,32.5z"/>
	<path class="st160" d="M78.6,67.7c0.5-0.1,0.9,0.2,1.1,0.6c0.1,0.3,0.4,0.6,0.8,0.6c1.5-0.1,2.1,1.1,3,1.9c0.1,0.1,0.1,0.3,0.1,0.3
		c1.8-0.3,2.2,1.5,3.3,2.1c-0.4,1.1-1.1,2.2-1.9,3.1c-1.1-0.9-2-2.2-3.6-2.3c-0.8-2-3.2-2-4.4-3.5C77,69.4,77.4,68.3,78.6,67.7z"/>
	<path class="st161" d="M44.4,37.8c0,0.5,0,1,0.7,1c0.5,0,1.1,0.1,1.3-0.4c0.3-0.9,1-0.8,1.6-0.8c3.5,0,7,0,10.4,0
		c0.5,1.3-0.4,1.5-1.2,1.6c-1.5,0.1-3,0-4.5,0.2c-0.5,0.1-1,0-1.4,0.4c-0.9,0.7-1.9,0.8-3,0.7s-2,0.2-2.8,0.9
		c-0.9,0.3-1.8,0.4-2.6,0.6c-0.8,0.2-1.6,0.1-2.1-0.8C41.9,40,42.9,38.6,44.4,37.8z"/>
	<path class="st162" d="M40.8,41.2c1,0.5,1.9,0.8,3,0.1c0.4-0.3,1.1-0.1,1.6-0.1c0.5-0.3,1.1-0.5,1.7-0.4c1.8,0.3,3.5,1,5.3,1.2
		c0.2,0,0.3,0.3,0.3,0.5c-0.2,0.1-0.3,0.4-0.5,0.4c-2.3-0.1-4.3,1.4-6.6,0.9c-0.7-0.1-1.3,0.3-1.8,0.6c-0.7,0.3-1.3,0.8-2,0
		c-0.3-0.4-0.6-0.2-0.9,0.1c-0.9,0.9-2,0.9-3.1,0.9C38.6,43.7,39.6,42.4,40.8,41.2z"/>
	<path class="st163" d="M88.3,69.9c-1-0.4-2-0.8-2.7-1.6c-1.1-1.4-2.8-1.8-4-3c-0.4-0.4-1.3-0.8-2.1-0.2c-0.5-1.2-0.2-2.1,0.6-3
		c2.1-0.5,3,1.5,4.5,2.3c1.6,0.9,2.8,2.3,4.6,2.9C88.8,68,89,69.1,88.3,69.9z"/>
	<path class="st164" d="M36.4,47.6c0.8,0,1.7,0.3,2.1-0.8c0.2-0.5,0.8-0.4,1.2-0.4c1.9,0,3.8,0,5.7,0c0.7,0,1.3,0,1.6,0.8
		c0.2,0.5,0.7,0.4,1.2,0.4c0.1,1.2-0.7,1.6-1.7,1.8c-2.2-0.2-4.4-0.1-6.7-0.1c-0.7,0-1.4,0.2-2,0.7c-0.8,0.7-1.7,0.8-2.6,0.1
		C35.6,49.2,35.9,48.4,36.4,47.6z"/>
	<path class="st165" d="M50.8,80.2c-2.7,0-5.3-0.1-7.9-0.8c-0.5-0.2-1.1-0.3-1.5,0.3c-1.1-1-2.1-2.1-2.8-3.4
		c0.5-0.5,1.2-0.5,1.8-0.4c1,0.2,2.1,0.2,3.1,0.2c1.1,0,2.2,0.3,3.2,0.9s2.1,1.3,3.2,1.7C50.5,79,51.2,79.3,50.8,80.2z"/>
	<path class="st166" d="M35.4,70.2c-0.3-0.7-0.6-1.3-0.7-2.1c0.2-1,1.2-1.2,1.9-1.1c2.7,0.6,5.4,0.1,8.1,0.4c0.1,0,0.2,0,0.3,0.1
		c1.4,1,1.7,1.8,1.1,3c-3.3,0.5-6.6,0.2-9.9,0.2C35.9,70.6,35.6,70.4,35.4,70.2z"/>
	<path class="st167" d="M45,67.7c-2.3,0-4.6,0.1-7-0.1c-1.2-0.1-2.3-0.4-3.4,0.4c-0.4-0.8-0.6-1.6-0.6-2.5c-0.1-0.3,0.1-0.5,0.4-0.6
		c2.9-0.5,5.8-0.9,8.8-0.2c0.3,0.1,0.5,0.3,0.8,0.4C44.9,65.9,45.5,66.6,45,67.7z"/>
	<path class="st168" d="M64.5,35.5c0.8,0.1,1.5-0.1,2.1-0.7c1-1.1,2.2-0.9,3.4-0.5c1.2,0.4,2.5,0.7,3.8,0.3c1.9,0.7,3.6,1.8,5.1,3.1
		c-1,0.8-2.2,0.4-3.3,0.5c-1,0-2.1,0.1-3.1-0.1c-1.2-0.8-2.7-0.7-3.7-1.9c-0.3-0.4-0.8-0.2-1.2,0.2c-0.7,0.7-1.5,0.7-2.4,0.6
		C64.5,36.6,64.1,36.2,64.5,35.5z"/>
	<path class="st169" d="M77,70.5c0.6,0.6,1.2,1,2.2,1c0.9,0,1.5,0.8,1.7,1.6c0.2,0.6,0.5,0.8,1.1,0.8c1.7,0,2.3,1.2,3,2.5
		c-0.2,0.6-0.6,1-1,1.5c-0.7,0.5-1.3,0.2-1.8-0.3c-0.5-0.4-1.2-0.6-1.5-1c-1.4-1.9-4.3-1.9-5.1-4.4C75.8,71.3,76.1,70.7,77,70.5z"/>
	<path class="st170" d="M44.2,65.6c-3.1-1.1-6.2-0.5-9.3-0.3c-0.3,0-0.6,0-0.8,0.3c-0.4-0.6-0.3-1.4-0.3-2.1c-0.4-1,0.2-1.4,1-1.4
		c2.9-0.1,5.7-0.3,8.6,0.1C44.5,63.1,44.7,64.3,44.2,65.6z"/>
	<path class="st171" d="M33.8,56.7c0-0.4,0.1-0.8,0.1-1.2c0.5-1,1.6-1,2.4-0.9c2.2,0.2,4.3-0.2,6.5,0c0.9,0.1,1.4,0.4,1.5,1.3
		c0,0.8,0,1.5-0.8,2c-3,0.5-5.9,0.2-8.9,0.2C33.8,58.1,33.4,57.5,33.8,56.7z"/>
	<path class="st172" d="M35.4,50.1c1-0.1,2.2,0.5,2.7-1c0-0.1,0.3-0.2,0.4-0.2c2.9,0.1,5.7-0.4,8.6,0.3c0.1,1.1-0.5,1.9-1.5,2.4
		c-1.6,0.1-3.2,0.3-4.8,0.2c-1.6-0.2-3.2-0.1-4.8,0.5c-0.4,0.2-0.9,0.3-1.3,0C34.7,51.4,35,50.7,35.4,50.1z"/>
	<path class="st173" d="M34.7,52.2c2.4-0.9,4.8-1,7.4-0.7c1.1,0.1,2.4-0.2,3.6-0.2c0.3,1.2-0.1,2.1-1.3,2.5
		c-2.9,0.5-5.8,0.3-8.7,0.3c-0.5,0-1,0.1-1.5-0.1C34.3,53.4,34.3,52.7,34.7,52.2z"/>
	<path class="st174" d="M77.1,83.9c-0.1-1.1-1.4-2.4-2.4-2.5c-0.5,0-1.2,0.1-1.3-0.7c0-0.3-0.2-0.5-0.5-0.5c-2.3,0.2-2.9-2-4.3-3
		c0.4-0.9,1.2-1.2,2.1-1.1c1,1.2,2.7,1.4,4,2.4c0.9,0.7,2,1.2,2.8,2.1c0.3,0.3,0.7,0.4,1.1,0.5c0.6,0.1,1.1,0.3,1.2,0.9
		C79,82.9,77.9,83.3,77.1,83.9z"/>
	<path class="st175" d="M53.3,11.4c0.8,0.2,2.1-0.6,2.4,0.9c-1.6,1.1-2.9,2.6-5.1,2.6c-0.9,0-1.9-0.1-2.8,0.1
		c-1.9,0-3.8,0.1-5.7,0.1c-0.9,0.2-1.8,0.3-1.4-1.1c0.4-0.6,1.1-0.5,1.7-0.5c1.2,0,2.4,0,3.6,0c0.8,0,1.6-0.1,2.3-0.7
		c0.7-0.6,1.5-0.5,2.3-0.6c0.7-0.1,1.3-0.4,1.8-0.7C52.7,11.4,53,11.4,53.3,11.4z"/>
	<path class="st176" d="M79.7,82c-0.2-0.2-0.4-0.4-0.6-0.4c-2.4-0.1-3.3-2.7-5.5-3.3c-0.4-0.1-0.9-0.6-1.4-0.6
		c-0.9-0.1-1.3-0.6-1.5-1.4c0.3-1.1,1.2-1.3,2.2-1.5c2.2,0.8,3.8,2.4,5.5,3.9c0.7,0.5,1.2,1.2,2.1,1.3c0.5,0,0.9,0.3,0.6,0.9
		C80.7,81.5,80.1,81.6,79.7,82z"/>
	<path class="st177" d="M37.1,73.8c-0.6-0.7-1-1.5-1.2-2.4c1.2-0.8,2.6-0.4,3.8-0.4c1.4-0.1,2.7,0,4,0.9c1.1,0.8,2.7,0.2,4,0.3
		c1.6,0.5,2.6,1.6,2.7,2.8c-0.6,0.5-1.3,0.5-1.9,0c-0.7-0.6-1.4-0.6-2.3-0.7c-1.8-0.1-3.6,0.3-5.3-0.7c-0.6-0.4-1.5,0.1-2.2,0.4
		C38.2,74.1,37.7,74.3,37.1,73.8z"/>
	<path class="st178" d="M75.8,72c0.6,0.9,1,1.9,2.5,1.9c0.6,0,0.9,0.7,1.3,1.2c1.2,1.3,2.7,2.1,4.3,2.7c-0.5,0.7-1,1.4-1.7,1.9
		c-1.8-0.9-3.5-2.2-5.1-3.4c-0.5-0.4-1-0.8-1.7-0.9c-1-0.1-1.5-0.7-1.4-1.8C74.6,73,74.7,72,75.8,72z"/>
	<path class="st179" d="M33.5,61.3c0-0.8,0-1.6,0-2.4c0.3-0.3,0.6-0.4,0.9-0.4c2.6-0.1,5.2-0.1,7.7,0c1.3,0.1,1.5,0.5,1.3,2.3
		c-0.3,0.9-0.9,0.9-1.5,0.4c-0.8-0.7-1.5-0.5-2.4,0C37.7,62.2,35.6,62,33.5,61.3z"/>
	<path class="st180" d="M48.1,72.4c-1.4,0.5-2.9,0.1-4.3,0.2h-0.1c-2.1-2.3-4.8-0.7-7.1-1.2c-0.2,0-0.4,0-0.6,0
		c-0.3-0.3-0.5-0.8-0.5-1.2c3.7,0,7.3,0,11,0C47.3,70.6,48.1,71.2,48.1,72.4z"/>
	<path class="st181" d="M74.3,73.6c0,1,0.4,1.6,1.5,1.4c1.3-0.3,1.5,1,2.2,1.5c1.5,0.9,3.2,1.6,4.2,3.1c-0.3,0.5-0.7,0.9-1.2,1.2
		c0-0.3-0.1-0.6-0.4-0.6c-2.3-0.2-3.2-2.3-4.9-3.4c-1-0.7-2.1-1.3-3.1-1.9C72.9,74.2,73.2,73.4,74.3,73.6z"/>
	<path class="st182" d="M47.8,15c0.4-0.4,0.9-0.3,1.3-0.2c1.6,0.3,3-0.2,4.1-1.1c0.8-0.7,1.7-0.9,2.5-1.3c1.7,0.3,3.5-0.7,5.2,0
		c-0.4,0.6-0.6,1.1-1.5,0.5c-0.9-0.5-1.8,0.5-2.8,0.4c-0.2,0-0.8,0.7-0.7,1.2c0.2,0.6,0.9,0.2,1.3,0.3c3.7,0,7.3,0,11,0
		c2.1,0,4.3,0,6.4,0c0.4,0.1,0.9-0.1,1.2,0.2C66.5,15,57.1,15,47.8,15z"/>
	<path class="st183" d="M37.1,73.8c0.6,0,1.1-0.2,1.6-0.4c1.1-0.3,2.1-0.9,3.4,0.1c1.1,0.8,2.8,0.2,4.2,0.3c1,0.1,2-0.2,2.7,0.9
		c0.4,0.7,1.1,0,1.7,0c1.1,0.1,2,0.4,2.4,1.5c-1.2,0-2.5,0.5-3.6-0.3c-0.7-0.5-1.4,0.2-2.2,0c-0.7-0.4-1.4-0.5-2.2-0.5
		c-1.4,0-2.9,0.2-4.1-0.9c-0.4-0.4-1.1-0.2-1.6,0s-1,0.4-1.6,0.3C37.4,74.6,37.1,74.3,37.1,73.8z"/>
	<path class="st184" d="M85.5,34c1.4-0.1,2.7-0.1,3.9,0.8c0.9,0.7,2,0.3,2.9,0.4c0.9,0.1,2-0.1,2.3,1.2c-3.9,1.5-6.2,1.2-8.4-1.1
		C86,34.8,85.6,34.5,85.5,34z"/>
	<path class="st185" d="M63.3,83.6c0.2,0.1,0.5,0.3,0.7,0.3c2.2-0.3,3.5,1.3,5.2,2.2c0.5,0.3,0.5,0.7,0.5,1.2
		c-0.7,0.4-1.6,0.6-2.4,0.6l0,0c-0.6-0.8-1.5-1-2.3-1.4c-1.4-0.7-3.3-1-4.2-2.6c-0.1-0.3-0.2-0.6-0.1-0.9c0.1-0.1,0.2-0.3,0.3-0.3
		C62,82.3,62.5,83.2,63.3,83.6z"/>
	<path class="st186" d="M37.7,74.9c1.9-1.2,2.5-1.2,4.2-0.1c1.2,0.7,2.6,0.2,4,0.3c0.6,0.1,1.4-0.1,1.3,0.9c0.1,0.2,0.2,0.4,0.3,0.6
		c-0.6,0.5-1.3,0.1-1.9,0c-0.6-0.1-1.2-0.3-1.8,0c-1.8,0.2-3.5-0.4-5.2-0.3C38.2,75.9,37.9,75.4,37.7,74.9z"/>
	<path class="st187" d="M33.5,61.3c1.3,0,2.5,0,3.8,0c0.9,0,1.8,0.2,2.5-0.9c0.3-0.6,1.8-0.7,2.4,0.4c0.3,0.5,0.5,0.8,1,0.3
		c0.2-0.1,0.3-0.1,0.4,0.1c0.2,0.5,0.3,1-0.1,1.4c-2.8,0-5.7,0-8.5,0c-0.7,0-1.3,0-1.3,1C33.4,62.8,33.5,62.1,33.5,61.3z"/>
	<path class="st188" d="M34.2,54c1.5-0.6,3-0.1,4.5-0.3c1.7-0.2,3.4,0.5,5-0.5c0.4-0.3,0.7,0.1,0.8,0.6c0.3,0.9,0.3,1.6-0.6,2.1
		c0-0.5,0-1-0.7-0.9c-1.3,0.2-2.7-0.2-4,0.1c-1.4,0.4-3-0.5-4.4,0.1c-0.3,0.1-0.6,0.2-0.8,0.3C34,55,34.1,54.5,34.2,54z"/>
	<path class="st189" d="M43.5,61c-0.1,0-0.1,0-0.2,0c0-2.1,0-2.1-2.1-2.1c-2.5,0-5.1,0-7.6,0c0-0.7-0.1-1.5,0.2-2.2
		c-0.1,0.9,0.5,1,1.3,1c2.8,0,5.7,0,8.5,0C44.2,58.8,44.3,59.9,43.5,61z"/>
	<path class="st190" d="M72.2,37.6c2.2,0,4.5,0,6.7,0c1.1,0.6,2,1.4,2.8,2.4c-1.1,0.1-2.2,0.2-3-0.9c-0.1-0.2-0.7-0.4-0.8-0.3
		c-1.9,1.3-3.8-0.4-5.7,0C71.9,38.4,71.8,38,72.2,37.6z"/>
	<path class="st191" d="M40.8,13.8c-0.2,1,0.4,1.3,1.3,1.2c-2.3,0.2-4.5,0.4-6.8,0.5c1.2-0.7,2.1-2.1,3.9-1.8c0.5,0.1,1.1,0,1.6-0.3
		c0.1,0.1,0.1,0.1,0.1,0.2C40.9,13.8,40.8,13.8,40.8,13.8z"/>
	<path class="st192" d="M40.8,13.8c0-0.1,0-0.2,0-0.3c0-0.3,0-0.6,0-0.9c1.5,0,3.1,0,4.6,0c0.7,0,1.3-0.1,1.8-0.6
		c0.4-0.4,1.1-0.5,1.5-0.9c1.2,0.3,2.4,0.4,3.7,0.3c-0.5,0.9-1.3,1.4-2.4,1.2c-0.7-0.1-1.4,0-1.8,0.8c-0.3,0.5-0.8,0.4-1.3,0.4
		C44.8,13.8,42.8,13.8,40.8,13.8z"/>
	<path class="st193" d="M40.8,12.6c-2.1,0-4.3,0-6.4,0c-0.1,0.1-0.2,0.1-0.3,0c0.9-0.7,1.9-1.3,3.1-1.2c0.2,0,0.5,0,0.6-0.1
		c1.4-2.1,3.5-1.2,5.4-1.4c1.2,0.6,2.4-0.3,3.7,0c-1.6,0.3-2.7,1.8-4.5,1.5C41.8,11.3,41.1,11.9,40.8,12.6z"/>
	<path class="st120" d="M48.7,11.1c-0.3,0.6-0.9,0.8-1.5,0.9C47.4,11.2,48.2,11.3,48.7,11.1z"/>
	<path class="st23" d="M34.1,12.6c0.1,0,0.2,0,0.3,0c0.1,0.9-0.2,1.3-1.1,1.2c-0.8-0.1-1.7,0-2.5,0c-0.1-0.8,0.2-1.3,1.1-1.2
		C32.6,12.7,33.4,12.6,34.1,12.6z"/>
	<path class="st194" d="M72.2,37.6c0,0.4,0,0.8,0,1.2c-3.5,0-6.9,0-10.4,0c-1.1,0.2-1.3,0-0.9-1.2c-0.1-1.4,0.6-2.1,1.8-2.4
		c0.6,0.1,1.3-0.2,1.8,0.3c0,0.6,0.2,1,0.9,0.9c0.6-0.1,1.5,0.4,1.8-0.5c0.4-1.1,1.4-0.9,1.7-0.3c0.6,1,1.4,1.2,2.3,1.4
		C71.7,37,72.1,37,72.2,37.6z"/>
	<path class="st195" d="M43.8,76.6c1.2-0.6,2.4-0.3,3.7,0c1.9-0.3,3.2,1,4.7,1.6c2.1,0.9,3.8,2.4,6.3,2c0.9-0.1,1.3,0.3,1.2,1.2
		c-0.5,0.6-1.3,0.4-1.9,0.5c-1.4-0.1-2.9,0.4-4.2-0.5c-1-0.2-2.5,0.7-2.7-1.2c0-0.1,0-0.4-0.1-0.4C48.4,78.7,46.6,76.8,43.8,76.6z"
		/>
	<path class="st196" d="M53.6,81.4c1.4,0,2.8,0,4.3,0c0.7,0.6,1.5,0.9,2.4,1.1c0.4,0.2,0.3,0.8,0.7,1.1c1.1,0.5,1.7,2,3.2,1.6
		c0.6,1.3,1.8,1.2,2.9,1.6c0.4,0.1,0.3,0.7,0.3,1.1c-1.6-1.3-3.8-1.1-5.4-2.4c-0.3-0.3-0.6-0.3-1-0.3c-0.6,0-1.1,0.1-1.2-0.7
		C59.7,84.1,59.3,84,59,84c-0.8,0-1.3,0-1.8-0.9c-0.3-0.7-1.5-0.3-2.3-0.3C53.8,82.7,53.5,82.3,53.6,81.4z"/>
	<path class="st197" d="M60.9,37.6c0,0.7-0.1,1.3,0.9,1.2c0,0.2-0.1,0.5,0,0.7c0.6,1.3,0.3,2.1-1.2,2.2c-1.8,0.1-3.5,0.7-5.2,1
		c-0.9-0.6-1.8-0.2-2.7-0.3c-1-0.7-2.2,0.1-3.2-0.5c-1.3-0.8-2.7-0.7-4.1-0.7c0.4-0.9,1.1-1.3,2.1-1.3c1.4,0.1,2.7,0.3,3.9-1
		c0.5-0.5,1.8-0.2,2.7-0.2c1,0,2,0,3,0c0.9,0,1.4-0.3,1.3-1.2C59.3,37.6,60.1,37.6,60.9,37.6z"/>
	<path class="st185" d="M60.3,82.6c-1.1,0.2-2-0.1-2.4-1.2c0.6,0,1.2,0,1.8,0c0.4,0,0.8,0,1.2,0c0.3,0.4,0.3,0.8,0,1.2
		C60.7,82.8,60.5,82.8,60.3,82.6z"/>
	<path class="st195" d="M60.9,82.6c0-0.4,0-0.8,0-1.2c0.7,0.9,2.1,0.8,2.4,2.1C62.3,84,61.9,82.4,60.9,82.6z"/>
	<path class="st195" d="M60.3,82.6c0.2,0,0.4,0,0.6,0c0,0.3,0,0.6,0,0.9C60.5,83.4,60.3,83.1,60.3,82.6z"/>
	<path class="st153" d="M59.7,40.1c0-0.5,0.2-1,0.7-1c0.7,0.1,0.7,0.8,0.7,1.3c0.1,0.4-0.3,0.7-0.8,0.7
		C59.6,41.2,59.7,40.6,59.7,40.1z"/>
</g>
</svg>
