<?xml version="1.0" encoding="utf-8"?>
<!-- Generator: Adobe Illustrator 19.2.1, SVG Export Plug-In . SVG Version: 6.00 Build 0)  -->
<svg version="1.1"
	 id="svg3070" inkscape:version="0.48.0 r9654" sodipodi:docname="New document 4" xmlns:cc="http://creativecommons.org/ns#" xmlns:dc="http://purl.org/dc/elements/1.1/" xmlns:inkscape="http://www.inkscape.org/namespaces/inkscape" xmlns:rdf="http://www.w3.org/1999/02/22-rdf-syntax-ns#" xmlns:sodipodi="http://sodipodi.sourceforge.net/DTD/sodipodi-0.dtd" xmlns:svg="http://www.w3.org/2000/svg"
	 xmlns="http://www.w3.org/2000/svg" xmlns:xlink="http://www.w3.org/1999/xlink" x="0px" y="0px" viewBox="0 0 488 121"
	 style="enable-background:new 0 0 488 121;" xml:space="preserve">
<style type="text/css">
	.st0{fill:#006699;}
	.st1{fill:#FFFFFF;}
	.st2{font-family:"a-otf-futo-min-a101-pr6n", 'Noto Serif JP', serif;}
	.st3{font-size:100px;}
</style>
<sodipodi:namedview  bordercolor="#666666" borderopacity="1.0" fit-margin-bottom="0" fit-margin-left="0" fit-margin-right="0" fit-margin-top="0" id="base" inkscape:current-layer="layer1" inkscape:cx="142.93233" inkscape:cy="33.703355" inkscape:document-units="px" inkscape:pageopacity="0.0" inkscape:pageshadow="2" inkscape:window-height="750" inkscape:window-maximized="1" inkscape:window-width="1280" inkscape:window-x="-8" inkscape:window-y="-8" inkscape:zoom="2.8" pagecolor="#ffffff" showgrid="false">
	</sodipodi:namedview>
<path id="path14" inkscape:connector-curvature="0" class="st0" d="M6.4,15.7c0-4.3,3.6-7.8,8-7.8h91.9c4.4,0,8,3.4,8,7.8v92.9
	c0,4.3-3.6,7.8-8,7.8H14.4c-4.4,0-8-3.4-8-7.8V15.7z"/>
<path id="path28" inkscape:connector-curvature="0" class="st1" d="M39.2,95V46H22.9V95H39.2z M31.1,39.2c5.7,0,9.2-3.7,9.2-8.4
	c-0.1-4.8-3.6-8.4-9.1-8.4S22,26.1,22,30.8C21.8,35.5,25.4,39.2,31.1,39.2L31.1,39.2L31.1,39.2z"/>
<path id="path30" inkscape:connector-curvature="0" class="st1" d="M48.1,95h16.2V67.6c0-1.4,0.1-3,0.6-4c1.1-3,3.8-6,8.4-6
	c5.8,0,8.3,4.6,8.3,11.1V95h16.2v-28c0-15.1-8-22.1-18.8-22.1c-8.8,0-12.7,5-14.8,8.3h0.1V46H48.1C48.3,50.6,48.1,95,48.1,95
	L48.1,95z"/>
<text transform="matrix(1 0 0 1 142 92.7927)" class="st1 st2 st3">LinkedIn</text>
</svg>
