<?xml version="1.0" encoding="utf-8"?>
<!-- Generator: Adobe Illustrator 19.2.1, SVG Export Plug-In . SVG Version: 6.00 Build 0)  -->
<svg version="1.1" id="Layer_1" xmlns="http://www.w3.org/2000/svg" xmlns:xlink="http://www.w3.org/1999/xlink" x="0px" y="0px"
	 viewBox="0 0 415.9 121" style="enable-background:new 0 0 415.9 121;" xml:space="preserve">
<style type="text/css">
	.st0{fill:none;}
	.st1{fill:#FFFFFF;}
	.st2{font-family:'Iowan Old Style', 'Palatino Linotype', 'URW Palladio L', P052, serif;}
	.st3{font-size:100px;}
	.st4{fill:#00ACED;}
</style>
<rect x="154.1" y="23.8" class="st0" width="253.3" height="72"/>
<text transform="matrix(1 0 0 1 154.0791 92.7927)" class="st1 st2 st3">Twitter</text>
<path class="st4" d="M140.7,18.1c-5,2.2-10.4,3.7-16,4.4c5.7-3.4,10.2-8.9,12.2-15.4c-5.4,3.2-11.3,5.5-17.7,6.8
	c-9.4-10-26.1-13.1-41.5-0.7c-6.2,8.8-7.8,18.1-6,26.1C48.7,38.1,28.2,27,14.4,10.1c-2.4,4.1-3.8,8.9-3.8,14
	c0,9.7,4.9,18.2,12.4,23.2c-4.6-0.1-8.9-1.4-12.6-3.5c-0.2,13.6,9.5,25.1,22.3,27.6c-2.3,0.6-4.8,1-7.3,1c-1.8,0-3.5-0.2-5.2-0.5
	C23.8,83,34,91.1,46.2,91.3c-9.5,7.5-21.5,11.9-34.6,11.9c-2.2,0-4.5-0.1-6.6-0.4c12.3,7.9,27,12.5,42.7,12.5
	c51.2,0,79.2-42.4,79.2-79.2c0-1.2,0-2.4-0.1-3.6C132.3,28.6,137,23.7,140.7,18.1"/>
</svg>
