<?xml version="1.0" encoding="utf-8"?>
<!-- Generator: Adobe Illustrator 19.2.0, SVG Export Plug-In . SVG Version: 6.00 Build 0)  -->
<svg version="1.1" id="Layer_1" xmlns="http://www.w3.org/2000/svg" xmlns:xlink="http://www.w3.org/1999/xlink" x="0px" y="0px"
	 viewBox="0 0 500 500" style="enable-background:new 0 0 500 500;" xml:space="preserve">
<style type="text/css">
	.st0{fill:#171412;}
	.st1{fill:#FFFFFF;}
</style>
<g>
	<circle class="st0" cx="250" cy="250" r="250"/>
</g>
<path class="st1" d="M296.7,287.4h-0.3H296c-0.3,0-0.3,0-0.7,0s-0.3,0-0.7,0h-59.7l-3.4-12.3h70.6c3.1,0,5.5-2,6.1-5.1l9.6-51.8
	c0.3-1.7,0-3.8-1.4-5.1c-1-1.4-3.1-2.4-4.8-2.4H214l-2.4-8.5c-0.7-2.7-3.1-4.4-6.1-4.4h-17.4c-3.4,0-6.1,2.7-6.1,6.1
	c0,3.4,2.7,6.1,6.1,6.1h12.6l21.1,77.8c-7.8,1-14,7.8-14,16c0,8.9,7.5,16.4,16.4,16.4s16.4-7.5,16.4-16.4c0-1.4-0.3-2.7-0.7-3.8
	h38.9c-0.3,1.4-0.3,2.4-0.3,3.8c0,8.9,7.2,16.4,16.4,16.4c8.9,0,16.4-7.5,16.4-16.4C311.3,295.2,304.9,288.1,296.7,287.4z
	 M223.7,245.8H237v16.7h-8.5L223.7,245.8z M264.6,239.6v-16.7h15.7v16.7H264.6z M280.3,245.8v16.7h-15.7v-16.7H280.3z M258.5,239.6
	h-15.7v-16.7h15.7V239.6z M258.5,245.8v16.7h-15.7v-16.7H258.5z M286.4,262.5v-16.7H300l-3.1,16.7H286.4z M301.1,239.6h-14.7v-16.7
	h17.7L301.1,239.6z M236.6,222.9v16.7H222l-4.4-16.7H236.6z M224.4,307.5c-2,0-4.1-1.7-4.1-3.8c0-2,1.7-4.1,4.1-4.1
	c2,0,4.1,1.7,4.1,4.1C228.4,305.8,226.7,307.5,224.4,307.5z M295,307.5c-2,0-4.1-1.7-4.1-3.8c0-2,1.7-3.8,3.8-3.8h0.7
	c2,0,3.8,1.7,3.8,3.8C299.1,305.8,297.3,307.5,295,307.5z"/>
</svg>
