<?xml version="1.0" encoding="utf-8"?>
<!-- Generator: Adobe Illustrator 19.2.0, SVG Export Plug-In . SVG Version: 6.00 Build 0)  -->
<svg version="1.1" id="Layer_1" xmlns="http://www.w3.org/2000/svg" xmlns:xlink="http://www.w3.org/1999/xlink" x="0px" y="0px"
	 viewBox="0 0 500 500" style="enable-background:new 0 0 500 500;" xml:space="preserve">
<style type="text/css">
	.st0{fill:#171412;}
	.st1{fill:#FFFFFF;}
</style>
<g>
	<circle class="st0" cx="250" cy="250" r="250"/>
	<path class="st1" d="M301.7,192.2v15.2h5.5v-15.2h15.2v-5.5h-15.2v-15.2h-5.5v15.2h-15.2v5.5H301.7z"/>
	<g>
		<path class="st1" d="M253.8,217.3c-2.4-2.4-7.2-4.5-11-4.5h-40.6c-3.7,0-6.7,2.9-6.7,6.7v85.3c0,3.7,2.9,6.7,6.7,6.7h69
			c3.7,0,6.7-2.9,6.7-6.7v-57c0-3.5-2.1-8.3-4.5-11L253.8,217.3z M245.5,245.4v-22.5c0.8,0.3,1.3,0.8,1.6,0.8l19.8,19.8
			c0.3,0.3,0.5,0.8,0.8,1.6h-22.2V245.4z M242.9,254.7h25.7v47.6h-63.6v-79.9h31.3V248C236.2,251.8,239.1,254.7,242.9,254.7z"/>
		<path class="st1" d="M300.4,210.3l-19.8-19.8c-2.4-2.4-7.2-4.5-11-4.5H229c-3.7,0-6.7,2.9-6.7,6.7v15.5h9.4v-12.8h31.3V221
			c0,3.7,2.9,6.7,6.7,6.7h25.7v47.6h-11v9.4h13.4c3.7,0,6.7-2.9,6.7-6.7v-57C304.9,217.8,302.8,213,300.4,210.3z M272.3,218.6v-22.5
			c0.8,0.3,1.3,0.8,1.6,1.1l19.8,19.8c0.3,0.3,0.5,0.8,0.8,1.6H272.3z"/>
	</g>
</g>
</svg>
