<?xml version="1.0" encoding="utf-8"?>
<!-- Generator: Adobe Illustrator 27.0.1, SVG Export Plug-In . SVG Version: 6.00 Build 0)  -->
<svg version="1.1" id="Layer_1" xmlns="http://www.w3.org/2000/svg" xmlns:xlink="http://www.w3.org/1999/xlink" x="0px" y="0px"
	 viewBox="0 0 1721 360" style="enable-background:new 0 0 1721 360;" xml:space="preserve">
<style type="text/css">
	.st0{fill:#5E4F3F;}
</style>
<g>
	<path class="st0" d="M247,0.1c7.1,2.3,14.6,1.9,21.8,2.9c50.4,7.1,95.6,25.2,132.2,61.7c8.1,8.1,15.5,17,21.9,26.5
		c3.5,5.3,3.5,5.5-2,8.6c-41.5,23.9-82.9,47.9-124.4,71.7c-3.9,2.2-7.5,5.4-12.3,6.1c-0.2-2.6,1.3-4.1,2.3-5.7
		c22.9-36.6,45.8-73.3,68.8-109.8c2.2-3.5,2-5.1-1.7-7.3C301,22.7,226.8,31.4,182.4,75c-30.2,29.6-46.3,65.3-45.1,107.5
		c1.6,56.2,28.3,98.1,77.1,125.4c54,30.1,134.2,21.8,182.1-39.6c1-1.4,1.7-4,3.7-3.5c1.7,0.4,1.8,3,2.3,4.6c1.2,4,2.1,8,3.2,12
		c0.9,3.2-1.3,4.9-3,6.9c-23,26.1-51.7,43.5-84.1,55.2c-22.5,8.1-45.6,13.2-69.5,15c-0.8,0.1-1.7-0.1-2,1c-16.7,0-33.3,0-50,0
		c-0.7-1.7-2.3-0.9-3.5-1.1c-35.6-3.6-69.7-12.6-101-30.2c-48.8-27.4-80.4-67.6-89.9-123.7c-0.8-4.9-0.3-10.1-2.6-14.8
		c0-7.3,0-14.6,0-22c2-4.1,1.5-8.6,2.3-12.8c9.2-49.5,35.1-88.1,77.3-115.4C110.9,19.3,145.6,8.4,182.2,3c6.6-1,13.4-0.6,19.8-2.9
		C217,0.1,232,0.1,247,0.1z"/>
	<path class="st0" d="M1720.6,350.6c-2,0.2-4,0.5-5.9,0.5c-30.7,0-61.3-0.1-91.9,0.1c-4.8,0-7.2-1.1-6.7-6.3
		c0.2-2.1-0.2-4.3-0.2-6.5c0-65.2,0-130.4,0-195.6c0-14.6-8.1-25.4-20.7-27.8c-16.8-3.1-31.3,9.1-31.4,26.8
		c-0.1,35.1,0,70.2,0,105.3c0,32.6-0.2,65.2-0.1,97.8c0,4.7-1.2,6.4-6.2,6.4c-31.3-0.2-62.6-0.2-93.9,0c-4,0-5.4-1.4-5.3-5
		c0-2.5,0.1-5,0.1-7.4c0-72,0-144.1,0-216.1c0-8.4-0.1-8.5-8.7-8.5c-18,0-36,0-54,0c-1.7,0-3.6,0.8-5.1-0.9c0.6-2.1,2.5-2.1,3.9-2.8
		c31-14.5,62.1-28.7,92.9-43.4c31.7-15.2,62.5,3.2,71.8,25.8c0.7,1.7,1.3,3.4,1.9,5.1c2.3,7.3,2.3,7.3,9.1,4.1
		c25.1-11.7,50.2-23.5,75.4-35.1c34.1-15.7,67.1,4.9,74.3,33c0.1,0.4,0.6,0.7,0.9,1C1720.6,184.2,1720.6,267.4,1720.6,350.6z"/>
	<path class="st0" d="M1235.7,359.6c-6.4-2.7-13.4-2.8-20.1-4.6c-60.4-16.5-103.5-66.9-110.1-128.9
		c-8.5-79.9,49.3-153.1,129.1-163.2c79.9-10.1,153.2,44.1,166.9,123.4c13.8,80.4-41.8,158.2-122.7,171.6c-3,0.5-6.3,0-9,1.7
		C1258.4,359.6,1247.1,359.6,1235.7,359.6z M1277,338.8c12.8,0.2,21.2-4,27.8-11.8c8.7-10.3,8.9-21.9,5.6-34.3
		c-11-40.3-21.7-80.7-32.6-121.1c-6-22.3-11.4-44.7-18.2-66.7c-7-22.6-35-30-52.8-14.4c-11.1,9.7-13.2,22.1-9.5,35.9
		c10.4,38.6,20.7,77.2,31.1,115.8c6.7,24.8,13.1,49.7,20.3,74.4C1252.7,330.6,1265,338.8,1277,338.8z"/>
	<path class="st0" d="M729.5,113.4c0.8-2.4,2.9-2.5,4.4-3.2c31-14.5,62-28.9,93-43.3c30.6-14.2,64.5,1.1,74,33.4
		c1.6,5.3,4.2,3.8,7.5,2.3c25-11.7,50-23.3,75-34.9c23.1-10.7,46.4-7,62.9,10.1c9.5,9.9,14.6,21.8,14.6,35.5
		c0.1,77.4,0,154.8,0.1,232.1c0,4.4-1.4,6-5.6,6c-31.2-0.1-62.3-0.2-93.4-0.3c-6.6,0-6.7,0-6.7-6.7c0-65.6,0-131.1,0-196.7
		c0-2.8-0.2-5.6-0.3-8.5c-1-14.5-12.2-25.1-26.1-24.8c-14.6,0.3-25.9,11.9-25.9,26.8c0,67.4,0,134.8,0,202.2c0,7.7,0,7.6-7.7,7.6
		c-30.5,0-61-0.1-91.5,0.1c-5,0-7.1-1.5-6.8-6.4c0.1-1.5,0-3,0-4.5c0-71.4,0-142.8,0-214.2c0-12.8,2.2-12.1-12.3-12.1
		c-16.7,0-33.3,0-50,0C733.1,114.1,731.4,114.5,729.5,113.4z"/>
	<path class="st0" d="M526.6,114.1c-20,0-40,0-60-0.1c-1.2,0-3,0.9-3.4-0.8c-0.4-1.7,1.6-1.8,2.7-2.2c40.4-14.7,80.8-29.4,121.3-44
		c48.4-17.5,99.9,8.9,113.3,58.5c19.7,72.9,39.2,145.9,58.7,218.8c1.8,6.5,1.5,6.8-5,6.8c-30.8,0-61.6-0.1-92.5,0.1
		c-4.9,0-7-1.6-8.2-6.4c-3-12.3-6.4-24.4-9.8-36.5c-0.4-1.5-0.2-3.8-2-4.2c-2.1-0.4-2.9,1.8-4,3.2c-41.9,54-124.9,66.9-180.4,27.5
		c-26.4-18.7-41.3-44-39.3-77.2c1.6-26,14.6-46.3,34.4-62.3c35.9-29.1,102.6-40.5,154.9-1.7c1.5,1.1,3.2,3.7,4.9,2.7
		c2.2-1.3,0.5-3.9,0-5.9c-6.1-22.9-12.2-45.8-18.4-68.8c-2-7.5-2-7.5-9.8-7.5C564.9,114.1,545.8,114.1,526.6,114.1z M575.4,315.8
		c29.9,0,53.3-22.9,53.3-52.2c0-29.5-23.2-52.8-52.8-53c-29.4-0.2-52.8,22.9-52.8,52.2C523,292.9,545.6,315.8,575.4,315.8z"/>
</g>
</svg>
