<?xml version="1.0" encoding="utf-8"?>
<!-- Generator: Adobe Illustrator 27.0.1, SVG Export Plug-In . SVG Version: 6.00 Build 0)  -->
<svg version="1.1" id="Layer_1" xmlns="http://www.w3.org/2000/svg" xmlns:xlink="http://www.w3.org/1999/xlink" x="0px" y="0px"
	 viewBox="0 0 1686 293.2" style="enable-background:new 0 0 1686 293.2;" xml:space="preserve">
<style type="text/css">
	.st0{fill:#5E4F3F;}
</style>
<g>
	<path class="st0" d="M1255.8,160.5c18.4,33.8,36.6,67.2,54.7,100.5c-1.6,1.4-2.8,1.1-3.8,1.1c-17.9,0-35.8,0-53.8,0
		c-2.8,0-4.9-0.2-6.5-3.2c-19.4-36.5-38.9-72.9-58.3-109.3c-0.1-0.2,0-0.4,0-1c6.6-1,13.3-1.9,19.9-3c5-0.8,9.9-2.3,14.6-4.3
		c11.1-4.9,18.1-13,20.2-25.2c1.6-9.3,1.2-18.5-1.6-27.5c-4.1-13-13.1-20.8-26.2-23.7c-11.6-2.5-23.4-1.1-35.1-1.4
		c-2,0-2.7,1.1-2.6,2.9c0.1,1.8,0,3.5,0,5.3c0,61,0,122.1,0,183.2c0,8,0.8,7.2-7,7.2c-15.3,0-30.5,0-45.8,0c-6.4,0-6.5,0.9-6.5-6.4
		c0-38.5,0-77,0-115.5c0-33.8,0-67.7,0-101.5c0-1.5,0.1-3.1,0-4.6c-0.1-2.2,0.8-3.3,3.1-3.2c1.1,0.1,2.2,0,3.3,0
		c34.9,0,69.9,0,104.8,0c12.3,0,24.2,1.9,35.4,7.1c26,12.1,40.6,37.7,37.9,66.2c-0.5,5.1-1.1,10.1-2.5,15
		c-4.5,15.9-14.6,27-29.1,34.3C1266.1,156.1,1261,158.1,1255.8,160.5z"/>
	<path class="st0" d="M167.7,109.7c0,2.3,0,4.6,0,6.9c0,45.6,0,91.1,0,136.7c0,1.6-0.1,3.1,0,4.6c0.2,3-0.7,4.4-4,4.3
		c-10.6-0.2-21.2-0.2-31.8,0c-3.7,0.1-4.7-1.4-4.3-4.7c0.1-1.1,0-2.2,0-3.3c0-71.9,0-143.7,0-215.6c0-0.9,0-1.8,0-2.7
		c0.1-5,0.1-5,5.1-5c15.3,0,30.5,0.1,45.8-0.1c4.2-0.1,6.8,1.3,9.4,4.6c30.8,38.8,61.8,77.4,92.7,116.1c1.3,1.7,2.7,3.3,4.6,5.6
		c1.4-2.9,0.9-5.3,0.9-7.5c0-36.9,0-73.9,0-110.8c0-1.5,0.1-3.1,0-4.6c-0.1-2.1,0.4-3.3,2.9-3.2c10.4,0.1,20.8,0.1,31.2,0
		c2.7,0,3.5,1.2,3.3,3.6c-0.1,1.1,0,2.2,0,3.3c0,72.3,0,144.6,0,216.9c0,8.3,0.9,7.4-7.5,7.4c-6.6,0-13.3-0.2-19.9,0.1
		c-3.9,0.2-6.4-1.1-8.9-4.2c-27.4-34.7-54.9-69.3-82.4-103.9c-11.8-14.9-23.6-29.8-35.5-44.7C168.8,109.5,168.3,109.6,167.7,109.7z"
		/>
	<path class="st0" d="M466.5,271.3c-17-0.3-32.3-2.3-46.9-8.1c-26.4-10.4-45.6-28.8-56.7-54.7c-17.5-40.8-17.9-82.3-0.2-123
		c15.6-36,43.9-56.7,82.9-62.3c18.6-2.7,37.1-1.9,55.2,3.5c31.2,9.3,53.3,29.4,65.7,59.1c17.2,41.1,17.2,82.9-1,123.7
		c-16.8,37.6-47.1,57.2-87.9,61C473.4,270.9,469.2,271.1,466.5,271.3z M521.3,145.8c-0.3-11.1-0.9-23.1-3.4-34.8
		c-3.2-14.6-8.2-28.4-18-40c-20.1-23.5-51.4-23.2-71.1,0.8c-7,8.5-11.6,18.3-14.5,28.8c-7.7,28.2-7.8,56.7-1.7,85.2
		c2.8,13.3,8,25.7,16.9,36.3c19.3,22.8,50.1,23.1,69.8,0.6c5.9-6.7,10.1-14.4,13.3-22.7C519.3,182.7,521,164.8,521.3,145.8z"/>
	<path class="st0" d="M1037,30.9c12.8,0,25.9,0,38.9,0c2.2,0,3.3,0.8,3.1,3.1c-0.1,1.1,0,2.2,0,3.3c0,48.2,0,96.4,0,144.6
		c0,9.8-0.8,19.5-3,28.9c-6.6,27.7-23.2,46.2-50.6,54.4c-28,8.3-56.3,8.4-84.3-0.1c-32.4-9.8-49-32.9-53.2-65.7
		c-1-7.5-1.2-15-1.2-22.5c0.1-46,0-92,0-138c0-2.4,0-4.8,0-7c1.9-1.4,3.7-1,5.4-1c16.4,0,32.7,0,49.1,0c5.6,0,5.7,0,5.7,5.8
		c0,47.3,0,94.7,0,142c0,8.2,0.1,16.3,1.8,24.4c3.8,18.5,13,27.9,31.5,30.8c9.2,1.4,18.5,1.3,27.7-1c12.3-3.1,20.5-10.8,24.5-22.9
		c3.2-9.8,3.8-19.9,3.8-30.1c0-47.1,0-94.2,0-141.3C1036.3,36.2,1035.7,33.7,1037,30.9z"/>
	<path class="st0" d="M1558.5,262.2c-21.3,0-41.6-0.1-61.9,0.1c-3.7,0-4.3-2.1-5.3-4.6c-6.9-17.2-13.8-34.4-20.7-51.6
		c-0.6-1.4-1.2-2.9-1.7-4.3c-0.8-2.5-2.3-3.2-4.9-3.2c-25.9,0.1-51.7,0.1-77.6,0c-3.6,0-4.3,2.1-5.3,4.6
		c-6.8,17.2-13.8,34.4-20.6,51.6c-0.6,1.4-1.2,2.9-1.7,4.3c-0.8,2.4-2.3,3.3-4.9,3.3c-11.7-0.1-23.4-0.1-35.3-0.1
		c-0.9-2.8,0.8-4.7,1.6-6.8c24.2-60.4,48.5-120.8,72.7-181.2c5.2-12.9,10.5-25.8,15.4-38.8c1.3-3.5,3.1-4.6,6.8-4.5
		c14.4,0.2,28.7,0.1,43.1,0.1c7.2,0,5.7-0.3,8,5.5c21,51,41.8,102.1,62.7,153.2c9,22.1,18,44.1,27.1,66.2
		C1556.8,257.5,1557.4,259.4,1558.5,262.2z M1395.8,165.3c19.6,0,38.4,0,58,0c-9.6-24.1-19.1-47.8-29-72.5
		C1414.9,117.6,1405.5,141.2,1395.8,165.3z"/>
	<path class="st0" d="M790.1,262.2c-17.9,0-34.9,0-51.9,0c-3.5,0-7.8,1.5-10.3-0.7c-2.4-2.1-3-6.2-4.3-9.5c-17-45.5-34-91-51-136.4
		c-0.9-2.4-1.4-5.1-3.2-7.2c-2.2,1.6-2.4,4.2-3.2,6.4c-17.7,47.1-35.3,94.2-53,141.4c-2.3,6.1-2.3,6.1-8.8,6.1c-11.5,0-23,0-34.5,0
		c-0.3-2.6,0.9-4.5,1.7-6.6C598.8,182.8,626,110,653.2,37.2c2.7-7.3,0.8-6.3,9.3-6.3c10.8,0,21.7,0,32.5,0c8.6,0,6.6-1,9.6,6.9
		c13.1,34.2,26.2,68.4,39.3,102.7c14.7,38.4,29.3,76.7,44,115.1C788.6,257.4,789.2,259.3,790.1,262.2z"/>
	<path class="st0" d="M758.1,107.9c-2.2,5.7-4.2,11.2-6.3,16.7c-2.4-0.3-2.2-2.3-2.7-3.6c-6.1-15.2-11.9-30.4-18-45.5
		c-1.4-3.4-1.3-6.2,0.1-9.5c4.1-10,8-20.1,11.7-30.2c1.3-3.6,2.9-5.1,7-5c12.6,0.3,25.2,0.1,37.8,0.1c5.4,0,5.4,0,7.4,5.3
		c18.1,47.4,36.2,94.8,54.3,142.2c9.8,25.8,19.7,51.5,29.5,77.3c0.7,1.8,1.4,3.7,2.3,6.2c-2.3,0.1-4.2,0.3-6.1,0.3
		c-17.7,0-35.4,0-53.1,0c-7.5,0-6,0.6-8.4-5.8c-17.4-47-34.6-94-52-141C760.8,113,760.5,110.2,758.1,107.9z"/>
	<path class="st0" d="M655.6,254.8c9.7-26.8,19.1-52.6,28.5-78.4c2.6,0.2,2.3,2.3,2.8,3.5c5.5,13.5,10.8,27,16.3,40.5
		c1.1,2.8,1.5,5.2,0.2,8.2c-3.2,7.5-6.2,15.1-9,22.7c-0.9,2.3-1.9,3.6-4.7,3.6C678.7,254.8,667.6,254.8,655.6,254.8z"/>
</g>
</svg>
