<?xml version="1.0" encoding="utf-8"?>
<!-- Generator: Adobe Illustrator 27.0.1, SVG Export Plug-In . SVG Version: 6.00 Build 0)  -->
<svg version="1.1" id="Layer_1" xmlns="http://www.w3.org/2000/svg" xmlns:xlink="http://www.w3.org/1999/xlink" x="0px" y="0px"
	 viewBox="0 0 1721 360" style="enable-background:new 0 0 1721 360;" xml:space="preserve">
<style type="text/css">
	.st0{fill:#CC0303;}
	.st1{fill:#CB0202;}
	.st2{fill:#CB0303;}
	.st3{fill:#CC0202;}
</style>
<g>
	<path class="st0" d="M247.03,0.09c7.1,2.27,14.56,1.9,21.83,2.92c50.41,7.09,95.61,25.23,132.21,61.72
		c8.14,8.12,15.46,16.96,21.85,26.54c3.53,5.29,3.51,5.49-1.95,8.64c-41.46,23.92-82.92,47.85-124.42,71.7
		c-3.91,2.25-7.47,5.39-12.34,6.15c-0.25-2.61,1.28-4.09,2.29-5.7c22.89-36.64,45.8-73.27,68.84-109.81
		c2.18-3.46,1.95-5.13-1.67-7.35c-52.65-32.22-126.82-23.48-171.28,20.1c-30.18,29.58-46.33,65.26-45.13,107.54
		c1.59,56.23,28.3,98.1,77.14,125.36c53.98,30.13,134.18,21.81,182.12-39.58c1.05-1.35,1.72-3.96,3.68-3.49
		c1.69,0.4,1.79,2.97,2.29,4.65c1.19,3.97,2.11,8.02,3.2,12.03c0.86,3.16-1.31,4.94-3.05,6.91c-22.95,26.15-51.71,43.51-84.15,55.2
		c-22.48,8.11-45.64,13.21-69.5,14.96c-0.8,0.06-1.7-0.1-1.96,1c-16.66,0-33.32,0-49.98,0c-0.73-1.73-2.31-0.94-3.48-1.06
		c-35.61-3.59-69.67-12.65-100.97-30.22C43.8,300.89,12.2,260.71,2.66,204.62c-0.84-4.93-0.29-10.12-2.56-14.81
		c0-7.32,0-14.65,0-21.97c2.02-4.05,1.54-8.56,2.34-12.84c9.23-49.53,35.14-88.05,77.3-115.45C110.91,19.3,145.59,8.35,182.22,3.02
		c6.61-0.96,13.42-0.58,19.82-2.93C217.04,0.09,232.03,0.09,247.03,0.09z"/>
	<path class="st1" d="M1720.57,350.58c-1.98,0.16-3.97,0.46-5.95,0.46c-30.65,0.03-61.3-0.07-91.94,0.12
		c-4.85,0.03-7.23-1.14-6.67-6.34c0.23-2.12-0.22-4.31-0.22-6.46c-0.01-65.22,0-130.43-0.02-195.65
		c-0.01-14.65-8.12-25.45-20.73-27.79c-16.83-3.13-31.34,9.14-31.38,26.76c-0.08,35.1,0,70.21-0.03,105.31
		c-0.03,32.61-0.19,65.21-0.07,97.82c0.02,4.71-1.19,6.4-6.17,6.36c-31.31-0.2-62.63-0.19-93.94,0.01
		c-4.04,0.03-5.37-1.41-5.33-5.01c0.02-2.48,0.07-4.96,0.07-7.44c0-72.04,0-144.08,0-216.12c0-8.41-0.11-8.51-8.72-8.51
		c-17.99,0-35.98,0.03-53.97-0.04c-1.67-0.01-3.63,0.83-5.09-0.88c0.56-2.05,2.52-2.11,3.89-2.75
		c30.98-14.5,62.11-28.67,92.95-43.44c31.67-15.17,62.5,3.2,71.75,25.84c0.69,1.69,1.32,3.4,1.87,5.14c2.31,7.31,2.31,7.26,9.08,4.1
		c25.12-11.73,50.24-23.47,75.42-35.07c34.05-15.68,67.06,4.9,74.29,32.99c0.1,0.38,0.6,0.66,0.92,0.98
		C1720.57,184.16,1720.57,267.37,1720.57,350.58z"/>
	<path class="st2" d="M1235.72,359.57c-6.41-2.72-13.41-2.82-20.05-4.63c-60.44-16.54-103.52-66.85-110.14-128.92
		c-8.53-79.94,49.3-153.07,129.06-163.2c79.9-10.14,153.24,44.09,166.88,123.39c13.83,80.45-41.8,158.17-122.71,171.62
		c-3,0.5-6.26,0-9.04,1.74C1258.38,359.57,1247.05,359.57,1235.72,359.57z M1277.04,338.76c12.85,0.18,21.21-4,27.8-11.77
		c8.71-10.27,8.95-21.87,5.56-34.28c-11-40.33-21.74-80.73-32.61-121.09c-5.99-22.26-11.41-44.7-18.25-66.69
		c-7.04-22.64-34.98-29.97-52.78-14.43c-11.1,9.69-13.25,22.09-9.54,35.88c10.36,38.61,20.69,77.22,31.09,115.82
		c6.68,24.82,13.1,49.72,20.32,74.39C1252.73,330.63,1265.03,338.76,1277.04,338.76z"/>
	<path class="st3" d="M729.53,113.41c0.82-2.4,2.89-2.53,4.43-3.25c30.99-14.48,61.99-28.94,93.03-43.32
		c30.61-14.19,64.45,1.06,73.96,33.44c1.56,5.31,4.25,3.75,7.45,2.26c24.98-11.65,49.96-23.3,74.97-34.91
		c23.11-10.73,46.39-7.05,62.93,10.07c9.54,9.87,14.58,21.82,14.59,35.53c0.09,77.38,0.01,154.76,0.14,232.14
		c0.01,4.37-1.41,6.04-5.6,6.02c-31.15-0.14-62.29-0.22-93.44-0.32c-6.64-0.02-6.66-0.02-6.66-6.68c0-65.56,0-131.13-0.02-196.69
		c0-2.82-0.15-5.65-0.34-8.46c-1-14.46-12.24-25.11-26.09-24.79c-14.59,0.34-25.87,11.94-25.87,26.84
		c-0.03,67.39-0.01,134.79-0.02,202.18c0,7.73,0,7.63-7.68,7.62c-30.49-0.04-60.98-0.14-91.46,0.1c-5,0.04-7.06-1.51-6.8-6.37
		c0.08-1.49-0.01-2.99-0.01-4.49c0-71.39-0.01-142.78,0-214.16c0-12.84,2.25-12.06-12.33-12.06c-16.66,0-33.32,0.01-49.98-0.02
		C733.11,114.06,731.42,114.51,729.53,113.41z"/>
	<path class="st0" d="M526.62,114.09c-19.99,0-39.98,0.02-59.97-0.05c-1.16,0-3.04,0.88-3.42-0.82c-0.38-1.71,1.57-1.77,2.73-2.19
		c40.43-14.7,80.84-29.43,121.3-44.05c48.41-17.49,99.86,8.94,113.26,58.46c19.72,72.88,39.15,145.85,58.69,218.78
		c1.75,6.54,1.51,6.84-4.99,6.84c-30.82,0-61.63-0.09-92.45,0.09c-4.88,0.03-7.03-1.6-8.18-6.38c-2.95-12.26-6.44-24.39-9.83-36.54
		c-0.41-1.48-0.16-3.82-2-4.17c-2.06-0.39-2.9,1.82-4,3.24c-41.89,54.03-124.86,66.87-180.39,27.47
		c-26.37-18.71-41.31-44-39.31-77.2c1.57-25.99,14.62-46.29,34.39-62.29c35.92-29.09,102.57-40.54,154.9-1.74
		c1.55,1.15,3.22,3.68,4.94,2.66c2.16-1.28,0.51-3.9-0.02-5.88c-6.11-22.93-12.25-45.85-18.39-68.76c-2-7.47-2.02-7.47-9.81-7.47
		C564.93,114.09,545.78,114.09,526.62,114.09z M575.42,315.8c29.93,0.02,53.28-22.85,53.32-52.22c0.05-29.48-23.2-52.8-52.79-52.96
		c-29.44-0.16-52.81,22.91-52.85,52.18C523.05,292.93,545.61,315.78,575.42,315.8z"/>
</g>
</svg>
