<?xml version="1.0" encoding="utf-8"?>
<!-- Generator: Adobe Illustrator 19.2.0, SVG Export Plug-In . SVG Version: 6.00 Build 0)  -->
<svg version="1.1" id="Layer_1" xmlns="http://www.w3.org/2000/svg" xmlns:xlink="http://www.w3.org/1999/xlink" x="0px" y="0px"
	 viewBox="0 0 500 500" style="enable-background:new 0 0 500 500;" xml:space="preserve">
<style type="text/css">
	.st0{fill:#171412;}
	.st1{fill:#FFFFFF;}
</style>
<g>
	<circle class="st0" cx="250" cy="250" r="250"/>
	<path class="st1" d="M300.1,233.5l-11.8,11.8L252.9,210l11.8-11.8c3.1-3.1,8.6-3.1,11.8,0l23.6,23.6
		C303.4,225,303.4,230.3,300.1,233.5z M229.8,304.2h-35.3v-35.3l48.1-48.1l11.8,11.8l-38.8,38.7l11.8,11.8l38.8-38.7l11.8,11.8
		L229.8,304.2z M289,186.4c-4.7-4.7-10.9-7.3-17.6-7.3c-6.6,0-12.9,2.6-17.6,7.3l-76.1,76v58.4h58.5l76.1-76
		c9.7-9.7,9.7-25.4,0-35.1L289,186.4z"/>
</g>
</svg>
