<?xml version="1.0" encoding="utf-8"?>
<!-- Generator: Adobe Illustrator 19.2.1, SVG Export Plug-In . SVG Version: 6.00 Build 0)  -->
<svg version="1.1"
	 id="svg3070" inkscape:version="0.48.0 r9654" sodipodi:docname="New document 4" xmlns:cc="http://creativecommons.org/ns#" xmlns:dc="http://purl.org/dc/elements/1.1/" xmlns:inkscape="http://www.inkscape.org/namespaces/inkscape" xmlns:rdf="http://www.w3.org/1999/02/22-rdf-syntax-ns#" xmlns:sodipodi="http://sodipodi.sourceforge.net/DTD/sodipodi-0.dtd" xmlns:svg="http://www.w3.org/2000/svg"
	 xmlns="http://www.w3.org/2000/svg" xmlns:xlink="http://www.w3.org/1999/xlink" x="0px" y="0px" viewBox="0 0 488 124.4"
	 style="enable-background:new 0 0 488 124.4;" xml:space="preserve">
<style type="text/css">
	.st0{fill:#FFFFFF;}
	.st1{font-family:"a-otf-futo-min-a101-pr6n", 'Noto Serif JP', serif;}
	.st2{font-size:100px;}
	.st3{fill:#DC4A38;}
</style>
<sodipodi:namedview  bordercolor="#666666" borderopacity="1.0" fit-margin-bottom="0" fit-margin-left="0" fit-margin-right="0" fit-margin-top="0" id="base" inkscape:current-layer="layer1" inkscape:cx="142.93233" inkscape:cy="33.703355" inkscape:document-units="px" inkscape:pageopacity="0.0" inkscape:pageshadow="2" inkscape:window-height="750" inkscape:window-maximized="1" inkscape:window-width="1280" inkscape:window-x="-8" inkscape:window-y="-8" inkscape:zoom="2.8" pagecolor="#ffffff" showgrid="false">
	</sodipodi:namedview>
<text transform="matrix(1 0 0 1 142 92.7927)" class="st0 st1 st2">Google+</text>
<g>
	<path class="st3" d="M113.4,8.2H9.9c-1.9,0-3.4,1.5-3.4,3.4v101.1c0,1.9,1.5,3.4,3.4,3.4h103.5c1.9,0,3.4-1.5,3.4-3.4V11.6
		C116.9,9.7,115.3,8.2,113.4,8.2z"/>
	<g>
		<path class="st0" d="M64.4,67.5l-3.5-2.7c-1.1-0.9-2.5-2-2.5-4.2c0-2.1,1.5-3.5,2.7-4.7c4.1-3.2,8.1-6.6,8.1-13.8
			c0-7.4-4.6-11.2-6.9-13.1h6l6.3-4h-19c-5.2,0-12.8,1.2-18.3,5.8c-4.2,3.6-6.2,8.5-6.2,13c0,7.6,5.8,15.2,16,15.2
			c1,0,2-0.1,3.1-0.2c-0.5,1.2-1,2.1-1,3.8c0,3,1.5,4.8,2.9,6.6c-4.4,0.3-12.5,0.8-18.5,4.5c-5.7,3.4-7.4,8.3-7.4,11.8
			c0,7.2,6.8,13.9,20.8,13.9c16.6,0,25.4-9.2,25.4-18.3C72.5,74.3,68.7,71,64.4,67.5z M51.8,56.3c-8.3,0-12.1-10.8-12.1-17.2
			c0-2.5,0.5-5.1,2.1-7.2c1.6-1.9,4.3-3.2,6.8-3.2c8,0,12.2,10.8,12.2,17.8c0,1.7-0.2,4.8-2.4,7.1C56.8,55.2,54.2,56.3,51.8,56.3z
			 M51.8,95.3c-10.3,0-17-4.9-17-11.8c0-6.9,6.2-9.2,8.3-10c4.1-1.4,9.3-1.6,10.2-1.6c1,0,1.5,0,2.2,0.1c7.4,5.2,10.5,7.8,10.5,12.8
			C66.1,90.8,61.1,95.3,51.8,95.3z"/>
		<polygon class="st0" points="88.8,56.2 88.8,46.5 84,46.5 84,56.2 74.4,56.2 74.4,61 84,61 84,70.7 88.8,70.7 88.8,61 98.6,61 
			98.6,56.2 		"/>
	</g>
</g>
</svg>
