<?xml version="1.0" encoding="utf-8"?>
<!-- Generator: Adobe Illustrator 19.2.1, SVG Export Plug-In . SVG Version: 6.00 Build 0)  -->
<svg version="1.1" id="Layer_1" xmlns="http://www.w3.org/2000/svg" xmlns:xlink="http://www.w3.org/1999/xlink" x="0px" y="0px"
	 viewBox="0 0 472 121" style="enable-background:new 0 0 472 121;" xml:space="preserve">
<style type="text/css">
	.st0{fill:none;}
	.st1{fill:#FFFFFF;}
	.st2{font-family:"source-han-serif-japanese", serif;}
	.st3{font-size:100px;}
	.st4{fill:#006699;}
</style>
<rect x="132.2" y="23.8" class="st0" width="328.3" height="72"/>
<text transform="matrix(1 0 0 1 132.1667 92.7927)" class="st1 st2 st3">LinkedIn</text>
<path id="path14" inkscape:connector-curvature="0" class="st4" d="M11,13C11,8.7,14.6,5,19.1,5h93.4c4.5,0,8.1,3.5,8.1,7.9v94.4
	c0,4.3-3.6,7.9-8.1,7.9H19.1c-4.5,0-8.1-3.5-8.1-7.9V13z"/>
<path id="path28" inkscape:connector-curvature="0" class="st1" d="M44.2,93.5V43.8H27.8v49.7H44.2z M36,36.8c5.8,0,9.4-3.8,9.4-8.5
	c-0.1-4.9-3.6-8.5-9.3-8.5s-9.4,3.8-9.4,8.5C26.6,33.1,30.2,36.8,36,36.8L36,36.8L36,36.8z"/>
<path id="path30" inkscape:connector-curvature="0" class="st1" d="M53.3,93.5h16.5V65.7c0-1.4,0.1-3,0.6-4c1.2-3,3.9-6.1,8.5-6.1
	c5.9,0,8.4,4.6,8.4,11.3v26.6h16.5V65c0-15.3-8.1-22.4-19.1-22.4c-9,0-12.9,5.1-15,8.4h0.1v-7.2H53.3C53.5,48.4,53.3,93.5,53.3,93.5
	L53.3,93.5z"/>
</svg>
