<?xml version="1.0" encoding="utf-8"?>
<!-- Generator: Adobe Illustrator 27.0.1, SVG Export Plug-In . SVG Version: 6.00 Build 0)  -->
<svg version="1.1" id="Layer_1" xmlns="http://www.w3.org/2000/svg" xmlns:xlink="http://www.w3.org/1999/xlink" x="0px" y="0px"
	 viewBox="0 0 896.28 92.77" style="enable-background:new 0 0 896.28 92.77;" xml:space="preserve">
<style type="text/css">
	.st0{fill:none;}
	.st1{fill:#E50214;}
	.st2{fill:#E60214;}
	.st3{fill:#E60316;}
	.st4{fill:#E60417;}
	.st5{fill:#D9A8AC;}
	.st6{fill:#F9C9CD;}
	.st7{fill:#E60517;}
	.st8{fill:#E50316;}
	.st9{fill:#E50315;}
	.st10{fill:#F40316;}
	.st11{fill:#E40004;}
	.st12{fill:#FDFBFB;}
</style>
<g>
	<path class="st0" d="M631.02,92.54c-18.96,0-37.93,0-56.88,0c1.37-1.58,3.4-1.19,5.12-1.67c12.39-3.46,19.96-11.43,22.74-23.86
		c1.37-6.14,1.4-12.36,0.4-18.59c-1.79-11.12-8.21-18.27-18.83-21.79c-3.88-1.29-7.87-2.14-11.98-2.21
		c-10.34-0.15-20.66-0.27-31-0.37c-5.72-0.05-5.73-0.03-5.74-5.9c-0.01-3.77,0.03-7.54-0.03-11.31c-0.03-1.52,0.3-3.31-1.84-3.89
		c-15.45-0.67-30.9-0.46-46.35-0.11c-2.05,0.18-1.51,1.44-0.88,2.42c4.94,7.62,4.94,16.25,4.99,24.81
		c0.11,18.72,0.03,37.45,0.03,56.17c0,2.29-0.42,4.83,2.77,5.57c-0.01,0.25,0.02,0.48,0.06,0.72c-4.38,0-8.75,0-13.13,0
		c0.07-0.23,0.11-0.46,0.09-0.7c0.9-0.32,1.73-0.72,1.67-1.88l0.02-0.05l0.27-0.25l-0.14-0.31c0.7-6.56,0.49-13.13,0.04-19.69
		c0.68-14.25,0.03-28.51,0.06-42.76c0-0.86-0.14-1.74-1.14-2.13c-0.25-0.15-0.5-0.42-0.74-0.43c-14.57-0.1-29.15-0.2-43.72-0.23
		c-2.53-0.01-2.49,1.37-1.37,3.14c2.09,3.3,2.81,7.03,2.85,10.82c0.12,9.58,0.21,19.17,0.02,28.74c-0.12,6.3-3.63,10.59-9.32,13.04
		c-7.26,3.12-11.26,0.53-11.43-7.33c-0.05-2.18,0-4.36-0.01-6.53c-0.04-9.3,0.15-18.59-0.17-27.87
		c-0.28-8.18-4.21-12.81-11.47-13.53c-11.63-1.16-23.32-0.38-34.98-0.46c-2.66-0.02-3.6,1.24-1.58,3.48
		c1.88,2.1,3.48,4.28,3.46,7.26c0.07,0.29,0.14,0.57,0.21,0.86c0.12,0.63,0.25,1.27,0.37,1.9c-1.7,2.39,0.58,5.53-1.51,7.84
		c-0.25-0.16-0.28-0.35-0.1-0.58c0.06-1.02,0.31-2.09-0.66-2.89c-3.65-11.25-12.18-16.08-23.26-17.51
		c-2.02-0.26-4.07-0.38-6.11-0.39c-15.46-0.04-30.92,0.03-46.38-0.11c-3.44-0.03-4.56,1.24-4.54,4.6
		c0.11,19.46,0.04,38.91,0.08,58.37c0,1.68-0.38,3.54,1.36,4.78c0,0.25-0.01,0.51-0.02,0.76c-2.91,0-5.84,0-8.75,0
		c0.04-0.23,0.02-0.46-0.03-0.68c1.55-0.6,2.04-1.64,1.1-3.05c-4.07-6.2-3.87-13.22-3.89-20.17c-0.04-12.76-0.01-25.52-0.01-38.28
		c0-6-0.24-6.25-6.46-6.26c-18.21-0.02-36.42-0.04-54.63-0.01c-7.13,0.02-14.28-0.44-21.39,0.41c-14.59,1.74-25.25,12.23-26.55,26.3
		c-0.66,7.13,0.06,14.19,2.38,21.02c3.26,9.63,9.81,15.86,19.51,18.95c1.44,0.46,3.23,0.18,4.2,1.77c-9.34,0-18.67,0-28.01,0
		c-0.03-0.28-0.03-0.55,0-0.83c0.66-0.59,0.89-1.17-0.02-1.75c-3.24-4.49-3.56-9.67-3.62-14.93c-0.19-18.14-0.25-36.29-0.66-54.43
		c-0.23-10.29-6.83-16.96-16.73-17.69c-10.49-0.46-20.98-0.46-31.47,0c-6.77,0.57-11.12,4.37-13.96,10.24
		C98.32,23.62,93.21,34.1,87.86,45.12c-0.88-1.65-1.51-2.76-2.06-3.89c-4.38-9.14-8.88-18.21-12.98-27.47
		c-3.29-7.41-9.09-10.48-16.8-10.87C37.95,2.47,19.88,2.39,1.8,2.93C1.54,2.85,1.28,2.81,1,2.84C0.68,2.82,0.35,2.81,0.02,2.8
		c0.04-1.44-0.54-3.37,2.2-2.63c0.54,0.15,1.16,0.02,1.74,0.02c286.61,0,573.24,0,859.85,0c-1.99,1.79-4.6,1.1-6.9,1.66
		c-5.99,1.46-8.95,4.35-8.81,9.08c0.13,4.44,3.12,7.31,9.06,8.33c8.23,1.41,16.51,1.41,24.73-0.04c5.99-1.06,8.5-3.82,8.43-8.7
		c-0.08-4.73-2.91-7.47-8.68-8.64c-2.45-0.5-5.16,0.07-7.33-1.68c6.28,0,12.55,0.17,18.81-0.08c2.63-0.1,3.15,0.53,3.14,3.12
		c-0.11,28.6-0.07,57.22-0.07,85.82c-3.96-3.54-4.32-8.34-4.35-13.09c-0.12-15.38-0.06-30.76-0.09-46.13
		c-0.01-4.97-0.8-5.77-5.87-5.79c-13.26-0.04-26.52-0.02-39.78,0c-1.28,0-2.65-0.32-4.2,1.24c7.36,6.69,6.56,15.68,6.53,24.53
		c-0.05,12.18-0.03,24.37,0.02,36.55c0.01,1.76-0.65,3.81,1.4,5.05c0.26,0.14,0.53,0.27,0.79,0.41c-0.02,0.24,0,0.46,0.04,0.7
		c-2.91,0-5.84,0-8.75,0c0.02-0.24,0.01-0.47-0.03-0.71c1.93-1.21,1.09-2.44-0.1-3.47c-4.23-3.68-5.16-8.52-5.14-13.78
		c0.04-7.98,0.13-15.96-0.06-23.94c-0.4-16.71-9.23-26.13-25.95-26.41c-25.79-0.44-51.59-0.13-77.38-0.21
		c-3.39-0.01-4.62,1.44-4.6,4.74c0.13,19.73,0.16,39.47,0.23,59.19c0.01,1.59-0.18,3.3,1.91,3.89c-0.03,0.24-0.04,0.46-0.03,0.7
		c-11.96,0-23.92,0-35.89,0c0.02-0.24,0.01-0.46-0.03-0.7c4.53-0.32,8.98-0.99,13.17-2.81c6.64-2.87,10.07-7.95,10.69-15.13
		c0.32-3.61-0.93-4.94-4.6-4.88c-9.76,0.17-19.53,0.22-29.29-0.02c-4.46-0.11-7.98,0.46-10.91,4.47c-2.97,4.04-7.84,4.32-12.39,3.17
		c-4.03-1.02-6.41-4.25-6.8-8.24c-0.43-4.39-0.1-8.84-0.1-14.12c2.8,2.16,5.13,3.8,7.27,5.64c2.66,2.28,5.73,3.54,9.17,3.56
		c14.71,0.09,29.44,0.06,44.15,0.06c3.14,0,4.36-1.66,4.29-4.7c-0.11-4.2-0.01-8.41-0.03-12.62c-0.06-13.98-6.03-20.9-19.98-21.65
		c-22.99-1.24-46.03-0.73-69.04-0.29c-11.02,0.21-18.01,6.54-19.6,17.44c-1.57,10.77-1.63,21.73,0.23,32.49
		c1.77,10.28,8.69,16.14,19.07,17.3c0.25,0.14,0.52,0.23,0.81,0.27C631.04,92.03,631.05,92.28,631.02,92.54z"/>
	<path class="st1" d="M1,2.83c0.27-0.02,0.54,0.01,0.8,0.09c0.93,0.97,2.15,0.74,3.29,0.74c15.89,0.01,31.76,0.01,47.65,0
		c1.14,0,2.36,0.24,3.27-0.77c7.71,0.39,13.51,3.46,16.81,10.87c4.1,9.26,8.6,18.34,12.95,27.48c0.54,1.14,1.17,2.24,2.06,3.89
		c5.36-11.02,10.46-21.5,15.54-31.99c2.84-5.87,7.2-9.68,13.96-10.24c1.21,1.2,2.75,0.74,4.15,0.74c7.28,0.04,14.56,0.07,21.85-0.02
		c1.82-0.02,3.81,0.67,5.46-0.73c9.91,0.73,16.5,7.4,16.73,17.69c0.4,18.14,0.46,36.29,0.66,54.43c0.05,5.26,0.39,10.44,3.62,14.93
		c-1.31,1.37-3.02,0.81-4.55,0.81c-15.74,0.05-31.47,0.06-47.2,0.07c-1.04-1.28-0.54-2.79-0.55-4.19c-0.05-9-0.03-18-0.03-27
		c0-1.6,0-3.2,0-4.8c-5.09,8.71-9.45,17.37-13.39,26.22c-2.37,5.34-5.26,9.84-11.27,11.47c-4.38,0-8.75,0-13.13,0
		c-5.23-2.26-8.02-6.56-10.28-11.55c-4.1-9.01-8.54-17.86-12.85-26.77c-0.36,0.09-0.71,0.17-1.07,0.25
		C57,66.59,52.51,79.37,60.3,90.8c-17.48,0.01-34.97,0.02-52.45,0.04c-1.15-1.39-0.61-3.05-0.64-4.59
		C6.89,65.7,6.55,45.17,6.37,24.64c-0.06-6.93-1.02-13.55-5.1-19.37C0.7,4.46,0.69,3.69,1,2.83z"/>
	<path class="st2" d="M493.55,91.82c-3.19-0.74-2.77-3.27-2.77-5.57c-0.01-18.72,0.07-37.45-0.03-56.17
		c-0.04-8.56-0.05-17.18-4.99-24.81c-0.64-0.99-1.17-2.25,0.88-2.42c0.88,1.05,2.11,0.81,3.26,0.81
		c13.41,0.01,26.82,0.01,40.22,0.01c1.02,0,2.06,0.11,2.87-0.71c2.14,0.57,1.82,2.35,1.84,3.89c0.06,3.76,0.02,7.54,0.03,11.31
		c0.01,5.87,0.02,5.85,5.74,5.9c10.34,0.1,20.66,0.22,31,0.37c4.11,0.06,8.1,0.92,11.98,2.21c10.62,3.52,17.03,10.67,18.83,21.79
		c1.01,6.22,0.97,12.46-0.4,18.59c-2.77,12.43-10.35,20.41-22.74,23.86c-1.72,0.48-3.75,0.1-5.12,1.67c-1.16,0-2.34,0-3.5,0
		c-2.34-1.36-4.67-1.36-7,0c-1.16,0-2.34,0-3.5,0c-8.45-2.79-17.02-5.3-24.28-11.48c-2.06,7.62-7.44,10.14-14.16,10.78
		C512.31,91.83,502.93,91.83,493.55,91.82z M534.84,54.87c0,2.76-0.02,5.51,0,8.27c0.05,6.62,3,10.19,8.86,10.76
		c6.31,0.61,10.7-2.54,12.19-8.7c0.89-3.72,0.99-7.49,0.59-11.25c-0.85-7.97-4.52-11.12-12.61-11.13c-2.19,0-4.38,0.09-6.56-0.03
		c-1.89-0.1-2.57,0.61-2.5,2.51C534.93,48.49,534.84,51.68,534.84,54.87z"/>
	<path class="st3" d="M197.81,92.54c-0.97-1.58-2.77-1.31-4.2-1.77c-9.69-3.09-16.24-9.32-19.51-18.95
		c-2.32-6.84-3.04-13.9-2.38-21.02c1.3-14.08,11.96-24.56,26.55-26.3c7.11-0.85,14.26-0.4,21.39-0.41
		c18.21-0.04,36.42-0.01,54.63,0.01c6.22,0.01,6.46,0.25,6.46,6.26c0,12.76-0.03,25.52,0.01,38.28c0.02,6.96-0.18,13.97,3.89,20.17
		c0.93,1.42,0.45,2.46-1.1,3.05l0.05-0.35c-1.1-1.02-2.47-0.7-3.75-0.7c-9.47-0.02-18.94-0.03-28.41,0c-1.27,0-2.65-0.35-3.72,0.74
		c-5.91,0.07-8.6-3.99-11.01-8.99c-4.64,5.44-10.87,7.62-17.02,9.98c-1.16,0-2.34,0-3.5,0c-4.67-1.43-9.34-1.43-14,0
		C200.73,92.54,199.27,92.54,197.81,92.54z M236.4,54.65c0-1.3,0-2.61,0-3.91c0-8.96,0.02-8.85-9.14-7.54
		c-4.6,0.65-8.11,2.59-9.63,7c-1.67,4.89-1.73,10.02-0.35,14.99c1.33,4.77,6.42,7.81,11.2,7.08c4.95-0.75,7.84-4.33,7.9-9.79
		C236.42,59.86,236.4,57.26,236.4,54.65z"/>
	<path class="st4" d="M849.85,91.43c-2.06-1.24-1.39-3.29-1.4-5.05c-0.05-12.18-0.06-24.37-0.02-36.55
		c0.03-8.85,0.83-17.85-6.53-24.53c1.55-1.57,2.92-1.24,4.2-1.24c13.26-0.02,26.52-0.04,39.78,0c5.08,0.01,5.86,0.81,5.87,5.79
		c0.03,15.38-0.03,30.76,0.09,46.13c0.03,4.75,0.39,9.56,4.35,13.09c0,0.88,0,1.74,0,2.62c-0.31-0.06-0.61-0.12-0.92-0.18
		c-0.81-0.81-1.86-0.68-2.87-0.69c-13.22,0-26.44,0-39.66,0C851.75,90.8,850.7,90.67,849.85,91.43z"/>
	<path class="st0" d="M371.97,45.49c2.08-2.31-0.19-5.46,1.51-7.84c0.11,9.4,0.07,18.8,0.38,28.2c0.49,15.28,9.12,24.35,24.4,25.97
		c-0.01,0.25-0.02,0.48-0.03,0.73c-20.42,0-40.84,0-61.26,0c0.04-0.23,0.03-0.46-0.03-0.67c2.21-0.87,1.13-2.45,0.57-3.6
		c-1.9-3.89-2.56-8-2.56-12.23c0-10,0.1-20,0.25-30c0.02-1.48-0.46-3.59,1.52-4.08c1.79-0.46,3.32,0.87,4.48,2.2
		c1.39,1.59,1.75,3.61,1.93,5.66c0.45,5.17-0.41,10.09-2.76,14.76c-0.43,0.86-1.23,1.82-0.33,2.77c0.88,0.95,1.92,0.24,2.84-0.05
		c5.54-1.75,11.11-3.43,16.6-5.34C374.07,56.89,371.68,61.03,371.97,45.49z"/>
	<path class="st0" d="M807.81,92.54c-10.5,0-21.01,0-31.51,0c0-0.29,0-0.59,0-0.88c0.03-0.29,0.08-0.58,0.11-0.88
		c-1.64-4.25-4.03-8.23-3.96-13.08c0.14-9.44-0.03-18.87-0.02-28.3c0.01-5.29,2.72-9.11,7.05-11.79c3.26-2.01,6.97-3.87,10.67-1.84
		c3.3,1.81,2.36,5.66,2.41,8.74c0.18,11.18-0.08,22.36,0.35,33.52c0.33,8.55,5.3,12.96,14.04,13.49c0.26,0.12,0.53,0.22,0.82,0.28
		C807.77,92.06,807.78,92.29,807.81,92.54z"/>
	<path class="st4" d="M874.32,0.18c2.16,1.75,4.88,1.18,7.33,1.68c5.77,1.17,8.61,3.91,8.68,8.64c0.08,4.89-2.44,7.64-8.43,8.7
		c-8.23,1.45-16.5,1.45-24.73,0.04c-5.94-1.02-8.92-3.89-9.06-8.33c-0.14-4.73,2.82-7.62,8.81-9.08c2.29-0.56,4.91,0.12,6.9-1.66
		C867.32,0.18,870.82,0.18,874.32,0.18z"/>
	<path class="st0" d="M1,2.83C0.69,3.69,0.7,4.46,1.27,5.27c4.1,5.83,5.04,12.44,5.1,19.37C6.55,45.18,6.89,65.7,7.21,86.24
		c0.03,1.53-0.52,3.19,0.64,4.59c0.28,0.33,0.57,0.67,0.85,1c-0.01,0.25,0.02,0.48,0.08,0.72c-2.91,0-5.81,0-8.75,0
		c0-29.92,0-59.82,0-89.74C0.35,2.81,0.68,2.82,1,2.83z"/>
	<path class="st0" d="M92.79,92.54c6.01-1.63,8.9-6.13,11.27-11.47c3.94-8.86,8.3-17.52,13.39-26.22c0,1.6,0,3.2,0,4.8
		c0,9-0.03,18,0.03,27c0.01,1.4-0.49,2.91,0.55,4.19c0.3,0.34,0.6,0.68,0.9,1.02c-0.04,0.24-0.01,0.46,0.11,0.67
		C110.3,92.54,101.55,92.54,92.79,92.54z"/>
	<path class="st0" d="M60.3,90.79C52.51,79.36,57,66.58,55.46,54.45c0.36-0.09,0.71-0.17,1.07-0.25c4.3,8.92,8.75,17.77,12.85,26.77
		c2.27,5,5.05,9.29,10.28,11.55c-6.42,0-12.84,0-19.26,0c-0.02-0.32-0.04-0.63-0.05-0.94C60.47,91.31,60.44,91.05,60.3,90.79z"/>
	<path class="st0" d="M521.69,91.84c6.72-0.65,12.1-3.16,14.16-10.78c7.26,6.18,15.83,8.69,24.28,11.48c-12.84,0-25.67,0-38.51,0
		C521.68,92.3,521.71,92.07,521.69,91.84z"/>
	<path class="st0" d="M219.69,92.54c6.14-2.35,12.38-4.54,17.02-9.98c2.42,5,5.1,9.06,11.01,8.99c0.26,0.12,0.54,0.22,0.82,0.3
		c-0.02,0.24,0,0.46,0.04,0.69C238.95,92.54,229.32,92.54,219.69,92.54z"/>
	<path class="st5" d="M60.37,91.59c0.02,0.32,0.04,0.63,0.05,0.94c-17.21,0-34.42,0-51.63,0c-0.06-0.24-0.09-0.47-0.08-0.72
		C25.91,91.74,43.14,91.67,60.37,91.59z"/>
	<path class="st5" d="M119.04,92.54c-0.11-0.21-0.15-0.43-0.11-0.67c16.95-0.05,33.92-0.11,50.87-0.16c-0.03,0.28-0.03,0.55,0,0.83
		C152.89,92.54,135.97,92.54,119.04,92.54z"/>
	<path class="st6" d="M895.28,91.48c0.31,0.06,0.61,0.12,0.92,0.18c-0.35,1.87-1.79,0.81-2.63,0.81
		c-14.29,0.08-28.59,0.05-42.88,0.05c-0.04-0.23-0.06-0.46-0.04-0.7c1.58-0.06,3.17-0.16,4.75-0.17
		C868.7,91.6,881.99,91.54,895.28,91.48z"/>
	<path class="st6" d="M776.3,91.65c0,0.29,0,0.59,0,0.88c-15.17,0-30.34,0-45.51,0c-0.02-0.24-0.01-0.46,0.03-0.7l-0.05-0.34
		C745.94,91.55,761.12,91.6,776.3,91.65z"/>
	<path class="st6" d="M336.93,91.85c0.05,0.23,0.06,0.45,0.03,0.67c-14.88,0-29.76,0-44.63,0c0.01-0.25,0.02-0.51,0.02-0.76
		l-0.04-0.38c14.89,0.52,29.78,0.3,44.66,0.11L336.93,91.85z"/>
	<path class="st5" d="M480.57,91.84c0.02,0.24-0.01,0.47-0.09,0.7c-13.71,0-27.42,0-41.13,0c-0.03-0.24-0.04-0.47-0.07-0.71
		C453.05,91.83,466.81,91.83,480.57,91.84z"/>
	<path class="st6" d="M439.29,91.83c0.03,0.24,0.05,0.47,0.07,0.71c-13.71,0-27.42,0-41.13,0c0.01-0.25,0.02-0.48,0.03-0.73
		l-0.05-0.33c13.73,0.03,27.47,0.05,41.2,0.08L439.29,91.83z"/>
	<path class="st6" d="M694.88,91.84c0.03,0.23,0.04,0.46,0.03,0.7c-11.96,0-23.92,0-35.89,0c-0.02-0.25,0-0.49,0.03-0.74L659,91.55
		c11.97-0.02,23.95-0.03,35.92-0.04L694.88,91.84z"/>
	<path class="st6" d="M248.57,92.54c-0.04-0.23-0.05-0.46-0.04-0.69c11.68-0.11,23.38-0.23,35.06-0.34l-0.05,0.35
		c0.05,0.23,0.06,0.45,0.03,0.68C271.91,92.54,260.24,92.54,248.57,92.54z"/>
	<path class="st6" d="M807.81,92.54c-0.02-0.24-0.03-0.48-0.03-0.72c11.4-0.11,22.78-0.24,34.18-0.35l-0.04,0.36
		c0.03,0.24,0.04,0.47,0.03,0.71C830.55,92.54,819.19,92.54,807.81,92.54z"/>
	<path class="st5" d="M521.69,91.84c0.02,0.24-0.01,0.47-0.07,0.7c-9.34,0-18.67,0-28.01,0c-0.05-0.24-0.07-0.47-0.06-0.72
		C502.93,91.83,512.31,91.83,521.69,91.84z"/>
	<path class="st5" d="M659.06,91.79c-0.03,0.25-0.05,0.49-0.03,0.74c-9.34,0-18.67,0-28.01,0c0.03-0.25,0.02-0.51-0.04-0.75
		c9.04-0.09,18.09-0.18,27.13-0.25C658.43,91.61,658.74,91.71,659.06,91.79z"/>
	<path class="st7" d="M202.18,92.54c4.67-1.43,9.34-1.43,14,0C211.52,92.54,206.86,92.54,202.18,92.54z"/>
	<path class="st7" d="M563.63,92.54c2.34-1.36,4.67-1.36,7,0C568.3,92.54,565.96,92.54,563.63,92.54z"/>
	<path class="st8" d="M659.06,91.79c-0.32-0.09-0.63-0.18-0.95-0.27c-2.42-1.51-5.12-0.74-7.64-0.67
		c-6.77,0.23-13.58-0.94-20.3,0.65c-10.38-1.16-17.3-7.02-19.07-17.3c-1.86-10.76-1.79-21.72-0.23-32.49
		c1.58-10.91,8.59-17.23,19.6-17.44c23.01-0.44,46.05-0.95,69.04,0.29c13.95,0.75,19.92,7.68,19.98,21.65
		c0.02,4.21-0.08,8.41,0.03,12.62c0.08,3.04-1.14,4.7-4.29,4.7c-14.71,0-29.44,0.03-44.15-0.06c-3.44-0.02-6.5-1.28-9.17-3.56
		c-2.14-1.85-4.47-3.48-7.27-5.64c0,5.28-0.33,9.73,0.1,14.12c0.39,4,2.77,7.22,6.8,8.24c4.55,1.15,9.43,0.88,12.39-3.17
		c2.93-4.01,6.46-4.58,10.91-4.47c9.76,0.23,19.53,0.18,29.29,0.02c3.68-0.06,4.92,1.26,4.6,4.88c-0.62,7.19-4.04,12.26-10.69,15.13
		c-4.19,1.81-8.65,2.48-13.17,2.81l0.04-0.34c-1.1-1.01-2.48-0.69-3.75-0.69c-9.48-0.02-18.96-0.02-28.43,0
		c-1.28,0-2.65-0.32-3.74,0.74C659,91.54,659.06,91.79,659.06,91.79z M663.61,42.14c-2.07,0-3.82,0.1-5.56-0.02
		c-2.91-0.2-3.68,1.2-3.73,3.9c-0.05,2.93,0.86,4.73,3.88,5.17c4.01,0.59,8.01,1.34,12.1,1.19c2.53-0.1,4.7-0.9,5.03-3.75
		c0.35-2.91-0.88-5.02-3.85-5.94C668.77,41.83,666.01,42.27,663.61,42.14z"/>
	<path class="st3" d="M398.25,91.81c-15.28-1.62-23.91-10.69-24.4-25.97c-0.31-9.39-0.26-18.8-0.38-28.2
		c-0.12-0.63-0.25-1.27-0.37-1.9c0.05-0.11,0.17-0.23,0.14-0.3c-0.09-0.2-0.23-0.38-0.35-0.55c0.03-2.98-1.58-5.16-3.46-7.26
		c-2.01-2.24-1.08-3.51,1.58-3.48c11.66,0.09,23.35-0.69,34.98,0.46c7.26,0.73,11.19,5.35,11.47,13.53
		c0.32,9.28,0.14,18.58,0.17,27.87c0.01,2.18-0.04,4.36,0.01,6.53c0.18,7.84,4.17,10.45,11.43,7.33c5.69-2.45,9.2-6.74,9.32-13.04
		c0.18-9.58,0.11-19.17-0.02-28.74c-0.05-3.79-0.77-7.52-2.85-10.82c-1.12-1.77-1.16-3.15,1.37-3.14
		c14.57,0.03,29.15,0.13,43.72,0.23c0.25,0,0.5,0.28,0.74,0.43c0.52,14.96-1.17,29.97,1.07,44.88c0.45,6.56,0.66,13.13-0.04,19.68
		c-0.08,0.18-0.13,0.36-0.13,0.55l-0.02,0.05c-1.72,1.01-3.62,0.85-5.5,0.84c-12.46-0.01-24.92,0-37.38,0
		c-12.18,0-24.37-0.02-36.55,0.02c-1.55,0.01-3.21-0.46-4.61,0.67L398.25,91.81z"/>
	<path class="st9" d="M806.95,91.53c-8.73-0.53-13.71-4.93-14.04-13.49c-0.43-11.16-0.17-22.35-0.35-33.52
		c-0.05-3.08,0.89-6.92-2.41-8.74c-3.69-2.03-7.41-0.18-10.67,1.84c-4.32,2.68-7.05,6.49-7.05,11.79
		c-0.01,9.44,0.16,18.87,0.02,28.3c-0.07,4.85,2.31,8.81,3.96,13.08c-13.67,0-27.35-0.01-41.02,0.03c-1.55,0-3.22-0.47-4.62,0.67
		l0.05,0.34c-2.08-0.6-1.9-2.3-1.91-3.89c-0.07-19.73-0.09-39.47-0.23-59.19c-0.03-3.3,1.21-4.74,4.6-4.74
		c25.79,0.08,51.6-0.23,77.38,0.21c16.72,0.28,25.55,9.7,25.95,26.41c0.19,7.97,0.11,15.96,0.06,23.94
		c-0.03,5.26,0.91,10.09,5.14,13.78c1.18,1.03,2.02,2.27,0.1,3.47l0.04-0.36c-1.27-1.06-2.78-0.66-4.2-0.66
		c-8.88-0.04-17.76-0.04-26.63,0C809.71,90.81,808.17,90.37,806.95,91.53z"/>
	<path class="st7" d="M371.97,45.49c-0.29,15.54,2.1,11.4-12.5,16.46c-5.49,1.91-11.05,3.59-16.6,5.34
		c-0.93,0.29-1.96,1.01-2.84,0.05c-0.89-0.95-0.1-1.92,0.33-2.77c2.35-4.66,3.2-9.58,2.76-14.76c-0.18-2.05-0.53-4.07-1.93-5.66
		c-1.16-1.33-2.69-2.65-4.48-2.2c-1.98,0.5-1.51,2.61-1.52,4.08c-0.15,10-0.25,20-0.25,30c0,4.23,0.67,8.35,2.56,12.23
		c0.56,1.15,1.65,2.73-0.57,3.6l0.04-0.35c-1.24-1.11-2.77-0.7-4.18-0.7c-12.09-0.03-24.17-0.03-36.25,0c-1.43,0-2.93-0.36-4.23,0.6
		l0.04,0.38c-1.73-1.23-1.35-3.1-1.36-4.78c-0.04-19.46,0.04-38.91-0.08-58.37c-0.02-3.36,1.1-4.63,4.54-4.6
		c15.46,0.13,30.92,0.06,46.38,0.11c2.04,0.01,4.09,0.12,6.11,0.39c11.08,1.43,19.61,6.27,23.26,17.51c-0.1,1.03,0,2.02,0.66,2.89
		C371.69,45.13,371.71,45.33,371.97,45.49z"/>
	<path class="st10" d="M482.44,69.65c-2.24-14.91-0.55-29.93-1.07-44.88c1,0.38,1.14,1.27,1.14,2.13
		C482.47,41.14,483.12,55.4,482.44,69.65z"/>
	<path class="st11" d="M56.02,3.01c-0.92,1-2.14,0.77-3.27,0.77c-15.89,0.01-31.77,0.01-47.66,0c-1.14,0-2.36,0.25-3.29-0.74
		C19.88,2.51,37.95,2.59,56.02,3.01z"/>
	<path class="st10" d="M169.81,91.71c-16.95,0.05-33.91,0.11-50.87,0.16c-0.3-0.34-0.6-0.68-0.9-1.02
		c15.74-0.02,31.47-0.02,47.2-0.07c1.53-0.01,3.24,0.57,4.55-0.81C170.7,90.53,170.46,91.12,169.81,91.71z"/>
	<path class="st11" d="M532.97,3.07c-0.81,0.82-1.86,0.71-2.87,0.71c-13.41,0-26.82,0.01-40.22-0.01c-1.14,0-2.36,0.24-3.26-0.81
		C502.08,2.61,517.53,2.41,532.97,3.07z"/>
	<path class="st11" d="M895.28,91.48c-13.3,0.06-26.58,0.12-39.88,0.19c-1.58,0.01-3.17,0.11-4.75,0.17
		c-0.26-0.14-0.53-0.27-0.79-0.41c0.84-0.75,1.88-0.64,2.9-0.64c13.22,0,26.44,0,39.66,0C893.42,90.8,894.47,90.67,895.28,91.48z"/>
	<path class="st10" d="M439.36,90.8c12.46,0,24.92,0,37.38,0c1.88,0,3.78,0.17,5.5-0.84c0.06,1.17-0.76,1.57-1.67,1.88
		c-13.76,0-27.53-0.01-41.29-0.01l0.11-0.26C439.38,91.3,439.36,91.05,439.36,90.8z"/>
	<path class="st11" d="M148.78,3.02c-1.66,1.39-3.64,0.71-5.46,0.73c-7.28,0.09-14.56,0.05-21.85,0.02
		c-1.41-0.01-2.94,0.46-4.15-0.74C127.8,2.55,138.3,2.56,148.78,3.02z"/>
	<path class="st10" d="M630.17,91.51c6.71-1.59,13.53-0.43,20.3-0.65c2.53-0.09,5.22-0.84,7.64,0.67
		c-9.04,0.09-18.09,0.18-27.13,0.25C630.7,91.74,630.43,91.65,630.17,91.51z"/>
	<path class="st12" d="M371.87,44.91c-0.66-0.87-0.75-1.86-0.66-2.89C372.18,42.81,371.93,43.88,371.87,44.91z"/>
	<path class="st10" d="M482.26,89.89c0.01-0.19,0.05-0.38,0.13-0.55l0.14,0.31L482.26,89.89z"/>
	<path class="st12" d="M372.91,34.88c0.12,0.18,0.26,0.36,0.35,0.55c0.03,0.07-0.09,0.2-0.14,0.3
		C373.05,35.45,372.98,35.17,372.91,34.88z"/>
	<path class="st10" d="M60.37,91.59c-17.23,0.07-34.44,0.15-51.67,0.22c-0.28-0.33-0.57-0.67-0.85-1
		c17.48-0.01,34.97-0.02,52.45-0.04C60.44,91.05,60.47,91.31,60.37,91.59z"/>
	<path class="st0" d="M534.84,54.87c0-3.19,0.09-6.39-0.03-9.58c-0.07-1.9,0.61-2.61,2.5-2.51c2.18,0.11,4.37,0.03,6.56,0.03
		c8.1,0.01,11.76,3.16,12.61,11.13c0.4,3.75,0.31,7.53-0.59,11.25c-1.49,6.16-5.87,9.31-12.19,8.7c-5.86-0.57-8.81-4.14-8.86-10.76
		C534.82,60.39,534.84,57.63,534.84,54.87z"/>
	<path class="st0" d="M236.4,54.65c0,2.61,0.03,5.22-0.01,7.82c-0.06,5.46-2.96,9.05-7.9,9.79c-4.77,0.73-9.87-2.31-11.2-7.08
		c-1.39-4.97-1.32-10.1,0.35-14.99c1.51-4.41,5.03-6.35,9.63-7c9.16-1.3,9.14-1.42,9.14,7.54C236.4,52.04,236.4,53.34,236.4,54.65z"
		/>
	<path class="st11" d="M283.6,91.5c-11.68,0.11-23.38,0.23-35.06,0.34c-0.28-0.08-0.55-0.18-0.82-0.3c1.07-1.09,2.45-0.74,3.72-0.74
		c9.47-0.03,18.94-0.03,28.41,0C281.13,90.8,282.5,90.49,283.6,91.5z"/>
	<path class="st11" d="M730.77,91.49c1.4-1.16,3.07-0.67,4.62-0.67c13.67-0.04,27.35-0.03,41.02-0.03
		c-0.03,0.29-0.08,0.58-0.11,0.88C761.12,91.6,745.94,91.55,730.77,91.49z"/>
	<path class="st11" d="M806.95,91.53c1.23-1.16,2.76-0.72,4.16-0.73c8.88-0.04,17.76-0.04,26.63,0c1.42,0.01,2.93-0.39,4.2,0.66
		c-11.4,0.11-22.78,0.24-34.18,0.35C807.48,91.75,807.21,91.65,806.95,91.53z"/>
	<path class="st11" d="M292.32,91.4c1.3-0.95,2.81-0.59,4.23-0.6c12.09-0.03,24.17-0.03,36.25,0c1.41,0,2.94-0.41,4.18,0.7
		C322.09,91.7,307.2,91.91,292.32,91.4z"/>
	<path class="st11" d="M439.36,90.8c0.01,0.25,0.02,0.51,0.04,0.76c-13.73-0.03-27.47-0.05-41.2-0.08c1.4-1.14,3.06-0.67,4.61-0.67
		C415,90.78,427.18,90.8,439.36,90.8z"/>
	<path class="st11" d="M659,91.54c1.08-1.07,2.46-0.74,3.74-0.74c9.48-0.02,18.96-0.02,28.43,0c1.28,0,2.65-0.32,3.75,0.69
		C682.95,91.51,670.98,91.52,659,91.54z"/>
	<path class="st0" d="M663.61,42.14c2.4,0.13,5.16-0.3,7.87,0.55c2.98,0.93,4.2,3.03,3.85,5.94c-0.34,2.84-2.51,3.65-5.03,3.75
		c-4.09,0.15-8.08-0.6-12.1-1.19c-3.03-0.45-3.93-2.23-3.88-5.17c0.05-2.7,0.82-4.1,3.73-3.9
		C659.78,42.24,661.53,42.14,663.61,42.14z"/>
</g>
</svg>
