<?xml version="1.0" encoding="utf-8"?>
<!-- Generator: Adobe Illustrator 19.2.1, SVG Export Plug-In . SVG Version: 6.00 Build 0)  -->
<svg version="1.1" id="Layer_1" xmlns="http://www.w3.org/2000/svg" xmlns:xlink="http://www.w3.org/1999/xlink" x="0px" y="0px"
	 viewBox="0 0 204.7 63" style="enable-background:new 0 0 204.7 63;" xml:space="preserve">
<style type="text/css">
	.st0{fill:#1F1715;}
	.st1{fill:#FFFFFF;}
</style>
<polyline class="st0" points="204.7,63 0,63 0,0 204.7,0 204.7,63 "/>
<path class="st1" d="M191.4,44.9h-2H13.2h-1C5.1,44.9,0,47.4,0,50.2l0,0v7.4l0,0C0,60.5,6.1,63,13.2,63h178.2
	c7.1,0,12.2-2.1,13.2-4.9v-0.8v-7v-0.8C203.6,47.4,198.5,45.3,191.4,44.9"/>
<path class="st1" d="M191.4-0.1h-1H14.2h-2C5.1-0.1,0,2.3,0,5.1v7.6c0,2.8,5.1,4.8,12.2,5.2h1h176.2h3.1c6.1-0.4,12.2-2.4,12.2-5.2
	V5.1C203.6,2.3,198.5-0.1,191.4-0.1"/>
</svg>
