<?xml version="1.0" encoding="utf-8"?>
<!-- Generator: Adobe Illustrator 19.1.0, SVG Export Plug-In . SVG Version: 6.00 Build 0)  -->
<svg version="1.1" id="Layer_1" xmlns="http://www.w3.org/2000/svg" xmlns:xlink="http://www.w3.org/1999/xlink" x="0px" y="0px"
	 viewBox="0 0 97 97.2" style="enable-background:new 0 0 97 97.2;" xml:space="preserve">
<style type="text/css">
	.st0{fill:#FFFFFF;}
	.st1{fill:#736759;}
</style>
<g>
	<polygon class="st0" points="88.3,55.7 34.6,1.5 15.9,30.2 64.2,92.8 	"/>
	<g>
		<path class="st1" d="M55.2,58.1c0.3,1.9,0.7,3.8,0.5,5.7c-0.1,0.7-0.2,1.4-0.2,2c0,0.5,0,1.1,0.1,1.5c0.3,0.7,0.7,1.3,1.1,2
			c0-0.7,0-1.4,0.1-2c0.2-3.7,0.1-7.4-1.7-10.8C55.1,57,55.2,57.6,55.2,58.1z"/>
		<g>
			<path class="st1" d="M32.3,34.1c0.1,0.3,0.2,0.6,0.3,0.9c0.1,0.3,0.3,0.6,0.5,0.9C33.2,34.6,33.2,34.5,32.3,34.1z"/>
			<g>
				<path class="st1" d="M40.3,43.9c-1.6-1.6-3.2-3.2-4.8-4.7c0,0.1-0.1,0.2-0.1,0.3C36.4,42.1,38.3,43.2,40.3,43.9z"/>
				<g>
					<path class="st1" d="M37.6,46c0.5-0.8-0.1-1.2-0.5-1.7c0.2,0,0.3,0.1,0.5,0.1c-0.1-0.3-0.2-0.5-0.2-0.6
						c0.1,0.1,0.3,0.3,0.5,0.5c0-0.4,0.1-0.8,0.1-1.1c-1.6-1.1-2.6-2.9-3.3-5c0,0.4,0.1,0.7,0.2,1c0.4,1.1,0.8,2.1,1.2,3.2
						c-0.3-0.5-0.6-1-0.8-1.5c-1.1-2.5-1.3-5.1-1.4-7.8c0-0.7,0-1.3-0.1-2c-0.1,0-0.1,0-0.2,0c-0.1,1.2-0.2,2.5-0.2,3.7
						c0.1,4.2,1.4,7.9,3.7,11.1c0.3,0.5,0.6,1,0.9,1.5c-0.3-0.3-0.6-0.6-0.9-0.9c0,0.1-0.1,0.1-0.1,0.2c0.8,1.4,1.5,2.7,2.3,4.1
						c0.1,0,0.1-0.1,0.2-0.1c-0.5-1-0.9-2-1.4-3.1C38.4,46.7,38,46.3,37.6,46z"/>
					<path class="st1" d="M39,45.5c0.6,0.3,1.1,0.6,1.6,1.1c1.5,1.4,3.3,1.8,5,2.1c-0.4-0.7-0.7-1.4-1.2-1.8
						c-0.5-0.5-1.1-0.8-1.6-1.1c-0.8-0.5-1.6-1-2.4-1.4c-0.8-0.4-1.5-0.7-2.4-1.1C38.2,44.2,38.2,45.1,39,45.5z"/>
					<g>
						<path class="st1" d="M53.1,52.8c-0.1-1.9-0.4-3.7-1.1-5.4c-0.5-1.4-1.2-2.7-1.8-4c0,0-0.1,0-0.1,0c0,0.1,0,0.2,0,0.3
							c0,3.7,0.2,7.4,0.1,11.1c0,1.7,0.4,3,1.3,4.4c0-0.7,0-1.2,0-1.8c0-0.6,0-1.1,0.1-1.7c0,4.8,0.2,4.5,1,5.6c0-0.9,0-1.7,0-2.5
							c-0.1-1.7-0.1-3.4,0.5-5C53.1,53.5,53.1,53.1,53.1,52.8z"/>
						<path class="st1" d="M52.9,55.5c-0.1,1.8,0,3.7-0.1,5.6c-0.1,1.2,0.4,1.9,0.9,2.8c0-0.3,0.1-0.4,0.1-0.5c0-0.1,0-0.2,0-0.2
							c0.2,0.8,0.4,1.6,0.6,2.4c0,0,0.1-0.1,0.1-0.1c0.1-1.8,0.1-3.6,0.2-5.4c0.2,2.1-0.1,4.2,0.4,6.3c0.7-4.7-0.3-11.7-1.8-13.7
							C53.3,53.5,53,54.5,52.9,55.5z"/>
						<g>
							<g>
								<path class="st1" d="M47.6,56.8c-0.5,0-1.1-0.3-1.6-0.4c0-0.1,0-0.1,0.1-0.2c1,0.1,2,0.2,3.1,0.4c-0.3-0.7-0.4-1.1-0.6-1.5
									c-0.2-0.4-0.4-0.8-0.9-0.8c-1.6-0.3-1.7-0.4-2.4-1.2c0.8,0.4,1.7,0.9,2.6,0.4c-1.5-0.8-3-1.5-4.5-2.3c0-0.1,0-0.1,0-0.2
									c1.3,0.6,2.6,1.2,4,1.8c-0.6-2.5-1.9-3.7-3.7-4c-0.2,0-0.4,0-0.6-0.2c-1.5-0.9-3-1.9-4.4-2.9c0,0,0,0.1-0.1,0.1
									c0.5,0.4,1,0.9,1.5,1.3c0,0.1-0.1,0.1-0.1,0.2c-0.3-0.3-0.7-0.6-1-0.8c0,0.1-0.1,0.1-0.1,0.2c0.2,0.3,0.5,0.7,0.6,0.9
									c0,0.3,0,0.6,0.1,0.7c0.7,1.1,1.5,2.2,2.3,3.2c0.6,0.7,1.3,1.3,1.9,2c-2.2-1.6-4.2-3.2-5.7-8.7c-0.2,2.3,1.8,7,4.7,10.4
									c2.3,2.7,5,4.2,8,4.9c-0.3-0.6-0.5-1-0.7-1.4C49.7,57.1,48.8,56.7,47.6,56.8z"/>
								<g>
									<path class="st1" d="M30.3,12.6c0,0.1,0,0.1-0.1,0.2c-0.5-0.4-1-0.9-1.6-1.3c0,0.2-0.1,0.3,0,0.4c0.3,3,0.6,6.1,0.9,9.1
										c0,0.2,0.1,0.4,0.2,0.5c0.8,1.1,1.7,1.8,2.8,2.1c0.5,0.1,0.9,0.4,1.4,0.7c-1.6-0.4-3.2-0.4-4.3-2.7c0,2.1-0.3,2,1.7,3.5
										c-0.5-0.3-1-0.6-1.5-0.9c-0.1,2,0.1,2.5,1.6,2.9c0.6,0.2,1.2,0.4,1.8,0.6c0,0.1,0,0.1,0,0.2c-1-0.3-2-0.6-3.1-0.9
										c0.9,1.5,0.9,3.8,2.7,4.3c0.1,0,0.1,0.2,0.2,0.3c-0.3-0.1-0.5-0.2-0.7-0.4c-0.3-0.1-0.5-0.3-0.8-0.4c0.3,2,0.6,2.5,1.7,3.2
										c0-1.9,0.3-3.6,1.2-5.1c-0.1,1-0.2,1.9-0.2,2.8c0.3,0.2,0.5,0.3,0.8,0.5c0,0.1,0,0.1-0.1,0.2c-0.2-0.1-0.4-0.2-0.8-0.4
										c0.2,0.7,0.3,1.4,0.4,2c-0.4,0.5-0.2,1.4,0.4,2c-0.1,0.1-0.3,0.3-0.3,0.4c0,0.8,0.4,1.1,0.9,1.5c0.8,0.6,1.5,1.2,2.2,1.8
										c0,0.1,0,0.1-0.1,0.2c-0.8-0.6-1.7-1.2-2.5-1.8c1.5,1.6,3,3.2,4.6,4.6c1.6,1.4,3.3,2.6,4.9,3.8c-0.9-3.1-2.5-5-4.8-6
										c-0.7-0.3-1.3-0.9-1.9-1.3c0-0.1,0.1-0.2,0.1-0.3c1.7,1.1,3.4,2.2,5,3.3c-0.2-0.9-0.8-1.6-1.5-2c-1-0.6-2-1-3-1.6
										c-0.8-0.5-1.5-1.1-2.2-1.6c0.2,0.1,0.4,0.1,0.6,0.2c0.6,0.4,1.1,0.8,1.7,1.1c1.2,0.6,2.5,1.2,3.7,1.7
										c-0.5-1.7-0.5-1.8-1.4-2.4c-0.4-0.3-0.9-0.3-1.3-0.5c-1-0.4-2-0.7-2.8-1.8c0.2,0.1,0.4,0.2,0.6,0.3
										c1.3,0.6,2.5,1.2,3.8,1.8c0-0.1,0.1-0.2,0.1-0.3c-0.2-0.7-0.4-1.4-0.7-2.1c-0.1-0.2-0.3-0.3-0.5-0.3
										c-0.8-0.3-1.6-0.6-2.4-1.5c1,0.3,1.7,1.1,2.6,0.8c-0.1-1-0.6-1.3-1.2-1.5c-0.7-0.3-1.4-0.7-2-1.7c0.8,0.7,1.6,1.3,2.5,1.1
										c-0.5-1.8-0.5-1.8-2-3.1c0.4,0.1,0.7,0.2,1.1,0.2c-0.1-0.3-0.2-0.5-0.3-0.7c-0.2-0.9-0.6-1.6-1.4-1.8
										c-0.3-0.1-0.7-0.5-1.1-0.9c0.6,0.1,1.1,0.1,1.8,0.2c-0.4-0.9-0.8-1.7-1.1-2.5c0,0,0.1,0,0.2,0c-0.4-1.3-0.7-2.6-1.2-3.7
										c-0.5-1.1-1.2-2.1-1.9-3.1c0.4,0.4,0.8,0.9,1.4,1.5c-0.4-1.3-0.8-2.4-1-3.5c-0.2-1.1-0.8-1.7-1.5-2.2
										c-0.2-0.1-0.4-0.2-0.7-0.3c0-0.1,0-0.1,0-0.2c0.5,0.2,0.9,0.4,1.3,0.5c0-1.5-1.1-1.8-1.7-2.7c0.4,0.2,0.8,0.4,1.2,0.6
										c-0.4-1.5-0.7-2.9-1.1-4.4l-2.8,4.4c0.1,0.2,0.2,0.4,0.3,0.6C29.3,11.7,29.8,12.1,30.3,12.6z"/>
									<g>
										<path class="st1" d="M60.1,76.9c-0.3,1.9-1.9,1.7-2.8,2.8c0.2-0.7,0.7-1.1,1.5-1.5c0.9-0.4,1.1-0.7,1-2
											c-0.4,1.3-1.1,2-2.2,2.2c1.6-0.9,2.1-2.1,1.3-3.4c-0.7,2.9-2.3,3.8-4.6,3.4c0.8-0.1,1.5-0.1,2.1-0.4
											c0.6-0.3,1.4-0.6,1.6-1.8c-0.2,0.1-0.3,0.1-0.5,0.2c0.4-0.7,0.7-1.3,1.1-2c-0.1-0.1-0.1-0.1-0.2-0.2
											c-0.5,0.5-0.9,1.2-1.4,1.5c-1.2,0.8-2.5,1.1-3.9,0.5C52,75.7,51,75,50.1,74c-0.7-0.8-1.4-1.7-2.2-2.4
											c-1.1-0.9-1.9-2.2-2.6-3.5c-0.1-0.1-0.1-0.4-0.2-0.5c1.8,2.4,3.8,3.9,6.4,3.8c-0.8,0.2-1.5,0.4-2.3-0.1
											c-0.7-0.4-1.5-0.8-2.2-1.2c0.6,0.6,1.1,1.1,1.8,1.6c0.6,0.4,1.3,0.8,1.9,1.1c0.6,0.3,1.3,0.4,1.9,0.6
											c-1.1,0.6-2.1-0.5-3.2-0.8c0.3,0.3,0.6,0.6,0.8,0.8c1.2,1.3,2.5,2.3,4,2.4c0.6,0,1.3,0.4,1.9-0.2c0.7-0.7,1.6-1.2,2.5-2
											c-0.4-0.4-0.8-0.9-1.1-0.9c-0.4,0-0.8,0.3-1.1,0.6c-1,0.9-2.1,1.2-3.1,1.3c1.3-0.8,2.7-1.6,4.1-2.5
											c-0.3-0.6-0.6-1.1-0.8-1.4c-0.1-0.2-0.4-0.4-0.5-0.3c-0.9,0.4-1.9,0.8-2.8,1.2c-0.6,0.3-1.3,0.6-1.9,0.9
											c0-0.1-0.1-0.2-0.1-0.3c1.6-0.7,3.2-1.4,4.9-2.2c0-0.1,0-0.3-0.1-0.4c-0.2-0.1-0.4-0.2-0.6-0.2c-0.2,0-0.4,0.2-0.7,0.3
											c0.2-0.3,0.3-0.4,0.4-0.5c0.1-0.1,0.3-0.2,0.4-0.4c-0.2-0.3-0.3-0.6-0.4-0.7c-0.5,0.3-1.1,0.7-1.6,1c1.3-1.4,1.3-1.5,1-2
											c-0.5,0.3-1,0.6-1.5,0.8c-0.8,0.3-1.6,0.4-2.3,0.9c-1,0.6-1.9,0.7-3,0.1c1.5,0.3,2.8-0.3,4.3-1c-2.7-0.6-5.2-0.6-7.7-2.2
											c0.2,0.5,0.3,0.8,0.5,1.2c-1.1-1.6-2.2-3.1-3.2-4.8c-0.7-1.2-1.3-2.7-1.9-4c-0.1-0.2-0.1-0.5-0.2-0.7
											c0.8,1.9,2.1,3.1,3.3,4.4c0.2,0.2,0.4,0.5,0.6,0.7c-0.9-0.8-1.8-1.6-2.8-2.5c0.3,0.6,0.6,1.1,0.8,1.7
											c1.2,2.4,2.7,4.2,4.8,4.7c1.8,0.5,3.7,1.1,5.5,0.9c0.8-0.1,1.7-0.2,2.4-0.7c-0.2-0.9-0.5-1.1-1.1-0.7
											c-0.2,0.2-0.5,0.1-0.9,0.2c0.5-0.3,0.9-0.5,1.2-0.7c-1.6-0.1-3.1-0.1-4.7-0.2c1.4-0.5,3,0.3,4.4-0.8
											c-0.3-0.3-0.5-0.9-0.7-0.9c-0.9,0-1.8,0.1-2.6,0.2c-1.4,0.2-2.8,0.1-4.1-0.2c-0.5-0.1-0.9-0.4-1.4-0.7
											c1,0.2,2.1,0.5,3.1,0.6c0.4,0.1,0.9-0.1,1.4-0.1c-1.1-0.4-2.1-0.7-3.2-1c1.5,0.3,3.1,0.5,4.6,0.8c0,0,0.1,0,0.1,0
											c0.6,0,1.1,0.1,1.7,0.1c0.1,0,0.2-0.2,0.3-0.3c-0.1-0.2-0.2-0.4-0.3-0.4c-0.8-0.2-1.6-0.4-2.5-0.5
											c-1.8-0.2-3.6-0.3-5.3-1.7c-1.2-1-2.4-2-3.2-3.6c0.1,0.1,0.3,0.1,0.3,0.2c0.6,0.7,1.1,1.4,1.7,2c0.4,0.4,0.8,0.7,1.2,1
											c0.8,0.5,1.5,1.1,2.3,1.3c1.3,0.3,2.6,0.4,4,0.6c0.4,0,0.7,0,1.3,0.1c-0.4-0.7-0.7-1.3-1.1-1.5c-0.4-0.3-0.9-0.4-1.4-0.5
											c-1.2-0.2-2.4-0.4-3.6-0.6c-1.3-0.2-2.5-0.6-3.6-1.7c-0.4-0.4-0.9-0.8-1.3-1.2c-0.6-1-1.2-2.1-1.9-3.1
											c-0.1,0-0.1,0.1-0.2,0.1c0.5,1.1,1,2.3,1.6,3.3c0.7,1.3,1.6,2.6,2.4,3.9c-0.7-0.9-1.5-1.7-2-2.8c-0.8-1.6-1.6-3.3-2.2-5.1
											c-0.2-0.6-0.2-1.4-0.4-2.3c2,5.2,4.7,8.8,9.2,8.7c-0.9-0.6-1.8-1.2-2.7-1.9c-1.8-1.4-3.2-3.3-4.5-5.3
											c-0.5-0.7-1.1-1.3-1.6-2.1c-0.9-1.6-1.7-3.2-2.6-4.8c-0.8-1.5-1.4-3.2-2.1-4.8c-0.1-0.3-0.3-0.7-0.3-1
											c-0.2-2.6-1.6-4.6-2.3-7c-0.6-2-1.2-4-1.7-6c-0.3-1.1-0.3-2.3-0.5-3.4c-0.3-3.1-0.6-6.1-1-9.2c-0.1-0.9-0.1-1.7-0.1-2.6
											L0,54.8l61.4,42.4l5.9-9c-1.9-3-3.9-6.1-5.8-9.1C61,78.4,60.6,77.7,60.1,76.9z"/>
										<g>
											<path class="st1" d="M33.8,2.8c0.2,0.4,0.3,0.8,0.4,1.3c0.5,2.3,0.6,4.8,0.1,7.4c0-0.6,0.1-1.1,0.1-1.7
												c0.1-2.3,0-4.5-0.9-6.6l-1.8,2.8c0,0,0,0.1,0,0.1c0.3,1.1,0.6,2.1,1,3.4c0.5-1.5,0.6-2.8,0.4-4.2c0.1,0,0.1,0,0.2,0
												c0,1.1,0.2,2.3,0,3.2c-0.4,1.6,0,3,0.4,4.4c0.5,1.7,1,3.3,1.6,5.1c0-0.1,0.1-0.2,0.1-0.3c0-0.1,0-0.1-0.1-0.2
												c0,0,0.1,0,0.1-0.1c0,0.1-0.1,0.2-0.1,0.3c0.4,1.6,0.9,3.3,1.3,4.9c0.1,0,0.1,0,0.2,0c0-0.3,0.1-0.5,0.1-0.8
												c0,0,0,0,0.1,0c0.1,0.6,0.1,1.1,0.2,1.7c0.1,0.5,0.2,1.1,0.4,1.6c0.2,0.6,0.4,1.1,0.7,1.6c0-1.6,0.1-3.1,0.1-4.7
												c0,0,0.1,0,0.1,0c0,1.1,0,2.3,0,3.4c0,1.1-0.2,2.2,0.4,3.5c-0.1-1.7-0.3-3.3,0.3-4.7c-0.4,2.5-0.1,5,0.7,7.4
												c0-0.7,0-1.4,0-2.1c0-0.7,0-1.5,0-2.2c0.1-3.9,0.2-7.9,0.3-11.8c0-1.5,0-3-0.3-4.5c-0.2-1.3-0.7-2.7-1.3-3.9
												C38,5.7,37,4.4,35.9,3.6c0,0-0.1-0.1-0.1-0.2c1.4,0.5,2.8,2.1,3.6,4.3c0.6,1.6,1.1,3.2,1.9,4.7c0.5,0.9,0.7,2.1,0.9,3.2
												c0.2,1.3,0.7,2.3,1.3,3.3c1.2,1.8,1.3,3.8,1.2,6c-0.2-1.3-0.4-2.6-0.6-3.9c0,0,0,0-0.1,0c0,0.6-0.1,1.2-0.1,1.8
												c0-0.3,0-0.7,0-1c0-1.4-0.4-2.7-1.4-3.7c0,0.5,0,0.9,0,1.3c0,0.4,0,0.7,0,1c-0.2-2.2-0.3-4.3-1-6.4
												c0.4,4.1,0.3,8.1-0.2,12c0-0.3-0.1-0.5,0-0.8c0.1-1.3,0.2-2.6,0.2-3.9c0-2.5-0.2-5-0.2-7.5c0-0.9-0.2-1.7-0.7-2.4
												c0,1,0.1,1.9,0.1,2.7c-0.2,5.6-0.4,11.2-0.2,16.9c0.1,1.8,0.6,4,1.2,5c0-0.1,0-0.3,0.1-0.6c0.2,2.6,1.3,4.5,2,6.6
												c0-0.3,0.1-0.6,0-0.8c-0.4-2.3,0-4.4,0.1-6.6c0,1.1,0.1,2.2,0,3.2c-0.2,2.5,0,4.9,1,7.1c0.5,1.2,1.1,2.4,1.7,3.8
												c0.1-0.4,0.1-0.6,0.1-0.9c0.2-3.1,0.4-6.1,0.5-9.2c0-1.3,0-2.7-0.2-4.1c-0.3-1.7-0.8-3.4-1.2-5.1
												c0.2,0.3,0.4,0.6,0.4,0.9c0.4,1.6,0.9,3.3,1,4.9c0.2,1.8,0,3.7,0,5.6c-0.1,2.4,0,4.8-0.3,7.1c-0.2,1.5,0.5,2.3,0.9,3.4
												c0-3.8,0-7.7,0-11.5c0.1,0,0.1,0,0.2,0c0,2,0.1,3.9,0,5.9c-0.1,2.3,0.1,4.6,0.4,6.9c0.1,0.4,0.2,0.7,0.4,1
												c0,0,0.1,0,0.1-0.1c-0.1-2.1-0.1-4.2-0.2-6.3c0.1,0.2,0.1,0.4,0.2,0.6c0.2,2.2,0.3,4.4,0.5,6.6c0.1,0.6,0.4,1.1,0.6,1.7
												c0.1-2.1,0.1-4.1,0.1-6.1c0-3.5,0-7-0.6-10.5c-0.3-1.7-0.7-3.3-1.1-4.9C47.8,32.2,47,30,46,27.9c-0.8-1.7-1.8-2.4-3-2.1
												c1.7,2,2.5,4.8,2.5,8.7c-0.2-1.4-0.3-2.7-0.5-4c0,0-0.1,0-0.1,0c0,1.2,0,2.5,0,3.7c-0.2-2.1-0.1-4.3-0.9-6.6
												c0,1.1,0,2,0,2.9c-0.1,1.3-0.2,2.6-0.3,3.9c0-1.5,0.1-3.1,0.1-4.6c0-1.5,0.2-3.1-1.4-3.9c0.5-0.3,0.9-0.5,1.2-0.7
												c0-0.7,0.1-1.4,0.1-2c0,0.3,0,0.6,0,0.8c0,0.7,0.1,1.1,0.8,1.5c0.7,0.4,1.3,1.4,1.7,2.2c2,4.2,3.1,8.8,3.5,13.6
												c0.1,1,0.3,1.9,0.9,2.7c0.9,1.2,1.4,2.6,1.8,4.2c0.6,2.1,1.3,4.1,1.9,6.1c0.2,0.7,0.4,1.4,0.6,2.1c0,0,0,0,0,0
												c0.9,1,1.3,2.2,1.5,3.6c0.2,0.9,0.3,1.8,0.5,2.6c0.3-2.5,0.4-5-0.6-7.7c1,1.3,1.8,6.4,1.3,8.1c0-1.2-0.1-2.3-0.1-3.4
												c-0.1,0-0.1,0-0.2,0c0.3,3.5-1,6.8-0.3,10.4c0.1,0,0.1,0,0.2,0c0-1.1,0-2.2,0-3.4c0.5,1.7,0,3.6,1,5.4
												c-0.1-1.4-0.2-2.5-0.2-3.7c0,0,0.1,0,0.1,0c0.1,1.4,0.3,2.8,0.4,4.2c0,0,0,0,0.1,0c0-1.2,0-2.5,0-3.7
												c0.1-1.7,0.3-3.3,0.2-5c-0.1-1.6-0.4-3.3-0.6-4.9c1,3.3,1,6.6,0.6,9.9c0.7-1.1,1.5-2.2,2.2-3.3c0.1-0.4,0.2-0.8,0.2-1.2
												c0.1,0.1,0.2,0.2,0.4,0.3c-0.2,0.3-0.4,0.5-0.5,0.8c-0.1,0.4-0.3,0.8-0.5,1.2c-0.4,0.8-0.8,1.6-1.2,2.4
												c-0.1,0.2-0.1,0.5-0.1,0.8c0.7-1.1,1.2-2.3,1.9-3.3c1.1-1.7,1.2-3.8,1.1-6c0-0.2,0-0.3,0-0.5c0,0,0,0,0.1-0.1
												c0.5,2.5,0.4,4.8-0.8,6.8c-0.7,1-1.3,2.2-1.8,3.3c-0.5,0.9-0.5,2.1-0.4,3.2c0,0.2,0.1,0.4,0.3,0.6c0-2.2,1.2-3.3,2-4.8
												c1.7-3,2-5.3,1.2-9.1c0.7,1.2,1,3.3,0.4,5.8c-0.5,1.8-1.3,3.5-2,5.2c1.2-0.5,2.4-1,3.5-1.4c-0.3,0.6-0.5,0.8-1.6,1.2
												c-0.2,0.1-0.5,0.1-0.8,0.2c-1.2,0.1-1.9,0.9-2.3,2.3c-0.2,0.8-0.2,1.4,0.2,2.1c1.9,3.1,3.9,6.2,5.8,9.3
												c0.6,0.9,1.2,1.9,1.8,2.8L97,42.4L35.6,0L33.8,2.8z"/>
											<path class="st0" d="M60.1,75.3c-0.4-0.7-0.5-1.3-0.2-2.1c0.4-1.4,1.1-2.2,2.3-2.3c0.3,0,0.5-0.1,0.8-0.2
												c1.2-0.4,1.3-0.5,1.6-1.2c-1.1,0.5-2.4,1-3.5,1.4c0.7-1.7,1.6-3.3,2-5.2c0.6-2.5,0.3-4.6-0.4-5.8
												c0.8,3.8,0.5,6.1-1.2,9.1c-0.8,1.5-2.1,2.6-2,4.8c-0.2-0.2-0.3-0.4-0.3-0.6c-0.1-1.1-0.1-2.3,0.4-3.2
												c0.6-1.1,1.2-2.3,1.8-3.3c1.2-2,1.3-4.2,0.8-6.8c0,0.1-0.1,0.1-0.1,0.1c0,0.2,0,0.3,0,0.5c0.2,2.2,0,4.3-1.1,6
												c-0.7,1-1.2,2.2-1.9,3.3c0-0.3,0-0.6,0.1-0.8c0.4-0.8,0.8-1.6,1.2-2.4c0.2-0.4,0.4-0.8,0.5-1.2c-0.7,1.1-1.4,2.2-2.2,3.3
												c0.4-3.4,0.4-6.7-0.6-9.9c0.2,1.6,0.5,3.3,0.6,4.9c0.1,1.7-0.1,3.3-0.2,5c0,1.2,0,2.5,0,3.7c0,0,0,0-0.1,0
												c-0.1-1.4-0.3-2.8-0.4-4.2c0,0-0.1,0-0.1,0c0.1,1.2,0.2,2.3,0.2,3.7c-1-1.8-0.4-3.7-1-5.4c0,1.2,0,2.3,0,3.4
												c-0.1,0-0.1,0-0.2,0c-0.6-3.6,0.6-6.9,0.3-10.4c0.1,0,0.1,0,0.2,0c0,1.1,0.1,2.3,0.1,3.4c0.5-1.7-0.3-6.8-1.3-8.1
												c1,2.7,0.9,5.2,0.6,7.7c-0.2-0.9-0.3-1.8-0.5-2.6c-0.3-1.3-0.7-2.6-1.5-3.6c0,0,0,0,0,0c-0.2-0.7-0.4-1.4-0.6-2.1
												c-0.6-2-1.3-4-1.9-6.1c-0.4-1.5-0.9-2.9-1.8-4.2c-0.5-0.8-0.8-1.7-0.9-2.7c-0.4-4.8-1.6-9.3-3.5-13.6
												c-0.4-0.9-1-1.8-1.7-2.2c-0.7-0.4-0.7-0.8-0.8-1.5c0-0.3,0-0.6,0-0.8c0,0.7-0.1,1.3-0.1,2c-0.3,0.2-0.7,0.4-1.2,0.7
												c1.6,0.8,1.4,2.4,1.4,3.9c0,1.6-0.1,3.1-0.1,4.6c0.1-1.3,0.2-2.6,0.3-3.9c0-0.9,0-1.8,0-2.9c0.9,2.3,0.8,4.4,0.9,6.6
												c0-1.2,0-2.5,0-3.7c0,0,0.1,0,0.1,0c0.2,1.3,0.3,2.6,0.5,4c0.1-3.9-0.7-6.6-2.5-8.7c1.1-0.3,2.2,0.4,3,2.1
												c1,2.1,1.8,4.3,2.2,6.7c0.3,1.6,0.8,3.3,1.1,4.9c0.6,3.5,0.6,7,0.6,10.5c0,2,0,4-0.1,6.1c-0.2-0.6-0.5-1.1-0.6-1.7
												c-0.2-2.2-0.3-4.4-0.5-6.6c0-0.2,0-0.4-0.2-0.6c0.1,2.1,0.1,4.2,0.2,6.3c0,0-0.1,0-0.1,0.1c-0.1-0.3-0.3-0.7-0.4-1
												c-0.4-2.3-0.5-4.6-0.4-6.9c0-2,0-3.9,0-5.9c-0.1,0-0.1,0-0.2,0c0,3.9,0,7.7,0,11.5c-0.3-1-1.1-1.8-0.9-3.4
												c0.3-2.3,0.3-4.7,0.3-7.1c0.1-1.9,0.2-3.7,0-5.6c-0.2-1.7-0.7-3.3-1-4.9c-0.1-0.3-0.3-0.6-0.4-0.9
												c0.4,1.7,0.9,3.4,1.2,5.1c0.2,1.3,0.2,2.7,0.2,4.1c-0.1,3.1-0.3,6.1-0.5,9.2c0,0.2-0.1,0.4-0.1,0.9
												c-0.6-1.4-1.1-2.6-1.7-3.8c-1-2.3-1.3-4.7-1-7.1c0.1-1.1,0-2.2,0-3.2c-0.1,2.2-0.5,4.3-0.1,6.6c0,0.3,0,0.5,0,0.8
												c-0.7-2.1-1.9-4-2-6.6c0,0.3-0.1,0.5-0.1,0.6c-0.7-1-1.2-3.2-1.2-5c-0.3-5.7,0-11.3,0.2-16.9c0-0.9-0.1-1.8-0.1-2.7
												c0.5,0.7,0.7,1.5,0.7,2.4c0,2.5,0.2,5,0.2,7.5c0,1.3-0.1,2.6-0.2,3.9c0,0.3,0,0.5,0,0.8c0.5-3.9,0.6-7.9,0.2-12
												c0.7,2.1,0.8,4.2,1,6.4c0-0.3,0-0.7,0-1c0-0.4,0-0.8,0-1.3c1,1,1.3,2.3,1.4,3.7c0,0.3,0,0.7,0,1c0-0.6,0.1-1.2,0.1-1.8
												c0,0,0,0,0.1,0c0.2,1.3,0.4,2.6,0.6,3.9c0.1-2.1-0.1-4.2-1.2-6c-0.6-1-1.1-2-1.3-3.3c-0.1-1.1-0.4-2.3-0.9-3.2
												c-0.8-1.5-1.3-3.1-1.9-4.7c-0.8-2.2-2.2-3.8-3.6-4.3c0.1,0.1,0.1,0.2,0.1,0.2C37,4.4,38,5.7,38.7,7.1
												c0.6,1.2,1,2.5,1.3,3.9c0.3,1.5,0.3,3,0.3,4.5c-0.1,3.9-0.2,7.9-0.3,11.8c0,0.7,0,1.4,0,2.2c0,0.7,0,1.4,0,2.1
												c-0.8-2.5-1.1-4.9-0.7-7.4c-0.6,1.4-0.3,3-0.3,4.7c-0.6-1.2-0.4-2.4-0.4-3.5c0-1.1,0-2.3,0-3.4c0,0-0.1,0-0.1,0
												c0,1.6-0.1,3.1-0.1,4.7c-0.3-0.5-0.5-1.1-0.7-1.6c-0.2-0.5-0.3-1.1-0.4-1.6c-0.1-0.5-0.1-1.1-0.2-1.7c0,0,0,0-0.1,0
												c0,0.3-0.1,0.5-0.1,0.8c-0.1,0-0.1,0-0.2,0c-0.4-1.6-0.9-3.3-1.3-4.9c0,0.1-0.1,0.2-0.1,0.3c-0.6-1.8-1.1-3.5-1.6-5.1
												c-0.5-1.5-0.9-2.8-0.4-4.4c0.3-0.9,0-2.1,0-3.2c-0.1,0-0.1,0-0.2,0c0.2,1.4,0.1,2.8-0.4,4.2c-0.4-1.3-0.7-2.3-1-3.4
												c0,0,0-0.1,0-0.1l-0.2,0.3c0.4,1.5,0.7,2.9,1.1,4.4c-0.4-0.2-0.8-0.4-1.2-0.6c0.6,0.9,1.8,1.1,1.7,2.7
												c-0.4-0.2-0.9-0.4-1.3-0.5c0,0.1,0,0.1,0,0.2c0.2,0.1,0.4,0.2,0.7,0.3c0.7,0.5,1.2,1.1,1.5,2.2c0.2,1.1,0.6,2.2,1,3.5
												c-0.6-0.6-1-1.1-1.4-1.5c0.6,1,1.4,1.9,1.9,3.1c0.5,1.1,0.8,2.5,1.2,3.7c-0.1,0-0.2,0-0.2,0c0.3,0.8,0.7,1.5,1.1,2.5
												c-0.6-0.1-1.1-0.1-1.8-0.2c0.5,0.4,0.8,0.8,1.1,0.9c0.8,0.2,1.2,0.8,1.4,1.8c0,0.2,0.1,0.4,0.3,0.7
												c-0.4-0.1-0.7-0.2-1.1-0.2c1.5,1.2,1.5,1.2,2,3.1c-0.9,0.2-1.6-0.4-2.5-1.1c0.5,1.1,1.3,1.5,2,1.7
												c0.6,0.2,1.1,0.5,1.2,1.5c-0.9,0.3-1.6-0.5-2.6-0.8c0.8,0.9,1.6,1.2,2.4,1.5c0.2,0.1,0.4,0.2,0.5,0.3
												c0.3,0.7,0.5,1.4,0.7,2.1c0,0.1-0.1,0.2-0.1,0.3c-1.3-0.6-2.5-1.2-3.8-1.8c-0.2-0.1-0.4-0.2-0.6-0.3
												c0.8,1,1.8,1.4,2.8,1.8c0.4,0.2,0.9,0.2,1.3,0.5c0.9,0.7,0.9,0.7,1.4,2.4c-1.2-0.5-2.4-1.1-3.7-1.7
												c-0.6-0.3-1.1-0.8-1.7-1.1c-0.2-0.1-0.4-0.1-0.6-0.2c0.7,0.5,1.5,1.2,2.2,1.6c1,0.6,2,1,3,1.6c0.7,0.4,1.3,1.2,1.5,2
												c-1.6-1.1-3.3-2.2-5-3.3c0,0.1-0.1,0.2-0.1,0.3c0.6,0.4,1.2,1,1.9,1.3c2.3,1.1,3.9,2.9,4.8,6c-1.6-1.3-3.3-2.4-4.9-3.8
												c-1.6-1.4-3.1-3-4.6-4.6c0.8,0.6,1.7,1.2,2.5,1.8c0-0.1,0-0.1,0.1-0.2c-0.7-0.6-1.5-1.3-2.2-1.8
												c-0.5-0.4-0.9-0.7-0.9-1.5c0-0.1,0.2-0.3,0.3-0.4c-0.6-0.6-0.8-1.5-0.4-2c-0.1-0.6-0.3-1.2-0.4-2
												c0.4,0.2,0.6,0.3,0.8,0.4c0-0.1,0-0.1,0.1-0.2c-0.2-0.1-0.4-0.3-0.8-0.5c0.1-0.9,0.1-1.8,0.2-2.8
												c-0.9,1.5-1.1,3.3-1.2,5.1c-1.1-0.7-1.4-1.2-1.7-3.2c0.3,0.1,0.6,0.3,0.8,0.4c0.2,0.1,0.5,0.3,0.7,0.4
												c-0.1-0.1-0.1-0.3-0.2-0.3C30.9,30.8,31,28.5,30,27c1.1,0.3,2.1,0.6,3.1,0.9c0-0.1,0-0.1,0-0.2c-0.6-0.2-1.2-0.4-1.8-0.6
												c-1.4-0.4-1.7-0.9-1.6-2.9c0.5,0.3,1,0.6,1.5,0.9c-2-1.5-1.7-1.4-1.7-3.5c1.1,2.3,2.7,2.3,4.3,2.7
												c-0.5-0.2-0.9-0.5-1.4-0.7c-1.1-0.3-2-1-2.8-2.1c-0.1-0.1-0.2-0.3-0.2-0.5c-0.3-3-0.6-6.1-0.9-9.1c0-0.1,0-0.3,0-0.4
												c0.6,0.5,1.1,0.9,1.6,1.3c0-0.1,0-0.1,0.1-0.2c-0.4-0.5-1-0.8-1.3-1.4c-0.1-0.2-0.2-0.4-0.3-0.6l-0.5,0.7
												c0,0.9,0.1,1.7,0.1,2.6c0.3,3.1,0.6,6.1,1,9.2c0.1,1.1,0.2,2.3,0.5,3.4c0.5,2,1.2,4,1.7,6c0.7,2.4,2.1,4.4,2.3,7
												c0,0.3,0.2,0.7,0.3,1c0.7,1.6,1.4,3.2,2.1,4.8c0.8,1.6,1.7,3.3,2.6,4.8c0.4,0.8,1.1,1.3,1.6,2.1c1.3,2,2.7,3.9,4.5,5.3
												c0.9,0.7,1.8,1.3,2.7,1.9c-4.5,0.1-7.2-3.5-9.2-8.7c0.2,0.9,0.2,1.7,0.4,2.3c0.7,1.7,1.4,3.5,2.2,5.1
												c0.5,1,1.3,1.9,2,2.8c-0.8-1.3-1.6-2.6-2.4-3.9c-0.6-1.1-1.1-2.2-1.6-3.3c0.1,0,0.1-0.1,0.2-0.1c0.6,1,1.2,2.1,1.9,3.1
												c0.4,0.4,0.9,0.8,1.3,1.2c1.1,1,2.3,1.5,3.6,1.7c1.2,0.2,2.4,0.4,3.6,0.6c0.5,0.1,1,0.1,1.4,0.5c0.4,0.3,0.6,0.9,1.1,1.5
												c-0.6,0-0.9,0-1.3-0.1c-1.3-0.2-2.7-0.2-4-0.6c-0.8-0.2-1.6-0.8-2.3-1.3c-0.4-0.3-0.9-0.6-1.2-1c-0.6-0.6-1.1-1.4-1.7-2
												c-0.1-0.1-0.2-0.2-0.3-0.2c0.8,1.6,2,2.6,3.2,3.6c1.7,1.4,3.5,1.5,5.3,1.7c0.8,0.1,1.6,0.3,2.5,0.5
												c0.1,0,0.2,0.3,0.3,0.4c-0.1,0.1-0.2,0.3-0.3,0.3c-0.6,0-1.1-0.1-1.7-0.1c0,0-0.1,0-0.1,0c-1.5-0.3-3.1-0.5-4.6-0.8
												c1,0.3,2.1,0.7,3.2,1c-0.5,0-0.9,0.2-1.4,0.1c-1.1-0.2-2.1-0.4-3.1-0.6c0.5,0.2,0.9,0.5,1.4,0.7c1.4,0.3,2.8,0.4,4.1,0.2
												c0.9-0.1,1.8-0.2,2.6-0.2c0.2,0,0.5,0.5,0.7,0.9c-1.4,1.1-3,0.2-4.4,0.8c1.5,0.1,3.1,0.1,4.7,0.2
												c-0.3,0.2-0.7,0.4-1.2,0.7c0.4-0.1,0.7,0,0.9-0.2c0.5-0.4,0.9-0.2,1.1,0.7c-0.7,0.6-1.5,0.6-2.4,0.7
												c-1.9,0.2-3.7-0.4-5.5-0.9c-2.1-0.6-3.6-2.4-4.8-4.7c-0.3-0.6-0.5-1.1-0.8-1.7c0.9,0.8,1.9,1.7,2.8,2.5
												c-0.2-0.2-0.4-0.5-0.6-0.7c-1.3-1.3-2.5-2.5-3.3-4.4c0,0.3,0.1,0.5,0.2,0.7c0.6,1.3,1.2,2.8,1.9,4c1,1.7,2.1,3.2,3.2,4.8
												c-0.1-0.4-0.3-0.7-0.5-1.2c2.4,1.6,5,1.6,7.7,2.2c-1.5,0.7-2.8,1.2-4.3,1c1.1,0.6,2,0.4,3-0.1c0.7-0.4,1.5-0.5,2.3-0.9
												c0.5-0.2,1-0.5,1.5-0.8c0.4,0.4,0.3,0.6-1,2c0.5-0.3,1.1-0.7,1.6-1c0.1,0.2,0.2,0.4,0.4,0.7c-0.1,0.1-0.3,0.2-0.4,0.4
												c-0.1,0.1-0.2,0.3-0.4,0.5c0.3-0.1,0.5-0.3,0.7-0.3c0.2,0,0.4,0.1,0.6,0.2c0,0.1,0,0.3,0.1,0.4c-1.6,0.7-3.2,1.4-4.9,2.2
												c0,0.1,0.1,0.2,0.1,0.3c0.6-0.3,1.3-0.6,1.9-0.9c0.9-0.4,1.9-0.8,2.8-1.2c0.1,0,0.4,0.1,0.5,0.3c0.3,0.4,0.5,0.8,0.8,1.4
												c-1.4,0.9-2.9,1.7-4.1,2.5c1-0.1,2.1-0.4,3.1-1.3c0.3-0.3,0.7-0.6,1.1-0.6c0.3,0,0.6,0.5,1.1,0.9c-1,0.7-1.8,1.2-2.5,2
												c-0.6,0.6-1.3,0.2-1.9,0.2c-1.5-0.1-2.8-1.1-4-2.4c-0.2-0.3-0.5-0.5-0.8-0.8c1.2,0.2,2.2,1.4,3.2,0.8
												c-0.6-0.2-1.3-0.3-1.9-0.6c-0.7-0.3-1.3-0.7-1.9-1.1c-0.6-0.4-1.2-1-1.8-1.6c0.8,0.4,1.5,0.8,2.2,1.2
												c0.8,0.5,1.6,0.3,2.3,0.1c-2.5,0.1-4.6-1.4-6.4-3.8c0.1,0.2,0.1,0.4,0.2,0.5c0.8,1.3,1.6,2.5,2.6,3.5
												c0.8,0.7,1.4,1.6,2.2,2.4c0.9,1,2,1.7,3.1,2.2c1.4,0.7,2.7,0.3,3.9-0.5c0.5-0.4,1-1,1.4-1.5c0.1,0.1,0.1,0.1,0.2,0.2
												c-0.4,0.6-0.7,1.3-1.1,2c0.1-0.1,0.3-0.1,0.5-0.2c-0.2,1.2-1,1.5-1.6,1.8c-0.6,0.3-1.3,0.3-2.1,0.4
												c2.3,0.4,3.9-0.5,4.6-3.4c0.8,1.4,0.4,2.6-1.3,3.4c1.1-0.1,1.7-0.8,2.2-2.2c0.1,1.2-0.1,1.6-1,2
												c-0.8,0.4-1.3,0.8-1.5,1.5c0.9-1,2.4-0.9,2.8-2.8c0.5,0.8,0.9,1.5,1.3,2.1c1.9,3,3.9,6.1,5.8,9.1l0.4-0.7
												c-0.6-0.9-1.2-1.9-1.8-2.8C64,81.6,62.1,78.4,60.1,75.3z M42.8,45.8c0.6,0.3,1.1,0.6,1.6,1.1c0.5,0.5,0.8,1.2,1.2,1.8
												c-1.8-0.3-3.5-0.7-5-2.1c-0.5-0.4-1.1-0.8-1.6-1.1c-0.8-0.4-0.8-1.3-0.9-2.3c0.8,0.4,1.6,0.7,2.4,1.1
												C41.3,44.8,42.1,45.3,42.8,45.8z M35.5,39.1c1.6,1.6,3.2,3.2,4.8,4.7c-2.1-0.7-3.9-1.8-4.9-4.5
												C35.4,39.3,35.5,39.2,35.5,39.1z M33.1,35.9c-0.2-0.4-0.3-0.6-0.5-0.9c-0.1-0.3-0.2-0.6-0.3-0.9
												C33.2,34.5,33.2,34.6,33.1,35.9z M39.2,50.6c-0.8-1.4-1.5-2.7-2.3-4.1c0-0.1,0.1-0.1,0.1-0.2c0.3,0.3,0.6,0.6,0.9,0.9
												c-0.3-0.5-0.6-1-0.9-1.5c-2.3-3.2-3.6-6.9-3.7-11.1c0-1.2,0.1-2.5,0.2-3.7c0.1,0,0.1,0,0.2,0c0,0.7,0,1.3,0.1,2
												c0.1,2.7,0.3,5.3,1.4,7.8c0.2,0.5,0.6,1,0.8,1.5c-0.4-1.1-0.8-2.1-1.2-3.2c-0.1-0.3-0.2-0.6-0.2-1c0.7,2.1,1.7,3.9,3.3,5
												c0,0.3-0.1,0.7-0.1,1.1c-0.2-0.2-0.3-0.3-0.5-0.5c0.1,0.2,0.1,0.4,0.2,0.6c-0.1,0-0.3,0-0.5-0.1c0.4,0.5,1,0.8,0.5,1.7
												c0.4,0.3,0.8,0.7,0.4,1.4c0.5,1,0.9,2,1.4,3.1C39.4,50.5,39.3,50.6,39.2,50.6z M42.8,55.2c-2.9-3.5-5-8.2-4.7-10.4
												c1.4,5.5,3.5,7,5.7,8.7c-0.6-0.6-1.3-1.2-1.9-2c-0.8-1-1.5-2.1-2.3-3.2c-0.1-0.1-0.1-0.4-0.1-0.7
												c-0.2-0.2-0.4-0.5-0.6-0.9c0-0.1,0.1-0.1,0.1-0.2c0.3,0.3,0.7,0.6,1,0.8c0-0.1,0.1-0.1,0.1-0.2c-0.5-0.4-1-0.9-1.5-1.3
												c0,0,0-0.1,0.1-0.1c1.5,1,3,1.9,4.4,2.9c0.2,0.1,0.4,0.1,0.6,0.2c1.8,0.3,3.1,1.5,3.7,4c-1.4-0.6-2.7-1.2-4-1.8
												c0,0.1,0,0.1,0,0.2c1.5,0.8,3,1.5,4.5,2.3c-0.9,0.5-1.7,0-2.6-0.4c0.7,0.8,0.9,0.9,2.4,1.2c0.5,0.1,0.7,0.4,0.9,0.8
												c0.2,0.4,0.4,0.8,0.6,1.5c-1.1-0.1-2.1-0.2-3.1-0.4c0,0.1,0,0.1-0.1,0.2c0.5,0.2,1.1,0.5,1.6,0.4
												c1.2-0.1,2.1,0.3,2.6,1.9c0.1,0.4,0.4,0.8,0.7,1.4C47.8,59.3,45.1,57.8,42.8,55.2z M52.5,58.9c0,0.8,0,1.6,0,2.5
												c-0.8-1.2-0.9-0.9-1-5.6c0,0.6,0,1.1-0.1,1.7c0,0.6,0,1.1,0,1.8c-0.9-1.3-1.3-2.7-1.3-4.4c0.1-3.7,0-7.4-0.1-11.1
												c0-0.1,0-0.2,0-0.3c0,0,0.1,0,0.1,0c0.6,1.3,1.3,2.6,1.8,4c0.6,1.7,1,3.5,1.1,5.4c0,0.4,0,0.7-0.1,1.1
												C52.4,55.4,52.5,57.1,52.5,58.9z M55.2,66.3c-0.5-2.2-0.3-4.2-0.4-6.3c-0.1,1.8-0.1,3.6-0.2,5.4c0,0-0.1,0.1-0.1,0.1
												c-0.2-0.8-0.4-1.6-0.6-2.4c0,0,0,0.1,0,0.2c0,0.1,0,0.3-0.1,0.5c-0.5-0.9-1-1.6-0.9-2.8c0.1-1.8,0-3.7,0.1-5.6
												c0.1-1,0.4-2,0.5-2.9C54.9,54.6,55.9,61.7,55.2,66.3z M56.8,67.3c0,0.6,0,1.2-0.1,2c-0.4-0.7-0.8-1.3-1.1-2
												c-0.2-0.4-0.1-1-0.1-1.5c0-0.7,0.1-1.4,0.2-2c0.2-1.9-0.1-3.8-0.5-5.7c-0.1-0.5-0.1-1-0.2-1.6
												C56.9,59.9,57,63.6,56.8,67.3z"/>
										</g>
									</g>
								</g>
							</g>
							<path class="st0" d="M34.4,9.7c0,0.6-0.1,1.1-0.1,1.7c0.5-2.6,0.4-5-0.1-7.4c-0.1-0.5-0.2-0.9-0.4-1.3l-0.2,0.4
								C34.4,5.2,34.5,7.5,34.4,9.7z"/>
						</g>
					</g>
				</g>
			</g>
		</g>
	</g>
</g>
</svg>
