<?xml version="1.0" encoding="utf-8"?>
<!-- Generator: Adobe Illustrator 19.2.1, SVG Export Plug-In . SVG Version: 6.00 Build 0)  -->
<svg version="1.1" id="Layer_1" xmlns="http://www.w3.org/2000/svg" xmlns:xlink="http://www.w3.org/1999/xlink" x="0px" y="0px"
	 viewBox="0 0 100.5 100.5" style="enable-background:new 0 0 100.5 100.5;" xml:space="preserve">
<style type="text/css">
	.st0{fill:#FFFFFF;stroke:#FFFFFF;stroke-miterlimit:10;}
	.st1{fill:#FFFFFF;}
	.st2{fill:#171412;}
</style>
<polygon class="st0" points="63,97.8 2.7,56.2 37.1,2.4 97.6,43.8 "/>
<g>
	<rect x="60.3" y="65.3" class="st1" width="3.4" height="2.8"/>
	<path class="st2" d="M56.8,59.5c0.3,1.9,0.7,3.8,0.5,5.7c-0.1,0.7-0.2,1.4-0.2,2c0,0.5,0,1.1,0.1,1.5c0.3,0.7,0.7,1.3,1.1,2
		c0-0.7,0-1.4,0.1-2c0.2-3.7,0.1-7.4-1.7-10.8C56.7,58.5,56.7,59,56.8,59.5z"/>
	<path class="st2" d="M33.9,35.5c0.1,0.3,0.2,0.6,0.3,0.9c0.1,0.3,0.3,0.6,0.5,0.9C34.8,36,34.7,35.9,33.9,35.5z"/>
	<path class="st2" d="M41.9,45.3c-1.6-1.6-3.2-3.2-4.8-4.7c0,0.1-0.1,0.2-0.1,0.3C38,43.5,39.9,44.6,41.9,45.3z"/>
	<path class="st2" d="M39.2,47.4c0.5-0.8-0.1-1.2-0.5-1.7c0.2,0,0.3,0.1,0.5,0.1c-0.1-0.3-0.2-0.5-0.2-0.6c0.1,0.1,0.3,0.3,0.5,0.5
		c0-0.4,0.1-0.8,0.1-1.1c-1.6-1.1-2.6-2.9-3.3-5c0,0.4,0.1,0.7,0.2,1c0.4,1.1,0.8,2.1,1.2,3.2c-0.3-0.5-0.6-1-0.8-1.5
		c-1.1-2.5-1.3-5.1-1.4-7.8c0-0.7,0-1.3-0.1-2c-0.1,0-0.1,0-0.2,0C35.1,33.7,35,35,35,36.2c0.1,4.2,1.4,7.9,3.7,11.1
		c0.3,0.5,0.6,1,0.9,1.5c-0.3-0.3-0.6-0.6-0.9-0.9c0,0.1-0.1,0.1-0.1,0.2c0.8,1.4,1.5,2.7,2.3,4.1c0.1,0,0.1-0.1,0.2-0.1
		c-0.5-1-0.9-2-1.4-3.1C40,48.2,39.6,47.7,39.2,47.4z"/>
	<path class="st2" d="M40.6,47c0.6,0.3,1.1,0.6,1.6,1.1c1.5,1.4,3.3,1.8,5,2.1c-0.4-0.7-0.7-1.4-1.2-1.8c-0.5-0.5-1.1-0.8-1.6-1.1
		c-0.8-0.5-1.6-1-2.4-1.4c-0.8-0.4-1.5-0.7-2.4-1.1C39.8,45.6,39.8,46.5,40.6,47z"/>
	<path class="st2" d="M54.7,54.2c-0.1-1.9-0.4-3.7-1.1-5.4c-0.5-1.4-1.2-2.7-1.8-4h-0.1c0,0.1,0,0.2,0,0.3c0,3.7,0.2,7.4,0.1,11.1
		c0,1.7,0.4,3,1.3,4.4c0-0.7,0-1.2,0-1.8s0-1.1,0.1-1.7c0,4.8,0.2,4.5,1,5.6c0-0.9,0-1.7,0-2.5c-0.1-1.7-0.1-3.4,0.5-5
		C54.7,54.9,54.7,54.6,54.7,54.2z"/>
	<path class="st2" d="M54.5,56.9c-0.1,1.8,0,3.7-0.1,5.6c-0.1,1.2,0.4,1.9,0.9,2.8c0-0.3,0.1-0.4,0.1-0.5s0-0.2,0-0.2
		c0.2,0.8,0.4,1.6,0.6,2.4l0.1-0.1c0.1-1.8,0.1-3.6,0.2-5.4c0.2,2.1-0.1,4.2,0.4,6.3c0.7-4.7-0.3-11.7-1.8-13.7
		C54.8,54.9,54.5,55.9,54.5,56.9z"/>
	<path class="st2" d="M49.2,58.3c-0.5,0-1.1-0.3-1.6-0.4c0-0.1,0-0.1,0.1-0.2c1,0.1,2,0.2,3.1,0.4c-0.3-0.7-0.4-1.1-0.6-1.5
		c-0.2-0.4-0.4-0.8-0.9-0.8c-1.6-0.3-1.7-0.4-2.4-1.2c0.8,0.4,1.7,0.9,2.6,0.4c-1.5-0.8-3-1.5-4.5-2.3c0-0.1,0-0.1,0-0.2
		c1.3,0.6,2.6,1.2,4,1.8c-0.6-2.5-1.9-3.7-3.7-4c-0.2,0-0.4,0-0.6-0.2c-1.5-0.9-3-1.9-4.4-2.9c0,0,0,0.1-0.1,0.1
		c0.5,0.4,1,0.9,1.5,1.3c0,0.1-0.1,0.1-0.1,0.2c-0.3-0.3-0.7-0.6-1-0.8c0,0.1-0.1,0.1-0.1,0.2c0.2,0.3,0.5,0.7,0.6,0.9
		c0,0.3,0,0.6,0.1,0.7c0.7,1.1,1.5,2.2,2.3,3.2c0.6,0.7,1.3,1.3,1.9,2c-2.2-1.6-4.2-3.2-5.7-8.7c-0.2,2.3,1.8,7,4.7,10.4
		c2.3,2.7,5,4.2,8,4.9c-0.3-0.6-0.5-1-0.7-1.4C51.3,58.6,50.4,58.2,49.2,58.3z"/>
	<path class="st2" d="M31.8,14c0,0.1,0,0.1-0.1,0.2c-0.5-0.4-1-0.9-1.6-1.3c0,0.2-0.1,0.3,0,0.4c0.3,3,0.6,6.1,0.9,9.1
		c0,0.2,0.1,0.4,0.2,0.5C32,24,32.9,24.7,34,25c0.5,0.1,0.9,0.4,1.4,0.7c-1.6-0.4-3.2-0.4-4.3-2.7c0,2.1-0.3,2,1.7,3.5
		c-0.5-0.3-1-0.6-1.5-0.9c-0.1,2,0.1,2.5,1.6,2.9c0.6,0.2,1.2,0.4,1.8,0.6c0,0.1,0,0.1,0,0.2c-1-0.3-2-0.6-3.1-0.9
		c0.9,1.5,0.9,3.8,2.7,4.3c0.1,0,0.1,0.2,0.2,0.3c-0.3-0.1-0.5-0.2-0.7-0.4c-0.3-0.1-0.5-0.3-0.8-0.4c0.3,2,0.6,2.5,1.7,3.2
		c0-1.9,0.3-3.6,1.2-5.1c-0.1,1-0.2,1.9-0.2,2.8c0.3,0.2,0.5,0.3,0.8,0.5c0,0.1,0,0.1-0.1,0.2c-0.2-0.1-0.4-0.2-0.8-0.4
		c0.2,0.7,0.3,1.4,0.4,2c-0.4,0.5-0.2,1.4,0.4,2c-0.1,0.1-0.3,0.3-0.3,0.4c0,0.8,0.4,1.1,0.9,1.5c0.8,0.6,1.5,1.2,2.2,1.8
		c0,0.1,0,0.1-0.1,0.2c-0.8-0.6-1.7-1.2-2.5-1.8c1.5,1.6,3,3.2,4.6,4.6c1.6,1.4,3.3,2.6,4.9,3.8c-0.9-3.1-2.5-5-4.8-6
		c-0.7-0.3-1.3-0.9-1.9-1.3c0-0.1,0.1-0.2,0.1-0.3c1.7,1.1,3.4,2.2,5,3.3c-0.2-0.9-0.8-1.6-1.5-2c-1-0.6-2-1-3-1.6
		c-0.8-0.5-1.5-1.1-2.2-1.6c0.2,0.1,0.4,0.1,0.6,0.2c0.6,0.4,1.1,0.8,1.7,1.1c1.2,0.6,2.5,1.2,3.7,1.7c-0.5-1.7-0.5-1.8-1.4-2.4
		c-0.4-0.3-0.9-0.3-1.3-0.5c-1-0.4-2-0.7-2.8-1.8c0.2,0.1,0.4,0.2,0.6,0.3c1.3,0.6,2.5,1.2,3.8,1.8c0-0.1,0.1-0.2,0.1-0.3
		c-0.2-0.7-0.4-1.4-0.7-2.1c-0.1-0.2-0.3-0.3-0.5-0.3c-0.8-0.3-1.6-0.6-2.4-1.5c1,0.3,1.7,1.1,2.6,0.8c-0.1-1-0.6-1.3-1.2-1.5
		c-0.7-0.3-1.4-0.7-2-1.7c0.8,0.7,1.6,1.3,2.5,1.1c-0.5-1.8-0.5-1.8-2-3.1c0.4,0.1,0.7,0.2,1.1,0.2c-0.1-0.3-0.2-0.5-0.3-0.7
		c-0.2-0.9-0.6-1.6-1.4-1.8c-0.3-0.1-0.7-0.5-1.1-0.9c0.6,0.1,1.1,0.1,1.8,0.2c-0.4-0.9-0.8-1.7-1.1-2.5c0,0,0.1,0,0.2,0
		c-0.4-1.3-0.7-2.6-1.2-3.7s-1.2-2.1-1.9-3.1c0.4,0.4,0.8,0.9,1.4,1.5c-0.4-1.3-0.8-2.4-1-3.5s-0.8-1.7-1.5-2.2
		c-0.2-0.1-0.4-0.2-0.7-0.3c0-0.1,0-0.1,0-0.2c0.5,0.2,0.9,0.4,1.3,0.5c0-1.5-1.1-1.8-1.7-2.7c0.4,0.2,0.8,0.4,1.2,0.6
		c-0.4-1.5-0.7-2.9-1.1-4.4L30.3,12c0.1,0.2,0.2,0.4,0.3,0.6C30.9,13.2,31.4,13.6,31.8,14z"/>
	<path class="st2" d="M61.7,78.4c-0.3,1.9-1.9,1.7-2.8,2.8c0.2-0.7,0.7-1.1,1.5-1.5c0.9-0.4,1.1-0.7,1-2c-0.4,1.3-1.1,2-2.2,2.2
		c1.6-0.9,2.1-2.1,1.3-3.4c-0.7,2.9-2.3,3.8-4.6,3.4c0.8-0.1,1.5-0.1,2.1-0.4s1.4-0.6,1.6-1.8c-0.2,0.1-0.3,0.1-0.5,0.2
		c0.4-0.7,0.7-1.3,1.1-2c-0.1-0.1-0.1-0.1-0.2-0.2c-0.5,0.5-0.9,1.2-1.4,1.5c-1.2,0.8-2.5,1.1-3.9,0.5c-1.1-0.5-2.2-1.2-3.1-2.2
		c-0.7-0.8-1.4-1.7-2.2-2.4c-1.1-0.9-1.9-2.2-2.6-3.5c-0.1-0.1-0.1-0.4-0.2-0.5c1.8,2.4,3.8,3.9,6.4,3.8c-0.8,0.2-1.5,0.4-2.3-0.1
		c-0.7-0.4-1.5-0.8-2.2-1.2c0.6,0.6,1.1,1.1,1.8,1.6c0.6,0.4,1.3,0.8,1.9,1.1c0.6,0.3,1.3,0.4,1.9,0.6c-1.1,0.6-2.1-0.5-3.2-0.8
		c0.3,0.3,0.6,0.6,0.8,0.8c1.2,1.3,2.5,2.3,4,2.4c0.6,0,1.3,0.4,1.9-0.2c0.7-0.7,1.6-1.2,2.5-2c-0.4-0.4-0.8-0.9-1.1-0.9
		c-0.4,0-0.8,0.3-1.1,0.6c-1,0.9-2.1,1.2-3.1,1.3c1.3-0.8,2.7-1.6,4.1-2.5c-0.3-0.6-0.6-1.1-0.8-1.4c-0.1-0.2-0.4-0.4-0.5-0.3
		c-0.9,0.4-1.9,0.8-2.8,1.2c-0.6,0.3-1.3,0.6-1.9,0.9c0-0.1-0.1-0.2-0.1-0.3c1.6-0.7,3.2-1.4,4.9-2.2c0-0.1,0-0.3-0.1-0.4
		c-0.2-0.1-0.4-0.2-0.6-0.2c-0.2,0-0.4,0.2-0.7,0.3c0.2-0.3,0.3-0.4,0.4-0.5c0.1-0.1,0.3-0.2,0.4-0.4c-0.2-0.3-0.3-0.6-0.4-0.7
		c-0.5,0.3-1.1,0.7-1.6,1c1.3-1.4,1.3-1.5,1-2c-0.5,0.3-1,0.6-1.5,0.8c-0.8,0.3-1.6,0.4-2.3,0.9c-1,0.6-1.9,0.7-3,0.1
		c1.5,0.3,2.8-0.3,4.3-1c-2.7-0.6-5.2-0.6-7.7-2.2c0.2,0.5,0.3,0.8,0.5,1.2c-1.1-1.6-2.2-3.1-3.2-4.8c-0.7-1.2-1.3-2.7-1.9-4
		c-0.1-0.2-0.1-0.5-0.2-0.7c0.8,1.9,2.1,3.1,3.3,4.4c0.2,0.2,0.4,0.5,0.6,0.7c-0.9-0.8-1.8-1.6-2.8-2.5c0.3,0.6,0.6,1.1,0.8,1.7
		c1.2,2.4,2.7,4.2,4.8,4.7c1.8,0.5,3.7,1.1,5.5,0.9c0.8-0.1,1.7-0.2,2.4-0.7c-0.2-0.9-0.5-1.1-1.1-0.7c-0.2,0.2-0.5,0.1-0.9,0.2
		c0.5-0.3,0.9-0.5,1.2-0.7c-1.3,0.1-2.9,0.1-4.4,0c1.4-0.5,3,0.3,4.4-0.8c-0.3-0.3-0.5-0.9-0.7-0.9c-0.9,0-1.8,0.1-2.6,0.2
		c-1.4,0.2-2.8,0.1-4.1-0.2c-0.5-0.1-0.9-0.4-1.4-0.7c1,0.2,2.1,0.5,3.1,0.6c0.4,0.1,0.9-0.1,1.4-0.1c-1.1-0.4-2.1-0.7-3.2-1
		c1.5,0.3,3.1,0.5,4.6,0.8h0.1c0.6,0,1.1,0.1,1.7,0.1c0.1,0,0.2-0.2,0.3-0.3c-0.1-0.2-0.2-0.4-0.3-0.4c-0.8-0.2-1.6-0.4-2.5-0.5
		c-1.8-0.2-3.6-0.3-5.3-1.7c-1.2-1-2.4-2-3.2-3.6c0.1,0.1,0.3,0.1,0.3,0.2c0.6,0.7,1.1,1.4,1.7,2c0.4,0.4,0.8,0.7,1.2,1
		c0.8,0.5,1.5,1.1,2.3,1.3c1.3,0.3,2.6,0.4,4,0.6c0.4,0,0.7,0,1.3,0.1c-0.4-0.7-0.7-1.3-1.1-1.5c-0.4-0.3-0.9-0.4-1.4-0.5
		c-1.2-0.2-2.4-0.4-3.6-0.6c-1.3-0.2-2.5-0.6-3.6-1.7c-0.4-0.4-0.9-0.8-1.3-1.2c-0.6-1-1.2-2.1-1.9-3.1c-0.1,0-0.1,0.1-0.2,0.1
		c0.5,1.1,1,2.3,1.6,3.3c0.7,1.3,1.6,2.6,2.4,3.9c-0.7-0.9-1.5-1.7-2-2.8c-0.8-1.6-1.6-3.3-2.2-5.1c-0.2-0.6-0.2-1.4-0.4-2.3
		c2,5.2,4.7,8.8,9.2,8.7c-0.9-0.6-1.8-1.2-2.7-1.9c-1.8-1.4-3.2-3.3-4.5-5.3c-0.5-0.7-1.1-1.3-1.6-2.1c-0.9-1.6-1.7-3.2-2.6-4.8
		c-0.8-1.5-1.4-3.2-2.1-4.8c-0.1-0.3-0.3-0.7-0.3-1c-0.2-2.6-1.6-4.6-2.3-7c-0.6-2-1.2-4-1.7-6c-0.3-1.1-0.3-2.3-0.5-3.4
		c-0.3-3.1-0.6-6.1-1-9.2c-0.1-0.9-0.1-1.7-0.1-2.6L1.6,56.2L63,98.6l5.9-9c-1.9-3-3.9-6.1-5.8-9.1C62.6,79.8,62.2,79.1,61.7,78.4z"
		/>
	<path class="st2" d="M35.3,4.2c0.2,0.4,0.3,0.8,0.4,1.3c0.5,2.3,0.6,4.8,0.1,7.4c0-0.6,0.1-1.1,0.1-1.7c0.1-2.3,0-4.5-0.9-6.6
		l-1.8,2.8v0.1c0.3,1.1,0.6,2.1,1,3.4c0.5-1.5,0.6-2.8,0.4-4.2c0.1,0,0.1,0,0.2,0c0,1.1,0.2,2.3,0,3.2c-0.4,1.6,0,3,0.4,4.4
		c0.5,1.7,1,3.3,1.6,5.1c0-0.1,0.1-0.2,0.1-0.3c0-0.1,0-0.1-0.1-0.2c0,0,0.1,0,0.1-0.1c0,0.1-0.1,0.2-0.1,0.3
		c0.4,1.6,0.9,3.3,1.3,4.9c0.1,0,0.1,0,0.2,0c0-0.3,0.1-0.5,0.1-0.8c0,0,0,0,0.1,0c0.1,0.6,0.1,1.1,0.2,1.7c0.1,0.5,0.2,1.1,0.4,1.6
		c0.2,0.6,0.4,1.1,0.7,1.6c0-1.6,0.1-3.1,0.1-4.7H40c0,1.1,0,2.3,0,3.4s-0.2,2.2,0.4,3.5c-0.1-1.7-0.3-3.3,0.3-4.7
		c-0.4,2.5-0.1,5,0.7,7.4c0-0.7,0-1.4,0-2.1s0-1.5,0-2.2c0.1-3.9,0.2-7.9,0.3-11.8c0-1.5,0-3-0.3-4.5c-0.2-1.3-0.7-2.7-1.3-3.9
		c-0.7-1.4-1.6-2.7-2.8-3.5c0,0-0.1-0.1-0.1-0.2c1.4,0.5,2.8,2.1,3.6,4.3c0.6,1.6,1.1,3.2,1.9,4.7c0.5,0.9,0.7,2.1,0.9,3.2
		c0.2,1.3,0.7,2.3,1.3,3.3c1.2,1.8,1.3,3.8,1.2,6c-0.2-1.3-0.4-2.6-0.6-3.9c0,0,0,0-0.1,0c0,0.6-0.1,1.2-0.1,1.8c0-0.3,0-0.7,0-1
		c0-1.4-0.4-2.7-1.4-3.7c0,0.5,0,0.9,0,1.3s0,0.7,0,1c-0.2-2.2-0.3-4.3-1-6.4c0.4,4.1,0.3,8.1-0.2,12c0-0.3-0.1-0.5,0-0.8
		c0.1-1.3,0.2-2.6,0.2-3.9c0-2.5-0.2-5-0.2-7.5c0-0.9-0.2-1.7-0.7-2.4c0,1,0.1,1.9,0.1,2.7c-0.2,5.6-0.4,11.2-0.2,16.9
		c0.1,1.8,0.6,4,1.2,5c0-0.1,0-0.3,0.1-0.6c0.2,2.6,1.3,4.5,2,6.6c0-0.3,0.1-0.6,0-0.8c-0.4-2.3,0-4.4,0.1-6.6c0,1.1,0.1,2.2,0,3.2
		c-0.2,2.5,0,4.9,1,7.1c0.5,1.2,1.1,2.4,1.7,3.8c0.1-0.4,0.1-0.6,0.1-0.9c0.2-3.1,0.4-6.1,0.5-9.2c0-1.3,0-2.7-0.2-4.1
		c-0.3-1.7-0.8-3.4-1.2-5.1c0.2,0.3,0.4,0.6,0.4,0.9c0.4,1.6,0.9,3.3,1,4.9c0.2,1.8,0,3.7,0,5.6c-0.1,2.4,0,4.8-0.3,7.1
		c-0.2,1.5,0.5,2.3,0.9,3.4c0-3.8,0-7.7,0-11.5c0.1,0,0.1,0,0.2,0c0,2,0.1,3.9,0,5.9c-0.1,2.3,0.1,4.6,0.4,6.9
		c0.1,0.4,0.2,0.7,0.4,1c0,0,0.1,0,0.1-0.1c-0.1-2.1-0.1-4.2-0.2-6.3c0.1,0.2,0.1,0.4,0.2,0.6c0.2,2.2,0.3,4.4,0.5,6.6
		c0.1,0.6,0.4,1.1,0.6,1.7c0.1-2.1,0.1-4.1,0.1-6.1c0-3.5,0-7-0.6-10.5c-0.3-1.7-0.7-3.3-1.1-4.9c-0.5-2.4-1.2-4.6-2.2-6.7
		c-0.8-1.7-1.8-2.4-3-2.1c1.7,2,2.5,4.8,2.5,8.7c-0.2-1.4-0.3-2.7-0.5-4h-0.1c0,1.2,0,2.5,0,3.7c-0.2-2.1-0.1-4.3-0.9-6.6
		c0,1.1,0,2,0,2.9c-0.1,1.3-0.2,2.6-0.3,3.9c0-1.5,0.1-3.1,0.1-4.6c0-1.5,0.2-3.1-1.4-3.9c0.5-0.3,0.9-0.5,1.2-0.7
		c0-0.7,0.1-1.4,0.1-2c0,0.3,0,0.6,0,0.8c0,0.7,0.1,1.1,0.8,1.5s1.3,1.4,1.7,2.2c2,4.2,3.1,8.8,3.5,13.6c0.1,1,0.3,1.9,0.9,2.7
		c0.9,1.2,1.4,2.6,1.8,4.2c0.6,2.1,1.3,4.1,1.9,6.1c0.2,0.7,0.4,1.4,0.6,2.1l0,0c0.9,1,1.3,2.2,1.5,3.6c0.2,0.9,0.3,1.8,0.5,2.6
		c0.3-2.5,0.4-5-0.6-7.7c1,1.3,1.8,6.4,1.3,8.1c0-1.2-0.1-2.3-0.1-3.4c-0.1,0-0.1,0-0.2,0c0.3,3.5-1,6.8-0.3,10.4c0.1,0,0.1,0,0.2,0
		c0-1.1,0-2.2,0-3.4c0.5,1.7,0,3.6,1,5.4c-0.1-1.4-0.2-2.5-0.2-3.7h0.1c0.1,1.4,0.3,2.8,0.4,4.2c0,0,0,0,0.1,0c0-1.2,0-2.5,0-3.7
		c0.1-1.7,0.3-3.3,0.2-5c-0.1-1.6-0.4-3.3-0.6-4.9c1,3.3,1,6.6,0.6,9.9c0.7-1.1,1.5-2.2,2.2-3.3c0.1-0.4,0.2-0.8,0.2-1.2
		c0.1,0.1,0.2,0.2,0.4,0.3c-0.2,0.3-0.4,0.5-0.5,0.8c-0.1,0.4-0.3,0.8-0.5,1.2c-0.4,0.8-0.8,1.6-1.2,2.4c-0.1,0.2-0.1,0.5-0.1,0.8
		c0.7-1.1,1.2-2.3,1.9-3.3c1.1-1.7,1.2-3.8,1.1-6c0-0.2,0-0.3,0-0.5c0,0,0,0,0.1-0.1c0.5,2.5,0.4,4.8-0.8,6.8
		c-0.7,1-1.3,2.2-1.8,3.3c-0.5,0.9-0.5,2.1-0.4,3.2c0,0.2,0.1,0.4,0.3,0.6c0-2.2,1.2-3.3,2-4.8c1.7-3,2-5.3,1.2-9.1
		c0.7,1.2,1,3.3,0.4,5.8c-0.5,1.8-1.3,3.5-2,5.2c1.2-0.5,2.4-1,3.5-1.4c-0.3,0.6-0.5,0.8-1.6,1.2c-0.2,0.1-0.5,0.1-0.8,0.2
		c-1.2,0.1-1.9,0.9-2.3,2.3c-0.2,0.8-0.2,1.4,0.2,2.1c1.9,3.1,3.9,6.2,5.8,9.3c0.6,0.9,1.2,1.9,1.8,2.8l29.3-45.1L37.1,1.4L35.3,4.2
		z"/>
	<path class="st1" d="M61.7,76.8c-0.4-0.7-0.5-1.3-0.2-2.1c0.4-1.4,1.1-2.2,2.3-2.3c0.3,0,0.5-0.1,0.8-0.2c1.2-0.4,1.3-0.5,1.6-1.2
		c-1.1,0.5-2.4,1-3.5,1.4c0.7-1.7,1.6-3.3,2-5.2c0.6-2.5,0.3-4.6-0.4-5.8c0.8,3.8,0.5,6.1-1.2,9.1c-0.8,1.5-2.1,2.6-2,4.8
		c-0.2-0.2-0.3-0.4-0.3-0.6c-0.1-1.1-0.1-2.3,0.4-3.2c0.6-1.1,1.2-2.3,1.8-3.3c1.2-2,1.3-4.2,0.8-6.8c0,0.1-0.1,0.1-0.1,0.1
		c0,0.2,0,0.3,0,0.5c0.2,2.2,0,4.3-1.1,6c-0.7,1-1.2,2.2-1.9,3.3c0-0.3,0-0.6,0.1-0.8c0.4-0.8,0.8-1.6,1.2-2.4
		c0.2-0.4,0.4-0.8,0.5-1.2c-0.7,1.1-1.4,2.2-2.2,3.3c0.4-3.4,0.4-6.7-0.6-9.9c0.2,1.6,0.5,3.3,0.6,4.9c0.1,1.7-0.1,3.3-0.2,5
		c0,1.2,0,2.5,0,3.7c0,0,0,0-0.1,0c-0.1-1.4-0.3-2.8-0.4-4.2h-0.1c0.1,1.2,0.2,2.3,0.2,3.7c-1-1.8-0.4-3.7-1-5.4c0,1.2,0,2.3,0,3.4
		c-0.1,0-0.1,0-0.2,0c-0.6-3.6,0.6-6.9,0.3-10.4c0.1,0,0.1,0,0.2,0c0,1.1,0.1,2.3,0.1,3.4c0.5-1.7-0.3-6.8-1.3-8.1
		c1,2.7,0.9,5.2,0.6,7.7c-0.2-0.9-0.3-1.8-0.5-2.6c-0.3-1.3-0.7-2.6-1.5-3.6l0,0c-0.2-0.7-0.4-1.4-0.6-2.1c-0.6-2-1.3-4-1.9-6.1
		c-0.4-1.5-0.9-2.9-1.8-4.2c-0.5-0.8-0.8-1.7-0.9-2.7c-0.4-4.8-1.6-9.3-3.5-13.6c-0.4-0.9-1-1.8-1.7-2.2c-0.7-0.4-0.7-0.8-0.8-1.5
		c0-0.3,0-0.6,0-0.8c0,0.7-0.1,1.3-0.1,2c-0.3,0.2-0.7,0.4-1.2,0.7c1.6,0.8,1.4,2.4,1.4,3.9c0,1.6-0.1,3.1-0.1,4.6
		c0.1-1.3,0.2-2.6,0.3-3.9c0-0.9,0-1.8,0-2.9c0.9,2.3,0.8,4.4,0.9,6.6c0-1.2,0-2.5,0-3.7h0.1c0.2,1.3,0.3,2.6,0.5,4
		c0.1-3.9-0.7-6.6-2.5-8.7c1.1-0.3,2.2,0.4,3,2.1c1,2.1,1.8,4.3,2.2,6.7c0.3,1.6,0.8,3.3,1.1,4.9c0.6,3.5,0.6,7,0.6,10.5
		c0,2,0,4-0.1,6.1c-0.2-0.6-0.5-1.1-0.6-1.7c-0.2-2.2-0.3-4.4-0.5-6.6c0-0.2,0-0.4-0.2-0.6c0.1,2.1,0.1,4.2,0.2,6.3
		c0,0-0.1,0-0.1,0.1c-0.1-0.3-0.3-0.7-0.4-1c-0.4-2.3-0.5-4.6-0.4-6.9c0-2,0-3.9,0-5.9c-0.1,0-0.1,0-0.2,0c0,3.9,0,7.7,0,11.5
		c-0.3-1-1.1-1.8-0.9-3.4c0.3-2.3,0.3-4.7,0.3-7.1c0.1-1.9,0.2-3.7,0-5.6c-0.2-1.7-0.7-3.3-1-4.9c-0.1-0.3-0.3-0.6-0.4-0.9
		c0.4,1.7,0.9,3.4,1.2,5.1c0.2,1.3,0.2,2.7,0.2,4.1c-0.1,3.1-0.3,6.1-0.5,9.2c0,0.2-0.1,0.4-0.1,0.9c-0.6-1.4-1.1-2.6-1.7-3.8
		c-1-2.3-1.3-4.7-1-7.1c0.1-1.1,0-2.2,0-3.2c-0.1,2.2-0.5,4.3-0.1,6.6c0,0.3,0,0.5,0,0.8c-0.7-2.1-1.9-4-2-6.6
		c0,0.3-0.1,0.5-0.1,0.6c-0.7-1-1.2-3.2-1.2-5c-0.3-5.7,0-11.3,0.2-16.9c0-0.9-0.1-1.8-0.1-2.7c0.5,0.7,0.7,1.5,0.7,2.4
		c0,2.5,0.2,5,0.2,7.5c0,1.3-0.1,2.6-0.2,3.9c0,0.3,0,0.5,0,0.8c0.5-3.9,0.6-7.9,0.2-12c0.7,2.1,0.8,4.2,1,6.4c0-0.3,0-0.7,0-1
		c0-0.4,0-0.8,0-1.3c1,1,1.3,2.3,1.4,3.7c0,0.3,0,0.7,0,1c0-0.6,0.1-1.2,0.1-1.8c0,0,0,0,0.1,0c0.2,1.3,0.4,2.6,0.6,3.9
		c0.1-2.1-0.1-4.2-1.2-6c-0.6-1-1.1-2-1.3-3.3c-0.1-1.1-0.4-2.3-0.9-3.2c-0.8-1.5-1.3-3.1-1.9-4.7c-0.8-2.2-2.2-3.8-3.6-4.3
		C37.4,4.9,37.4,5,37.4,5c1.2,0.8,2.1,2.1,2.8,3.5c0.6,1.2,1,2.5,1.3,3.9c0.3,1.5,0.3,3,0.3,4.5c-0.1,3.9-0.2,7.9-0.3,11.8
		c0,0.7,0,1.4,0,2.2c0,0.7,0,1.4,0,2.1c-0.8-2.5-1.1-4.9-0.7-7.4c-0.6,1.4-0.3,3-0.3,4.7c-0.6-1.2-0.4-2.4-0.4-3.5s0-2.3,0-3.4H40
		c0,1.6-0.1,3.1-0.1,4.7c-0.3-0.5-0.5-1.1-0.7-1.6s-0.3-1.1-0.4-1.6c-0.1-0.5-0.1-1.1-0.2-1.7c0,0,0,0-0.1,0c0,0.3-0.1,0.5-0.1,0.8
		c-0.1,0-0.1,0-0.2,0c-0.4-1.6-0.9-3.3-1.3-4.9c0,0.1-0.1,0.2-0.1,0.3c-0.6-1.8-1.1-3.5-1.6-5.1c-0.5-1.5-0.9-2.8-0.4-4.4
		c0.3-0.9,0-2.1,0-3.2c-0.1,0-0.1,0-0.2,0c0.2,1.4,0.1,2.8-0.4,4.2c-0.4-1.3-0.7-2.3-1-3.4V7.4L33,7.7c0.4,1.5,0.7,2.9,1.1,4.4
		c-0.4-0.2-0.8-0.4-1.2-0.6c0.6,0.9,1.8,1.1,1.7,2.7c-0.4-0.2-0.9-0.4-1.3-0.5c0,0.1,0,0.1,0,0.2c0.2,0.1,0.4,0.2,0.7,0.3
		c0.7,0.5,1.2,1.1,1.5,2.2c0.2,1.1,0.6,2.2,1,3.5c-0.6-0.6-1-1.1-1.4-1.5c0.6,1,1.4,1.9,1.9,3.1c0.5,1.1,0.8,2.5,1.2,3.7
		c-0.1,0-0.2,0-0.2,0c0.3,0.8,0.7,1.5,1.1,2.5c-0.6-0.1-1.1-0.1-1.8-0.2c0.5,0.4,0.8,0.8,1.1,0.9c0.8,0.2,1.2,0.8,1.4,1.8
		c0,0.2,0.1,0.4,0.3,0.7c-0.4-0.1-0.7-0.2-1.1-0.2c1.5,1.2,1.5,1.2,2,3.1c-0.9,0.2-1.6-0.4-2.5-1.1c0.5,1.1,1.3,1.5,2,1.7
		c0.6,0.2,1.1,0.5,1.2,1.5c-0.9,0.3-1.6-0.5-2.6-0.8c0.8,0.9,1.6,1.2,2.4,1.5c0.2,0.1,0.4,0.2,0.5,0.3c0.3,0.7,0.5,1.4,0.7,2.1
		c0,0.1-0.1,0.2-0.1,0.3c-1.3-0.6-2.5-1.2-3.8-1.8c-0.2-0.1-0.4-0.2-0.6-0.3c0.8,1,1.8,1.4,2.8,1.8c0.4,0.2,0.9,0.2,1.3,0.5
		c0.9,0.7,0.9,0.7,1.4,2.4c-1.2-0.5-2.4-1.1-3.7-1.7c-0.6-0.3-1.1-0.8-1.7-1.1c-0.2-0.1-0.4-0.1-0.6-0.2c0.7,0.5,1.5,1.2,2.2,1.6
		c1,0.6,2,1,3,1.6c0.7,0.4,1.3,1.2,1.5,2c-1.6-1.1-3.3-2.2-5-3.3c0,0.1-0.1,0.2-0.1,0.3c0.6,0.4,1.2,1,1.9,1.3
		c2.3,1.1,3.9,2.9,4.8,6c-1.6-1.3-3.3-2.4-4.9-3.8c-1.6-1.4-3.1-3-4.6-4.6c0.8,0.6,1.7,1.2,2.5,1.8c0-0.1,0-0.1,0.1-0.2
		c-0.7-0.6-1.5-1.3-2.2-1.8c-0.5-0.4-0.9-0.7-0.9-1.5c0-0.1,0.2-0.3,0.3-0.4c-0.6-0.6-0.8-1.5-0.4-2c-0.1-0.6-0.3-1.2-0.4-2
		c0.4,0.2,0.6,0.3,0.8,0.4c0-0.1,0-0.1,0.1-0.2c-0.2-0.1-0.4-0.3-0.8-0.5c0.1-0.9,0.1-1.8,0.2-2.8c-0.9,1.5-1.1,3.3-1.2,5.1
		c-1.1-0.7-1.4-1.2-1.7-3.2c0.3,0.1,0.6,0.3,0.8,0.4c0.2,0.1,0.5,0.3,0.7,0.4c-0.1-0.1-0.1-0.3-0.2-0.3c-1.8-0.5-1.8-2.8-2.7-4.3
		c1.1,0.3,2.1,0.6,3.1,0.9c0-0.1,0-0.1,0-0.2c-0.6-0.2-1.2-0.4-1.8-0.6c-1.4-0.4-1.7-0.9-1.6-2.9c0.5,0.3,1,0.6,1.5,0.9
		c-2-1.5-1.7-1.4-1.7-3.5c1.1,2.3,2.7,2.3,4.3,2.7c-0.5-0.2-0.9-0.5-1.4-0.7c-1.1-0.3-2-1-2.8-2.1c-0.1-0.1-0.2-0.3-0.2-0.5
		c-0.3-3-0.6-6.1-0.9-9.1c0-0.1,0-0.3,0-0.4c0.6,0.5,1.1,0.9,1.6,1.3c0-0.1,0-0.1,0.1-0.2c-0.4-0.5-1-0.8-1.3-1.4
		c-0.1-0.2-0.2-0.4-0.3-0.6l-0.5,0.7c0,0.9,0.1,1.7,0.1,2.6c0.3,3.1,0.6,6.1,1,9.2c0.1,1.1,0.2,2.3,0.5,3.4c0.5,2,1.2,4,1.7,6
		c0.7,2.4,2.1,4.4,2.3,7c0,0.3,0.2,0.7,0.3,1c0.7,1.6,1.4,3.2,2.1,4.8c0.8,1.6,1.7,3.3,2.6,4.8c0.4,0.8,1.1,1.3,1.6,2.1
		c1.3,2,2.7,3.9,4.5,5.3c0.9,0.7,1.8,1.3,2.7,1.9c-4.3-0.3-7-3.9-9-9.1c0.2,0.9,0.2,1.7,0.4,2.3c0.7,1.7,1.4,3.5,2.2,5.1
		c0.5,1,1.3,1.9,2,2.8c-0.8-1.3-1.6-2.6-2.4-3.9c-0.6-1.1-1.1-2.2-1.6-3.3c0.1,0,0.1-0.1,0.2-0.1c0.6,1,1.2,2.1,1.9,3.1
		c0.4,0.4,0.9,0.8,1.3,1.2c1.1,1,2.3,1.5,3.6,1.7c1.2,0.2,2.4,0.4,3.6,0.6c0.5,0.1,1,0.1,1.4,0.5c0.4,0.3,0.6,0.9,1.1,1.5
		c-0.6,0-0.9,0-1.3-0.1c-1.3-0.2-2.7-0.2-4-0.6c-0.8-0.2-1.6-0.8-2.3-1.3c-0.4-0.3-0.9-0.6-1.2-1c-0.6-0.6-1.1-1.4-1.7-2
		c-0.1-0.1-0.2-0.2-0.3-0.2c0.8,1.6,2,2.6,3.2,3.6c1.7,1.4,3.5,1.5,5.3,1.7c0.8,0.1,1.6,0.3,2.5,0.5c0.1,0,0.2,0.3,0.3,0.4
		C54,64.8,53.9,65,53.8,65c-0.6,0-1.1-0.1-1.7-0.1H52c-1.5-0.3-3.1-0.5-4.6-0.8c1,0.3,2.1,0.7,3.2,1c-0.5,0-0.9,0.2-1.4,0.1
		c-1.1-0.2-2.1-0.4-3.1-0.6c0.5,0.2,0.9,0.5,1.4,0.7c1.4,0.3,2.8,0.4,4.1,0.2c0.9-0.1,1.8-0.2,2.6-0.2c0.2,0,0.5,0.5,0.7,0.9
		c-1.4,1.1-3,0.2-4.4,0.8c1.5,0.1,3.1,0.1,4.7,0.2c-0.3,0.2-0.7,0.4-1.2,0.7c0.4-0.1,0.7,0,0.9-0.2c0.5-0.4,0.9-0.2,1.1,0.7
		c-0.7,0.6-1.5,0.6-2.4,0.7c-1.9,0.2-3.7-0.4-5.5-0.9c-2.1-0.6-3.6-2.4-4.8-4.7c-0.3-0.6-0.5-1.1-0.8-1.7c0.9,0.8,1.9,1.7,2.8,2.5
		c-0.2-0.2-0.4-0.5-0.6-0.7c-1.3-1.3-2.5-2.5-3.3-4.4c0,0.3,0.1,0.5,0.2,0.7c0.6,1.3,1.2,2.8,1.9,4c1,1.7,2.1,3.2,3.2,4.8
		c-0.1-0.4-0.3-0.7-0.5-1.2c2.4,1.6,5,1.6,7.7,2.2c-1.5,0.7-2.8,1.2-4.3,1c1.1,0.6,2,0.4,3-0.1c0.7-0.4,1.5-0.5,2.3-0.9
		c0.5-0.2,1-0.5,1.5-0.8c0.4,0.4,0.3,0.6-1,2c0.5-0.3,1.1-0.7,1.6-1c0.1,0.2,0.2,0.4,0.4,0.7c-0.1,0.1-0.3,0.2-0.4,0.4
		c-0.1,0.1-0.2,0.3-0.4,0.5c0.3-0.1,0.5-0.3,0.7-0.3s0.4,0.1,0.6,0.2c0,0.1,0,0.3,0.1,0.4c-1.6,0.7-3.2,1.4-4.9,2.2
		c0,0.1,0.1,0.2,0.1,0.3c0.6-0.3,1.3-0.6,1.9-0.9c0.9-0.4,1.9-0.8,2.8-1.2c0.1,0,0.4,0.1,0.5,0.3c0.3,0.4,0.5,0.8,0.8,1.4
		c-1.4,0.9-2.9,1.7-4.1,2.5c1-0.1,2.1-0.4,3.1-1.3c0.3-0.3,0.7-0.6,1.1-0.6c0.3,0,0.6,0.5,1.1,0.9c-1,0.7-1.8,1.2-2.5,2
		c-0.6,0.6-1.3,0.2-1.9,0.2c-1.5-0.1-2.8-1.1-4-2.4c-0.2-0.3-0.5-0.5-0.8-0.8c1.2,0.2,2.2,1.4,3.2,0.8c-0.6-0.2-1.3-0.3-1.9-0.6
		c-0.7-0.3-1.3-0.7-1.9-1.1c-0.6-0.4-1.2-1-1.8-1.6c0.8,0.4,1.5,0.8,2.2,1.2c0.8,0.5,1.6,0.3,2.3,0.1c-2.5,0.1-4.6-1.4-6.4-3.8
		c0.1,0.2,0.1,0.4,0.2,0.5c0.8,1.3,1.6,2.5,2.6,3.5c0.8,0.7,1.4,1.6,2.2,2.4c0.9,1,2,1.7,3.1,2.2c1.4,0.7,2.7,0.3,3.9-0.5
		c0.5-0.4,1-1,1.4-1.5c0.1,0.1,0.1,0.1,0.2,0.2c-0.4,0.6-0.7,1.3-1.1,2c0.1-0.1,0.3-0.1,0.5-0.2c-0.2,1.2-1,1.5-1.6,1.8
		s-1.3,0.3-2.1,0.4c2.3,0.4,3.9-0.5,4.6-3.4c0.8,1.4,0.4,2.6-1.3,3.4c1.1-0.1,1.7-0.8,2.2-2.2c0.1,1.2-0.1,1.6-1,2
		c-0.8,0.4-1.3,0.8-1.5,1.5c0.9-1,2.4-0.9,2.8-2.8c0.5,0.8,0.9,1.5,1.3,2.1c1.9,3,3.9,6.1,5.8,9.1l0.4-0.7c-0.6-0.9-1.2-1.9-1.8-2.8
		C65.6,83,63.7,79.9,61.7,76.8z M44.4,47.2c0.6,0.3,1.1,0.6,1.6,1.1s0.8,1.2,1.2,1.8c-1.8-0.3-3.5-0.7-5-2.1
		c-0.5-0.4-1.1-0.8-1.6-1.1c-0.8-0.4-0.8-1.3-0.9-2.3c0.8,0.4,1.6,0.7,2.4,1.1C42.9,46.2,43.6,46.7,44.4,47.2z M37.1,40.5
		c1.6,1.6,3.2,3.2,4.8,4.7c-2.1-0.7-3.9-1.8-4.9-4.5C37,40.7,37.1,40.6,37.1,40.5z M34.7,37.4c-0.2-0.4-0.3-0.6-0.5-0.9
		c-0.1-0.3-0.2-0.6-0.3-0.9C34.7,35.9,34.8,36,34.7,37.4z M40.8,52.1c-0.8-1.4-1.5-2.7-2.3-4.1c0-0.1,0.1-0.1,0.1-0.2
		c0.3,0.3,0.6,0.6,0.9,0.9c-0.3-0.5-0.6-1-0.9-1.5c-2.3-3.2-3.6-6.9-3.7-11.1c0-1.2,0.1-2.5,0.2-3.7c0.1,0,0.1,0,0.2,0
		c0,0.7,0,1.3,0.1,2c0.1,2.7,0.3,5.3,1.4,7.8c0.2,0.5,0.6,1,0.8,1.5c-0.4-1.1-0.8-2.1-1.2-3.2c-0.1-0.3-0.2-0.6-0.2-1
		c0.7,2.1,1.7,3.9,3.3,5c0,0.3-0.1,0.7-0.1,1.1c-0.2-0.2-0.3-0.3-0.5-0.5c0.1,0.2,0.1,0.4,0.2,0.6c-0.1,0-0.3,0-0.5-0.1
		c0.4,0.5,1,0.8,0.5,1.7c0.4,0.3,0.8,0.7,0.4,1.4c0.5,1,0.9,2,1.4,3.1C40.9,52,40.9,52,40.8,52.1z M44.4,56.6
		c-2.9-3.5-5-8.2-4.7-10.4c1.4,5.5,3.5,7,5.7,8.7c-0.6-0.6-1.3-1.2-1.9-2c-0.8-1-1.5-2.1-2.3-3.2c-0.1-0.1-0.1-0.4-0.1-0.7
		c-0.2-0.2-0.4-0.5-0.6-0.9c0-0.1,0.1-0.1,0.1-0.2c0.3,0.3,0.7,0.6,1,0.8c0-0.1,0.1-0.1,0.1-0.2c-0.5-0.4-1-0.9-1.5-1.3
		c0,0,0-0.1,0.1-0.1c1.5,1,3,1.9,4.4,2.9c0.2,0.1,0.4,0.1,0.6,0.2c1.8,0.3,3.1,1.5,3.7,4c-1.4-0.6-2.7-1.2-4-1.8c0,0.1,0,0.1,0,0.2
		c1.5,0.8,3,1.5,4.5,2.3c-0.9,0.5-1.7,0-2.6-0.4c0.7,0.8,0.9,0.9,2.4,1.2c0.5,0.1,0.7,0.4,0.9,0.8c0.2,0.4,0.4,0.8,0.6,1.5
		c-1.1-0.1-2.1-0.2-3.1-0.4c0,0.1,0,0.1-0.1,0.2c0.5,0.2,1.1,0.5,1.6,0.4c1.2-0.1,2.1,0.3,2.6,1.9c0.1,0.4,0.4,0.8,0.7,1.4
		C49.4,60.8,46.7,59.3,44.4,56.6z M54.1,60.3c0,0.8,0,1.6,0,2.5c-0.8-1.2-0.9-0.9-1-5.6c0,0.6,0,1.1-0.1,1.7c0,0.6,0,1.1,0,1.8
		c-0.9-1.3-1.3-2.7-1.3-4.4c0.1-3.7,0-7.4-0.1-11.1c0-0.1,0-0.2,0-0.3h0.1c0.6,1.3,1.3,2.6,1.8,4c0.6,1.7,1,3.5,1.1,5.4
		c0,0.4,0,0.7-0.1,1.1C54,56.8,54,58.6,54.1,60.3z M56.8,67.7c-0.5-2.2-0.3-4.2-0.4-6.3c-0.1,1.8-0.1,3.6-0.2,5.4l-0.1,0.1
		c-0.2-0.8-0.4-1.6-0.6-2.4c0,0,0,0.1,0,0.2s0,0.3-0.1,0.5c-0.5-0.9-1-1.6-0.9-2.8c0.1-1.8,0-3.7,0.1-5.6c0.1-1,0.4-2,0.5-2.9
		C56.5,56.1,57.5,63.1,56.8,67.7z M58.4,68.8c0,0.6,0,1.2-0.1,2c-0.4-0.7-0.8-1.3-1.1-2c-0.2-0.4-0.1-1-0.1-1.5c0-0.7,0.1-1.4,0.2-2
		c0.2-1.9-0.1-3.8-0.5-5.7c-0.1-0.5-0.1-1-0.2-1.6C58.5,61.3,58.6,65,58.4,68.8z"/>
	<path class="st1" d="M36,11.1c0,0.6-0.1,1.1-0.1,1.7c0.5-2.6,0.4-5-0.1-7.4c-0.1-0.5-0.2-0.9-0.4-1.3l-0.2,0.4
		C36,6.7,36.1,8.9,36,11.1z"/>
	<line class="st0" x1="1.6" y1="56.2" x2="37.1" y2="1.4"/>
	<line class="st0" x1="37.1" y1="1.4" x2="98.5" y2="43.8"/>
	<line class="st0" x1="98.5" y1="43.8" x2="63" y2="98.6"/>
	<line class="st0" x1="63" y1="98.6" x2="1.6" y2="56.2"/>
</g>
</svg>
