<?xml version="1.0" encoding="utf-8"?>
<!-- Generator: Adobe Illustrator 27.0.1, SVG Export Plug-In . SVG Version: 6.00 Build 0)  -->
<svg version="1.1" id="Layer_1" xmlns="http://www.w3.org/2000/svg" xmlns:xlink="http://www.w3.org/1999/xlink" x="0px" y="0px"
	 viewBox="0 0 213.36 35.37" style="enable-background:new 0 0 213.36 35.37;" xml:space="preserve">
<style type="text/css">
	.st0{fill:#B6D7DB;}
	.st1{fill:#29221F;}
	.st2{fill:#2B2421;}
	.st3{fill:#271F1C;}
	.st4{fill:#27201D;}
	.st5{fill:#2E2825;}
</style>
<g>
	<path class="st0" d="M32.61,6.94c-0.14,0.47-0.56,0.71-0.96,0.97c-0.64,0.41-0.9,0.79-0.04,1.28c0.51,0.29,0.95,0.73,1.42,1.09
		c1.7,1.31,1.71,1.32,3.47,0.1c0.35-0.25,0.57-0.29,0.93-0.02c2.25,1.72,4.49,3.44,6.79,5.09c0.82,0.59,0.58,0.92-0.04,1.4
		c-1.14,0.87-1.15,0.91-0.06,1.69c0.81,0.58,0.8,0.97-0.03,1.55c-2.18,1.55-4.32,3.15-6.42,4.79c-0.56,0.43-0.9,0.51-1.39-0.02
		c-0.91-0.97-1.83-1.08-2.81-0.02c-0.51,0.55-1.16,0.98-1.79,1.39c-0.78,0.5-0.68,0.89,0,1.4c1.14,0.85,1.13,0.89,0,1.75
		c-2,1.52-4.02,3.02-6.01,4.54c-0.6,0.46-1.1,0.7-1.71,0c-0.83-0.96-1.73-0.92-2.59,0.02c-0.57,0.62-1.06,0.52-1.72-0.01
		c-2.1-1.65-4.25-3.23-6.41-4.81c-0.6-0.44-0.85-0.69-0.04-1.25c1.39-0.97,1.34-1.08-0.09-2.07c-0.59-0.41-1.24-0.77-1.73-1.27
		c-0.77-0.79-1.42-0.58-2.03,0.1c-0.64,0.72-1.19,0.69-1.92,0.12c-2.14-1.66-4.32-3.28-6.5-4.89c-0.59-0.43-0.69-0.71,0.03-1.08
		c0.24-0.12,0.4-0.39,0.64-0.54c0.53-0.34,0.68-0.65,0.02-1.01c-0.17-0.1-0.29-0.28-0.47-0.37c-0.83-0.44-0.94-0.77-0.06-1.38
		c2.09-1.47,4.12-3.01,6.12-4.6c0.8-0.64,1.46-0.75,2.18-0.01c0.69,0.7,1.3,0.69,2.04,0c0.73-0.67,1.57-1.23,2.4-1.77
		c0.66-0.43,0.63-0.73-0.04-1.08c-0.17-0.09-0.29-0.28-0.46-0.38c-1.03-0.6-0.45-1.07,0.13-1.51c1.69-1.27,3.39-2.53,5.08-3.79
		c0.16-0.12,0.33-0.22,0.47-0.36c0.93-0.93,1.83-1.27,2.88-0.11c0.87,0.96,1.55,0.05,2.12-0.43c0.59-0.5,0.98-0.45,1.53-0.02
		c2.18,1.67,4.39,3.32,6.59,4.97C32.32,6.55,32.55,6.64,32.61,6.94z M22.64,14.81c-0.15,0.05-0.33,0.06-0.45,0.15
		c-1.06,0.78-2.12,1.57-3.15,2.38c-0.5,0.39-0.13,0.7,0.2,0.95c0.6,0.46,1.21,0.9,1.82,1.36c1.54,1.18,1.55,1.19,3.13,0.02
		c0.8-0.59,2.16-1.19,2.2-1.86c0.06-0.9-1.38-1.3-2.15-1.95C23.75,15.46,23.27,15.04,22.64,14.81z"/>
	<path class="st1" d="M205.47,6.82c-2.12,0-4.24,0-6.36-0.01c-0.5,0-0.93-0.06-0.91,0.71c0.02,0.73,0.45,0.6,0.87,0.6
		c3.08,0,6.16,0.06,9.24-0.03c1.12-0.03,1.32,0.33,1.26,1.33c-0.08,1.47-0.1,2.96,0,4.44c0.07,1.11-0.19,1.51-1.4,1.46
		c-3-0.1-6-0.04-8.99-0.03c-0.43,0-0.96-0.2-0.97,0.63c-0.01,0.82,0.51,0.64,0.95,0.64c3.56,0,7.12,0.02,10.68-0.02
		c0.79-0.01,1.07,0.21,1.01,1c-0.06,0.88,0.03,1.76-0.03,2.64c-0.04,0.71,0.15,1.08,0.92,0.94c0.99-0.19,1.27,0.28,1.14,1.18
		c-0.04,0.27-0.03,0.56,0,0.84c0.08,0.64-0.12,1-0.83,0.87c-1-0.19-1.22,0.29-1.15,1.19c0.07,0.87-0.01,1.76,0.02,2.64
		c0.03,0.6-0.13,0.83-0.8,0.82c-3.68-0.06-7.35-0.05-11.03-0.1c-0.68-0.01-0.96,0.19-0.86,0.87c0.03,0.2-0.02,0.4,0.01,0.6
		c0.28,2.47-0.53,3.48-3.32,3.7c-1.31,0.1-2.64,0.02-3.96,0.05c-0.52,0.01-0.66-0.17-0.7-0.68c-0.2-2.65-0.22-2.61,2.42-2.68
		c0.55-0.01,1.43,0.54,1.66-0.49c0.2-0.9,0-1.43-1.2-1.39c-3.24,0.1-6.48,0-9.71,0.06c-0.85,0.01-1.16-0.21-1.03-1.05
		c0.05-0.31,0.05-0.64,0-0.96c-0.12-0.77,0.24-0.92,0.94-0.92c3.32,0.04,6.64,0.02,9.96,0.02c0.53,0,1.09,0.17,1.1-0.77
		c0.01-0.93-0.45-0.91-1.11-0.91c-4.16,0.01-8.32-0.02-12.47,0.03c-0.9,0.01-1.25-0.23-1.09-1.12c0.04-0.23,0.04-0.48,0-0.72
		c-0.17-0.95,0.29-1.1,1.14-1.09c4.2,0.04,8.4,0,12.59,0.03c0.75,0.01,0.94-0.21,0.94-0.95c0-0.84-0.49-0.75-1.02-0.75
		c-3.32,0-6.64-0.03-9.96,0.03c-0.87,0.02-1.15-0.25-1.02-1.07c0.03-0.19,0.03-0.4,0-0.6c-0.16-0.96,0.17-1.29,1.2-1.27
		c3.24,0.07,6.48,0.03,9.72,0.02c0.46,0,1.09,0.25,1.06-0.67c-0.03-0.84-0.61-0.58-1.02-0.59c-3.08-0.02-6.16-0.04-9.24,0.01
		c-0.85,0.01-1.09-0.23-1.06-1.07c0.06-1.76,0.05-3.52,0-5.28c-0.02-0.69,0.2-0.86,0.87-0.86c3.16,0.03,6.32,0.02,9.48,0.01
		c0.45,0,0.98,0.17,0.96-0.65c-0.01-0.79-0.52-0.66-0.98-0.66c-4.16,0-8.32-0.02-12.47,0.02c-0.87,0.01-1.27-0.11-1.23-1.14
		c0.08-2.16,0.01-2.16,2.21-2.16c3.76,0,7.52-0.03,11.27,0.02c0.91,0.01,1.37-0.19,1.19-1.17c-0.21-1.11,0.26-1.53,1.35-1.34
		c0.23,0.04,0.48,0.01,0.72,0.01c1.74,0,1.79,0,1.79,1.69c0,0.78,0.36,0.8,0.95,0.8c4.2-0.02,8.4,0.01,12.59-0.03
		c0.84-0.01,1.18,0.11,1.15,1.08c-0.08,2.23-0.01,2.23-2.27,2.23C208.91,6.82,207.19,6.82,205.47,6.82z M202.67,21.13
		c1.16,0,2.32-0.04,3.48,0.01c0.66,0.03,0.81-0.23,0.78-0.83c-0.02-0.53-0.01-0.9-0.74-0.89c-2.4,0.04-4.79,0.04-7.19,0
		c-0.68-0.01-0.79,0.27-0.77,0.85c0.01,0.53,0.01,0.91,0.74,0.87C200.19,21.09,201.43,21.13,202.67,21.13z M202.55,25.69
		c1.2,0,2.4-0.04,3.6,0.02c0.67,0.03,0.8-0.24,0.78-0.83c-0.02-0.53-0.03-0.9-0.75-0.89c-2.4,0.04-4.8,0.04-7.19,0
		c-0.69-0.01-0.77,0.28-0.77,0.85c0.01,0.54,0.02,0.9,0.74,0.86C200.15,25.64,201.35,25.69,202.55,25.69z M190.51,12.6
		c0.95,0,1.91-0.02,2.86,0.01c0.61,0.01,1.04-0.01,1.03-0.86c-0.01-0.8-0.33-0.91-1-0.9c-1.79,0.03-3.58,0.01-5.36,0.01
		c-0.6,0-1.14-0.13-1.14,0.85c0,0.94,0.47,0.91,1.1,0.89C188.84,12.58,189.68,12.6,190.51,12.6z M201.91,12.6
		c0.99,0,1.99-0.05,2.98,0.01c0.76,0.05,0.82-0.32,0.82-0.93c0-0.59-0.11-0.85-0.78-0.84c-1.99,0.04-3.97,0.04-5.96,0
		c-0.7-0.01-0.77,0.31-0.75,0.87c0.02,0.5-0.03,0.94,0.72,0.9C199.92,12.55,200.91,12.6,201.91,12.6z"/>
	<path class="st2" d="M149.97,10.32c-0.72-3.19-0.72-3.19-3.77-3.19c-1.24,0-2.48,0-3.72,0c-0.24,0-0.6,0.09-0.7-0.03
		c-0.81-0.95-0.22-2.09-0.36-3.14c-0.09-0.65,0.48-0.51,0.84-0.51c3.36-0.01,6.72-0.01,10.08-0.01c0.56,0,1.12,0,1.68,0
		c1.82,0,1.85,0,1.96-1.76c0.04-0.55,0.25-0.68,0.73-0.65c0.44,0.03,0.88,0.01,1.32,0.01c1.73,0,1.79,0,1.84,1.67
		c0.03,0.85,0.53,0.73,1.04,0.73c4.16,0,8.32,0.03,12.48-0.02c1.01-0.01,1.28,0.26,1.25,1.26c-0.06,2.46-0.01,2.46-2.42,2.46
		c-1.44,0-2.88,0.07-4.32-0.03c-0.89-0.06-1.15,0.31-1.34,1.07c-0.55,2.16-0.58,2.15,1.63,2.15c1.36,0,2.72,0.02,4.08-0.01
		c0.57-0.01,0.76,0.18,0.76,0.76c-0.01,6.64,0,13.28-0.02,19.91c0,1.33-0.68,2.06-2.05,2.45c-0.34,0.1-0.7,0.13-1.06,0.17
		c-3.14,0.37-3.12,0.36-3.11-2.74c0-0.72,0.15-1.07,0.91-0.91c1.18,0.23,1.45-0.27,1.41-1.4c-0.09-2.6-0.06-5.2-0.01-7.8
		c0.01-0.75-0.21-0.94-0.94-0.93c-2.12,0.05-4.24,0.03-6.36,0.01c-2.3-0.01-3.1-0.83-3.11-3.11c0-0.44,0.08-0.9-0.02-1.31
		c-0.12-0.48,0.53-1.33-0.52-1.39c-0.82-0.05-1.61-0.26-2.04,0.99c-1.29,3.82-4.34,5.79-7.99,6.93c-0.85,0.27-1.12,0.58-1.11,1.46
		c0.05,3.08,0,6.16,0.04,9.24c0.01,0.74-0.2,0.93-0.94,0.94c-3.01,0.02-3.01,0.05-3.01-2.92c0-6.4,0.02-12.8-0.02-19.19
		c-0.01-0.98,0.29-1.2,1.21-1.17C146.14,10.37,148.02,10.32,149.97,10.32z M158.14,7.13c-0.88,0-1.75,0-2.63,0
		c-2.48,0-2.45-0.01-1.75,2.44c0.16,0.57,0.37,0.77,0.95,0.76c2.19-0.03,4.38-0.01,6.57-0.01c0.36,0,0.76,0.06,0.86-0.42
		c0.19-0.89,0.62-1.72,0.59-2.65c0-0.05-0.42-0.11-0.65-0.12C160.77,7.13,159.46,7.13,158.14,7.13z M165.81,16.77
		c0.84,0,1.68-0.03,2.52,0.01c0.55,0.02,0.83-0.12,0.77-0.73c-0.04-0.4-0.04-0.8,0-1.2c0.07-0.7-0.22-0.9-0.89-0.88
		c-1.44,0.04-2.88,0.08-4.31-0.01c-1.05-0.07-1.31,0.24-1.35,1.31c-0.05,1.31,0.4,1.67,1.6,1.51
		C164.68,16.71,165.25,16.77,165.81,16.77z M149.77,13.99c-0.68,0-1.35,0.01-2.03,0c-0.46-0.01-0.77,0.07-0.76,0.64
		c0.02,1.11,0.01,2.23,0,3.34c0,0.49,0.2,0.62,0.66,0.51c2.15-0.5,3.72-1.71,4.59-3.77c0.21-0.5,0.16-0.74-0.45-0.72
		C151.12,14.01,150.45,13.99,149.77,13.99z"/>
	<path class="st1" d="M114.49,16.85c-1.95,6.36-5.16,11.74-11.07,15.45c-0.08-1.52-0.13-2.83-0.21-4.14
		c-0.02-0.4,0.14-0.65,0.44-0.91c4.7-4.09,6.66-9.52,7.48-15.48c0.32-2.3,0.25-2.31-2.14-2.31c-1.68,0-3.36-0.02-5.04,0.01
		c-0.57,0.01-0.73-0.17-0.75-0.75c-0.13-2.95-0.15-2.95,2.73-2.95c1.56,0,3.12-0.03,4.68,0.01c0.61,0.02,0.86-0.14,0.82-0.79
		c-0.05-0.88,0.06-1.77-0.03-2.64c-0.11-1.01,0.31-1.18,1.21-1.17c2.82,0.04,2.82,0.01,2.85,2.84c0.02,1.74,0.02,1.74,1.71,1.74
		c5.96,0,11.92,0.02,17.87-0.02c0.91-0.01,1.13,0.24,1.12,1.13c-0.04,2.58,0,2.58-2.53,2.58c-5.68,0-11.36,0.02-17.03-0.02
		c-0.81,0-1.17,0.09-1.22,1.05c-0.12,2.43-0.18,2.43,2.28,2.43c4.88,0,9.76,0.02,14.63-0.02c0.84-0.01,1.08,0.16,0.96,1.03
		c-0.67,4.64-2.49,8.74-5.78,12.1c-0.83,0.85-0.59,1.09,0.29,1.5c2.44,1.14,4.99,1.93,7.67,2.16c0.74,0.06,0.92,0.3,0.95,0.98
		c0.14,3.12,0.14,3.12-2.92,2.58c-3.33-0.58-6.51-1.58-9.35-3.46c-0.57-0.38-0.91-0.16-1.36,0.13c-3.26,2.08-6.9,3.06-10.69,3.57
		c-0.56,0.07-0.7-0.11-0.69-0.63c0.03-0.92-0.25-1.96,0.09-2.73c0.39-0.87,1.6-0.5,2.43-0.72c2.02-0.51,3.99-1.14,5.81-2.15
		c0.31-0.17,0.82-0.27,0.3-0.83C117.43,23.69,115.68,20.46,114.49,16.85z M118.61,16.57c0.86,3,2.32,5.49,4.44,7.61
		c0.33,0.33,0.57,0.34,0.89,0.02c2.01-1.99,3.5-4.31,4.44-6.99c0.15-0.43,0.05-0.66-0.48-0.66
		C124.84,16.57,121.78,16.57,118.61,16.57z"/>
	<path class="st2" d="M86.33,32.73c-3.4,0-6.8-0.03-10.19,0.02c-0.85,0.01-1.07-0.24-1.06-1.07c0.02-2.65-0.02-2.65,2.57-2.65
		c2,0,4-0.04,5.99,0.02c0.81,0.02,1-0.24,0.98-1.01c-0.05-2.04-0.05-4.08,0-6.11c0.02-0.69-0.2-0.88-0.87-0.86
		c-2,0.04-4-0.02-5.99,0.03c-0.76,0.02-0.92-0.23-0.92-0.95c-0.01-2.72-0.04-2.72,2.72-2.72c1.36,0,2.72-0.03,4.08,0.01
		c0.68,0.02,1.02-0.11,0.99-0.9c-0.06-1.6-0.05-3.2,0-4.8c0.02-0.69-0.23-0.89-0.89-0.88c-2.2,0.03-4.4-0.01-6.59,0.03
		c-0.75,0.01-1.03-0.16-1.02-0.99c0.01-2.72-0.03-2.72,2.64-2.72c5.72,0,11.43,0.02,17.15-0.02c0.92-0.01,1.12,0.25,1.11,1.13
		c-0.05,2.58-0.01,2.59-2.63,2.59c-1.68,0-3.36,0.03-5.04-0.01c-0.63-0.01-0.82,0.18-0.81,0.81c0.04,1.64,0.05,3.28,0,4.92
		c-0.02,0.72,0.26,0.86,0.91,0.85c2-0.04,4,0.01,5.99-0.03c0.65-0.01,0.88,0.14,0.89,0.84c0.05,2.82,0.08,2.82-2.74,2.82
		c-1.44,0-2.88,0.03-4.32-0.01c-0.58-0.02-0.74,0.17-0.74,0.74c0.03,2.16,0.04,4.32,0,6.47c-0.01,0.7,0.29,0.76,0.85,0.75
		c2.48-0.02,4.96,0.02,7.43-0.03c0.77-0.01,1.03,0.17,1.03,0.98c0.01,2.72,0.04,2.72-2.64,2.72C92.25,32.73,89.29,32.73,86.33,32.73
		z"/>
	<path class="st3" d="M69.38,16.03c-1.44,1.43-2.7,2.69-4.52,3.71c0-1.61,0.01-3.03-0.01-4.45c-0.01-0.43,0.26-0.66,0.52-0.89
		c3.67-3.35,5.63-7.58,6.36-12.42c0.1-0.69,0.35-0.89,0.97-0.8c0.16,0.02,0.32,0,0.48,0c2.7,0,2.73,0.01,2.1,2.68
		c-0.32,1.36-0.62,2.75-1.19,4.01c-0.72,1.59-0.87,3.18-0.86,4.88c0.04,6.56,0,13.12,0.03,19.68c0,0.86-0.11,1.25-1.13,1.22
		c-2.77-0.07-2.77-0.02-2.77-2.8C69.38,26,69.38,21.16,69.38,16.03z"/>
	<path class="st4" d="M157.97,31.37c-2.16,0-4.31-0.02-6.47,0.01c-0.61,0.01-0.84-0.15-0.83-0.8c0.03-2.79,0.02-5.59,0-8.38
		c0-0.56,0.15-0.77,0.74-0.77c4.43,0.02,8.86,0.02,13.29,0c0.62,0,0.71,0.28,0.71,0.8c-0.02,2.79-0.03,5.59,0.01,8.38
		c0.01,0.69-0.3,0.77-0.86,0.76C162.36,31.35,160.16,31.37,157.97,31.37z M158.14,24.48c-3.78,0-3.78,0-3.58,3.05
		c0,0.04,0,0.08,0,0.12c-0.05,0.48,0.19,0.61,0.63,0.61c1.88-0.02,3.75-0.01,5.63,0c0.43,0,0.61-0.11,0.67-0.59
		c0.38-3.03,0.27-3.18-2.76-3.18C158.54,24.48,158.34,24.48,158.14,24.48z"/>
	<path class="st5" d="M86.79,5.7c-1.83,0-1.83,0-2.33-1.79c-0.18-0.65-0.33-1.32-0.56-1.95c-0.23-0.65-0.16-0.91,0.63-0.93
		c3.03-0.09,3.03-0.11,3.84,2.81C88.9,5.7,88.9,5.7,86.79,5.7z"/>
</g>
</svg>
