<?xml version="1.0" encoding="utf-8"?>
<!-- Generator: Adobe Illustrator 19.2.0, SVG Export Plug-In . SVG Version: 6.00 Build 0)  -->
<svg version="1.1" id="Layer_1" xmlns="http://www.w3.org/2000/svg" xmlns:xlink="http://www.w3.org/1999/xlink" x="0px" y="0px"
	 viewBox="0 0 500 500" style="enable-background:new 0 0 500 500;" xml:space="preserve">
<style type="text/css">
	.st0{fill:#171412;}
	.st1{fill:#FFFFFF;}
</style>
<g>
	<circle class="st0" cx="250" cy="250" r="250"/>
	<path class="st1" d="M302.5,301.3c-29.1,29.1-76.2,29.1-105.3,0c-29.1-29.1-29.1-76.2,0-105.3c29.1-29.1,76.2-29.1,105.3,0
		C331.5,225.1,331.5,272.2,302.5,301.3z M288.8,209.6c-18.9-18.9-48.1-21.2-69.5-7c-0.2,0.1-0.3,0.2-0.5,0.3
		c-0.2,0.2-0.5,0.4-0.7,0.6c-1.6,1.6-2.2,3.9-1.7,5.9c0,0.1,0.1,0.2,0.1,0.3l0.9,3.4v0l0.1,0.5c0.1,0.7-0.1,1.5-0.7,2
		c-0.6,0.6-1.3,0.8-2,0.7l-0.5-0.1h0l-3.4-0.9c-0.1,0-0.2-0.1-0.3-0.1c-2-0.5-4.3,0.1-5.9,1.7c-0.2,0.2-0.4,0.4-0.6,0.7
		c-0.1,0.1-0.2,0.3-0.3,0.5c-14.3,21.4-11.9,50.6,7,69.5c18.9,18.9,48.1,21.2,69.5,7c0.2-0.1,0.3-0.2,0.5-0.3
		c0.2-0.2,0.5-0.4,0.7-0.6c1.6-1.6,2.2-3.9,1.7-5.9c0-0.1-0.1-0.2-0.1-0.3l-0.9-3.4v0l-0.1-0.5c-0.1-0.7,0.1-1.5,0.7-2
		c0.6-0.6,1.3-0.8,2-0.7l0.5,0.1l0,0l3.4,0.9c0.1,0,0.2,0,0.3,0.1c2,0.5,4.3-0.1,5.9-1.7c0.2-0.2,0.4-0.4,0.6-0.7
		c0.1-0.1,0.2-0.3,0.3-0.5C310,257.7,307.7,228.5,288.8,209.6z M282.3,220.8l-20.1,34.9l-0.2,0.3c-0.6,1-1.3,1.9-2.1,2.8
		c-0.8,0.8-1.7,1.5-2.7,2.1l-0.4,0.3L222,281.1l-0.5,0.3c-1.2,0.6-2.8,0.4-3.8-0.7c-1-1-1.2-2.6-0.7-3.8l0.3-0.5l20-34.7l0.3-0.4
		c0.6-1,1.3-1.9,2.1-2.7c0.8-0.8,1.8-1.6,2.8-2.1l0.3-0.2l34.8-20.1l0.5-0.3c1.2-0.6,2.8-0.4,3.8,0.7c1,1,1.2,2.6,0.7,3.8
		L282.3,220.8z M253.8,244.6c-2.2-2.2-5.8-2.2-8,0c-2.2,2.2-2.2,5.8,0,8c2.2,2.2,5.8,2.2,8,0C256,250.4,256,246.8,253.8,244.6z"/>
</g>
</svg>
