<?xml version="1.0" encoding="utf-8"?>
<!-- Generator: Adobe Illustrator 28.1.0, SVG Export Plug-In . SVG Version: 6.00 Build 0)  -->
<svg version="1.1" id="Layer_1" xmlns="http://www.w3.org/2000/svg" xmlns:xlink="http://www.w3.org/1999/xlink" x="0px" y="0px"
	 viewBox="0 0 126.9 140" style="enable-background:new 0 0 126.9 140;" xml:space="preserve">
<style type="text/css">
	.st0{fill:#54504E;}
</style>
<g>
	<path class="st0" d="M106.2,20.7v15.2h5.5V20.7h15.2v-5.5h-15.2V0h-5.5v15.2H91v5.5H106.2z"/>
	<g>
		<path class="st0" d="M58.3,45.8c-2.4-2.4-7.2-4.5-11-4.5H6.7C3,41.3,0,44.2,0,48v85.3c0,3.7,2.9,6.7,6.7,6.7h69
			c3.7,0,6.7-2.9,6.7-6.7v-57c0-3.5-2.1-8.3-4.5-11L58.3,45.8z M50,73.9V51.4c0.8,0.3,1.3,0.8,1.6,0.8L71.4,72
			c0.3,0.3,0.5,0.8,0.8,1.6H50V73.9L50,73.9z M47.4,83.2h25.7v47.6H9.5V50.9h31.3v25.6C40.7,80.3,43.6,83.2,47.4,83.2z"/>
		<path class="st0" d="M104.9,38.8L85.1,19c-2.4-2.4-7.2-4.5-11-4.5H33.5c-3.7,0-6.7,2.9-6.7,6.7v15.5h9.4V23.9h31.3v25.6
			c0,3.7,2.9,6.7,6.7,6.7h25.7v47.6h-11v9.4h13.4c3.7,0,6.7-2.9,6.7-6.7v-57C109.4,46.3,107.3,41.5,104.9,38.8z M76.8,47.1V24.6
			c0.8,0.3,1.3,0.8,1.6,1.1l19.8,19.8c0.3,0.3,0.5,0.8,0.8,1.6H76.8L76.8,47.1z"/>
	</g>
</g>
</svg>
