<?xml version="1.0" encoding="utf-8"?>
<!-- Generator: Adobe Illustrator 27.0.1, SVG Export Plug-In . SVG Version: 6.00 Build 0)  -->
<svg version="1.1" id="Layer_1" xmlns="http://www.w3.org/2000/svg" xmlns:xlink="http://www.w3.org/1999/xlink" x="0px" y="0px"
	 viewBox="0 0 386.63 198.8" style="enable-background:new 0 0 386.63 198.8;" xml:space="preserve">
<style type="text/css">
	.st0{fill:none;}
	.st1{fill:#2F5595;}
	.st2{fill:#305595;}
	.st3{fill:#8FAADB;}
	.st4{fill:#8FAADC;}
	.st5{fill:#325696;}
	.st6{fill:#345897;}
	.st7{fill:#38578F;}
	.st8{fill:#93ABD7;}
	.st9{fill:#446294;}
</style>
<g>
	<path class="st0" d="M-196.99,383.85c0-148.83,0.01-297.66-0.07-446.49c0-2.81,0.63-3.45,3.44-3.44
		c260.2,0.08,520.41,0.08,780.61,0c2.81,0,3.45,0.63,3.45,3.44c-0.08,147.7-0.08,295.41,0,443.11c0,2.81-0.63,3.44-3.44,3.44
		C325.67,383.84,64.34,383.85-196.99,383.85z M269.52,29.45c-5.78,0-11.55,0-17.33,0.01c-0.25,0.39-0.71,0.78-0.71,1.17
		c-0.04,14.81-0.02,29.61-0.08,44.42c-0.01,1.99,1.05,2.18,2.6,2.17c5.23-0.04,10.45,0.01,15.68-0.03c0.91-0.01,2.04,0.45,2.65-0.74
		c-0.02-15.49-0.03-30.98-0.05-46.48C271.55,28.78,270.49,29.38,269.52,29.45z M128.63,53.92c0.19,1.34,0.46,2.68,0.54,4.02
		c0.63,11.15,7.72,18.09,19.06,18.62c1.03,1.06,2.35,0.62,3.55,0.63c11.36,0.03,22.72-0.1,34.08,0.1c2.93,0.05,3.42-0.88,3.41-3.56
		c-0.1-23.47-0.05-46.93-0.1-70.4c0-1.1,0.77-2.5-0.72-3.32c-5.62-0.05-11.24,0.07-16.85-0.22c-2.88-0.15-3.49,0.77-3.47,3.52
		c0.14,15.61,0.07,31.22,0.07,46.83c0,9.32,0,9.32-9.28,8.85c-7.9-0.4-9.45-2.03-9.45-9.96c-0.01-15.36-0.05-30.72,0.05-46.08
		c0.02-2.4-0.57-3.24-3.08-3.14C140.69,0.02,134.95-0.05,129.2,0c-0.59,0.12-0.76,0.53-0.76,1.06
		C128.51,18.69,128.57,36.3,128.63,53.92z M79.83,58.98c2.58-9.24,5.02-18.19,7.64-27.09c0.49-1.67,0.81-2.6-1.41-2.58
		c-5.12,0.04-10.24,0.03-15.36,0.01c-1.52-0.01-1.92,0.71-2.37,2.17c-2.1,6.91-4.48,13.74-6.73,20.61
		c-2.71,8.24-5.39,16.48-8.21,25.1c1.64,0,2.98,0,4.32,0c20.86,0,41.71,0,62.57,0c4.93,0,4.94,0,3.73-4.66
		c-0.37-1.42-0.75-2.84-1.18-4.24c-2.89-9.49-5.74-18.99-8.69-28.46c-3.9-12.53-7.91-25.02-11.8-37.55
		c-0.4-1.29-0.68-2.41-2.28-2.42c-6.96-0.01-13.92,0-21.08,0c0.38,1.43,0.59,2.51,0.95,3.53c6.22,17.57,12.45,35.14,18.73,52.69
		c0.58,1.61,1.2,2.93-1.4,2.92C91.52,58.97,85.8,58.98,79.83,58.98z M207.39,77.2c2.5,0,4.99-0.01,7.49,0
		c6.49,0.03,12.88-0.78,18.48-4.2c13.09-7.99,15.73-25.04,7.66-38.1c-4.18-6.76-9.71-12.45-14.74-18.54
		c-3.57-4.32-7.88-8.47-5.79-15.04c0.54-1.71-0.81-1.47-1.74-1.47c-5.87-0.02-11.73,0.03-17.6-0.04c-1.52-0.02-1.99,0.44-2.38,1.99
		c-1.64,6.5,0.13,12.27,3.54,17.64c2.72,4.28,6.2,8.01,9.42,11.92c4.05,4.92,8.92,9.26,11.34,15.41c2.19,5.57-0.93,10.84-6.8,11.7
		c-6.34,0.92-12.71,0.39-19.06,0.46c-2.01,0.02-2.9,0.42-2.82,2.66c0.17,4.36,0.09,8.73,0.03,13.1c-0.02,1.54,0.05,2.62,2.12,2.53
		C200.14,77.09,203.77,77.2,207.39,77.2z M304.67,41.46c0-3.12-0.09-6.24,0.03-9.36c0.08-2.06-0.56-2.91-2.74-2.86
		c-5.24,0.12-10.48,0.1-15.72,0.01c-1.95-0.03-2.67,0.65-2.6,2.6c0.35,8.95-0.54,17.92,0.72,26.87c1.12,7.98,5.61,16.21,17.4,17.86
		c7.72,1.08,15.42,0.23,23.12,0.63c1.88,0.1,2.31-0.82,2.29-2.49c-0.07-4.49-0.15-8.99,0.03-13.47c0.1-2.47-1.01-2.9-3.12-2.83
		c-3.86,0.12-7.73,0.05-11.6,0.03c-5.47-0.04-7.63-2.12-7.8-7.63C304.6,47.7,304.67,44.58,304.67,41.46z M304.95-0.11
		c-7.37,0-14.74,0.04-22.1-0.03c-1.94-0.02-3.03,0.34-2.95,2.64c0.14,4.37,0.1,8.74,0.01,13.11c-0.03,1.8,0.67,2.38,2.42,2.37
		c14.86-0.04,29.72-0.05,44.58,0.01c1.97,0.01,2.63-0.69,2.58-2.62c-0.1-4.12-0.15-8.25,0.02-12.36c0.11-2.48-0.77-3.23-3.2-3.18
		C319.18-0.02,312.06-0.11,304.95-0.11z M236.68,198.52c-1.71-3.66-3.56-6.68-4.53-9.95c-1.28-4.34-3.89-5.39-8.01-4.99
		c-1.99,0.19-2.8,0.5-2.76,2.7c0.12,8.24,0.21,16.48-0.03,24.71c-0.09,3.13,1.64,2.65,3.5,2.69c1.96,0.04,3.59,0.26,3.42-2.76
		c-0.28-5.1-0.08-10.24-0.08-15.36c1.97,2.99,3.41,6.01,4.58,9.12c0.69,1.83,1.76,2.32,3.63,2.3c1.82-0.01,2.97-0.36,3.68-2.23
		c1.2-3.18,2.67-6.25,4.02-9.37c0.59,5.16,0.83,10.14,0.5,15.09c-0.22,3.25,1.35,3.26,3.73,3.25c2.45-0.02,4.1,0.05,3.96-3.41
		c-0.32-7.6-0.03-15.23-0.17-22.84c-0.02-1.28,1.26-3.91-1.45-3.67c-2.74,0.25-6.34-2.17-8.19,1.99
		C240.66,189.86,238.79,193.89,236.68,198.52z M77.12,213.27c-2.75-3.56-5.36-7.01-8.05-10.39c-1.03-1.29-1.77-2.1,0.19-3.46
		c3.58-2.49,4.56-6.23,3.25-10.29c-1.29-4.04-4.76-5.24-8.58-5.41c-3.74-0.16-7.51,0.12-11.24-0.12c-2.61-0.17-3.06,0.86-3.02,3.18
		c0.13,7.62,0.23,15.25-0.03,22.86c-0.11,3.26,0.69,4.21,4.04,4.15c3.05-0.05,3.91-0.99,3.58-3.81c-0.19-1.6-0.13-3.25,0-4.87
		c0.08-0.94-0.74-2.4,1.04-2.67c1.28-0.2,2.39,0.01,3.22,1.28c1.16,1.77,2.82,3.26,3.75,5.13C67.78,213.95,71.9,214.43,77.12,213.27
		z M197.44,191.56c-11.38-2.95-18.51,3.56-16.26,14.45c1.57,7.61,7.36,10.34,14.22,6.68c0.93-0.5,1.28-1.23,2.37,0.38
		c1.03,1.52,3.73,0.77,5.57,0.43c1.64-0.31,0.81-2.1,0.82-3.2c0.07-8.36,0.06-16.71,0.01-25.07c-0.01-1,0.62-2.29-0.75-2.98
		c-3.01-1.52-5.97,0.35-5.98,3.76C197.43,187.74,197.44,189.48,197.44,191.56z M120.95,192.89c0-2.95-0.1-5.8,0.03-8.63
		c0.14-3.22-2.21-1.92-3.64-2.05c-1.5-0.14-3.23-0.62-3.19,2.15c0.14,8.99,0.15,17.99,0,26.98c-0.05,3.04,1.87,2.28,3.45,2.3
		c1.62,0.02,3.6,0.68,3.41-2.33c-0.22-3.48,0.11-7-0.1-10.49c-0.17-2.8,0.82-4.23,3.65-4.4c3.12-0.19,3.82,1.79,3.87,4.29
		c0.06,3.5,0.21,7.01-0.02,10.49c-0.22,3.32,2.02,2.32,3.68,2.46c1.88,0.16,3.42,0.17,3.18-2.59c-0.26-2.98-0.06-5.99-0.06-8.99
		C135.2,190.48,131.52,188.03,120.95,192.89z M140.72,197.07c5.73-1.53,8.37-1.73,10.48-0.94c0.86,0.32,1.8,0.69,1.81,1.64
		c0.02,1.37-1.26,0.86-1.99,0.96c-2.96,0.4-5.98,0.48-8.73,1.83c-3.2,1.57-4.68,4.57-4.01,8.03c0.62,3.24,3.44,5.58,6.89,5.81
		c2.22,0.15,4.16-0.61,6.03-1.65c0.81-0.45,1.2-1.57,2.3,0.28c0.95,1.59,3.7,0.75,5.55,0.45c1.69-0.27,0.82-2.07,0.85-3.17
		c0.11-3.49,0.05-6.98,0.04-10.47c-0.01-6.23-2.33-8.81-8.58-9.35c-1.85-0.16-3.75-0.14-5.6,0.03
		C140.11,191.07,140.11,191.11,140.72,197.07z M296.67,197.06c5.53-1.43,8.12-1.7,10.1-1.07c0.95,0.31,2.19,0.61,2.2,1.73
		c0.02,1.58-1.46,0.88-2.29,1.02c-2.94,0.49-5.97,0.52-8.69,1.96c-3.2,1.69-4.33,4.45-3.69,7.83c0.65,3.44,2.97,5.38,6.43,5.84
		c2.47,0.33,4.69-0.48,6.71-1.81c0.94-0.61,1.07-0.81,1.98,0.42c1.2,1.62,3.71,0.76,5.56,0.52c1.76-0.23,0.86-2.04,0.9-3.13
		c0.11-3.36,0.04-6.73,0.04-10.1c0-6.84-2.45-9.47-9.27-9.83c-1.74-0.09-3.5-0.07-5.23,0.12
		C296.14,191.14,296.15,191.18,296.67,197.06z M261.37,17.97c3.08,0,5.58-0.11,8.07,0.03c2.21,0.13,3.15-0.52,3.05-2.9
		c-0.17-4.11-0.17-8.24,0-12.34c0.1-2.41-0.91-2.97-3.08-2.89c-3.49,0.13-6.98,0.03-10.48,0.03c-7.49,0-7.58,0-7.45,7.38
		c0.06,3.44-1.55,7.83,0.73,10.07C254.29,19.4,258.62,17.7,261.37,17.97z M110.23,206.79c-3.76,2.04-7.31,3.98-10.9,0.65
		c-2-1.86-2.38-6.55-0.61-9.13c3.44-4.99,7.6-1.91,11.88-0.35c-0.7-2.42,1.28-5.19-1.56-6.35c-4.71-1.93-9.57-1.92-14,0.91
		c-4.14,2.65-5.16,6.82-4.8,11.44c0.53,6.89,5.76,10.82,13.79,10.44C109.96,214.13,110.74,213.24,110.23,206.79z M277.67,197.89
		c0-4.48-0.15-8.96,0.05-13.43c0.14-3.04-1.88-2.25-3.44-2.27c-1.6-0.02-3.47-0.69-3.41,2.31c0.16,8.95,0.16,17.91,0,26.86
		c-0.05,3.04,1.88,2.25,3.45,2.27c1.6,0.02,3.55,0.7,3.41-2.31C277.52,206.85,277.67,202.37,277.67,197.89z M290.42,197.96
		c0-4.48-0.16-8.96,0.06-13.43c0.14-2.97-1.74-2.4-3.37-2.35c-1.54,0.05-3.53-0.84-3.48,2.24c0.15,8.95,0.16,17.91-0.01,26.86
		c-0.06,2.97,1.75,2.4,3.38,2.35c1.54-0.05,3.61,0.84,3.48-2.24C290.28,206.92,290.42,202.44,290.42,197.96z M172.03,194.06
		c0.33-4.89-3.06-2.5-4.92-2.84c-2.57-0.48-1.88,1.65-1.89,2.97c-0.05,5.49,0.12,11-0.08,16.48c-0.1,2.56,0.81,3.23,3.17,3.02
		c1.94-0.17,4.09,0.48,3.7-2.86c-0.28-2.47-0.06-4.99-0.06-7.49c0-5.84,0-5.92,5.89-6.15c1.69-0.07,2.38-0.37,2.41-2.26
		c0.06-4.01-0.78-4.72-4.43-3.09C174.69,192.36,173.67,193.09,172.03,194.06z M328.07,194.07c0.15-4.59-3.05-2.55-4.95-2.87
		c-2.57-0.43-1.93,1.62-1.94,2.96c-0.04,5.62,0.19,11.25-0.1,16.86c-0.16,3.19,1.7,2.59,3.52,2.66c2.01,0.08,3.71,0.17,3.37-2.8
		c-0.28-2.47-0.06-4.99-0.06-7.49c0-5.89,0-5.87,5.86-6.25c0.86-0.05,2.25,0.57,2.32-1.04c0.07-1.59,0.77-3.61-0.4-4.67
		c-1.06-0.96-2.88-0.13-4.23,0.55C330.48,192.47,329.56,193.14,328.07,194.07z M86.45,202.78c0-3.23-0.07-6.46,0.02-9.69
		c0.08-2.92-2.07-1.87-3.39-1.87c-1.32,0-3.43-1.05-3.4,1.86c0.08,6.21,0.02,12.42,0.03,18.63c0,0.83-0.13,1.61,1.11,1.95
		c3.87,1.07,5.62-0.16,5.62-4.18C86.46,207.25,86.46,205.02,86.45,202.78z M264.92,202.4c0-2.98-0.16-5.97,0.04-8.94
		c0.21-3.03-1.85-2.28-3.42-2.28c-1.58,0-3.52-0.74-3.43,2.29c0.19,5.96,0.04,11.92,0.07,17.88c0,0.79-0.33,1.72,0.75,2.24
		c3.01,1.46,5.98-0.37,5.98-3.74C264.93,207.37,264.93,204.89,264.92,202.4z M158.31,103.83c-1.36-3.39-2.5-6.9-4.18-10.12
		c-0.64-1.22-2.49-1.73-3.31,0.54c-1.08,2.97-2.22,5.92-3.33,8.88c-0.2,0.54-0.67,1.21,0.07,1.61c0.65,0.35,1.31,0.33,1.92-0.41
		c2.14-2.61,4.4-2.62,6.59-0.04c0.47,0.56,0.96,0.71,1.6,0.61C158.26,104.8,158.46,104.42,158.31,103.83z M102.52,122.03
		c4.95,0.47,7.9-1.75,7.03-5.27c-0.77-3.11-3.27-4.27-8.13-3.47c-2.74,0.45-1.15,2.78-1.42,4.24c-0.24,1.33-0.23,2.76,0,4.1
		c0.24,1.41-1.18,3.87,1.13,4.02C103.15,125.78,101.6,123.13,102.52,122.03z M196.7,116.05c-0.01,0-0.02,0-0.04,0
		c0-1.75,0.02-3.5-0.01-5.25c-0.01-0.67-0.27-1.26-1.05-1.24c-0.33,0.01-0.94,0.32-0.92,0.42c0.56,3.97-2.29,3.14-4.52,3.32
		c-1.05,0.08-1.79,0.88-2.24,1.82c-1,2.08-0.91,4.18,0.59,5.94c2.09,2.46,4.97,0.88,7.36,0.79c1.53-0.05,0.58-2.54,0.81-3.93
		C196.79,117.31,196.7,116.67,196.7,116.05z M304.73,101.29c-0.37-1.44-0.47-2.47-0.89-3.33c-0.96-1.98-4.56-2.85-6.61-1.71
		c-2.08,1.15-3.07,4.47-1.93,6.49c1.46,2.58,4.42,3.58,6.59,2.17c0.68-0.44,1.72-0.9,1.1-1.99c-0.44-0.78-1.24-0.67-1.91-0.2
		c-1.69,1.17-2.61,0.21-3.97-1.42C299.85,101.29,302.03,101.29,304.73,101.29z M84.23,118.44c1.99,0,3.23,0.08,4.45-0.03
		c1.01-0.09,2.41,0.6,2.89-0.9c0.48-1.51-0.3-2.73-1.51-3.49c-2.19-1.36-4.59-1.56-6.5,0.3c-1.83,1.79-2.42,4.04-0.51,6.32
		c1.96,2.34,4.41,1.73,6.82,1.07c0.36-0.1,0.83-0.76,0.79-1.11c-0.07-0.73-0.84-0.83-1.43-0.87
		C87.75,119.62,86.1,120.59,84.23,118.44z M143.04,120.46c-1.67-1.89-4.54,0.93-6.14-2.02c1.83,0,3.31-0.08,4.79,0.02
		c3.06,0.2,2.64-1.37,1.63-3.16c-1.24-2.19-3.39-2.37-5.54-2.06c-2.1,0.31-3.18,1.75-3.32,3.85c-0.13,2.09,0.19,4.36,2.41,4.87
		C138.89,122.42,141.53,123.16,143.04,120.46z M119.17,118.43c2.42,0,3.89-0.06,5.36,0.01c2.42,0.12,2.88-0.85,1.78-2.9
		c-1.26-2.34-4.38-3.27-6.74-1.94c-2.16,1.21-3.01,4.43-1.72,6.5c1.19,1.92,5.14,2.95,6.96,1.74c0.45-0.3,0.94-1,0.9-1.46
		c-0.07-0.68-0.96-0.84-1.51-0.75C122.76,119.86,121.34,120.36,119.17,118.43z M262.5,118.18c0-5.11,0-5.12-5.43-5
		c-2.97,0.06-4.18,1.82-4.14,4.58c0.04,3.2,1.62,4.45,4.92,4.53C261.43,122.37,263.45,121.65,262.5,118.18z M199.7,100.7
		c0-4.81,0-4.81-5-4.78c-2.59,0.01-4.7,2.15-4.47,4.76c0.24,2.75,1.8,4.74,4.58,4.9C198.89,105.81,199.7,104.79,199.7,100.7z
		 M227.27,117.89c1.11-3.88-0.65-4.98-4.33-4.76c-3.64,0.22-5.42,1.5-5.22,4.76c0.17,2.68,1.57,4.48,4.53,4.29
		C224.94,121.99,228.86,123.13,227.27,117.89z M220.69,101.14c0-5.17,0-5.17-5.24-5.22c-2.56-0.03-4.61,2.13-4.52,4.75
		c0.08,2.22,3.03,5.56,4.73,4.86C217.86,104.64,222.71,105.84,220.69,101.14z M174.02,117.71c1.59-4.68-1.67-4.37-4.63-4.55
		c-3.29-0.21-4.61,1.81-4.6,4.5c0.01,2.61,1.14,4.8,4.52,4.56C172.22,122.02,175.56,122.49,174.02,117.71z M311.42,99.46
		c-0.05,3.2,2.57,6.16,4.68,6.21c2.24,0.05,5.01-2.72,5.06-5.06c0.05-2.59-2.19-4.65-5.04-4.69
		C313.09,95.87,311.72,97.55,311.42,99.46z M306.25,117.61c0,0.94-0.03,1.68,0.01,2.43c0.04,0.93-0.29,2.07,1.29,2.14
		c1.82,0.08,1.5-1.21,1.54-2.28c0.02-0.5,0-0.99,0.01-1.49c0.04-1.24-0.04-2.77,1.62-2.85c2.06-0.1,1.14,1.7,1.44,2.74
		c0.37,1.27-0.97,3.65,1.01,3.68c2.44,0.03,0.85-2.47,1.23-3.8c0.2-0.69,0-1.48,0.04-2.22c0.07-1.21-0.14-2.5-1.45-2.62
		c-2.11-0.19-4.44-0.44-6.32,0.27C305.59,114.01,306.43,116.35,306.25,117.61z M229.63,117.71c0.72,1.34-1.13,4.04,1.37,4.25
		c2.83,0.23,1.15-2.59,1.66-3.98c0.04-0.11,0.01-0.25,0.02-0.37c0.08-1.08,0.44-2.01,1.7-2.04c1.59-0.04,1.22,1.23,1.28,2.15
		c0.07,1.12,0,2.24,0.1,3.35c0.09,1,1.16,1.37,1.56,0.83c1.29-1.71,0.41-3.82,0.6-5.75c0.11-1.15,0-2.59-1.3-2.75
		c-2.03-0.26-4.28-0.48-6.15,0.14C228.91,114.07,230.02,116.21,229.63,117.71z M275.77,122.21c2.14,0.03,4.14-1.67,3.89-4.59
		c-0.24-2.72-1.53-4.63-4.75-4.47c-2.96,0.14-4.7,1.5-4.7,4.51C270.2,120.53,271.59,122.29,275.77,122.21z M244.68,99.94
		c0,1.42,0,2.54,0,3.66c0,0.88,0.34,1.4,1.32,1.3c0.85-0.08,0.91-0.68,0.93-1.32c0.01-0.62-0.02-1.25,0.02-1.87
		c0.08-1.41-0.46-3.41,1.79-3.39c2.1,0.02,1.08,2.02,1.43,3.16c0.38,1.21-1.03,3.52,1.54,3.36c2.46-0.15,0.7-2.39,1.23-3.58
		c0.09-0.21,0.02-0.49,0.01-0.74c-0.12-4.19-0.76-4.67-6.58-4.49C242.76,96.14,245.75,99.04,244.68,99.94z M223.44,100.22
		c0.93,1.53-1,4.37,1.26,4.47c2.35,0.1,0.75-2.73,1.25-4.17c0.04-0.11,0.01-0.25,0.02-0.37c0.04-1.18,0.62-1.84,1.82-1.9
		c1.35-0.07,1.22,1.03,1.31,1.81c0.12,1.11,0.09,2.24,0.08,3.36c-0.01,1.11,0.53,1.54,1.61,1.53c1.09-0.01,1.15-0.71,1.16-1.49
		c0.01-0.87,0.02-1.75,0.01-2.62c-0.06-4.39-0.42-4.62-6.28-4.76C221.72,95.98,224.67,99.05,223.44,100.22z M66.25,116.92
		c0,0.81-0.06,1.07,0.01,1.3c0.37,1.28-0.94,3.59,1.12,3.69c1.85,0.09,0.87-2.13,1.09-3.33c0.25-1.36,0.27-3.01,2.06-3
		c2.05,0.01,1.45,1.84,1.7,3.11c0.23,1.17-0.87,3.33,1.19,3.23c1.88-0.09,0.73-2.22,1.05-3.41c0.06-0.23,0.01-0.5,0.01-0.74
		c0.02-2.24,0.45-4.88-3.09-4.56C68.8,113.44,64.78,112.26,66.25,116.92z M207.16,109.4c-0.98,0.73-4.58-0.08-3.28,1.28
		c2.73,2.84,1.25,5.68,1.8,8.44c0.23,1.16-0.71,3.09,1.61,2.96c1.94-0.11,1.22-1.8,1.33-2.89c0.23-2.32-0.45-4.73,0.39-6.97
		c0.3-0.81,2.51-0.73,1.5-2.26C209.86,108.96,208.43,109.55,207.16,109.4z M168.95,99.34c-0.44-0.96,0.9-3.12-0.95-3.24
		c-2.61-0.16-0.75,2.28-1.31,3.42c-0.15,0.3-0.04,0.74-0.04,1.11c0.01,1.31-0.9,2.43-1.85,2.5c-1.11,0.08-1.72-1.24-1.81-2.4
		c-0.1-1.24-0.03-2.49-0.07-3.74c-0.02-0.51-0.18-0.97-0.83-1.01c-0.5-0.03-0.95-0.03-1.27,0.49c-0.97,1.56,0.14,7.36,1.7,8.34
		c1.31,0.82,2.62,1.03,4.15,0.18C168.94,103.7,169.01,101.68,168.95,99.34z M286.69,100.21c0-0.83,0.08-1.34-0.02-1.82
		c-0.17-0.85,0.62-2.25-0.95-2.37c-1.61-0.12-1.14,1.28-1.21,2.18c-0.09,1.12-0.04,2.25-0.12,3.37c-0.07,1.04-0.77,1.65-1.73,1.52
		c-0.74-0.1-1.23-0.76-1.22-1.63c0.01-1.37,0-2.75-0.02-4.12c-0.01-0.63-0.04-1.27-0.9-1.35c-0.51-0.05-1.22,0.01-1.21,0.53
		c0.05,2.55-1.07,5.28,0.72,7.57c0.92,1.18,2.24,2.05,3.93,1.3C286.42,104.32,287.07,102.35,286.69,100.21z M177.18,117.44
		c0,0.87-0.04,1.74,0.01,2.6c0.04,0.81-0.21,1.94,1.05,1.99c1.27,0.05,1.02-1.08,1.18-1.9c0.32-1.63-0.97-4.51,1.79-4.41
		c2.27,0.08,0.85,2.78,1.22,4.27c0.2,0.78-0.22,1.95,1.04,2.02c1.59,0.08,1.18-1.27,1.23-2.16c0.07-1.48,0.03-2.97,0-4.46
		c-0.02-1.11-0.53-1.82-1.66-2.15C179.31,112.14,177.18,113.65,177.18,117.44z M321.86,97.18c1.13,1.68,0.79,3.55,0.86,5.37
		c0.04,1.01-0.43,2.37,1.39,2.41c1.81,0.04,1.62-1.31,1.46-2.32c-0.45-2.73,1.4-5.27,0.67-8.08c-0.05-0.18,1.21-1.43,0.15-2.12
		c-0.99-0.64-2.29-0.49-2.91,0.66C322.79,94.36,322.4,95.78,321.86,97.18z M321.92,122.2c1.3-0.26,3.56,0.63,3.5-1.53
		c-0.04-1.67-2.05-0.4-3.12-0.74c-0.11-0.04-0.25-0.01-0.37,0c-1.67,0.11-3.06-0.19-2.98-2.31c0.08-2.16,1.71-2.16,3.22-2.14
		c0.58,0.01,1.16,0.36,1.75,0.5c0.9,0.23,1.52-0.41,1.76-1.03c0.25-0.66-0.48-1-1.08-1.24c-2.05-0.82-4.16-1.14-5.99,0.28
		c-1.63,1.28-2.54,3.11-1.68,5.24C317.81,121.37,319.34,122.7,321.92,122.2z M291.88,92.22c-1.56-0.12-1.72,0.56-2.07,1.49
		c-1.25,3.36,0.5,6.61,0.11,9.92c-0.11,0.9,0.5,1.27,1.39,1.33c1.25,0.08,1.36-0.67,1.41-1.64c0.1-2.03,0.13-4.02,0.66-6.08
		C293.62,96.29,293.6,93.27,291.88,92.22z M266.86,109.49c-1.29-0.01-1.55,0.53-1.84,1.34c-1.24,3.42,0.31,6.78,0.11,10.18
		c-0.06,0.94,0.8,1.15,1.6,1.11c0.74-0.03,1.08-0.49,1.16-1.19c0.23-2.15-0.2-4.32,0.96-6.49
		C269.12,113.91,268.77,110.45,266.86,109.49z M257.39,98.68c0.89-0.9,3.19,1.01,2.91-1.47c-0.16-1.44-1.57-1.25-2.7-1.31
		c-1.31-0.07-2.15,0.51-2.6,1.67c-0.59,1.53,0.7,2.19,1.5,3.1c0.62,0.71,2.33,0.52,2.05,1.71c-0.37,1.61-1.63,0.03-2.44,0.3
		c-0.44,0.14-0.88,0.41-1.22,0.73c-0.55,0.51-0.01,0.91,0.32,1.16c1.66,1.27,3.52,1.46,4.98-0.05c1.41-1.46,1.21-3.15-0.54-4.41
		C258.96,99.6,258.21,99.19,257.39,98.68z M173.55,98.69c0.4-0.46,0.75-0.36,1.26-0.25c1.56,0.34,2.19-0.51,1.26-1.72
		c-1.04-1.36-2.77-1.16-4.05-0.39c-1.21,0.73-1.19,2.16-0.44,3.29c0.52,0.78,1.23,1.5,2.29,1.78c0.52,0.14,1.16,0.64,0.71,1.37
		c-0.26,0.43-0.7,0.56-1.26,0.24c-0.98-0.56-2.1-0.64-2.32,0.71c-0.21,1.31,1.25,1.4,2.05,1.7c1.59,0.6,2.96-0.24,3.8-1.49
		c0.87-1.3,0.44-2.63-0.83-3.57C175.22,99.77,174.39,99.25,173.55,98.69z M290.11,115.98c0.73-1.29,2.57,0.91,3.04-1.06
		c0.14-0.57-0.05-1-0.5-1.26c-1.28-0.76-2.62-0.68-3.89-0.01c-1.65,0.87-1.46,2.09-0.5,3.39c0.71,0.96,2.27,1.09,2.5,2.49
		c-0.85,0.97-2.81-0.44-3.02,1.37c-0.12,1,0.98,1.29,1.91,1.28c1.44-0.02,3.11,0.44,3.71-1.57
		C294.2,117.74,291.89,117.02,290.11,115.98z M154.33,116.15c0.17-0.62,0.56-0.46,0.91-0.53c2.11-0.47,2.65-1.25,1.48-1.91
		c-1.47-0.83-3.27-1.12-4.47,0.27c-1.14,1.32-0.75,2.77,0.86,3.74c0.78,0.47,1.85,0.73,1.78,2.06c-0.9,0.09-1.8,0.06-2.6,0.31
		c-0.77,0.24-1.39,1.05-0.38,1.58c1.71,0.9,3.78,1.17,5.19-0.28c1.41-1.45,0.54-3-0.96-4.08
		C155.55,116.86,154.91,116.51,154.33,116.15z M242.82,116.02c0.93-1.22,2.41,0.71,3.02-0.94c0.21-0.55,0.09-0.96-0.31-1.32
		c-0.95-0.87-2.17-0.76-3.18-0.45c-2.09,0.65-2.82,1.96-1.18,3.87c0.7,0.82,2.01,1.01,2.36,2.2c-0.66,1.33-3.11-0.51-3.06,1.67
		c0.02,0.89,1.16,1.16,2.1,1.14c1.34-0.04,2.91,0.34,3.49-1.38C246.99,118.08,245.01,117.05,242.82,116.02z M201.91,98.5
		c0,1.61,0.01,3.22,0,4.83c0,0.94,0.11,1.69,1.38,1.64c1.17-0.05,1.46-0.7,1.45-1.68c-0.01-3.22-0.01-6.44-0.01-9.66
		c0-1.13-0.64-1.47-1.66-1.46c-1.07,0.01-1.14,0.73-1.15,1.5C201.9,95.28,201.91,96.89,201.91,98.5z M301.11,115.64
		c0,1.61,0,3.22,0,4.83c0,0.95,0.19,1.67,1.39,1.73c1.21,0.07,1.46-0.56,1.46-1.57c-0.02-3.22-0.02-6.44,0-9.66
		c0-1.03-0.3-1.63-1.49-1.56c-1.21,0.07-1.35,0.83-1.35,1.76C301.12,112.67,301.11,114.16,301.11,115.64z M78.48,109.54
		c-0.55,0.08-0.73,0.45-0.98,0.92c-2.03,3.65,0.43,7.24,0.1,10.87c-0.05,0.51,0.54,0.83,1.08,0.71c0.32-0.07,0.84-0.37,0.83-0.56
		c-0.07-3.74,1.75-7.46,0.09-11.21C79.38,109.75,79.03,109.51,78.48,109.54z M261.22,182.96c-1.62-0.22-3.11-0.38-3.17,2.58
		c-0.06,3.1,1.67,2.63,3.49,2.63c1.83,0,3.52,0.46,3.5-2.63C265.03,182.49,263.42,182.83,261.22,182.96z M278.18,97
		c-2.18-0.98-1.75-2.82-2.26-4.34c-0.27-0.82-1.4-0.79-1.97,0.26c-2.02,3.75,0.42,7.48,0.04,11.23c-0.05,0.53,0.49,0.77,1.05,0.77
		c0.55,0,0.98-0.2,1.08-0.76C276.52,101.78,275.22,99.03,278.18,97z M264.56,104.91c0.55,0.04,1.1-0.24,1.04-0.76
		c-0.42-3.64,1.91-7.23,0.1-10.91c-0.31-0.63-0.47-1.07-1.23-1.04c-0.79,0.03-0.82,0.61-1.1,1.18c-1.73,3.5,0.58,6.94,0.08,10.4
		C263.36,104.48,263.75,104.96,264.56,104.91z M83.93,182.88c-2.33,0.13-4.48-0.77-4.34,2.7c0.1,2.63,1.27,2.7,3.17,2.59
		c1.84-0.11,3.93,0.72,3.81-2.69C86.47,182.9,85.35,182.68,83.93,182.88z M130.85,109.6c-1.4-0.13-1.42,0.6-1.66,1.35
		c-1.03,3.28,0.31,6.53,0.04,9.79c-0.05,0.63,0.18,1.25,0.97,1.31c1.03,0.08,1.14-0.65,1.25-1.43c0.28-1.97-0.34-3.93,1.12-5.95
		C133.19,113.8,131.45,111.23,130.85,109.6z M180.57,104.92c0.86,0,1.06-0.51,1.12-1.19c0.2-2.18-0.36-4.35,1.26-6.51
		c0.58-0.77-0.92-3.35-1.84-4.88c-0.32-0.53-1.42-0.16-1.73,1.06c-0.88,3.52,0.32,6.97,0.08,10.46
		C179.42,104.59,179.85,105,180.57,104.92z M189.15,96.19c-1.67,0.51-3.98-1.45-4.63,1.14c-0.49,1.98-0.1,4.18-0.09,6.28
		c0,0.65,0.13,1.24,0.94,1.28c0.81,0.04,1.14-0.51,1.04-1.17C185.97,100.78,187.04,98.39,189.15,96.19z M98.41,113.63
		c-4.88-1.37-5.81,0.81-5.23,4.53c0.11,0.72,0.02,1.48,0.03,2.22c0.01,0.94,0.2,1.74,1.39,1.73c1.18-0.01,1.47-0.83,1.39-1.74
		C95.73,117.81,96.38,115.58,98.41,113.63z M216.51,113.38c-1.46,1.34-4.3-1.93-4.77,1.48c-0.25,1.81-0.05,3.69-0.04,5.54
		c0.01,0.94,0.22,1.73,1.41,1.7c1.18-0.04,1.45-0.87,1.36-1.78C214.21,117.78,214.86,115.55,216.51,113.38z M248.44,115.69
		c0,0-0.01,0-0.01,0c0,1.49-0.03,2.98,0.01,4.48c0.02,0.84-0.11,1.91,1.19,1.87c1.01-0.03,1.04-0.9,1.04-1.64
		c0.02-3.11,0.02-6.22-0.01-9.32c-0.01-0.77-0.14-1.57-1.18-1.5c-1.03,0.07-1.02,0.91-1.04,1.64
		C248.42,112.71,248.44,114.2,248.44,115.69z M63.19,116c0-1.74,0.02-3.47-0.01-5.21c-0.01-0.68-0.34-1.22-1.09-1.22
		c-0.75,0-1.08,0.55-1.08,1.23c-0.02,3.35-0.02,6.7-0.01,10.05c0,0.68,0.33,1.22,1.09,1.22c0.76,0,1.07-0.54,1.08-1.22
		C63.2,119.22,63.19,117.61,63.19,116z M239.43,98.64c0,1.49-0.02,2.98,0.01,4.46c0.02,0.83-0.19,1.86,1.2,1.8
		c1.08-0.05,1.03-0.86,1.04-1.58c0.02-2.98,0.01-5.95,0.01-8.93c0-0.8-0.14-1.49-1.2-1.43c-1.08,0.06-1.02,0.86-1.04,1.59
		C239.42,95.91,239.44,97.28,239.43,98.64z M111.19,116.66c0,1.6-0.06,2.35,0.01,3.08c0.09,0.89-0.38,2.28,1.13,2.26
		c1.48-0.02,1.1-1.4,1.1-2.29c0-1.87-0.1-3.6,1.98-4.76c0.81-0.45,0.78-1.56-0.89-1.8C110.55,112.59,111.14,115.19,111.19,116.66z
		 M281.41,117.52c0,0.74-0.06,1.49,0.02,2.23c0.09,0.89-0.39,2.29,1.13,2.27c1.5-0.02,1.09-1.4,1.1-2.3c0-1.88-0.09-3.61,2-4.76
		c0.77-0.42,0.82-1.57-0.89-1.81C280.77,112.57,281.41,115.21,281.41,117.52z M145.69,117.6c0,0.62-0.08,1.26,0.02,1.87
		c0.15,0.97-0.59,2.61,1.25,2.5c1.45-0.08,0.91-1.52,0.98-2.42c0.12-1.57-0.27-3.19,1.55-4.28c0.97-0.58,1.07-1.71-0.49-2.03
		C144.91,112.43,145.72,115.34,145.69,117.6z M271.1,100.39c-0.81-1.41,0.97-4.23-1.35-4.2c-2.07,0.03-1,2.81-0.99,4.3
		c0.01,1.46-1.15,4.25,1.09,4.2C272.1,104.64,270.28,101.82,271.1,100.39z M209.62,100.54c-0.86-1.45,1-4.36-1.21-4.34
		c-2.5,0.02-1.03,2.95-1.13,4.52c-0.08,1.34-1.19,4.01,0.93,3.99C210.64,104.69,208.78,101.92,209.62,100.54z"/>
	<path class="st1" d="M129.2,0c5.74-0.05,11.49,0.02,17.22-0.21c2.51-0.1,3.1,0.75,3.08,3.14c-0.1,15.36-0.05,30.72-0.05,46.08
		c0,7.93,1.55,9.56,9.45,9.96c9.28,0.47,9.28,0.47,9.28-8.85c0-15.61,0.07-31.22-0.07-46.83c-0.02-2.75,0.59-3.67,3.47-3.52
		c5.6,0.29,11.23,0.17,16.85,0.22c0,24.18-0.05,48.37,0.07,72.55c0.02,3.14-0.92,4-4,3.96c-12.09-0.13-24.18,0.01-36.28,0.05
		c-11.34-0.53-18.43-7.47-19.06-18.62c-0.08-1.35-0.36-2.68-0.54-4.02c0.98-1.2,0.55-2.63,0.56-3.95
		C129.21,33.31,129.2,16.66,129.2,0z"/>
	<path class="st2" d="M79.83,58.98c5.97,0,11.69-0.01,17.42,0.01c2.6,0.01,1.98-1.31,1.4-2.92c-6.28-17.55-12.5-35.12-18.73-52.69
		c-0.36-1.02-0.57-2.09-0.95-3.53c7.17,0,14.13-0.01,21.08,0c1.59,0,1.88,1.13,2.28,2.42c3.89,12.53,7.9,25.03,11.8,37.55
		c2.95,9.47,5.8,18.97,8.69,28.46c0.43,1.4,0.81,2.82,1.18,4.24c1.21,4.66,1.2,4.66-3.73,4.66c-20.86,0-41.71,0-62.57,0
		c-1.34,0-2.68,0-4.32,0c2.82-8.62,5.5-16.87,8.21-25.1c2.26-6.87,4.64-13.7,6.73-20.61c0.44-1.46,0.84-2.17,2.37-2.17
		c5.12,0.02,10.24,0.03,15.36-0.01c2.22-0.02,1.9,0.91,1.41,2.58C84.85,40.79,82.41,49.75,79.83,58.98z"/>
	<path class="st2" d="M207.39,77.2c-3.62,0-7.24-0.11-10.86,0.04c-2.07,0.09-2.14-0.99-2.12-2.53c0.06-4.37,0.14-8.74-0.03-13.1
		c-0.09-2.25,0.8-2.64,2.82-2.66c6.35-0.08,12.71,0.46,19.06-0.46c5.88-0.86,9-6.12,6.8-11.7c-2.42-6.14-7.29-10.49-11.34-15.41
		c-3.22-3.92-6.7-7.64-9.42-11.92c-3.42-5.37-5.19-11.14-3.54-17.64c0.39-1.54,0.86-2.01,2.38-1.99c5.87,0.07,11.73,0.02,17.6,0.04
		c0.93,0,2.29-0.23,1.74,1.47c-2.09,6.57,2.22,10.71,5.79,15.04c5.03,6.09,10.57,11.78,14.74,18.54c8.07,13.06,5.44,30.11-7.66,38.1
		c-5.6,3.42-11.99,4.23-18.48,4.2C212.38,77.19,209.88,77.2,207.39,77.2z"/>
	<path class="st3" d="M304.67,41.46c0,3.12-0.08,6.24,0.02,9.36c0.17,5.51,2.34,7.59,7.8,7.63c3.87,0.03,7.74,0.09,11.6-0.03
		c2.11-0.06,3.22,0.36,3.12,2.83c-0.18,4.48-0.09,8.98-0.03,13.47c0.02,1.67-0.41,2.59-2.29,2.49c-7.7-0.4-15.4,0.45-23.12-0.63
		c-11.8-1.65-16.28-9.88-17.4-17.86c-1.26-8.95-0.37-17.92-0.72-26.87c-0.08-1.95,0.65-2.64,2.6-2.6
		c5.24,0.09,10.48,0.11,15.72-0.01c2.18-0.05,2.82,0.8,2.74,2.86C304.58,35.21,304.67,38.34,304.67,41.46z"/>
	<path class="st4" d="M252.19,29.45c5.78,0,11.55,0,17.33-0.01c0.81,0.78,1.83,0.43,2.77,0.52c0.02,15.49,0.03,30.98,0.05,46.48
		c-5.47,0-10.95-0.15-16.42,0.06c-2.94,0.12-3.83-0.79-3.8-3.77C252.26,58.31,252.19,43.88,252.19,29.45z"/>
	<path class="st4" d="M304.95-0.11c7.12,0,14.24,0.09,21.35-0.05c2.44-0.05,3.31,0.7,3.2,3.18c-0.17,4.11-0.12,8.24-0.02,12.36
		c0.05,1.92-0.61,2.62-2.58,2.62c-14.86-0.06-29.72-0.05-44.58-0.01c-1.75,0.01-2.45-0.57-2.42-2.37c0.08-4.37,0.13-8.74-0.01-13.11
		c-0.08-2.31,1.02-2.66,2.95-2.64C290.21-0.07,297.58-0.11,304.95-0.11z"/>
	<path class="st5" d="M236.61,182.55c2.11-4.63,3.98-8.66,5.79-12.73c1.86-4.16,5.45-1.74,8.19-1.99c2.71-0.25,1.43,2.39,1.45,3.67
		c0.14,7.61-0.15,15.24,0.17,22.84c0.14,3.46-1.5,3.39-3.96,3.41c-2.38,0.02-3.95,0-3.73-3.25c0.33-4.95,0.09-9.93-0.5-15.09
		c-1.35,3.12-2.82,6.19-4.02,9.37c-0.71,1.87-1.85,2.22-3.68,2.23c-1.87,0.01-2.94-0.47-3.63-2.3c-1.18-3.11-2.61-6.13-4.58-9.12
		c0,5.12-0.21,10.25,0.08,15.36c0.17,3.02-1.46,2.8-3.42,2.76c-1.86-0.04-3.59,0.45-3.5-2.69c0.25-8.23,0.16-16.48,0.03-24.71
		c-0.03-2.2,0.77-2.51,2.76-2.7c4.12-0.4,6.73,0.66,8.01,4.99C233.05,175.87,234.91,178.89,236.61,182.55z"/>
	<path class="st5" d="M77.05,197.3c-5.22,1.16-9.34,0.68-11.85-4.42c-0.92-1.87-2.58-3.36-3.75-5.13c-0.83-1.27-1.94-1.47-3.22-1.28
		c-1.78,0.27-0.96,1.73-1.04,2.67c-0.14,1.61-0.19,3.26,0,4.87c0.34,2.82-0.52,3.76-3.58,3.81c-3.36,0.06-4.16-0.89-4.04-4.15
		c0.26-7.61,0.16-15.24,0.03-22.86c-0.04-2.32,0.41-3.35,3.02-3.18c3.73,0.24,7.5-0.04,11.24,0.12c3.82,0.17,7.29,1.36,8.58,5.41
		c1.3,4.07,0.32,7.8-3.25,10.29c-1.95,1.36-1.22,2.17-0.19,3.46C71.7,190.29,74.3,193.74,77.05,197.3z M57.13,177.14
		c0.22,1.82-1.07,4.43,2.74,4.11c3.68-0.31,5.64-1.66,5.51-4.59c-0.15-3.49-2.68-3.48-5.28-3.78
		C56.14,172.41,57.28,175.13,57.13,177.14z"/>
	<path class="st5" d="M197.37,175.58c0-2.08,0-3.82,0-5.56c0.01-3.41,2.97-5.28,5.98-3.76c1.37,0.69,0.74,1.98,0.75,2.98
		c0.05,8.36,0.06,16.71-0.01,25.07c-0.01,1.1,0.82,2.9-0.82,3.2c-1.85,0.34-4.54,1.09-5.57-0.43c-1.09-1.6-1.44-0.87-2.37-0.38
		c-6.87,3.66-12.65,0.93-14.22-6.68C178.86,179.14,185.99,172.64,197.37,175.58z M197.38,186c0-0.87,0.01-1.74,0-2.61
		c-0.03-3.38-1.61-4.51-4.96-3.53c-2.46,0.72-3.66,2.6-3.93,4.96c-0.31,2.71-0.6,5.62,1.93,7.56c1.6,1.22,3.46,0.94,5.34,0.3
		c2.03-0.69,1.55-2.26,1.61-3.69C197.41,187.99,197.38,186.99,197.38,186z"/>
	<path class="st5" d="M120.89,176.91c10.57-4.85,14.25-2.41,14.25,9.19c0,3-0.2,6.01,0.06,8.99c0.24,2.76-1.31,2.74-3.18,2.59
		c-1.66-0.14-3.91,0.86-3.68-2.46c0.23-3.48,0.08-6.99,0.02-10.49c-0.04-2.5-0.75-4.48-3.87-4.29c-2.82,0.17-3.81,1.6-3.65,4.4
		c0.21,3.49-0.12,7,0.1,10.49c0.19,3.01-1.79,2.35-3.41,2.33c-1.58-0.02-3.5,0.74-3.45-2.3c0.16-8.99,0.14-17.99,0-26.98
		c-0.04-2.78,1.69-2.29,3.19-2.15c1.43,0.14,3.79-1.17,3.64,2.05C120.79,171.12,120.89,173.96,120.89,176.91z"/>
	<path class="st6" d="M140.65,181.1c-0.6-5.96-0.61-6.01,5.05-6.53c1.85-0.17,3.75-0.19,5.6-0.03c6.25,0.53,8.57,3.11,8.58,9.35
		c0.01,3.49,0.07,6.99-0.04,10.47c-0.03,1.1,0.84,2.9-0.85,3.17c-1.85,0.29-4.6,1.14-5.55-0.45c-1.1-1.85-1.49-0.73-2.3-0.28
		c-1.88,1.04-3.81,1.8-6.03,1.65c-3.44-0.24-6.27-2.58-6.89-5.81c-0.67-3.46,0.81-6.46,4.01-8.03c2.75-1.35,5.77-1.43,8.73-1.83
		c0.73-0.1,2.01,0.41,1.99-0.96c-0.01-0.95-0.96-1.32-1.81-1.64C149.02,179.37,146.38,179.57,140.65,181.1z M148.85,193.23
		c2-0.39,4.51-0.3,4.3-3.67c-0.08-1.27,0.17-2.71-1.84-2.25c-2.39,0.54-5.78-0.34-6.31,3.25
		C144.66,192.91,146.86,193.08,148.85,193.23z"/>
	<path class="st6" d="M296.6,181.09c-0.52-5.88-0.52-5.92,4.76-6.5c1.73-0.19,3.49-0.21,5.23-0.12c6.82,0.37,9.27,3,9.27,9.83
		c0,3.37,0.07,6.74-0.04,10.1c-0.04,1.08,0.86,2.9-0.9,3.13c-1.85,0.24-4.36,1.11-5.56-0.52c-0.91-1.23-1.05-1.04-1.98-0.42
		c-2.02,1.33-4.25,2.14-6.71,1.81c-3.46-0.46-5.78-2.4-6.43-5.84c-0.63-3.38,0.5-6.14,3.69-7.83c2.73-1.44,5.76-1.47,8.69-1.96
		c0.83-0.14,2.31,0.56,2.29-1.02c-0.01-1.12-1.25-1.42-2.2-1.73C304.72,179.39,302.13,179.66,296.6,181.09z M309.1,189.31
		c0.17-1.34-0.1-2.45-1.94-2.01c-2.37,0.57-5.81-0.32-6.18,3.36c-0.24,2.33,1.98,2.59,3.78,2.49
		C307.07,193.02,309.41,192.71,309.1,189.31z"/>
	<path class="st4" d="M261.37,17.97c-2.75-0.27-7.08,1.43-9.17-0.63c-2.27-2.23-0.66-6.63-0.73-10.07
		c-0.13-7.38-0.04-7.38,7.45-7.38c3.49,0,6.99,0.1,10.48-0.03c2.17-0.08,3.18,0.48,3.08,2.89c-0.17,4.11-0.17,8.24,0,12.34
		c0.1,2.39-0.84,3.04-3.05,2.9C266.95,17.85,264.44,17.97,261.37,17.97z"/>
	<path class="st6" d="M110.16,190.82c0.51,6.45-0.27,7.33-6.19,7.61c-8.04,0.38-13.26-3.56-13.79-10.44
		c-0.36-4.62,0.66-8.8,4.8-11.44c4.42-2.83,9.29-2.83,14-0.91c2.84,1.16,0.86,3.93,1.56,6.35c-4.28-1.56-8.44-4.64-11.88,0.35
		c-1.77,2.57-1.39,7.27,0.61,9.13C102.86,194.8,106.41,192.85,110.16,190.82z"/>
	<path class="st2" d="M277.61,181.91c0,4.48-0.15,8.96,0.05,13.43c0.14,3.01-1.81,2.33-3.41,2.31c-1.57-0.02-3.5,0.77-3.45-2.27
		c0.16-8.95,0.16-17.91,0-26.86c-0.05-3,1.81-2.33,3.41-2.31c1.57,0.02,3.58-0.77,3.44,2.27
		C277.46,172.95,277.61,177.44,277.61,181.91z"/>
	<path class="st2" d="M290.36,181.99c0,4.48-0.14,8.96,0.05,13.43c0.13,3.08-1.94,2.18-3.48,2.24c-1.63,0.06-3.43,0.62-3.38-2.35
		c0.17-8.95,0.16-17.91,0.01-26.86c-0.05-3.07,1.95-2.18,3.48-2.24c1.63-0.06,3.52-0.63,3.37,2.35
		C290.2,173.03,290.36,177.51,290.36,181.99z"/>
	<path class="st5" d="M171.96,178.09c1.65-0.97,2.67-1.7,3.79-2.2c3.65-1.63,4.49-0.92,4.43,3.09c-0.03,1.89-0.72,2.19-2.41,2.26
		c-5.9,0.23-5.89,0.31-5.89,6.15c0,2.5-0.23,5.02,0.06,7.49c0.38,3.33-1.76,2.69-3.7,2.86c-2.36,0.21-3.27-0.46-3.17-3.02
		c0.2-5.49,0.03-10.99,0.08-16.48c0.01-1.32-0.68-3.45,1.89-2.97C168.9,175.59,172.29,173.2,171.96,178.09z"/>
	<path class="st5" d="M328,178.09c1.49-0.93,2.41-1.6,3.4-2.09c1.35-0.67,3.17-1.51,4.23-0.55c1.17,1.06,0.46,3.08,0.4,4.67
		c-0.07,1.61-1.46,0.98-2.32,1.04c-5.85,0.37-5.86,0.35-5.86,6.25c0,2.5-0.22,5.02,0.06,7.49c0.34,2.96-1.36,2.88-3.37,2.8
		c-1.82-0.07-3.69,0.53-3.52-2.66c0.29-5.61,0.06-11.24,0.1-16.86c0.01-1.34-0.64-3.39,1.94-2.96
		C324.96,175.54,328.15,173.5,328,178.09z"/>
	<path class="st2" d="M86.39,186.81c0,2.24,0,4.47,0,6.71c0,4.01-1.75,5.24-5.62,4.18c-1.25-0.34-1.11-1.12-1.11-1.95
		c-0.01-6.21,0.05-12.42-0.03-18.63c-0.04-2.92,2.08-1.86,3.4-1.86c1.32,0,3.47-1.04,3.39,1.87
		C86.32,180.35,86.39,183.58,86.39,186.81z"/>
	<path class="st2" d="M264.86,186.43c0,2.48,0,4.97,0,7.45c-0.01,3.37-2.97,5.2-5.98,3.74c-1.08-0.53-0.74-1.45-0.75-2.24
		c-0.03-5.96,0.12-11.93-0.07-17.88c-0.1-3.02,1.85-2.29,3.43-2.29c1.57,0,3.63-0.75,3.42,2.28
		C264.7,180.46,264.86,183.45,264.86,186.43z"/>
	<path class="st7" d="M148.23,76.56c12.09-0.04,24.18-0.18,36.28-0.05c3.08,0.03,4.02-0.83,4-3.96
		c-0.12-24.18-0.07-48.37-0.07-72.55c1.5,0.82,0.72,2.23,0.72,3.32c0.05,23.47-0.01,46.93,0.1,70.4c0.01,2.68-0.47,3.61-3.41,3.56
		c-11.36-0.19-22.72-0.06-34.08-0.1C150.58,77.18,149.26,77.62,148.23,76.56z"/>
	<path class="st7" d="M158.31,103.83c0.15,0.59-0.04,0.97-0.64,1.07c-0.64,0.1-1.13-0.05-1.6-0.61c-2.18-2.58-4.45-2.56-6.59,0.04
		c-0.6,0.73-1.26,0.76-1.92,0.41c-0.74-0.4-0.27-1.07-0.07-1.61c1.11-2.96,2.25-5.91,3.33-8.88c0.82-2.26,2.67-1.75,3.31-0.54
		C155.81,96.93,156.95,100.44,158.31,103.83z"/>
	<path class="st8" d="M102.52,122.03c-0.92,1.09,0.63,3.75-1.39,3.62c-2.31-0.15-0.89-2.61-1.13-4.02c-0.22-1.33-0.24-2.77,0-4.1
		c0.27-1.46-1.32-3.78,1.42-4.24c4.86-0.81,7.36,0.36,8.13,3.47C110.42,120.28,107.47,122.5,102.52,122.03z M106.77,118.04
		c0-1.33-0.31-2.44-1.94-2.58c-1.45-0.12-2.47,0.46-2.56,1.96c-0.09,1.59,0.71,2.48,2.43,2.52
		C106.09,119.98,106.79,119.46,106.77,118.04z"/>
	<path class="st8" d="M196.7,116.05c0,0.62,0.08,1.26-0.02,1.87c-0.23,1.38,0.73,3.87-0.81,3.93c-2.39,0.09-5.27,1.67-7.36-0.79
		c-1.5-1.76-1.59-3.85-0.59-5.94c0.45-0.94,1.19-1.74,2.24-1.82c2.23-0.18,5.07,0.65,4.52-3.32c-0.01-0.1,0.6-0.41,0.92-0.42
		c0.79-0.02,1.04,0.57,1.05,1.24c0.02,1.75,0.01,3.5,0.01,5.25C196.68,116.05,196.69,116.05,196.7,116.05z M194.43,117.57
		c-0.05-1.28-0.76-2.1-2.31-2.1c-1.62,0-2.16,0.93-2.18,2.4c-0.03,1.37,0.47,2.08,1.96,2.06
		C193.38,119.91,194.25,119.31,194.43,117.57z"/>
	<path class="st7" d="M304.73,101.29c-2.7,0-4.88,0-7.61,0c1.36,1.63,2.28,2.59,3.97,1.42c0.67-0.47,1.47-0.58,1.91,0.2
		c0.61,1.09-0.42,1.55-1.1,1.99c-2.17,1.42-5.13,0.42-6.59-2.17c-1.14-2.02-0.15-5.34,1.93-6.49c2.05-1.14,5.64-0.27,6.61,1.71
		C304.27,98.82,304.36,99.84,304.73,101.29z"/>
	<path class="st8" d="M84.23,118.44c1.87,2.15,3.52,1.18,4.99,1.29c0.6,0.05,1.37,0.14,1.43,0.87c0.03,0.36-0.44,1.02-0.79,1.11
		c-2.41,0.66-4.86,1.26-6.82-1.07c-1.9-2.27-1.32-4.53,0.51-6.32c1.9-1.86,4.31-1.67,6.5-0.3c1.22,0.76,1.99,1.98,1.51,3.49
		c-0.48,1.51-1.88,0.81-2.89,0.9C87.45,118.52,86.21,118.44,84.23,118.44z"/>
	<path class="st8" d="M143.04,120.46c-1.51,2.7-4.14,1.96-6.17,1.5c-2.22-0.51-2.54-2.77-2.41-4.87c0.13-2.1,1.22-3.54,3.32-3.85
		c2.15-0.31,4.29-0.13,5.54,2.06c1.01,1.78,1.43,3.36-1.63,3.16c-1.47-0.1-2.96-0.02-4.79-0.02
		C138.5,121.39,141.36,118.57,143.04,120.46z"/>
	<path class="st8" d="M119.17,118.43c2.17,1.93,3.58,1.43,5.01,1.21c0.55-0.08,1.44,0.08,1.51,0.75c0.05,0.46-0.45,1.16-0.9,1.46
		c-1.82,1.21-5.76,0.18-6.96-1.74c-1.29-2.07-0.44-5.28,1.72-6.5c2.36-1.33,5.48-0.4,6.74,1.94c1.11,2.05,0.65,3.01-1.78,2.9
		C123.07,118.38,121.6,118.43,119.17,118.43z"/>
	<path class="st8" d="M262.5,118.18c0.95,3.47-1.07,4.19-4.65,4.11c-3.3-0.08-4.87-1.33-4.92-4.53c-0.04-2.76,1.17-4.51,4.14-4.58
		C262.51,113.06,262.51,113.07,262.5,118.18z M257.95,119.91c1.51,0.16,2.3-0.94,2.23-2.21c-0.08-1.54-1.31-2.32-2.87-2.22
		c-1.51,0.09-2.21,1-2.08,2.48C255.37,119.54,256.42,119.99,257.95,119.91z"/>
	<path class="st7" d="M199.7,100.7c0,4.09-0.82,5.11-4.89,4.88c-2.78-0.16-4.33-2.15-4.58-4.9c-0.23-2.61,1.88-4.74,4.47-4.76
		C199.71,95.9,199.71,95.9,199.7,100.7z M197.44,100.58c0.07-1.51-0.62-2.34-2.17-2.39c-1.54-0.05-2.33,0.7-2.34,2.23
		c-0.01,1.61,0.9,2.82,2.38,2.76C196.46,103.14,197.54,102.13,197.44,100.58z"/>
	<path class="st8" d="M227.27,117.89c1.59,5.25-2.34,4.1-5.01,4.28c-2.96,0.2-4.36-1.61-4.53-4.29c-0.21-3.26,1.58-4.54,5.22-4.76
		C226.62,112.9,228.39,114.01,227.27,117.89z M225.03,117.68c-0.3-1.25-0.8-2.19-2.37-2.25c-1.57-0.06-2.41,0.82-2.48,2.08
		c-0.08,1.45,0.68,2.46,2.46,2.45C224.27,119.94,224.66,118.92,225.03,117.68z"/>
	<path class="st7" d="M220.69,101.14c2.01,4.7-2.84,3.5-5.03,4.39c-1.7,0.7-4.65-2.65-4.73-4.86c-0.09-2.62,1.95-4.77,4.52-4.75
		C220.69,95.97,220.69,95.97,220.69,101.14z M215.66,98.18c-0.96,0.11-2.32,0.78-2.31,2.31c0,1.37,1.1,2.76,2.54,2.75
		c1.36-0.02,2.47-1.05,2.54-2.71C218.5,98.96,217.71,98.25,215.66,98.18z"/>
	<path class="st8" d="M174.02,117.71c1.55,4.78-1.79,4.31-4.71,4.51c-3.38,0.24-4.51-1.95-4.52-4.56c-0.01-2.69,1.31-4.71,4.6-4.5
		C172.34,113.34,175.61,113.03,174.02,117.71z M169.29,119.93c1.65-0.02,2.55-0.66,2.6-2.18c0.05-1.49-0.72-2.27-2.21-2.29
		c-1.81-0.03-2.25,1.06-2.25,2.62C167.43,119.54,168.17,120.04,169.29,119.93z"/>
	<path class="st7" d="M311.42,99.46c0.3-1.91,1.66-3.59,4.7-3.54c2.86,0.05,5.09,2.1,5.04,4.69c-0.05,2.34-2.82,5.11-5.06,5.06
		C314,105.62,311.37,102.66,311.42,99.46z M316.02,103.35c1.68-0.21,2.6-1.42,2.74-2.67c0.17-1.49-1.03-2.39-2.57-2.46
		c-1.59-0.07-2.57,0.56-2.52,2.34C313.72,102.21,314.86,102.82,316.02,103.35z"/>
	<path class="st7" d="M306.25,117.61c0.18-1.26-0.67-3.6,0.42-4.01c1.89-0.71,4.21-0.46,6.32-0.27c1.31,0.12,1.52,1.42,1.45,2.62
		c-0.04,0.74,0.16,1.54-0.04,2.22c-0.38,1.33,1.21,3.83-1.23,3.8c-1.98-0.02-0.64-2.4-1.01-3.68c-0.3-1.04,0.62-2.85-1.44-2.74
		c-1.66,0.08-1.58,1.6-1.62,2.85c-0.02,0.5,0.01,0.99-0.01,1.49c-0.04,1.07,0.28,2.36-1.54,2.28c-1.57-0.07-1.25-1.21-1.29-2.14
		C306.23,119.29,306.25,118.55,306.25,117.61z"/>
	<path class="st8" d="M229.63,117.71c0.39-1.5-0.72-3.64,0.84-4.17c1.87-0.63,4.12-0.4,6.15-0.14c1.3,0.16,1.42,1.6,1.3,2.75
		c-0.19,1.93,0.69,4.04-0.6,5.75c-0.41,0.54-1.47,0.17-1.56-0.83c-0.1-1.11-0.03-2.24-0.1-3.35c-0.06-0.92,0.31-2.19-1.28-2.15
		c-1.26,0.03-1.62,0.96-1.7,2.04c-0.01,0.12,0.02,0.26-0.02,0.37c-0.51,1.4,1.18,4.21-1.66,3.98
		C228.49,121.75,230.35,119.05,229.63,117.71z"/>
	<path class="st8" d="M275.77,122.21c-4.17,0.08-5.56-1.68-5.57-4.56c0-3.01,1.74-4.36,4.7-4.51c3.22-0.16,4.51,1.75,4.75,4.47
		C279.91,120.54,277.9,122.23,275.77,122.21z M277.53,117.76c-0.39-1.37-1.24-2.28-2.83-2.28c-1.28,0-2.16,0.57-2.23,1.93
		c-0.08,1.66,0.72,2.47,2.43,2.53C276.45,119.99,277.12,119.16,277.53,117.76z"/>
	<path class="st7" d="M244.68,99.94c1.07-0.9-1.92-3.8,1.68-3.91c5.82-0.18,6.46,0.3,6.58,4.49c0.01,0.25,0.08,0.53-0.01,0.74
		c-0.52,1.18,1.23,3.43-1.23,3.58c-2.56,0.16-1.16-2.15-1.54-3.36c-0.35-1.13,0.67-3.14-1.43-3.16c-2.24-0.02-1.7,1.98-1.79,3.39
		c-0.04,0.62,0,1.25-0.02,1.87c-0.01,0.64-0.08,1.24-0.93,1.32c-0.99,0.1-1.32-0.42-1.32-1.3
		C244.68,102.48,244.68,101.36,244.68,99.94z"/>
	<path class="st7" d="M223.44,100.22c1.23-1.16-1.73-4.23,2.22-4.14c5.86,0.14,6.22,0.37,6.28,4.76c0.01,0.87,0,1.75-0.01,2.62
		c-0.01,0.78-0.07,1.49-1.16,1.49c-1.08,0.01-1.62-0.42-1.61-1.53c0.01-1.12,0.04-2.25-0.08-3.36c-0.09-0.78,0.05-1.88-1.31-1.81
		c-1.21,0.06-1.79,0.72-1.82,1.9c0,0.12,0.02,0.26-0.02,0.37c-0.5,1.44,1.11,4.27-1.25,4.17
		C222.44,104.59,224.37,101.75,223.44,100.22z"/>
	<path class="st8" d="M252.19,29.45c0,14.43,0.07,28.86-0.08,43.28c-0.03,2.98,0.86,3.88,3.8,3.77c5.46-0.21,10.94-0.06,16.42-0.06
		c-0.62,1.19-1.74,0.74-2.65,0.74c-5.23,0.04-10.45-0.01-15.68,0.03c-1.55,0.01-2.61-0.18-2.6-2.17
		c0.06-14.81,0.04-29.61,0.08-44.42C251.48,30.23,251.94,29.84,252.19,29.45z"/>
	<path class="st8" d="M66.25,116.92c-1.47-4.66,2.54-3.48,5.13-3.71c3.55-0.31,3.11,2.32,3.09,4.56c0,0.25,0.05,0.51-0.01,0.74
		c-0.31,1.19,0.84,3.32-1.05,3.41c-2.06,0.09-0.96-2.07-1.19-3.23c-0.24-1.26,0.35-3.1-1.7-3.11c-1.79-0.01-1.81,1.64-2.06,3
		c-0.22,1.19,0.76,3.42-1.09,3.33c-2.05-0.1-0.75-2.41-1.12-3.69C66.19,117.99,66.25,117.73,66.25,116.92z"/>
	<path class="st8" d="M207.16,109.4c1.27,0.15,2.7-0.44,3.35,0.55c1.02,1.54-1.19,1.46-1.5,2.26c-0.85,2.24-0.17,4.64-0.39,6.97
		c-0.11,1.1,0.61,2.78-1.33,2.89c-2.33,0.13-1.38-1.8-1.61-2.96c-0.56-2.76,0.92-5.59-1.8-8.44
		C202.57,109.32,206.18,110.13,207.16,109.4z"/>
	<path class="st7" d="M168.95,99.34c0.05,2.34-0.01,4.36-2.28,5.64c-1.53,0.86-2.84,0.65-4.15-0.18c-1.56-0.98-2.67-6.78-1.7-8.34
		c0.32-0.52,0.77-0.51,1.27-0.49c0.65,0.04,0.81,0.5,0.83,1.01c0.04,1.25-0.02,2.5,0.07,3.74c0.09,1.16,0.7,2.48,1.81,2.4
		c0.95-0.07,1.86-1.19,1.85-2.5c0-0.37-0.11-0.81,0.04-1.11c0.56-1.14-1.31-3.59,1.31-3.42C169.85,96.22,168.51,98.38,168.95,99.34z
		"/>
	<path class="st7" d="M286.69,100.21c0.38,2.15-0.27,4.11-2.72,5.18c-1.7,0.74-3.02-0.13-3.93-1.3c-1.79-2.3-0.67-5.03-0.72-7.57
		c-0.01-0.53,0.69-0.58,1.21-0.53c0.85,0.08,0.89,0.72,0.9,1.35c0.02,1.37,0.04,2.75,0.02,4.12c-0.01,0.87,0.47,1.54,1.22,1.63
		c0.96,0.13,1.65-0.48,1.73-1.52c0.08-1.12,0.04-2.25,0.12-3.37c0.07-0.9-0.4-2.3,1.21-2.18c1.57,0.11,0.78,1.52,0.95,2.37
		C286.77,98.86,286.69,99.38,286.69,100.21z"/>
	<path class="st8" d="M177.18,117.44c0-3.79,2.13-5.3,5.86-4.19c1.12,0.33,1.63,1.05,1.66,2.15c0.03,1.49,0.07,2.98,0,4.46
		c-0.04,0.89,0.37,2.24-1.23,2.16c-1.26-0.07-0.84-1.24-1.04-2.02c-0.38-1.49,1.05-4.19-1.22-4.27c-2.76-0.1-1.47,2.78-1.79,4.41
		c-0.16,0.81,0.1,1.94-1.18,1.9c-1.26-0.05-1-1.18-1.05-1.99C177.14,119.18,177.18,118.31,177.18,117.44z"/>
	<path class="st9" d="M321.86,97.18c0.54-1.4,0.93-2.82,1.62-4.08c0.63-1.15,1.92-1.3,2.91-0.66c1.06,0.69-0.2,1.94-0.15,2.12
		c0.73,2.81-1.12,5.34-0.67,8.08c0.17,1,0.36,2.36-1.46,2.32c-1.82-0.04-1.35-1.4-1.39-2.41
		C322.65,100.73,322.99,98.86,321.86,97.18z"/>
	<path class="st7" d="M321.92,122.2c-2.58,0.5-4.11-0.83-4.98-2.98c-0.86-2.13,0.04-3.96,1.68-5.24c1.82-1.42,3.94-1.1,5.99-0.28
		c0.6,0.24,1.33,0.58,1.08,1.24c-0.24,0.62-0.86,1.26-1.76,1.03c-0.59-0.15-1.16-0.5-1.75-0.5c-1.51-0.02-3.14-0.02-3.22,2.14
		c-0.08,2.12,1.31,2.41,2.98,2.31c0.12-0.01,0.26-0.03,0.37,0c1.07,0.35,3.07-0.93,3.12,0.74
		C325.48,122.83,323.21,121.94,321.92,122.2z"/>
	<path class="st9" d="M291.88,92.22c1.73,1.05,1.75,4.07,1.5,5.02c-0.53,2.06-0.56,4.05-0.66,6.08c-0.05,0.96-0.16,1.71-1.41,1.64
		c-0.89-0.06-1.5-0.43-1.39-1.33c0.4-3.31-1.36-6.56-0.11-9.92C290.16,92.77,290.32,92.1,291.88,92.22z"/>
	<path class="st8" d="M266.86,109.49c1.91,0.96,2.26,4.42,1.98,4.94c-1.16,2.18-0.73,4.34-0.96,6.49c-0.08,0.7-0.42,1.16-1.16,1.19
		c-0.81,0.04-1.66-0.17-1.6-1.11c0.21-3.39-1.35-6.76-0.11-10.18C265.31,110.03,265.58,109.48,266.86,109.49z"/>
	<path class="st7" d="M129.2,0c0,16.65,0.01,33.31-0.02,49.96c0,1.32,0.43,2.75-0.56,3.95c-0.06-17.62-0.12-35.23-0.18-52.85
		C128.44,0.53,128.62,0.12,129.2,0z"/>
	<path class="st7" d="M257.39,98.68c0.81,0.51,1.56,0.92,2.25,1.42c1.75,1.26,1.96,2.95,0.54,4.41c-1.46,1.51-3.32,1.32-4.98,0.05
		c-0.33-0.25-0.86-0.65-0.32-1.16c0.34-0.32,0.78-0.59,1.22-0.73c0.81-0.26,2.07,1.32,2.44-0.3c0.27-1.19-1.44-1-2.05-1.71
		c-0.79-0.91-2.09-1.57-1.5-3.1c0.44-1.15,1.29-1.74,2.6-1.67c1.12,0.06,2.53-0.13,2.7,1.31C260.59,99.68,258.29,97.78,257.39,98.68
		z"/>
	<path class="st7" d="M173.55,98.69c0.84,0.57,1.68,1.08,2.46,1.67c1.27,0.95,1.7,2.27,0.83,3.57c-0.84,1.26-2.21,2.09-3.8,1.49
		c-0.8-0.3-2.26-0.4-2.05-1.7c0.22-1.35,1.34-1.27,2.32-0.71c0.56,0.32,1,0.19,1.26-0.24c0.45-0.74-0.19-1.24-0.71-1.37
		c-1.05-0.28-1.76-0.99-2.29-1.78c-0.75-1.12-0.77-2.56,0.44-3.29c1.28-0.77,3.01-0.97,4.05,0.39c0.93,1.21,0.31,2.06-1.26,1.72
		C174.3,98.33,173.95,98.22,173.55,98.69z"/>
	<path class="st8" d="M290.11,115.98c1.78,1.05,4.09,1.76,3.24,4.62c-0.6,2.01-2.27,1.54-3.71,1.57c-0.93,0.02-2.02-0.28-1.91-1.28
		c0.21-1.8,2.17-0.39,3.02-1.37c-0.22-1.4-1.78-1.53-2.5-2.49c-0.97-1.3-1.16-2.51,0.5-3.39c1.27-0.67,2.6-0.75,3.89,0.01
		c0.45,0.27,0.64,0.69,0.5,1.26C292.68,116.88,290.84,114.69,290.11,115.98z"/>
	<path class="st8" d="M154.33,116.15c0.58,0.36,1.22,0.72,1.81,1.15c1.49,1.09,2.37,2.63,0.96,4.08c-1.41,1.45-3.48,1.18-5.19,0.28
		c-1.01-0.53-0.38-1.33,0.38-1.58c0.8-0.26,1.7-0.22,2.6-0.31c0.08-1.33-1-1.59-1.78-2.06c-1.61-0.97-2-2.42-0.86-3.74
		c1.2-1.39,3-1.1,4.47-0.27c1.17,0.66,0.62,1.44-1.48,1.91C154.89,115.69,154.5,115.52,154.33,116.15z"/>
	<path class="st8" d="M242.82,116.02c2.19,1.03,4.17,2.06,3.25,4.79c-0.58,1.72-2.16,1.34-3.49,1.38c-0.94,0.02-2.08-0.25-2.1-1.14
		c-0.06-2.18,2.39-0.34,3.06-1.67c-0.34-1.2-1.65-1.38-2.36-2.2c-1.64-1.91-0.91-3.21,1.18-3.87c1.01-0.32,2.23-0.42,3.18,0.45
		c0.4,0.36,0.51,0.77,0.31,1.32C245.23,116.73,243.74,114.8,242.82,116.02z"/>
	<path class="st9" d="M201.91,98.5c0-1.61,0-3.22,0.01-4.83c0.01-0.77,0.08-1.48,1.15-1.5c1.03-0.01,1.66,0.33,1.66,1.46
		c0,3.22,0,6.44,0.01,9.66c0,0.99-0.29,1.63-1.45,1.68c-1.27,0.05-1.38-0.7-1.38-1.64C201.91,101.72,201.91,100.11,201.91,98.5z"/>
	<path class="st9" d="M301.11,115.64c0-1.49,0-2.97,0-4.46c0-0.94,0.14-1.69,1.35-1.76c1.19-0.07,1.49,0.53,1.49,1.56
		c-0.01,3.22-0.01,6.44,0,9.66c0.01,1.01-0.25,1.64-1.46,1.57c-1.2-0.07-1.39-0.78-1.39-1.73
		C301.11,118.86,301.11,117.25,301.11,115.64z"/>
	<path class="st8" d="M78.48,109.54c0.55-0.03,0.9,0.21,1.13,0.73c1.65,3.75-0.16,7.47-0.09,11.21c0,0.19-0.52,0.49-0.83,0.56
		c-0.54,0.12-1.13-0.2-1.08-0.71c0.33-3.62-2.13-7.22-0.1-10.87C77.75,109.99,77.93,109.61,78.48,109.54z"/>
	<path class="st2" d="M261.16,166.98c2.2-0.13,3.81-0.47,3.83,2.58c0.02,3.1-1.68,2.63-3.5,2.63c-1.83,0-3.56,0.47-3.49-2.63
		C258.05,166.61,259.54,166.76,261.16,166.98z"/>
	<path class="st7" d="M278.18,97c-2.97,2.03-1.66,4.78-2.06,7.16c-0.09,0.56-0.52,0.77-1.08,0.76c-0.55,0-1.1-0.24-1.05-0.77
		c0.39-3.75-2.05-7.48-0.04-11.23c0.57-1.05,1.69-1.08,1.97-0.26C276.43,94.18,276,96.02,278.18,97z"/>
	<path class="st7" d="M264.56,104.91c-0.81,0.05-1.21-0.43-1.11-1.12c0.51-3.47-1.8-6.9-0.08-10.4c0.28-0.57,0.3-1.15,1.1-1.18
		c0.75-0.03,0.92,0.41,1.23,1.04c1.81,3.67-0.52,7.27-0.1,10.91C265.66,104.68,265.11,104.95,264.56,104.91z"/>
	<path class="st2" d="M83.87,166.91c1.42-0.21,2.54,0.02,2.64,2.6c0.13,3.41-1.97,2.58-3.81,2.69c-1.9,0.12-3.07,0.04-3.17-2.59
		C79.39,166.14,81.54,167.04,83.87,166.91z"/>
	<path class="st8" d="M130.85,109.6c0.61,1.63,2.35,4.2,1.72,5.06c-1.46,2.03-0.84,3.98-1.12,5.95c-0.11,0.78-0.22,1.51-1.25,1.43
		c-0.79-0.06-1.02-0.68-0.97-1.31c0.27-3.26-1.07-6.51-0.04-9.79C129.42,110.2,129.45,109.47,130.85,109.6z"/>
	<path class="st7" d="M180.57,104.92c-0.72,0.08-1.15-0.32-1.1-1.06c0.24-3.48-0.96-6.94-0.08-10.46c0.31-1.22,1.4-1.6,1.73-1.06
		c0.92,1.53,2.42,4.11,1.84,4.88c-1.62,2.16-1.06,4.32-1.26,6.51C181.63,104.41,181.43,104.92,180.57,104.92z"/>
	<path class="st7" d="M189.15,96.19c-2.11,2.2-3.18,4.59-2.74,7.53c0.1,0.66-0.23,1.21-1.04,1.17c-0.82-0.04-0.94-0.63-0.94-1.28
		c-0.01-2.1-0.4-4.3,0.09-6.28C185.17,94.74,187.48,96.71,189.15,96.19z"/>
	<path class="st8" d="M98.41,113.63c-2.03,1.95-2.68,4.18-2.43,6.73c0.09,0.91-0.2,1.74-1.39,1.74c-1.19,0.01-1.38-0.79-1.39-1.73
		c-0.01-0.74,0.08-1.49-0.03-2.22C92.61,114.44,93.53,112.26,98.41,113.63z"/>
	<path class="st8" d="M216.51,113.38c-1.65,2.17-2.3,4.39-2.04,6.94c0.09,0.91-0.18,1.74-1.36,1.78c-1.19,0.04-1.41-0.75-1.41-1.7
		c-0.01-1.85-0.22-3.72,0.04-5.54C212.21,111.45,215.05,114.72,216.51,113.38z"/>
	<path class="st8" d="M248.44,115.69c0-1.49-0.02-2.98,0.01-4.48c0.01-0.74,0.01-1.58,1.04-1.64c1.04-0.07,1.18,0.73,1.18,1.5
		c0.02,3.11,0.02,6.22,0.01,9.32c0,0.74-0.03,1.62-1.04,1.64c-1.3,0.03-1.17-1.03-1.19-1.87c-0.04-1.49-0.01-2.98-0.01-4.48
		C248.43,115.69,248.43,115.69,248.44,115.69z"/>
	<path class="st8" d="M63.19,116c0,1.61,0.01,3.23-0.01,4.84c-0.01,0.68-0.32,1.22-1.08,1.22c-0.75,0-1.08-0.53-1.09-1.22
		c-0.02-3.35-0.01-6.7,0.01-10.05c0-0.68,0.33-1.23,1.08-1.23c0.75,0,1.08,0.54,1.09,1.22C63.21,112.52,63.19,114.26,63.19,116z"/>
	<path class="st2" d="M239.43,98.64c0-1.36-0.01-2.73,0.01-4.09c0.01-0.73-0.04-1.53,1.04-1.59c1.06-0.06,1.2,0.63,1.2,1.43
		c0,2.98,0.01,5.95-0.01,8.93c0,0.73,0.05,1.53-1.04,1.58c-1.39,0.06-1.18-0.97-1.2-1.8C239.41,101.62,239.43,100.13,239.43,98.64z"
		/>
	<path class="st8" d="M111.19,116.66c-0.05-1.47-0.64-4.08,3.33-3.51c1.67,0.24,1.7,1.35,0.89,1.8c-2.08,1.16-1.98,2.89-1.98,4.76
		c0,0.9,0.39,2.27-1.1,2.29c-1.51,0.02-1.05-1.37-1.13-2.26C111.14,119.01,111.19,118.26,111.19,116.66z"/>
	<path class="st8" d="M281.41,117.52c-0.01-2.3-0.65-4.95,3.35-4.37c1.71,0.25,1.66,1.39,0.89,1.81c-2.09,1.15-1.99,2.88-2,4.76
		c0,0.89,0.4,2.28-1.1,2.3c-1.52,0.02-1.04-1.38-1.13-2.27C281.36,119.01,281.41,118.26,281.41,117.52z"/>
	<path class="st8" d="M145.69,117.6c0.03-2.26-0.77-5.18,3.31-4.35c1.57,0.32,1.46,1.45,0.49,2.03c-1.82,1.09-1.43,2.7-1.55,4.28
		c-0.07,0.9,0.47,2.33-0.98,2.42c-1.84,0.11-1.1-1.54-1.25-2.5C145.61,118.87,145.69,118.23,145.69,117.6z"/>
	<path class="st7" d="M271.1,100.39c-0.82,1.44,1,4.26-1.25,4.3c-2.24,0.05-1.08-2.74-1.09-4.2c-0.01-1.49-1.08-4.28,0.99-4.3
		C272.07,96.16,270.29,98.98,271.1,100.39z"/>
	<path class="st7" d="M209.62,100.54c-0.84,1.38,1.02,4.15-1.41,4.17c-2.12,0.01-1.01-2.66-0.93-3.99c0.1-1.57-1.38-4.49,1.13-4.52
		C210.62,96.18,208.76,99.09,209.62,100.54z"/>
	<path class="st8" d="M272.28,29.97c-0.94-0.09-1.96,0.26-2.77-0.52C270.49,29.38,271.55,28.78,272.28,29.97z"/>
</g>
</svg>
