<?xml version="1.0" encoding="utf-8"?>
<!-- Generator: Adobe Illustrator 27.0.1, SVG Export Plug-In . SVG Version: 6.00 Build 0)  -->
<svg version="1.1" id="Layer_1" xmlns="http://www.w3.org/2000/svg" xmlns:xlink="http://www.w3.org/1999/xlink" x="0px" y="0px"
	 viewBox="0 0 800 133" style="enable-background:new 0 0 800 133;" xml:space="preserve">
<style type="text/css">
	.st0{fill:#5E4F3F;}
	.st1{fill:#444444;}
	.st2{fill:#424242;}
	.st3{fill:#F7F7F7;}
</style>
<g>
	<path class="st0" d="M798.7,123.8c-1.7,3.5-4.9,4.2-8.3,4.2c-6.2,0.1-12.3,0.1-18.5,0.4c-4.7,0.2-4.9-2.8-4.9-6.2
		c0-28.7,0-57.3,0-86c0-3.6,0-7.2,0-10.9c-2.3,0.2-2.2,1.7-2.5,2.9c-7.3,29-14.7,58-22.1,87c-0.5,2.1-1.2,4.1-1.9,6.2
		c-1.2,3.9-3.6,6.2-7.8,6.4c-4.8,0.3-9.6,0.6-14.4,0.8c-4.2,0.2-6.4-1.9-7.3-5.9c-6.7-31.5-16-62.4-23.7-93.8c-0.3-1.3-0.1-3-2.3-4
		c-1.1,4.1-0.5,8.1-0.5,12.1c0,27.7,0.1,55.3,0.1,83c0,7.7-6.8,11.4-13.7,7.4c-1.2-0.7-1.6-1.7-1.7-2.8c-0.2-1.8-0.4-3.6-0.4-5.4
		c0-36,0-71.9,0-107.9c0-3.7-0.3-7.8,3.6-10.2c9,0,18,0.1,27.1,0c1.7,0,3.6,0.8,5.1-0.9c0.7,0,1.3,0,2,0c-0.7,1.2-0.1,2.3,0.2,3.3
		c5.5,24.7,11,49.3,16.5,74c1.4,6.2,2.8,12.3,4.3,19.1c2.3-2.8,2.3-5.4,2.9-7.7c6-25.2,12-50.5,18-75.7c1.1-4.7,2.7-9.2,7.1-12
		c12.9,0,25.8,0,38.7,0c1.8,0,3.7-0.1,5.2,1c0,0.3,0,0.7,0,1c-1.2,0.7-1,2-1,3.1C798.6,45.5,798.7,84.7,798.7,123.8z"/>
	<path class="st0" d="M88.3,0.3C87,2.2,88,4.1,88.2,6c0.6,7.6-1.4,9.7-9,9c-11.8-1-23.5-0.4-35.3-0.3c-6.8,0.1-8.6,2.3-8.7,9.2
		c-0.1,8.9,0,17.9-0.1,26.8c-0.1,3.3,1.2,4.3,4.4,4.2c13.1-0.1,26.3,0.1,39.4-0.1c4.4-0.1,6.4,1.2,6.3,5.8c-0.2,7.6-1,9.1-6.5,9.2
		C66,70,53.4,70.1,40.7,69.8c-4.8-0.1-6,2-5.9,6.2c0.2,13.9,0.3,27.8,0.3,41.7c0,9-1.4,10.3-10.4,10.4c-8.1,0.1-16.3,0.3-24.4,0.5
		c0-0.7,0-1.3,0-2c1.4-0.9,1-2.4,1-3.6c0-38,0-76-0.1-113.9C2.8,4.8,6,2.4,10.2,1.1c24.3,0,48.7,0.1,73,0.1c1.1,0,2.4,0.3,3.1-1
		C86.9,0.3,87.6,0.3,88.3,0.3z"/>
	<path class="st1" d="M798.7,123.8c-0.1-39.2-0.1-78.3-0.2-117.5c0-1.1-0.2-2.4,1-3.1c0,40.1,0,80.2,0,120.4l-0.4,0.3L798.7,123.8z"
		/>
	<path class="st1" d="M1.2,9.1c0,38,0.1,76,0.1,113.9c0,1.3,0.4,2.7-1,3.6c0-39.1,0-78.2,0-117.4C0.6,9.1,0.9,9,1.2,9.1z"/>
	<path class="st2" d="M492.9,0.3c0,0.3-0.1,0.7-0.2,1c-26.3-0.1-52.6-0.1-79-0.2c0-0.3,0.1-0.6,0.2-0.8
		C440.3,0.3,466.6,0.3,492.9,0.3z"/>
	<path class="st1" d="M86.3,0.3c-0.8,1.2-2,1-3.1,1c-24.3,0-48.7-0.1-73-0.1c0-0.3,0.1-0.6,0.2-0.9C35.7,0.3,61,0.3,86.3,0.3z"/>
	<path class="st2" d="M755.7,1.3c0-0.3,0-0.7,0-1c13.7,0,27.3,0,41,0c1.3,0,3.6-1.1,3,2c-1.6-1.1-3.4-1-5.2-1
		C781.4,1.3,768.5,1.3,755.7,1.3z"/>
	<path class="st3" d="M10.4,0.3c-0.1,0.3-0.1,0.6-0.2,0.9C6,2.4,2.8,4.8,1.2,9.1c-0.3,0-0.6,0-0.9,0.2c0-3-0.9-8,0.2-8.5
		C3.3-0.6,7,0.3,10.4,0.3z"/>
	<path class="st2" d="M230.1,132.6c-0.1-0.3-0.1-0.6,0-1c12.1,0.1,24.1,0.1,36.2,0.1c0,0.3,0,0.6-0.2,0.8
		C254.1,132.6,242.1,132.6,230.1,132.6z"/>
	<path class="st1" d="M704.7,0.3c-1.4,1.7-3.4,0.9-5.1,0.9c-9,0-18,0-27.1,0c0-0.3,0.1-0.6,0.2-0.9C683.3,0.3,694,0.3,704.7,0.3z"/>
	<path class="st2" d="M138.2,0.3c-0.1,0.3-0.1,0.7-0.2,1c-9.9,0-19.8,0-29.7,0c0-0.3-0.1-0.7-0.1-1C118.2,0.3,128.2,0.3,138.2,0.3z"
		/>
	<path class="st2" d="M279.1,1.3c0-0.3,0-0.7,0-1c10,0,20,0,30,0c0,0.3,0,0.7,0,1C299,1.3,289.1,1.3,279.1,1.3z"/>
	<path class="st2" d="M372,0.3c0,0.3-0.1,0.7-0.2,1c-9.9,0-19.9,0-29.8-0.1c0-0.3,0-0.7,0-1C352,0.3,362,0.3,372,0.3z"/>
	<path class="st2" d="M514.8,1.2c0.1-0.3,0.1-0.6,0-1c10,0,20,0,30,0c0,0.3-0.1,0.7-0.2,1C534.7,1.3,524.8,1.3,514.8,1.2z"/>
	<path class="st2" d="M578.7,1.2c0.1-0.3,0.1-0.6,0.1-0.9c10,0,20,0,30,0c0,0.3-0.1,0.7-0.2,1C598.6,1.3,588.7,1.3,578.7,1.2z"/>
	<path class="st2" d="M175.4,131.8c0,0.3,0,0.6-0.2,0.8c-10,0-20,0-30,0c0.1-0.3,0.1-0.6-0.1-1C155.3,131.7,165.3,131.7,175.4,131.8
		z"/>
	<path class="st2" d="M186.9,1.1c-0.1-0.3,0-0.6,0.2-0.8c9.3,0,18.6,0,28,0c-0.1,0.3-0.1,0.7-0.2,1C205.6,1.2,196.3,1.2,186.9,1.1z"
		/>
	<path class="st0" d="M413.7,1.1c26.3,0.1,52.6,0.1,79,0.2c0,1.8,0,3.6,0,5.4c0.1,7.8-0.3,8.2-8.5,7.9c-11.8-0.5-23.6-0.7-35.4,0.1
		c-7,0.4-8.6,2.2-8.8,9.3c-0.2,8.8,0,17.6-0.2,26.3c-0.1,3.9,1.8,4.7,5.2,4.7c13-0.2,26,0.1,38.9-0.2c4.6-0.1,6.2,1.3,6,5.9
		c-0.5,8.8-0.5,9.1-9.5,9.1c-11.8,0-23.6,0.1-35.5-0.1c-4-0.1-5.2,1.4-5.2,5.2c0.1,14.7,0.1,29.5,0,44.2c0,7.2-1.5,8.7-8.8,8.8
		c-6.7,0.1-13.3-0.3-20,0.1c-4.6,0.3-5.5-1.6-5.5-5.8c0.2-15.1,0.1-30.2,0.1-45.2c0-7.3,0-7.3-7.5-7.3c-4.9,0-9.8,0-16,0
		c7-5.4,12.9-10.2,19-14.7c3.2-2.4,4.7-5.2,4.6-9.3c-0.2-10.8-0.1-21.5,0-32.3C405.9,7.9,408,3.3,413.7,1.1z"/>
	<path class="st0" d="M578.7,1.2c10,0,19.9,0.1,29.9,0.1c0.1,33,0.2,65.9,0.3,98.9c0,2,0.2,4,0.4,5.9c0.7,4.8,3.6,7.3,8.3,7.7
		c10,0.8,19.9,0.2,29.9,0.4c6.2,0.1,6,0.1,6,8.8c0,5-2.5,5.4-6.7,5.3c-16.6-0.2-33.3-0.1-49.9-0.1c-2.2,0-4.3-0.1-6.5-0.4
		c-9.4-1.2-13.8-5.7-14.7-15.1c-0.2-2-0.1-4-0.1-6c0-32.1,0-64.3,0-96.4C575.8,6.9,575.5,3.5,578.7,1.2z"/>
	<path class="st0" d="M279.1,1.3c10,0,19.9,0,29.9,0c0,30.8,0.5,61.7-0.2,92.5c-0.5,19.5-14.8,33.4-35.6,36.8
		c-2.3,0.4-4.6,0.8-6.9,1.1c-12.1-0.1-24.1-0.1-36.2-0.1c-2.1-3.6-0.8-7.4-0.9-11.1c-0.1-2.4,1.9-1.8,3.3-1.8
		c7.8-0.2,15.6,0.1,23.4-0.8c13.7-1.5,20.1-8.4,20.2-22.2c0.1-20.2,0-40.4,0-60.6c0-8.6,0-17.2,0-25.8
		C276.1,6.2,276.4,3.3,279.1,1.3z"/>
	<path class="st0" d="M514.8,1.2c10,0,19.9,0.1,29.9,0.1c0.1,39.7,0.2,79.4,0.2,119.2c0,6.3-1.4,7.4-7.7,7.6
		c-6.8,0.1-13.6,0.2-20.4,0.4c-3.5,0.1-5.1-1.4-5.1-5c0.1-38.2,0.1-76.5,0.2-114.7C511.9,5.8,512.3,3.1,514.8,1.2z"/>
	<path class="st0" d="M338.9,99.3c0-8.3,0.1-16.6-0.1-24.8c-0.1-3.3,0.8-4.8,4.4-4.7c8.1,0.2,16.3,0.2,24.5,0
		c3.2-0.1,4.5,0.9,4.5,4.2c-0.1,15.7-0.1,31.5-0.1,47.2c0,4.7-2.1,7-7,7c-7.6,0-15.3,0.2-22.9,0.3c-2.6,0-3.3-1.4-3.3-3.8
		c0.1-8.4,0-16.9,0-25.3C339,99.3,339,99.3,338.9,99.3z"/>
	<path class="st0" d="M342,1.3c9.9,0,19.9,0,29.8,0.1c0.1,12.6,0.2,25.1,0.3,37.7c0,3-1,5.4-3.5,7.3c-8.7,6.6-17.3,13.4-25.9,20.1
		c-0.9,0.7-1.7,1.9-3,1.4c-1.5-0.6-0.7-2-0.7-3.1c-0.1-18.5-0.1-37-0.2-55.5C338.9,6.2,339.1,3.2,342,1.3z"/>
	<path class="st0" d="M186.9,1.1c9.4,0.1,18.7,0.2,28.1,0.2c0.1,31.8,0.4,63.5,0.1,95.3c-0.2,18-11.1,29.9-29,33
		c-3.6,0.6-7.1,1.4-10.7,2.2c-10.1-0.1-20.2-0.1-30.2-0.1c-2.4-1.4-5.1-1.1-7.7-1.7c-21.4-4.3-31.3-15.7-31.6-37.4
		c-0.3-27.7-0.1-55.3-0.1-82.9c0-3,0.1-6,2.6-8.3c9.9,0,19.8,0,29.7,0c0.1,31.2,0.2,62.3,0.3,93.5c0.1,19.4,11.2,27.9,30.4,22.9
		c10.5-2.8,13.9-7,14-18c0.1-11.9,0-23.9,0-35.8c0-17.9,0-35.8,0-53.7C182.8,6.6,182.4,2.7,186.9,1.1z"/>
</g>
</svg>
