<?xml version="1.0" encoding="utf-8"?>
<!-- Generator: Adobe Illustrator 27.0.1, SVG Export Plug-In . SVG Version: 6.00 Build 0)  -->
<svg version="1.1" id="Layer_1" xmlns="http://www.w3.org/2000/svg" xmlns:xlink="http://www.w3.org/1999/xlink" x="0px" y="0px"
	 viewBox="0 0 896.3 92.8" style="enable-background:new 0 0 896.3 92.8;" xml:space="preserve">
<style type="text/css">
	.st0{fill:none;}
	.st1{fill:#5E4F3F;}
	.st2{fill:#444444;}
	.st3{fill:#FDFBFB;}
</style>
<g>
	<path class="st0" d="M631,92.5c-19,0-37.9,0-56.9,0c1.4-1.6,3.4-1.2,5.1-1.7c12.4-3.5,20-11.4,22.7-23.9c1.4-6.1,1.4-12.4,0.4-18.6
		c-1.8-11.1-8.2-18.3-18.8-21.8c-3.9-1.3-7.9-2.1-12-2.2c-10.3-0.1-20.7-0.3-31-0.4c-5.7,0-5.7,0-5.7-5.9c0-3.8,0-7.5,0-11.3
		c0-1.5,0.3-3.3-1.8-3.9c-15.5-0.7-30.9-0.5-46.4-0.1c-2,0.2-1.5,1.4-0.9,2.4c4.9,7.6,4.9,16.2,5,24.8c0.1,18.7,0,37.5,0,56.2
		c0,2.3-0.4,4.8,2.8,5.6c0,0.2,0,0.5,0.1,0.7c-4.4,0-8.8,0-13.1,0c0.1-0.2,0.1-0.5,0.1-0.7c0.9-0.3,1.7-0.7,1.7-1.9l0-0.1l0.3-0.2
		l-0.1-0.3c0.7-6.6,0.5-13.1,0-19.7c0.7-14.2,0-28.5,0.1-42.8c0-0.9-0.1-1.7-1.1-2.1c-0.2-0.1-0.5-0.4-0.7-0.4
		c-14.6-0.1-29.1-0.2-43.7-0.2c-2.5,0-2.5,1.4-1.4,3.1c2.1,3.3,2.8,7,2.9,10.8c0.1,9.6,0.2,19.2,0,28.7c-0.1,6.3-3.6,10.6-9.3,13
		c-7.3,3.1-11.3,0.5-11.4-7.3c0-2.2,0-4.4,0-6.5c0-9.3,0.1-18.6-0.2-27.9c-0.3-8.2-4.2-12.8-11.5-13.5c-11.6-1.2-23.3-0.4-35-0.5
		c-2.7,0-3.6,1.2-1.6,3.5c1.9,2.1,3.5,4.3,3.5,7.3c0.1,0.3,0.1,0.6,0.2,0.9c0.1,0.6,0.2,1.3,0.4,1.9c-1.7,2.4,0.6,5.5-1.5,7.8
		c-0.2-0.2-0.3-0.3-0.1-0.6c0.1-1,0.3-2.1-0.7-2.9c-3.6-11.2-12.2-16.1-23.3-17.5c-2-0.3-4.1-0.4-6.1-0.4c-15.5,0-30.9,0-46.4-0.1
		c-3.4,0-4.6,1.2-4.5,4.6c0.1,19.5,0,38.9,0.1,58.4c0,1.7-0.4,3.5,1.4,4.8c0,0.2,0,0.5,0,0.8c-2.9,0-5.8,0-8.8,0c0-0.2,0-0.5,0-0.7
		c1.5-0.6,2-1.6,1.1-3.1c-4.1-6.2-3.9-13.2-3.9-20.2c0-12.8,0-25.5,0-38.3c0-6-0.2-6.2-6.5-6.3c-18.2,0-36.4,0-54.6,0
		c-7.1,0-14.3-0.4-21.4,0.4c-14.6,1.7-25.2,12.2-26.6,26.3c-0.7,7.1,0.1,14.2,2.4,21c3.3,9.6,9.8,15.9,19.5,19
		c1.4,0.5,3.2,0.2,4.2,1.8c-9.3,0-18.7,0-28,0c0-0.3,0-0.6,0-0.8c0.7-0.6,0.9-1.2,0-1.8c-3.2-4.5-3.6-9.7-3.6-14.9
		c-0.2-18.1-0.2-36.3-0.7-54.4c-0.2-10.3-6.8-17-16.7-17.7c-10.5-0.5-21-0.5-31.5,0c-6.8,0.6-11.1,4.4-14,10.2
		c-5,10.5-10.1,21-15.5,32c-0.9-1.7-1.5-2.8-2.1-3.9c-4.4-9.1-8.9-18.2-13-27.5C69.5,6.4,63.7,3.3,56,2.9C38,2.5,19.9,2.4,1.8,2.9
		C1.5,2.8,1.3,2.8,1,2.8c-0.3,0-0.6,0-1,0c0-1.4-0.5-3.4,2.2-2.6c0.5,0.2,1.2,0,1.7,0c286.6,0,573.2,0,859.8,0
		c-2,1.8-4.6,1.1-6.9,1.7c-6,1.5-9,4.3-8.8,9.1c0.1,4.4,3.1,7.3,9.1,8.3c8.2,1.4,16.5,1.4,24.7,0c6-1.1,8.5-3.8,8.4-8.7
		c-0.1-4.7-2.9-7.5-8.7-8.6c-2.5-0.5-5.2,0.1-7.3-1.7c6.3,0,12.5,0.2,18.8-0.1c2.6-0.1,3.2,0.5,3.1,3.1c-0.1,28.6-0.1,57.2-0.1,85.8
		c-4-3.5-4.3-8.3-4.3-13.1c-0.1-15.4-0.1-30.8-0.1-46.1c0-5-0.8-5.8-5.9-5.8c-13.3,0-26.5,0-39.8,0c-1.3,0-2.7-0.3-4.2,1.2
		c7.4,6.7,6.6,15.7,6.5,24.5c0,12.2,0,24.4,0,36.5c0,1.8-0.7,3.8,1.4,5.1c0.3,0.1,0.5,0.3,0.8,0.4c0,0.2,0,0.5,0,0.7
		c-2.9,0-5.8,0-8.8,0c0-0.2,0-0.5,0-0.7c1.9-1.2,1.1-2.4-0.1-3.5c-4.2-3.7-5.2-8.5-5.1-13.8c0-8,0.1-16-0.1-23.9
		c-0.4-16.7-9.2-26.1-26-26.4c-25.8-0.4-51.6-0.1-77.4-0.2c-3.4,0-4.6,1.4-4.6,4.7c0.1,19.7,0.2,39.5,0.2,59.2
		c0,1.6-0.2,3.3,1.9,3.9c0,0.2,0,0.5,0,0.7c-12,0-23.9,0-35.9,0c0-0.2,0-0.5,0-0.7c4.5-0.3,9-1,13.2-2.8c6.6-2.9,10.1-7.9,10.7-15.1
		c0.3-3.6-0.9-4.9-4.6-4.9c-9.8,0.2-19.5,0.2-29.3,0c-4.5-0.1-8,0.5-10.9,4.5c-3,4-7.8,4.3-12.4,3.2c-4-1-6.4-4.2-6.8-8.2
		c-0.4-4.4-0.1-8.8-0.1-14.1c2.8,2.2,5.1,3.8,7.3,5.6c2.7,2.3,5.7,3.5,9.2,3.6c14.7,0.1,29.4,0.1,44.2,0.1c3.1,0,4.4-1.7,4.3-4.7
		c-0.1-4.2,0-8.4,0-12.6c-0.1-14-6-20.9-20-21.6c-23-1.2-46-0.7-69-0.3c-11,0.2-18,6.5-19.6,17.4c-1.6,10.8-1.6,21.7,0.2,32.5
		c1.8,10.3,8.7,16.1,19.1,17.3c0.2,0.1,0.5,0.2,0.8,0.3C631,92,631,92.3,631,92.5z"/>
	<path class="st1" d="M1,2.8c0.3,0,0.5,0,0.8,0.1c0.9,1,2.2,0.7,3.3,0.7c15.9,0,31.8,0,47.7,0c1.1,0,2.4,0.2,3.3-0.8
		c7.7,0.4,13.5,3.5,16.8,10.9c4.1,9.3,8.6,18.3,12.9,27.5c0.5,1.1,1.2,2.2,2.1,3.9c5.4-11,10.5-21.5,15.5-32
		c2.8-5.9,7.2-9.7,14-10.2c1.2,1.2,2.8,0.7,4.2,0.7c7.3,0,14.6,0.1,21.9,0c1.8,0,3.8,0.7,5.5-0.7c9.9,0.7,16.5,7.4,16.7,17.7
		c0.4,18.1,0.5,36.3,0.7,54.4c0.1,5.3,0.4,10.4,3.6,14.9c-1.3,1.4-3,0.8-4.6,0.8c-15.7,0.1-31.5,0.1-47.2,0.1
		c-1-1.3-0.5-2.8-0.6-4.2c-0.1-9,0-18,0-27c0-1.6,0-3.2,0-4.8c-5.1,8.7-9.4,17.4-13.4,26.2c-2.4,5.3-5.3,9.8-11.3,11.5
		c-4.4,0-8.8,0-13.1,0c-5.2-2.3-8-6.6-10.3-11.6c-4.1-9-8.5-17.9-12.8-26.8c-0.4,0.1-0.7,0.2-1.1,0.2c1.5,12.1-3,24.9,4.8,36.4
		c-17.5,0-35,0-52.5,0c-1.2-1.4-0.6-3.1-0.6-4.6C6.9,65.7,6.6,45.2,6.4,24.6c-0.1-6.9-1-13.6-5.1-19.4C0.7,4.5,0.7,3.7,1,2.8z"/>
	<path class="st1" d="M493.5,91.8c-3.2-0.7-2.8-3.3-2.8-5.6c0-18.7,0.1-37.5,0-56.2c0-8.6,0-17.2-5-24.8c-0.6-1-1.2-2.2,0.9-2.4
		c0.9,1,2.1,0.8,3.3,0.8c13.4,0,26.8,0,40.2,0c1,0,2.1,0.1,2.9-0.7c2.1,0.6,1.8,2.4,1.8,3.9c0.1,3.8,0,7.5,0,11.3
		c0,5.9,0,5.9,5.7,5.9c10.3,0.1,20.7,0.2,31,0.4c4.1,0.1,8.1,0.9,12,2.2c10.6,3.5,17,10.7,18.8,21.8c1,6.2,1,12.5-0.4,18.6
		c-2.8,12.4-10.3,20.4-22.7,23.9c-1.7,0.5-3.8,0.1-5.1,1.7c-1.2,0-2.3,0-3.5,0c-2.3-1.4-4.7-1.4-7,0c-1.2,0-2.3,0-3.5,0
		c-8.5-2.8-17-5.3-24.3-11.5c-2.1,7.6-7.4,10.1-14.2,10.8C512.3,91.8,502.9,91.8,493.5,91.8z M534.8,54.9c0,2.8,0,5.5,0,8.3
		c0,6.6,3,10.2,8.9,10.8c6.3,0.6,10.7-2.5,12.2-8.7c0.9-3.7,1-7.5,0.6-11.2c-0.8-8-4.5-11.1-12.6-11.1c-2.2,0-4.4,0.1-6.6,0
		c-1.9-0.1-2.6,0.6-2.5,2.5C534.9,48.5,534.8,51.7,534.8,54.9z"/>
	<path class="st1" d="M197.8,92.5c-1-1.6-2.8-1.3-4.2-1.8c-9.7-3.1-16.2-9.3-19.5-18.9c-2.3-6.8-3-13.9-2.4-21
		c1.3-14.1,12-24.6,26.6-26.3c7.1-0.9,14.3-0.4,21.4-0.4c18.2,0,36.4,0,54.6,0c6.2,0,6.5,0.2,6.5,6.3c0,12.8,0,25.5,0,38.3
		c0,7-0.2,14,3.9,20.2c0.9,1.4,0.5,2.5-1.1,3.1l0-0.3c-1.1-1-2.5-0.7-3.8-0.7c-9.5,0-18.9,0-28.4,0c-1.3,0-2.6-0.3-3.7,0.7
		c-5.9,0.1-8.6-4-11-9c-4.6,5.4-10.9,7.6-17,10c-1.2,0-2.3,0-3.5,0c-4.7-1.4-9.3-1.4-14,0C200.7,92.5,199.3,92.5,197.8,92.5z
		 M236.4,54.7c0-1.3,0-2.6,0-3.9c0-9,0-8.9-9.1-7.5c-4.6,0.7-8.1,2.6-9.6,7c-1.7,4.9-1.7,10-0.4,15c1.3,4.8,6.4,7.8,11.2,7.1
		c4.9-0.8,7.8-4.3,7.9-9.8C236.4,59.9,236.4,57.3,236.4,54.7z"/>
	<path class="st1" d="M849.8,91.4c-2.1-1.2-1.4-3.3-1.4-5.1c0-12.2-0.1-24.4,0-36.5c0-8.9,0.8-17.9-6.5-24.5
		c1.5-1.6,2.9-1.2,4.2-1.2c13.3,0,26.5,0,39.8,0c5.1,0,5.9,0.8,5.9,5.8c0,15.4,0,30.8,0.1,46.1c0,4.8,0.4,9.6,4.3,13.1
		c0,0.9,0,1.7,0,2.6c-0.3-0.1-0.6-0.1-0.9-0.2c-0.8-0.8-1.9-0.7-2.9-0.7c-13.2,0-26.4,0-39.7,0C851.8,90.8,850.7,90.7,849.8,91.4z"
		/>
	<path class="st0" d="M372,45.5c2.1-2.3-0.2-5.5,1.5-7.8c0.1,9.4,0.1,18.8,0.4,28.2c0.5,15.3,9.1,24.3,24.4,26c0,0.2,0,0.5,0,0.7
		c-20.4,0-40.8,0-61.3,0c0-0.2,0-0.5,0-0.7c2.2-0.9,1.1-2.4,0.6-3.6c-1.9-3.9-2.6-8-2.6-12.2c0-10,0.1-20,0.2-30
		c0-1.5-0.5-3.6,1.5-4.1c1.8-0.5,3.3,0.9,4.5,2.2c1.4,1.6,1.8,3.6,1.9,5.7c0.5,5.2-0.4,10.1-2.8,14.8c-0.4,0.9-1.2,1.8-0.3,2.8
		c0.9,0.9,1.9,0.2,2.8-0.1c5.5-1.8,11.1-3.4,16.6-5.3C374.1,56.9,371.7,61,372,45.5z"/>
	<path class="st0" d="M807.8,92.5c-10.5,0-21,0-31.5,0c0-0.3,0-0.6,0-0.9c0-0.3,0.1-0.6,0.1-0.9c-1.6-4.2-4-8.2-4-13.1
		c0.1-9.4,0-18.9,0-28.3c0-5.3,2.7-9.1,7-11.8c3.3-2,7-3.9,10.7-1.8c3.3,1.8,2.4,5.7,2.4,8.7c0.2,11.2-0.1,22.4,0.3,33.5
		c0.3,8.6,5.3,13,14,13.5c0.3,0.1,0.5,0.2,0.8,0.3C807.8,92.1,807.8,92.3,807.8,92.5z"/>
	<path class="st1" d="M874.3,0.2c2.2,1.8,4.9,1.2,7.3,1.7c5.8,1.2,8.6,3.9,8.7,8.6c0.1,4.9-2.4,7.6-8.4,8.7
		c-8.2,1.5-16.5,1.5-24.7,0c-5.9-1-8.9-3.9-9.1-8.3c-0.1-4.7,2.8-7.6,8.8-9.1c2.3-0.6,4.9,0.1,6.9-1.7
		C867.3,0.2,870.8,0.2,874.3,0.2z"/>
	<path class="st0" d="M1,2.8C0.7,3.7,0.7,4.5,1.3,5.3c4.1,5.8,5,12.4,5.1,19.4c0.2,20.5,0.5,41.1,0.8,61.6c0,1.5-0.5,3.2,0.6,4.6
		c0.3,0.3,0.6,0.7,0.8,1c0,0.2,0,0.5,0.1,0.7c-2.9,0-5.8,0-8.8,0C0,62.6,0,32.7,0,2.8C0.3,2.8,0.7,2.8,1,2.8z"/>
	<path class="st0" d="M92.8,92.5c6-1.6,8.9-6.1,11.3-11.5c3.9-8.9,8.3-17.5,13.4-26.2c0,1.6,0,3.2,0,4.8c0,9,0,18,0,27
		c0,1.4-0.5,2.9,0.6,4.2c0.3,0.3,0.6,0.7,0.9,1c0,0.2,0,0.5,0.1,0.7C110.3,92.5,101.6,92.5,92.8,92.5z"/>
	<path class="st0" d="M60.3,90.8c-7.8-11.4-3.3-24.2-4.8-36.3c0.4-0.1,0.7-0.2,1.1-0.2C60.8,63.1,65.3,72,69.4,81
		c2.3,5,5.1,9.3,10.3,11.6c-6.4,0-12.8,0-19.3,0c0-0.3,0-0.6,0-0.9C60.5,91.3,60.4,91.1,60.3,90.8z"/>
	<path class="st0" d="M521.7,91.8c6.7-0.7,12.1-3.2,14.2-10.8c7.3,6.2,15.8,8.7,24.3,11.5c-12.8,0-25.7,0-38.5,0
		C521.7,92.3,521.7,92.1,521.7,91.8z"/>
	<path class="st0" d="M219.7,92.5c6.1-2.3,12.4-4.5,17-10c2.4,5,5.1,9.1,11,9c0.3,0.1,0.5,0.2,0.8,0.3c0,0.2,0,0.5,0,0.7
		C238.9,92.5,229.3,92.5,219.7,92.5z"/>
	<path class="st2" d="M60.4,91.6c0,0.3,0,0.6,0,0.9c-17.2,0-34.4,0-51.6,0c-0.1-0.2-0.1-0.5-0.1-0.7C25.9,91.7,43.1,91.7,60.4,91.6z
		"/>
	<path class="st2" d="M119,92.5c-0.1-0.2-0.2-0.4-0.1-0.7c17-0.1,33.9-0.1,50.9-0.2c0,0.3,0,0.6,0,0.8C152.9,92.5,136,92.5,119,92.5
		z"/>
	<path class="st2" d="M895.3,91.5c0.3,0.1,0.6,0.1,0.9,0.2c-0.3,1.9-1.8,0.8-2.6,0.8c-14.3,0.1-28.6,0.1-42.9,0.1
		c0-0.2-0.1-0.5,0-0.7c1.6-0.1,3.2-0.2,4.8-0.2C868.7,91.6,882,91.5,895.3,91.5z"/>
	<path class="st2" d="M776.3,91.7c0,0.3,0,0.6,0,0.9c-15.2,0-30.3,0-45.5,0c0-0.2,0-0.5,0-0.7l0-0.3
		C745.9,91.6,761.1,91.6,776.3,91.7z"/>
	<path class="st2" d="M336.9,91.8c0,0.2,0.1,0.4,0,0.7c-14.9,0-29.8,0-44.6,0c0-0.2,0-0.5,0-0.8l0-0.4c14.9,0.5,29.8,0.3,44.7,0.1
		L336.9,91.8z"/>
	<path class="st2" d="M480.6,91.8c0,0.2,0,0.5-0.1,0.7c-13.7,0-27.4,0-41.1,0c0-0.2,0-0.5-0.1-0.7C453,91.8,466.8,91.8,480.6,91.8z"
		/>
	<path class="st2" d="M439.3,91.8c0,0.2,0,0.5,0.1,0.7c-13.7,0-27.4,0-41.1,0c0-0.2,0-0.5,0-0.7l0-0.3c13.7,0,27.5,0.1,41.2,0.1
		L439.3,91.8z"/>
	<path class="st2" d="M694.9,91.8c0,0.2,0,0.5,0,0.7c-12,0-23.9,0-35.9,0c0-0.2,0-0.5,0-0.7l-0.1-0.2c12,0,24,0,35.9,0L694.9,91.8z"
		/>
	<path class="st2" d="M248.6,92.5c0-0.2-0.1-0.5,0-0.7c11.7-0.1,23.4-0.2,35.1-0.3l0,0.3c0,0.2,0.1,0.4,0,0.7
		C271.9,92.5,260.2,92.5,248.6,92.5z"/>
	<path class="st2" d="M807.8,92.5c0-0.2,0-0.5,0-0.7c11.4-0.1,22.8-0.2,34.2-0.3l0,0.4c0,0.2,0,0.5,0,0.7
		C830.5,92.5,819.2,92.5,807.8,92.5z"/>
	<path class="st2" d="M521.7,91.8c0,0.2,0,0.5-0.1,0.7c-9.3,0-18.7,0-28,0c0-0.2-0.1-0.5-0.1-0.7C502.9,91.8,512.3,91.8,521.7,91.8z
		"/>
	<path class="st2" d="M659.1,91.8c0,0.2,0,0.5,0,0.7c-9.3,0-18.7,0-28,0c0-0.2,0-0.5,0-0.8c9-0.1,18.1-0.2,27.1-0.2
		C658.4,91.6,658.7,91.7,659.1,91.8z"/>
	<path class="st2" d="M202.2,92.5c4.7-1.4,9.3-1.4,14,0C211.5,92.5,206.9,92.5,202.2,92.5z"/>
	<path class="st2" d="M563.6,92.5c2.3-1.4,4.7-1.4,7,0C568.3,92.5,566,92.5,563.6,92.5z"/>
	<path class="st1" d="M659.1,91.8c-0.3-0.1-0.6-0.2-1-0.3c-2.4-1.5-5.1-0.7-7.6-0.7c-6.8,0.2-13.6-0.9-20.3,0.7
		c-10.4-1.2-17.3-7-19.1-17.3c-1.9-10.8-1.8-21.7-0.2-32.5c1.6-10.9,8.6-17.2,19.6-17.4c23-0.4,46-1,69,0.3c14,0.8,19.9,7.7,20,21.6
		c0,4.2-0.1,8.4,0,12.6c0.1,3-1.1,4.7-4.3,4.7c-14.7,0-29.4,0-44.2-0.1c-3.4,0-6.5-1.3-9.2-3.6c-2.1-1.8-4.5-3.5-7.3-5.6
		c0,5.3-0.3,9.7,0.1,14.1c0.4,4,2.8,7.2,6.8,8.2c4.5,1.2,9.4,0.9,12.4-3.2c2.9-4,6.5-4.6,10.9-4.5c9.8,0.2,19.5,0.2,29.3,0
		c3.7-0.1,4.9,1.3,4.6,4.9c-0.6,7.2-4,12.3-10.7,15.1c-4.2,1.8-8.7,2.5-13.2,2.8l0-0.3c-1.1-1-2.5-0.7-3.8-0.7c-9.5,0-19,0-28.4,0
		c-1.3,0-2.7-0.3-3.7,0.7C659,91.5,659.1,91.8,659.1,91.8z M663.6,42.1c-2.1,0-3.8,0.1-5.6,0c-2.9-0.2-3.7,1.2-3.7,3.9
		c0,2.9,0.9,4.7,3.9,5.2c4,0.6,8,1.3,12.1,1.2c2.5-0.1,4.7-0.9,5-3.8c0.3-2.9-0.9-5-3.8-5.9C668.8,41.8,666,42.3,663.6,42.1z"/>
	<path class="st1" d="M398.2,91.8c-15.3-1.6-23.9-10.7-24.4-26c-0.3-9.4-0.3-18.8-0.4-28.2c-0.1-0.6-0.2-1.3-0.4-1.9
		c0-0.1,0.2-0.2,0.1-0.3c-0.1-0.2-0.2-0.4-0.4-0.5c0-3-1.6-5.2-3.5-7.3c-2-2.2-1.1-3.5,1.6-3.5c11.7,0.1,23.4-0.7,35,0.5
		c7.3,0.7,11.2,5.4,11.5,13.5c0.3,9.3,0.1,18.6,0.2,27.9c0,2.2,0,4.4,0,6.5c0.2,7.8,4.2,10.4,11.4,7.3c5.7-2.4,9.2-6.7,9.3-13
		c0.2-9.6,0.1-19.2,0-28.7c0-3.8-0.8-7.5-2.9-10.8c-1.1-1.8-1.2-3.1,1.4-3.1c14.6,0,29.1,0.1,43.7,0.2c0.2,0,0.5,0.3,0.7,0.4
		c0.5,15-1.2,30,1.1,44.9c0.5,6.6,0.7,13.1,0,19.7c-0.1,0.2-0.1,0.4-0.1,0.6l0,0.1c-1.7,1-3.6,0.8-5.5,0.8c-12.5,0-24.9,0-37.4,0
		c-12.2,0-24.4,0-36.5,0c-1.5,0-3.2-0.5-4.6,0.7L398.2,91.8z"/>
	<path class="st1" d="M807,91.5c-8.7-0.5-13.7-4.9-14-13.5c-0.4-11.2-0.2-22.3-0.3-33.5c0-3.1,0.9-6.9-2.4-8.7
		c-3.7-2-7.4-0.2-10.7,1.8c-4.3,2.7-7,6.5-7,11.8c0,9.4,0.2,18.9,0,28.3c-0.1,4.8,2.3,8.8,4,13.1c-13.7,0-27.3,0-41,0
		c-1.5,0-3.2-0.5-4.6,0.7l0,0.3c-2.1-0.6-1.9-2.3-1.9-3.9c-0.1-19.7-0.1-39.5-0.2-59.2c0-3.3,1.2-4.7,4.6-4.7
		c25.8,0.1,51.6-0.2,77.4,0.2c16.7,0.3,25.5,9.7,26,26.4c0.2,8,0.1,16,0.1,23.9c0,5.3,0.9,10.1,5.1,13.8c1.2,1,2,2.3,0.1,3.5l0-0.4
		c-1.3-1.1-2.8-0.7-4.2-0.7c-8.9,0-17.8,0-26.6,0C809.7,90.8,808.2,90.4,807,91.5z"/>
	<path class="st1" d="M372,45.5c-0.3,15.5,2.1,11.4-12.5,16.5c-5.5,1.9-11,3.6-16.6,5.3c-0.9,0.3-2,1-2.8,0.1
		c-0.9-0.9-0.1-1.9,0.3-2.8c2.4-4.7,3.2-9.6,2.8-14.8c-0.2-2-0.5-4.1-1.9-5.7c-1.2-1.3-2.7-2.7-4.5-2.2c-2,0.5-1.5,2.6-1.5,4.1
		c-0.1,10-0.2,20-0.2,30c0,4.2,0.7,8.3,2.6,12.2c0.6,1.2,1.6,2.7-0.6,3.6l0-0.3c-1.2-1.1-2.8-0.7-4.2-0.7c-12.1,0-24.2,0-36.2,0
		c-1.4,0-2.9-0.4-4.2,0.6l0,0.4c-1.7-1.2-1.4-3.1-1.4-4.8c0-19.5,0-38.9-0.1-58.4c0-3.4,1.1-4.6,4.5-4.6c15.5,0.1,30.9,0.1,46.4,0.1
		c2,0,4.1,0.1,6.1,0.4c11.1,1.4,19.6,6.3,23.3,17.5c-0.1,1,0,2,0.7,2.9C371.7,45.1,371.7,45.3,372,45.5z"/>
	<path class="st2" d="M482.4,69.7c-2.2-14.9-0.5-29.9-1.1-44.9c1,0.4,1.1,1.3,1.1,2.1C482.5,41.1,483.1,55.4,482.4,69.7z"/>
	<path class="st2" d="M56,3c-0.9,1-2.1,0.8-3.3,0.8c-15.9,0-31.8,0-47.7,0C4,3.8,2.7,4,1.8,3C19.9,2.5,38,2.6,56,3z"/>
	<path class="st2" d="M169.8,91.7c-16.9,0.1-33.9,0.1-50.9,0.2c-0.3-0.3-0.6-0.7-0.9-1c15.7,0,31.5,0,47.2-0.1
		c1.5,0,3.2,0.6,4.6-0.8C170.7,90.5,170.5,91.1,169.8,91.7z"/>
	<path class="st2" d="M533,3.1c-0.8,0.8-1.9,0.7-2.9,0.7c-13.4,0-26.8,0-40.2,0c-1.1,0-2.4,0.2-3.3-0.8C502.1,2.6,517.5,2.4,533,3.1
		z"/>
	<path class="st2" d="M895.3,91.5c-13.3,0.1-26.6,0.1-39.9,0.2c-1.6,0-3.2,0.1-4.8,0.2c-0.3-0.1-0.5-0.3-0.8-0.4
		c0.8-0.8,1.9-0.6,2.9-0.6c13.2,0,26.4,0,39.7,0C893.4,90.8,894.5,90.7,895.3,91.5z"/>
	<path class="st2" d="M439.4,90.8c12.5,0,24.9,0,37.4,0c1.9,0,3.8,0.2,5.5-0.8c0.1,1.2-0.8,1.6-1.7,1.9c-13.8,0-27.5,0-41.3,0
		l0.1-0.3C439.4,91.3,439.4,91.1,439.4,90.8z"/>
	<path class="st2" d="M148.8,3c-1.7,1.4-3.6,0.7-5.5,0.7c-7.3,0.1-14.6,0-21.8,0c-1.4,0-2.9,0.5-4.2-0.7
		C127.8,2.5,138.3,2.6,148.8,3z"/>
	<path class="st2" d="M630.2,91.5c6.7-1.6,13.5-0.4,20.3-0.7c2.5-0.1,5.2-0.8,7.6,0.7c-9,0.1-18.1,0.2-27.1,0.2
		C630.7,91.7,630.4,91.7,630.2,91.5z"/>
	<path class="st3" d="M371.9,44.9c-0.7-0.9-0.8-1.9-0.7-2.9C372.2,42.8,371.9,43.9,371.9,44.9z"/>
	<path class="st2" d="M482.3,89.9c0-0.2,0-0.4,0.1-0.6l0.1,0.3L482.3,89.9z"/>
	<path class="st3" d="M372.9,34.9c0.1,0.2,0.3,0.4,0.4,0.5c0,0.1-0.1,0.2-0.1,0.3C373,35.5,373,35.2,372.9,34.9z"/>
	<path class="st2" d="M60.4,91.6c-17.2,0.1-34.4,0.2-51.7,0.2c-0.3-0.3-0.6-0.7-0.8-1c17.5,0,35,0,52.5,0
		C60.4,91.1,60.5,91.3,60.4,91.6z"/>
	<path class="st0" d="M534.8,54.9c0-3.2,0.1-6.4,0-9.6c-0.1-1.9,0.6-2.6,2.5-2.5c2.2,0.1,4.4,0,6.6,0c8.1,0,11.8,3.2,12.6,11.1
		c0.4,3.8,0.3,7.5-0.6,11.2c-1.5,6.2-5.9,9.3-12.2,8.7c-5.9-0.6-8.8-4.1-8.9-10.8C534.8,60.4,534.8,57.6,534.8,54.9z"/>
	<path class="st0" d="M236.4,54.7c0,2.6,0,5.2,0,7.8c-0.1,5.5-3,9.1-7.9,9.8c-4.8,0.7-9.9-2.3-11.2-7.1c-1.4-5-1.3-10.1,0.4-15
		c1.5-4.4,5-6.3,9.6-7c9.2-1.3,9.1-1.4,9.1,7.5C236.4,52,236.4,53.3,236.4,54.7z"/>
	<path class="st2" d="M283.6,91.5c-11.7,0.1-23.4,0.2-35.1,0.3c-0.3-0.1-0.6-0.2-0.8-0.3c1.1-1.1,2.4-0.7,3.7-0.7
		c9.5,0,18.9,0,28.4,0C281.1,90.8,282.5,90.5,283.6,91.5z"/>
	<path class="st2" d="M730.8,91.5c1.4-1.2,3.1-0.7,4.6-0.7c13.7,0,27.3,0,41,0c0,0.3-0.1,0.6-0.1,0.9
		C761.1,91.6,745.9,91.6,730.8,91.5z"/>
	<path class="st2" d="M807,91.5c1.2-1.2,2.8-0.7,4.2-0.7c8.9,0,17.8,0,26.6,0c1.4,0,2.9-0.4,4.2,0.7c-11.4,0.1-22.8,0.2-34.2,0.3
		C807.5,91.8,807.2,91.7,807,91.5z"/>
	<path class="st2" d="M292.3,91.4c1.3-0.9,2.8-0.6,4.2-0.6c12.1,0,24.2,0,36.2,0c1.4,0,2.9-0.4,4.2,0.7
		C322.1,91.7,307.2,91.9,292.3,91.4z"/>
	<path class="st2" d="M439.4,90.8c0,0.2,0,0.5,0,0.8c-13.7,0-27.5-0.1-41.2-0.1c1.4-1.1,3.1-0.7,4.6-0.7
		C415,90.8,427.2,90.8,439.4,90.8z"/>
	<path class="st2" d="M659,91.5c1.1-1.1,2.5-0.7,3.7-0.7c9.5,0,19,0,28.4,0c1.3,0,2.7-0.3,3.8,0.7C683,91.5,671,91.5,659,91.5z"/>
	<path class="st0" d="M663.6,42.1c2.4,0.1,5.2-0.3,7.9,0.5c3,0.9,4.2,3,3.8,5.9c-0.3,2.8-2.5,3.7-5,3.8c-4.1,0.2-8.1-0.6-12.1-1.2
		c-3-0.5-3.9-2.2-3.9-5.2c0-2.7,0.8-4.1,3.7-3.9C659.8,42.2,661.5,42.1,663.6,42.1z"/>
</g>
</svg>
