<?xml version="1.0" encoding="utf-8"?>
<!-- Generator: Adobe Illustrator 27.0.1, SVG Export Plug-In . SVG Version: 6.00 Build 0)  -->
<svg version="1.1" id="Layer_1" xmlns="http://www.w3.org/2000/svg" xmlns:xlink="http://www.w3.org/1999/xlink" x="0px" y="0px"
	 viewBox="0 0 552 122" style="enable-background:new 0 0 552 122;" xml:space="preserve">
<style type="text/css">
	.st0{fill:#5E4F3F;}
</style>
<g>
	<path class="st0" d="M49,122c-1.1-1.6-2.2-3.2-4-5.9c3.3-2.4,6.7-5,9.7-7.1C40.9,95.2,28.2,82.5,14.5,68.8c-2,2.9-4.4,6.4-6.6,9.6
		c-8.4-4.8-8.9-6.5-3.3-11.9c3.6-3.4,3.9-5.8,0.1-9.3c-5.6-5.1-5.2-6.7,2.9-11.9c1.8,2.3,3.7,5.1,6.1,7.3c0.9,0.8,3.6,1,4.4,0.3
		C30.3,41.1,42.3,29,54.7,16.7c-2.5-2.6-4.5-5.1-6.8-7c-2.8-2.3-2.1-4,0.1-6.1c2.2-2,4.2-4.2,6.8-0.6c1.8,2.4,3.7,4.7,6.7,8.6
		c3-3.8,5-6.3,6.9-8.8c1.7-2.2,3.4-2.5,5.4-0.4c1.7,1.9,4.4,3.6,1.7,6.7c-0.2,0.2-0.4,0.5-0.7,0.7c-6.1,7-6.1,7,0.3,13.5
		c9.4,9.4,18.8,18.9,28.1,28.4c2.7,2.7,4.8,3.4,7.2-0.1c0.2-0.3,0.5-0.5,0.7-0.7c6.1-6.2,6.1-6.2,11.8,1.4c-1.4,1.5-2.7,3.1-4.3,4.6
		c-1.6,1.5-3.4,2.7-4.5,3.5c2.9,5,5.8,8.8,7.4,13c0.5,1.4-2.1,3.9-3.2,6c-0.9-0.3-1.8-0.5-2.8-0.8c-2-2.5-4-4.9-5.9-7.4
		c-1.5-1.9-3-2.4-4.9-0.4c-11.4,11.4-22.9,22.8-34.2,34.4c-0.7,0.8-0.2,3,0.2,4.4c0.3,1,1.5,1.7,2.3,2.5c5,5,5,5,0.1,9.9
		c-1.3,0-2.7,0-4,0c-7.6-9.5-8.1-9.5-15,0C52.3,122,50.7,122,49,122z M80.8,82.5c6.5-6.8,13-13.7,18.7-19.7
		c-6.7-6.9-13.2-13.5-19.4-19.8c-0.6,7.5-0.6,7.5-9.1,7.5c-6.3,0-12.6,0-19,0c-8,0-8,0-9.5-7.4c0-0.1-0.3-0.2-0.3-0.2
		c-6.2,5.9-12.4,11.8-18.5,17.8c-0.5,0.5-0.3,2.4,0.3,3c6,6.1,12.1,12.1,18.7,18.5c0.2-1.5,0.4-2.1,0.4-2.7c0.2-5.9,0.7-6.4,6.6-6.1
		c4.3,0.2,8.6,0.2,13,0.3c5.4,0,10.9,0,15.8,0C79.4,77.1,80.1,79.8,80.8,82.5c-12.1,0-24.3,0-36.5,0c-0.2,0.5-0.4,0.9-0.6,1.4
		c4.8,4.6,9.7,9,14.2,13.8c2.8,3.1,4.6,2.5,7.2-0.2C70.1,92.3,75.5,87.5,80.8,82.5z M44.5,40.7c11.2,0,22.5,0,34.7,0
		C72.7,34.5,67,29,61.5,23.7C55.8,29.4,50.2,35.1,44.5,40.7z"/>
	<path class="st0" d="M552,82c-0.3,0-0.7,0.1-1,0.1c-8.8,1.1-9,0.8-7.4-9.1c2.8,0.3,5.6,0.6,8.4,0.9C552,76.7,552,79.3,552,82z"/>
	<path class="st0" d="M169.2,78.5c-3.7-6.5-6.9-12.2-10.2-18c-0.4,0-0.8,0.1-1.2,0.1c0,5.7,0.3,11.4-0.1,17
		c-0.1,1.8-1.7,4.6-3.3,5.1c-4.2,1.4-5.9-0.5-5.9-4.9c0.1-10.3,0-20.6,0.1-31c0-1.8,0.2-3.6,0.2-5.2c7.8-1.4,10.4-0.3,13.9,5.8
		c1.9,3.3,3.7,6.7,5.6,10c0.1,0.3,0.5,0.4,1.3,1c1.9-3.5,3.8-6.8,5.7-10.2c4.4-8,4.4-8,14.7-6.6c0,6,0,12.1,0,18.2
		c0,6.2-0.2,12.3,0.1,18.5c0.2,3.6-1.3,4.5-4.6,4.7c-3.5,0.1-4.9-1.2-4.8-4.6c0.1-5.8,0-11.5,0-17.3c-0.4-0.1-0.8-0.2-1.2-0.3
		C176.1,66.3,172.9,72,169.2,78.5z"/>
	<path class="st0" d="M516.8,40c12.2,0.1,21.8,9.8,21.6,22c-0.2,12.2-9.9,21.8-22.1,21.7c-12.1-0.1-21.8-10.1-21.6-22.2
		C494.8,49.3,504.4,40,516.8,40z M516.5,49c-6.9,0-12.6,5.8-12.7,12.8c0,7.3,5.7,12.9,13,12.8c7.1-0.2,12.5-5.8,12.4-12.9
		C529.1,54.7,523.4,49,516.5,49z"/>
	<path class="st0" d="M304,45c-3.3,7.1-3.6,7.2-10.5,4.4c-1.1-0.4-2.4-1.1-3.3-0.8c-2.5,0.8-6.3,1.5-6.9,3.2c-1.3,3.5,2.7,3.7,5,4.5
		c4.2,1.5,8.6,2.6,12.7,4.5c4.7,2.1,6.8,6.1,6.5,11.4c-0.4,5.1-3.3,8.1-7.9,9.9c-8.9,3.6-21.3,0.9-28.2-6c4-6.4,4.4-6.2,11.3-3.7
		c3.7,1.3,8,1.3,12,1.4c0.8,0,2.3-1.6,2.4-2.6c0.1-1-1-2.4-1.9-3.1c-1.2-0.8-2.7-1.1-4.2-1.6c-2.9-0.9-5.8-1.6-8.6-2.7
		c-6.5-2.4-9.7-6.5-9.3-12c0.4-5.7,4.3-10,10.9-11.4C291.3,39.2,298.2,39.8,304,45z"/>
	<path class="st0" d="M318.1,55.3c0-3.3,0.2-6.7-0.1-10c-0.4-3.8,1.7-4.4,4.7-4.6c3.3-0.2,4.6,1.3,4.6,4.4c0,5.3,0,10.7,0.1,16
		c0,2,0.1,4,0.5,5.9c1,4.9,4.6,7.4,9.4,7.1c4.3-0.3,7.7-3.6,7.9-8.2c0.3-6.6,0.2-13.3,0.1-19.9c0-3.1,0.6-5,4.4-4.9
		c3.4,0.1,5.3,0.8,5.2,4.7c-0.2,6.7,0.2,13.3-0.1,20c-0.5,10.4-8.3,18-18.3,18.1c-10,0.1-17.6-7.3-18.2-18c-0.2-3.5,0-7,0-10.5
		C318.1,55.3,318.1,55.3,318.1,55.3z"/>
	<path class="st0" d="M428.7,67.3c1.4-1.9,2.3-4,3.8-5c1.2-0.8,3.6-1,4.8-0.4c2.2,1.2,2.6,3.5,0.3,5.3c-4.3,3.3-4.1,6.3,0,9.5
		c2.3,1.8,1.8,3.6-0.2,5.4c-1.9,1.8-3.4,1.7-4.9-0.4c-2.8-3.8-5.4-4.4-9.3-0.9c-4,3.5-10.5,2.4-14.5-1.6c-4.1-4.1-5.1-10.4-1.7-15
		c2.3-3.1,2.7-5.3,0.6-8.8c-2.2-3.7-0.9-7.8,2.1-11c3-3.3,6.8-3.9,11-2.6c4.2,1.3,6.1,4.4,6.8,8.4c0.1,0.9-1.1,3-1.5,2.9
		c-1.9-0.3-4.7-0.6-5.4-1.8c-1.4-2.6-2.9-4.1-5.1-2c-0.8,0.8-0.5,4.1,0.4,5.3c2.8,3.5,6.2,6.5,9.4,9.7
		C425.9,64.8,426.6,65.5,428.7,67.3z M416.2,64.4c-4.6,4-5.4,7.6-2.7,9.9c2.6,2.2,5.9,2.2,7.5-0.4C424.5,68.3,417.5,68.2,416.2,64.4
		z"/>
	<path class="st0" d="M489.7,45.6c-2.6,4.3-5.3,7-10.7,4.5c-4.7-2.2-10.1-0.3-13.3,3.8c-3.5,4.5-3.8,10.4-0.6,14.9
		c3.1,4.4,9,7.2,13.5,4.9c6-3.2,8.3,0.3,11.1,4.1c-7.9,8.1-21,7.9-29.7-0.3c-8.2-7.8-8.7-21.9-0.9-30.3
		C467.4,38.2,480.6,37.4,489.7,45.6z"/>
	<path class="st0" d="M243,50.9c-1.7-0.2-3-0.4-4.3-0.5c-8.3-0.3-8.3-0.3-7.2-9.3c10,0,20.1-0.1,30.1,0.2c0.9,0,2.4,3,2.2,4.4
		c-0.2,1.6-1.6,3.8-3,4.5c-2.4,1.1-6.7,0.2-7.7,1.8c-1.5,2.3-1,6-1.1,9.1c-0.1,6-0.2,12,0,18c0.2,4.1-2.4,3.4-4.9,3.6
		c-2.8,0.3-4.4-0.4-4.3-3.7C243.1,69.7,243,60.4,243,50.9z"/>
	<path class="st0" d="M371.9,51.9c-1.2-1.6-3.1-3.1-3.5-4.9c-1-4.1,0.3-6.7,5.4-6c2.8,0.4,5.7-0.3,8.4,0.2c1.7,0.3,4.3,1.7,4.6,3.1
		c0.5,2.1,1.6,5.4-2.5,6.4c-1,0.2-2,2.5-2.1,3.8c-0.2,5-0.3,10,0,14.9c0.1,1.3,2,2.4,2.6,3.8c0.9,2,1.9,4.2,1.9,6.3
		c0,0.9-2.3,2.5-3.6,2.7c-3.4,0.4-7,0.4-10.4,0.1c-1.5-0.1-4.1-1.3-4.1-1.8c0.2-2.5,1-5,1.9-7.3c0.5-1.3,2.4-2.2,2.4-3.4
		c0.2-6.1,0.1-12.3,0.1-18.4C372.6,51.5,372.2,51.7,371.9,51.9z"/>
	<path class="st0" d="M208,51.1c-7.6-1-4.3-5.8-3.9-10c4.5,0,8.8,0.2,13.1-0.1c3.7-0.2,5.3,1,4.7,4.8c-0.2,1.1,0,2.3,0,3.9
		c-4.5,0.3-4.8,3.4-4.6,7c0.2,3.5,0,7,0.1,10.5c0.1,2.6-1,5.7,3.3,6.5c0.8,0.2,1.2,4.1,1,6.2c-0.1,0.9-2.2,2.2-3.6,2.3
		c-3.1,0.3-6.4,0.4-9.5,0c-1.8-0.2-4.5-1.5-4.7-2.6c-0.4-2.3-2-5.8,2.6-6.7c0.7-0.1,1.4-1.7,1.5-2.6C208.1,64,208,57.6,208,51.1z"/>
	<path class="st0" d="M43.5,66.2c-1.1-8.8-0.9-9.1,7.5-9.1c8,0,15.9,0.2,23.9-0.1c3.8-0.1,5.1,1.1,5.2,5.1c0.1,4.1-1.9,4.2-4.9,4.2
		C64.6,66.1,54,66.2,43.5,66.2z"/>
</g>
</svg>
