<?xml version="1.0" encoding="utf-8"?>
<!-- Generator: Adobe Illustrator 27.0.1, SVG Export Plug-In . SVG Version: 6.00 Build 0)  -->
<svg version="1.1" id="Layer_1" xmlns="http://www.w3.org/2000/svg" xmlns:xlink="http://www.w3.org/1999/xlink" x="0px" y="0px"
	 viewBox="0 0 800 133" style="enable-background:new 0 0 800 133;" xml:space="preserve">
<style type="text/css">
	.st0{fill:#060606;}
	.st1{fill:#020202;}
	.st2{fill:#444444;}
	.st3{fill:#424242;}
	.st4{fill:#F7F7F7;}
	.st5{fill:#F0556D;}
	.st6{fill:#010101;}
	.st7{fill:#030303;}
	.st8{fill:#EB1C3B;}
</style>
<g>
	<path class="st0" d="M798.73,123.85c-1.69,3.53-4.91,4.16-8.35,4.24c-6.15,0.14-12.31,0.14-18.45,0.35
		c-4.67,0.16-4.87-2.79-4.86-6.23c0.04-28.67,0.02-57.35,0.02-86.02c0-3.61,0-7.23,0-10.92c-2.34,0.19-2.2,1.71-2.51,2.91
		c-7.35,29-14.69,58.01-22.06,87.01c-0.53,2.08-1.24,4.11-1.86,6.16c-1.18,3.89-3.64,6.22-7.85,6.45
		c-4.81,0.26-9.62,0.57-14.43,0.77c-4.15,0.18-6.42-1.91-7.28-5.93c-6.74-31.54-16.04-62.44-23.7-93.75
		c-0.32-1.3-0.14-3.04-2.28-3.95c-1.06,4.09-0.54,8.13-0.54,12.07c-0.05,27.68,0.07,55.35,0.11,83.03
		c0.01,7.7-6.81,11.38-13.66,7.45c-1.15-0.66-1.6-1.65-1.73-2.84c-0.19-1.81-0.41-3.62-0.41-5.44c-0.02-35.97-0.04-71.93,0.01-107.9
		c0.01-3.74-0.3-7.75,3.62-10.18c9.02,0.03,18.05,0.11,27.07,0.05c1.7-0.01,3.64,0.75,5.07-0.93c0.67,0,1.33,0,2,0
		c-0.69,1.15-0.06,2.28,0.18,3.34c5.47,24.67,10.99,49.33,16.5,74c1.38,6.16,2.76,12.32,4.28,19.1c2.32-2.77,2.35-5.36,2.91-7.72
		c6.04-25.22,12-50.46,18.01-75.69c1.12-4.71,2.67-9.22,7.12-12.01c12.89-0.02,25.77-0.02,38.66-0.05c1.83,0,3.65-0.07,5.25,1.02
		c0,0.33,0,0.66,0,0.99c-1.25,0.73-1.01,1.98-1.01,3.1C798.6,45.52,798.67,84.69,798.73,123.85z"/>
	<path class="st1" d="M88.28,0.28c-1.23,1.88-0.29,3.84-0.13,5.74c0.62,7.64-1.39,9.71-8.97,9.05c-11.76-1.03-23.53-0.39-35.3-0.3
		c-6.83,0.05-8.65,2.29-8.7,9.21c-0.07,8.94,0.05,17.88-0.14,26.81c-0.07,3.34,1.22,4.27,4.39,4.24c13.13-0.12,26.27,0.1,39.41-0.14
		c4.42-0.08,6.44,1.2,6.33,5.8c-0.17,7.63-1,9.14-6.53,9.17C66,69.96,53.36,70.1,40.73,69.81c-4.85-0.11-6,1.99-5.94,6.2
		c0.21,13.9,0.32,27.79,0.35,41.69c0.02,8.96-1.41,10.27-10.39,10.41c-8.13,0.13-16.26,0.32-24.39,0.49c0-0.66,0-1.33,0-1.99
		c1.39-0.92,0.96-2.36,0.96-3.61C1.32,85.01,1.28,47.04,1.25,9.06C2.8,4.83,6,2.44,10.17,1.14C34.5,1.18,58.83,1.22,83.16,1.25
		c1.12,0,2.36,0.26,3.12-0.96C86.95,0.28,87.62,0.28,88.28,0.28z"/>
	<path class="st2" d="M798.73,123.85c-0.06-39.16-0.13-78.33-0.18-117.49c0-1.12-0.24-2.36,1.01-3.1c0,40.12,0,80.24,0,120.36
		l-0.37,0.3L798.73,123.85z"/>
	<path class="st2" d="M1.25,9.06c0.03,37.98,0.07,75.96,0.09,113.93c0,1.26,0.42,2.69-0.96,3.61c0-39.12,0-78.25,0-117.37
		C0.65,9.09,0.94,9.03,1.25,9.06z"/>
	<path class="st3" d="M492.88,0.28c-0.05,0.35-0.1,0.7-0.16,1.05c-26.33-0.07-52.65-0.15-78.98-0.22c-0.01-0.3,0.06-0.58,0.22-0.83
		C440.26,0.28,466.57,0.28,492.88,0.28z"/>
	<path class="st2" d="M86.28,0.28c-0.76,1.22-2,0.97-3.12,0.96C58.83,1.22,34.5,1.18,10.17,1.14c0.04-0.29,0.11-0.57,0.19-0.85
		C35.67,0.28,60.98,0.28,86.28,0.28z"/>
	<path class="st3" d="M755.66,1.3c-0.02-0.34-0.03-0.68-0.05-1.02c13.65,0,27.31-0.02,40.96,0.03c1.27,0.01,3.61-1.11,3,1.96
		c-1.6-1.09-3.42-1.02-5.25-1.02C781.43,1.28,768.55,1.29,755.66,1.3z"/>
	<path class="st4" d="M10.36,0.28c-0.08,0.28-0.15,0.57-0.19,0.85C6,2.44,2.8,4.83,1.25,9.06c-0.31-0.02-0.6,0.03-0.88,0.18
		c0-2.98-0.95-8.02,0.19-8.54C3.31-0.57,7.03,0.28,10.36,0.28z"/>
	<path class="st3" d="M230.14,132.57c-0.09-0.32-0.1-0.65-0.04-0.97c12.07,0.05,24.14,0.09,36.21,0.14
		c0.05,0.31-0.02,0.59-0.21,0.84C254.12,132.57,242.13,132.57,230.14,132.57z"/>
	<path class="st2" d="M704.66,0.28c-1.43,1.68-3.37,0.92-5.07,0.93c-9.02,0.05-18.05-0.02-27.07-0.05c0.03-0.3,0.09-0.59,0.18-0.87
		C683.35,0.28,694.01,0.28,704.66,0.28z"/>
	<path class="st3" d="M138.23,0.28c-0.05,0.35-0.11,0.7-0.16,1.05c-9.9-0.01-19.81-0.01-29.71-0.02c-0.03-0.34-0.07-0.69-0.1-1.03
		C118.25,0.28,128.24,0.28,138.23,0.28z"/>
	<path class="st3" d="M279.14,1.3c-0.02-0.34-0.03-0.68-0.05-1.02c9.99,0,19.98,0,29.97,0c-0.02,0.34-0.03,0.68-0.05,1.02
		C299.05,1.3,289.1,1.3,279.14,1.3z"/>
	<path class="st5" d="M372,0.28c-0.05,0.35-0.1,0.7-0.16,1.05c-9.94-0.02-19.88-0.04-29.83-0.06c0-0.33,0.01-0.66,0.01-0.99
		C352.02,0.28,362.01,0.28,372,0.28z"/>
	<path class="st3" d="M514.8,1.24c0.1-0.32,0.12-0.64,0.05-0.96c9.99,0,19.98,0,29.97,0c-0.05,0.35-0.11,0.7-0.16,1.05
		C534.71,1.3,524.75,1.27,514.8,1.24z"/>
	<path class="st3" d="M578.71,1.23c0.07-0.31,0.09-0.63,0.07-0.95c9.99,0,19.98,0,29.97,0c-0.05,0.35-0.11,0.7-0.16,1.05
		C598.64,1.3,588.68,1.26,578.71,1.23z"/>
	<path class="st3" d="M175.42,131.75c0.04,0.3-0.04,0.58-0.23,0.82c-9.99,0-19.98,0-29.97,0c0.11-0.33,0.09-0.65-0.05-0.96
		C155.26,131.66,165.34,131.7,175.42,131.75z"/>
	<path class="st3" d="M186.93,1.08c-0.07-0.31,0.02-0.58,0.25-0.8c9.32,0,18.65,0,27.97,0c-0.05,0.35-0.1,0.7-0.16,1.05
		C205.64,1.25,196.29,1.16,186.93,1.08z"/>
	<path class="st6" d="M413.74,1.11c26.33,0.07,52.65,0.15,78.98,0.22c0,1.82-0.03,3.63-0.01,5.45c0.08,7.84-0.3,8.23-8.47,7.9
		c-11.8-0.48-23.62-0.68-35.4,0.06c-7.01,0.44-8.58,2.23-8.76,9.34c-0.22,8.77-0.01,17.56-0.2,26.33c-0.08,3.87,1.75,4.72,5.22,4.68
		c12.98-0.15,25.97,0.08,38.94-0.18c4.56-0.09,6.22,1.27,5.97,5.94c-0.47,8.77-0.53,9.06-9.52,9.06c-11.82,0-23.64,0.13-35.45-0.07
		c-4-0.07-5.21,1.4-5.17,5.22c0.15,14.74,0.07,29.49,0.05,44.23c-0.01,7.16-1.5,8.69-8.78,8.78c-6.66,0.08-13.33-0.26-19.97,0.11
		c-4.64,0.26-5.53-1.59-5.47-5.77c0.22-15.08,0.09-30.16,0.09-45.24c0-7.26,0-7.26-7.53-7.26c-4.91,0-9.82,0-16.01,0
		c7-5.45,12.89-10.19,18.95-14.7c3.21-2.38,4.7-5.21,4.64-9.26c-0.17-10.77-0.12-21.54-0.03-32.32
		C405.87,7.91,407.97,3.32,413.74,1.11z"/>
	<path class="st7" d="M578.71,1.23c9.96,0.03,19.92,0.07,29.89,0.1c0.11,32.95,0.21,65.91,0.34,98.86c0.01,1.97,0.15,3.96,0.43,5.92
		c0.69,4.76,3.56,7.27,8.34,7.68c9.96,0.85,19.94,0.22,29.91,0.38c6.16,0.1,5.96,0.05,6,8.75c0.02,5.04-2.53,5.36-6.65,5.3
		c-16.63-0.23-33.27-0.11-49.9-0.15c-2.15-0.01-4.32-0.12-6.46-0.39c-9.44-1.17-13.84-5.7-14.67-15.12
		c-0.17-1.97-0.14-3.97-0.14-5.96c-0.01-32.13-0.01-64.26,0-96.39C575.8,6.91,575.53,3.51,578.71,1.23z"/>
	<path class="st1" d="M279.14,1.3c9.96,0,19.91,0,29.87,0c-0.01,30.82,0.5,61.66-0.22,92.47c-0.46,19.5-14.81,33.4-35.59,36.84
		c-2.29,0.38-4.59,0.76-6.88,1.13c-12.07-0.05-24.14-0.09-36.21-0.14c-2.14-3.56-0.77-7.42-0.92-11.14c-0.1-2.44,1.93-1.75,3.27-1.8
		c7.8-0.25,15.61,0.05,23.4-0.81c13.69-1.51,20.13-8.36,20.21-22.16c0.11-20.2,0.03-40.4,0.03-60.6c0-8.61,0.01-17.22-0.01-25.83
		C276.08,6.21,276.41,3.3,279.14,1.3z"/>
	<path class="st7" d="M514.8,1.24c9.96,0.03,19.91,0.06,29.87,0.09c0.1,39.72,0.23,79.45,0.25,119.17c0,6.28-1.4,7.45-7.71,7.57
		c-6.81,0.14-13.62,0.18-20.43,0.36c-3.54,0.09-5.1-1.37-5.09-4.99c0.1-38.24,0.13-76.48,0.16-114.72
		C511.85,5.82,512.29,3.14,514.8,1.24z"/>
	<path class="st6" d="M338.94,99.26c0-8.28,0.13-16.57-0.06-24.85c-0.08-3.33,0.76-4.82,4.42-4.73c8.15,0.21,16.31,0.18,24.46,0.01
		c3.17-0.07,4.49,0.86,4.46,4.19c-0.12,15.73-0.08,31.47-0.07,47.2c0,4.66-2.12,7.03-6.95,7.03c-7.64,0.01-15.29,0.18-22.93,0.29
		c-2.63,0.04-3.29-1.39-3.27-3.8c0.1-8.45,0.04-16.9,0.04-25.35C339,99.26,338.97,99.26,338.94,99.26z"/>
	<path class="st8" d="M342.01,1.27c9.94,0.02,19.88,0.04,29.83,0.06c0.1,12.56,0.2,25.12,0.31,37.69c0.03,2.98-0.95,5.36-3.45,7.27
		c-8.7,6.63-17.28,13.41-25.94,20.09c-0.87,0.67-1.68,1.91-2.97,1.41c-1.46-0.57-0.73-2.02-0.73-3.06
		c-0.09-18.52-0.14-37.04-0.16-55.55C338.89,6.17,339.15,3.19,342.01,1.27z"/>
	<path class="st7" d="M186.93,1.08c9.36,0.08,18.71,0.17,28.07,0.25c0.08,31.75,0.42,63.51,0.12,95.26
		c-0.17,18.01-11.12,29.86-28.98,33c-3.59,0.63-7.14,1.44-10.71,2.16c-10.08-0.05-20.17-0.1-30.25-0.14
		c-2.4-1.36-5.15-1.15-7.73-1.67c-21.43-4.34-31.35-15.67-31.59-37.41c-0.3-27.65-0.09-55.3-0.05-82.95c0-2.98,0.14-5.99,2.56-8.26
		c9.9,0.01,19.81,0.01,29.71,0.02c0.11,31.16,0.24,62.32,0.31,93.48c0.05,19.44,11.25,27.94,30.35,22.92
		c10.49-2.76,13.87-7,13.96-18.04c0.1-11.93,0.02-23.87,0.02-35.81c0-17.9-0.03-35.81,0.03-53.71
		C182.75,6.59,182.37,2.66,186.93,1.08z"/>
</g>
</svg>
