<?xml version="1.0" encoding="utf-8"?>
<!-- Generator: Adobe Illustrator 27.0.1, SVG Export Plug-In . SVG Version: 6.00 Build 0)  -->
<svg version="1.1" id="Layer_1" xmlns="http://www.w3.org/2000/svg" xmlns:xlink="http://www.w3.org/1999/xlink" x="0px" y="0px"
	 viewBox="0 0 544 185" style="enable-background:new 0 0 544 185;" xml:space="preserve">
<style type="text/css">
	.st0{fill:none;}
	.st1{fill:#020202;}
	.st2{fill:#050505;}
	.st3{fill:#F3F3F3;}
	.st4{fill:#828282;}
	.st5{fill:#030303;}
	.st6{fill:#CD2E30;}
</style>
<g>
	<path class="st0" d="M0.27,138.99c0-44.92,0.05-89.84-0.1-134.76C0.16,0.81,0.85,0.14,4.27,0.14
		c123.91,0.11,247.81,0.09,371.72,0.09c-1.49,0.85-2.25,1.92-2.22,3.85c0.12,10.65,0.05,21.29,0.06,31.94
		c0,1.44-0.35,3.16,1.89,3.37c1.75,0.16,3.62,0.76,4.5-1.65c1.44-3.95,4.57-4.65,8.41-4.62c16.32,0.12,32.64,0.23,48.96-0.06
		c4.6-0.08,5.5,1.46,5.45,5.7c-0.21,19.3-0.09,38.6-0.09,57.9c0,22.29-0.01,44.59,0,66.88c0,4.79-1.3,8.7-6.86,9.16
		c-2.63,0.22-2.18,1.87-2.31,3.47c-0.17,2.18,0.92,2.93,2.96,2.93c15.32-0.02,30.64-0.02,45.96-0.01c1.88,0,3.25-0.45,3.22-2.76
		c-0.03-1.94,0.02-3.43-2.74-3.66c-4.64-0.39-6.43-3.61-6.43-7.95c-0.01-42.59,0.01-85.18-0.05-127.77c0-2.72,0.76-3.84,3.68-3.82
		c17.15,0.11,34.31,0.06,51.46,0.05c2.75,0,4.99,0.99,5.98,3.6c1.2,3.18,3.41,3.15,6.03,2.39c0,47.05-0.08,94.1,0.13,141.15
		c0.02,4.35-1.27,4.69-5.02,4.69c-177.24-0.1-354.47-0.09-531.71-0.09c0.36-4.25,2.66-5.84,6.91-5.87
		c21.78-0.18,43.59-0.39,65.21-3.19c23.07-2.99,39.74-14.88,48.2-37.1c3.36-8.83,4.08-18.07,4.11-27.41
		c0.1-29.92,0.21-59.84,0.33-89.75c0.01-1.33-0.11-2.71,0.22-3.97c0.77-2.93,1.85-6.08,5.41-6.27c3.21-0.17,3.89-1.51,3.73-4.33
		c-0.18-3.21-2.46-2.6-4.33-2.61c-9.82-0.05-19.64-0.02-29.46-0.02c-6.99,0-13.98,0-20.97,0.01c-1.86,0-3.29,0.51-3.26,2.79
		c0.02,1.88-0.14,3.84,2.53,3.98c5.85,0.3,7.04,4.61,7.05,9.04c0.06,24.76-0.12,49.53-0.26,74.29c-0.05,8.47,0.36,16.95-0.47,25.41
		c-1.28,13.04-7.25,20.12-20.14,22.29c-19.42,3.28-39.1,2.5-58.7,2.73c-2.51,0.03-4.52-1.38-5.45-3.7c-1.4-3.5-3.57-3.93-6.58-2.16
		C0.98,139.04,0.63,139.01,0.27,138.99z M264.29,38.46c19.37,42.61,38.24,84.09,57.08,125.59c2.12,4.66,0.59,7.85-4.53,8.57
		c-2.53,0.36-2.95,1.37-2.98,3.44c-0.04,2.44,1.19,3.12,3.41,3.05c3.33-0.1,6.66-0.02,9.99-0.02c12.49,0,24.98,0.01,37.47-0.02
		c1.4,0,3.34,0.49,3.36-1.81c0.01-1.49,0.98-4.18-1.14-4.24c-6.38-0.17-7.69-5.24-9.67-9.39c-18.65-39.21-37.16-78.5-55.72-117.76
		c-4.39-9.29-8.91-18.52-13.19-27.86c-1.18-2.59-3.07-6.09,2.06-6.7c2.65-0.32,3.91-1.03,3.83-3.88c-0.09-3.36-2.35-3.05-4.53-3.05
		c-11.66-0.01-23.31,0-34.97,0c-5.16,0-10.32,0-15.49,0.01c-1.91,0-3.24,0.64-3.19,2.87c0.04,1.66-0.19,3.21,2.09,3.89
		c5.89,1.76,5.87,1.86,3.23,7.63c-4.76,10.4-9.53,20.79-14.31,31.18c-17.44,37.95-34.86,75.9-52.39,113.81
		c-1.69,3.66-3.16,8.06-7.94,8.82c-2.46,0.39-3.61,1.07-3.47,3.63c0.15,2.9,2.07,2.89,4.19,2.89c8.33-0.03,16.65-0.01,24.98-0.01
		c5.83,0,11.66-0.04,17.48,0.01c2.18,0.02,2.98-1.12,2.98-3.07c0-1.51,0.06-3.21-2.12-3.24c-5.92-0.07-4.75-2.9-3.05-6.71
		c15.28-34.38,30.4-68.83,45.6-103.25C256.82,55,260.37,47.2,264.29,38.46z M290.06,117.38c0.05-14.48-11.39-26.08-25.79-26.15
		c-14.22-0.07-26.05,11.78-26.02,26.06c0.03,14.15,11.52,25.65,25.69,25.69C278.72,143.03,290.01,131.96,290.06,117.38z"/>
	<path class="st1" d="M543.87,39.17c-2.62,0.76-4.83,0.79-6.03-2.39c-0.99-2.62-3.23-3.61-5.98-3.6
		c-17.15,0.01-34.31,0.06-51.46-0.05c-2.92-0.02-3.69,1.11-3.68,3.82c0.06,42.59,0.03,85.18,0.05,127.77c0,4.34,1.79,7.56,6.43,7.95
		c2.76,0.23,2.71,1.72,2.74,3.66c0.03,2.31-1.34,2.76-3.22,2.76c-15.32-0.01-30.64-0.02-45.96,0.01c-2.04,0-3.14-0.74-2.96-2.93
		c0.13-1.6-0.32-3.25,2.31-3.47c5.56-0.46,6.86-4.37,6.86-9.16c-0.01-22.29,0-44.59,0-66.88c0-19.3-0.12-38.6,0.09-57.9
		c0.05-4.24-0.85-5.78-5.45-5.7c-16.32,0.29-32.64,0.18-48.96,0.06c-3.84-0.03-6.97,0.67-8.41,4.62c-0.88,2.41-2.75,1.81-4.5,1.65
		c-2.23-0.21-1.88-1.92-1.89-3.37c-0.02-10.65,0.05-21.3-0.06-31.94c-0.02-1.93,0.74-3,2.22-3.85c1,0,2,0,3,0
		c1.42,3.66,3.62,5.91,8.01,5.9c48.25-0.09,96.51-0.06,144.76-0.04c4.07,0,6.72-1.51,7.1-5.86c4.23-0.9,5.26,0.75,5.12,5
		C543.63,16.53,543.87,27.85,543.87,39.17z"/>
	<path class="st2" d="M1.34,139.06c3.01-1.77,5.18-1.34,6.58,2.16c0.93,2.32,2.94,3.73,5.45,3.7c19.6-0.23,39.28,0.55,58.7-2.73
		c12.89-2.17,18.86-9.25,20.14-22.29c0.83-8.46,0.42-16.94,0.47-25.41C92.82,69.73,93,44.96,92.94,20.2
		c-0.01-4.43-1.2-8.74-7.05-9.04c-2.68-0.14-2.51-2.1-2.53-3.98c-0.03-2.27,1.39-2.78,3.26-2.79c6.99-0.01,13.98-0.01,20.97-0.01
		c9.82,0,19.64-0.02,29.46,0.02c1.87,0.01,4.15-0.6,4.33,2.61c0.16,2.82-0.53,4.16-3.73,4.33c-3.56,0.19-4.64,3.34-5.41,6.27
		c-0.33,1.26-0.21,2.64-0.22,3.97c-0.12,29.92-0.23,59.84-0.33,89.75c-0.03,9.34-0.75,18.58-4.11,27.41
		c-8.46,22.21-25.13,34.11-48.2,37.1c-21.62,2.8-43.43,3.01-65.21,3.19c-4.25,0.03-6.56,1.62-6.91,5.87c-2,0-4,0-6,0
		C1.3,169.63,1.32,154.34,1.34,139.06z"/>
	<path class="st3" d="M538.87,0.24c-0.39,4.35-3.04,5.86-7.1,5.86C483.51,6.07,435.26,6.05,387,6.14c-4.39,0.01-6.59-2.24-8.01-5.9
		C432.28,0.24,485.58,0.24,538.87,0.24z"/>
	<path class="st4" d="M1.34,139.06c-0.02,15.28-0.04,30.57-0.07,45.85c-2.14-0.4-0.93-2.05-0.94-3
		c-0.09-14.31-0.06-28.62-0.06-42.92C0.63,139.01,0.98,139.04,1.34,139.06z"/>
	<path class="st5" d="M264.29,38.46c-3.92,8.74-7.47,16.54-10.93,24.38c-15.19,34.42-30.32,68.87-45.6,103.25
		c-1.69,3.81-2.87,6.64,3.05,6.71c2.17,0.02,2.11,1.72,2.12,3.24c0.01,1.96-0.8,3.09-2.98,3.07c-5.83-0.05-11.66-0.01-17.48-0.01
		c-8.33,0-16.65-0.02-24.98,0.01c-2.12,0.01-4.04,0.01-4.19-2.89c-0.14-2.56,1.01-3.24,3.47-3.63c4.79-0.76,6.25-5.16,7.94-8.82
		c17.53-37.91,34.94-75.86,52.39-113.81c4.78-10.39,9.54-20.78,14.31-31.18c2.64-5.76,2.66-5.87-3.23-7.63
		c-2.27-0.68-2.05-2.23-2.09-3.89c-0.05-2.22,1.28-2.86,3.19-2.87c5.16-0.01,10.32-0.01,15.49-0.01c11.66,0,23.31,0,34.97,0
		c2.17,0,4.44-0.32,4.53,3.05c0.08,2.85-1.18,3.56-3.83,3.88c-5.13,0.62-3.24,4.12-2.06,6.7c4.28,9.34,8.79,18.57,13.19,27.86
		c18.56,39.26,37.07,78.54,55.72,117.76c1.97,4.15,3.29,9.22,9.67,9.39c2.12,0.06,1.15,2.75,1.14,4.24
		c-0.02,2.3-1.96,1.81-3.36,1.81c-12.49,0.03-24.98,0.02-37.47,0.02c-3.33,0-6.66-0.08-9.99,0.02c-2.22,0.07-3.45-0.62-3.41-3.05
		c0.04-2.07,0.46-3.08,2.98-3.44c5.12-0.73,6.64-3.91,4.53-8.57C302.53,122.55,283.66,81.06,264.29,38.46z"/>
	<path class="st6" d="M290.06,117.38c-0.05,14.57-11.34,25.65-26.12,25.6c-14.17-0.04-25.66-11.54-25.69-25.69
		c-0.03-14.28,11.81-26.13,26.02-26.06C278.67,91.3,290.11,102.91,290.06,117.38z"/>
</g>
</svg>
