<?xml version="1.0" encoding="utf-8"?>
<!-- Generator: Adobe Illustrator 27.0.1, SVG Export Plug-In . SVG Version: 6.00 Build 0)  -->
<svg version="1.1" id="Layer_1" xmlns="http://www.w3.org/2000/svg" xmlns:xlink="http://www.w3.org/1999/xlink" x="0px" y="0px"
	 viewBox="0 0 552 122" style="enable-background:new 0 0 552 122;" xml:space="preserve">
<g>
	<path d="M49,122c-1.09-1.62-2.18-3.23-3.96-5.88c3.27-2.41,6.73-4.96,9.69-7.14C40.9,95.15,28.23,82.48,14.52,68.76
		c-1.96,2.86-4.4,6.42-6.55,9.55c-8.42-4.81-8.87-6.53-3.28-11.88c3.56-3.41,3.94-5.76,0.13-9.26c-5.62-5.14-5.22-6.73,2.87-11.9
		c1.84,2.29,3.7,5.08,6.08,7.33c0.86,0.81,3.64,1.01,4.38,0.29C30.3,41.07,42.27,29.05,54.69,16.68c-2.51-2.62-4.46-5.09-6.84-7.03
		c-2.78-2.27-2.14-4.03,0.06-6.08c2.15-2,4.15-4.23,6.82-0.61c1.77,2.41,3.69,4.71,6.73,8.58c3.02-3.84,4.97-6.3,6.88-8.78
		c1.67-2.16,3.44-2.51,5.36-0.36c1.72,1.92,4.36,3.64,1.66,6.67c-0.22,0.25-0.45,0.49-0.67,0.74c-6.14,6.99-6.13,6.98,0.33,13.48
		c9.4,9.45,18.84,18.86,28.13,28.42c2.67,2.74,4.84,3.37,7.2-0.11c0.18-0.27,0.47-0.48,0.7-0.71c6.09-6.18,6.09-6.18,11.83,1.39
		c-1.38,1.49-2.72,3.14-4.27,4.56c-1.59,1.45-3.39,2.67-4.54,3.55c2.95,4.98,5.75,8.76,7.37,12.99c0.53,1.38-2.05,3.94-3.2,5.96
		c-0.93-0.26-1.85-0.52-2.78-0.78c-1.99-2.46-4-4.9-5.95-7.38c-1.52-1.94-3.03-2.38-4.95-0.45C93.16,82.18,81.68,93.55,70.4,105.12
		c-0.73,0.75-0.25,3.04,0.2,4.44c0.32,0.99,1.53,1.7,2.35,2.52c5.01,5.03,5.01,5.03,0.05,9.93c-1.33,0-2.67,0-4,0
		c-7.56-9.46-8.11-9.46-15,0C52.33,122,50.67,122,49,122z M80.77,82.47c6.48-6.83,12.96-13.66,18.74-19.74
		c-6.74-6.9-13.15-13.47-19.37-19.84c-0.63,7.47-0.63,7.47-9.1,7.48c-6.32,0-12.64,0-18.96,0c-7.98,0-7.98,0-9.46-7.37
		c-0.02-0.11-0.26-0.17-0.28-0.18c-6.19,5.9-12.41,11.75-18.48,17.75c-0.48,0.48-0.31,2.44,0.26,3.02
		c5.99,6.1,12.12,12.07,18.69,18.53c0.23-1.5,0.39-2.11,0.41-2.74c0.15-5.94,0.73-6.41,6.6-6.1c4.31,0.22,8.64,0.25,12.96,0.28
		c5.42,0.04,10.85,0.01,15.75,0.01c0.92,3.56,1.6,6.22,2.27,8.88c-12.17,0-24.34,0-36.5,0c-0.2,0.46-0.41,0.92-0.61,1.37
		c4.76,4.59,9.73,9,14.22,13.84c2.84,3.07,4.57,2.54,7.21-0.19C70.12,92.29,75.52,87.46,80.77,82.47z M44.52,40.74
		c11.19,0,22.54,0,34.67,0c-6.46-6.22-12.24-11.78-17.7-17.04C55.81,29.4,50.17,35.06,44.52,40.74z"/>
	<path d="M552,82c-0.33,0.04-0.66,0.09-0.99,0.13c-8.77,1.09-9.03,0.8-7.44-9.08c2.76,0.31,5.59,0.63,8.43,0.94
		C552,76.67,552,79.33,552,82z"/>
	<path d="M169.18,78.5c-3.66-6.47-6.91-12.22-10.16-17.96c-0.4,0.03-0.79,0.07-1.19,0.1c0,5.67,0.27,11.36-0.15,16.99
		c-0.14,1.82-1.74,4.55-3.27,5.06c-4.17,1.39-5.88-0.46-5.85-4.95c0.07-10.32,0.03-20.63,0.06-30.95c0.01-1.78,0.17-3.56,0.25-5.24
		c7.79-1.44,10.45-0.26,13.86,5.85c1.86,3.34,3.7,6.69,5.58,10.01c0.15,0.26,0.51,0.4,1.26,0.97c1.92-3.45,3.8-6.83,5.68-10.23
		c4.41-7.96,4.41-7.96,14.71-6.64c0,5.98,0,12.07,0,18.16c0,6.16-0.2,12.32,0.08,18.47c0.16,3.63-1.34,4.54-4.62,4.66
		c-3.46,0.12-4.86-1.22-4.81-4.6c0.08-5.75,0.02-11.51,0.02-17.26c-0.41-0.1-0.82-0.21-1.22-0.31
		C176.15,66.33,172.91,71.99,169.18,78.5z"/>
	<path d="M516.76,40.05c12.25,0.07,21.76,9.77,21.61,22.04c-0.15,12.2-9.93,21.78-22.11,21.66c-12.09-0.12-21.81-10.08-21.64-22.16
		C494.8,49.33,504.4,39.98,516.76,40.05z M516.47,48.99c-6.91,0.04-12.62,5.8-12.67,12.77c-0.05,7.26,5.74,12.95,13.01,12.8
		c7.08-0.15,12.47-5.76,12.39-12.9C529.12,54.68,523.36,48.95,516.47,48.99z"/>
	<path d="M303.98,45.01c-3.33,7.11-3.63,7.21-10.53,4.44c-1.07-0.43-2.4-1.09-3.34-0.79c-2.48,0.78-6.28,1.49-6.9,3.2
		c-1.29,3.55,2.66,3.69,5.04,4.53c4.23,1.49,8.6,2.63,12.66,4.49c4.67,2.14,6.82,6.12,6.46,11.37c-0.35,5.13-3.33,8.12-7.85,9.94
		c-8.87,3.57-21.33,0.91-28.16-6.04c3.98-6.41,4.36-6.19,11.31-3.67c3.71,1.35,7.98,1.27,12.02,1.45c0.82,0.04,2.32-1.61,2.41-2.58
		c0.09-0.99-0.96-2.41-1.91-3.08c-1.18-0.83-2.74-1.13-4.17-1.58c-2.85-0.9-5.77-1.62-8.58-2.65c-6.55-2.41-9.67-6.55-9.29-12.03
		c0.39-5.65,4.31-10.02,10.9-11.36C291.26,39.19,298.18,39.8,303.98,45.01z"/>
	<path d="M318.06,55.26c0-3.33,0.25-6.68-0.07-9.98c-0.36-3.8,1.72-4.39,4.73-4.59c3.29-0.22,4.59,1.35,4.61,4.37
		c0.04,5.33,0,10.66,0.07,15.99c0.03,1.99,0.07,4.02,0.48,5.95c1.03,4.86,4.58,7.43,9.39,7.05c4.28-0.34,7.67-3.59,7.85-8.23
		c0.26-6.64,0.18-13.29,0.09-19.94c-0.04-3.12,0.56-5,4.38-4.91c3.44,0.08,5.32,0.81,5.21,4.73c-0.19,6.65,0.18,13.32-0.1,19.97
		c-0.45,10.41-8.3,18.01-18.27,18.08c-9.99,0.08-17.59-7.35-18.23-17.99c-0.21-3.48-0.03-6.99-0.03-10.48
		C318.13,55.26,318.09,55.26,318.06,55.26z"/>
	<path d="M428.68,67.28c1.41-1.95,2.28-3.99,3.82-5.04c1.21-0.82,3.62-1.05,4.84-0.38c2.22,1.22,2.64,3.55,0.32,5.29
		c-4.34,3.27-4.09,6.28,0,9.51c2.26,1.79,1.75,3.58-0.21,5.41c-1.91,1.78-3.43,1.66-4.93-0.43c-2.75-3.83-5.41-4.38-9.34-0.92
		c-4.01,3.53-10.53,2.38-14.55-1.6c-4.13-4.1-5.14-10.41-1.68-15.03c2.32-3.11,2.72-5.31,0.61-8.83c-2.25-3.74-0.89-7.81,2.08-11
		c3.04-3.26,6.76-3.9,10.97-2.56c4.17,1.33,6.14,4.44,6.82,8.42c0.15,0.9-1.14,2.96-1.54,2.9c-1.91-0.27-4.74-0.57-5.39-1.82
		c-1.38-2.64-2.87-4.07-5.14-2c-0.84,0.76-0.54,4.07,0.42,5.26c2.81,3.48,6.22,6.48,9.41,9.65
		C425.89,64.83,426.65,65.46,428.68,67.28z M416.21,64.41c-4.58,3.96-5.37,7.55-2.66,9.86c2.57,2.19,5.92,2.15,7.53-0.45
		C424.5,68.32,417.46,68.19,416.21,64.41z"/>
	<path d="M489.73,45.63c-2.62,4.33-5.28,7.02-10.67,4.5c-4.69-2.2-10.07-0.32-13.33,3.79c-3.52,4.45-3.77,10.36-0.62,14.86
		c3.07,4.4,9.03,7.25,13.53,4.87c6-3.19,8.28,0.28,11.07,4.06c-7.91,8.11-20.98,7.94-29.68-0.26c-8.25-7.77-8.68-21.91-0.93-30.29
		C467.39,38.2,480.63,37.43,489.73,45.63z"/>
	<path d="M243,50.89c-1.68-0.2-2.97-0.44-4.28-0.49c-8.33-0.32-8.33-0.31-7.2-9.31c9.98,0,20.06-0.11,30.14,0.2
		c0.85,0.03,2.38,2.95,2.22,4.37c-0.19,1.64-1.57,3.85-3.02,4.49c-2.42,1.08-6.68,0.23-7.68,1.79c-1.49,2.31-0.99,6.02-1.05,9.14
		c-0.12,5.98-0.24,11.98,0.03,17.96c0.19,4.1-2.45,3.4-4.86,3.62c-2.79,0.26-4.39-0.36-4.34-3.68C243.09,69.69,243,60.4,243,50.89z"
		/>
	<path d="M371.93,51.87c-1.23-1.62-3.12-3.07-3.55-4.88c-0.98-4.1,0.34-6.71,5.39-6c2.77,0.39,5.71-0.3,8.44,0.21
		c1.74,0.33,4.27,1.7,4.6,3.06c0.52,2.12,1.59,5.37-2.51,6.4c-0.99,0.25-2.02,2.45-2.09,3.81c-0.25,4.96-0.29,9.96,0.03,14.91
		c0.08,1.32,1.97,2.43,2.6,3.83c0.9,2.02,1.88,4.23,1.87,6.35c-0.01,0.95-2.27,2.53-3.64,2.69c-3.44,0.42-6.97,0.38-10.44,0.13
		c-1.48-0.11-4.14-1.3-4.11-1.85c0.17-2.48,0.95-4.98,1.85-7.33c0.49-1.27,2.36-2.25,2.41-3.41c0.25-6.12,0.12-12.26,0.12-18.4
		C372.57,51.55,372.25,51.71,371.93,51.87z"/>
	<path d="M208.04,51.11c-7.64-0.99-4.28-5.84-3.89-10.05c4.5,0,8.83,0.22,13.12-0.07c3.73-0.24,5.31,0.99,4.71,4.79
		c-0.18,1.13-0.03,2.31-0.03,3.92c-4.5,0.34-4.82,3.38-4.6,6.97c0.21,3.49-0.03,7,0.07,10.49c0.07,2.6-1.01,5.66,3.31,6.54
		c0.78,0.16,1.22,4.13,0.98,6.24c-0.11,0.94-2.24,2.18-3.55,2.33c-3.13,0.35-6.36,0.43-9.47,0c-1.75-0.24-4.52-1.46-4.74-2.63
		c-0.43-2.28-1.97-5.85,2.56-6.74c0.66-0.13,1.45-1.71,1.47-2.63C208.1,63.96,208.04,57.64,208.04,51.11z"/>
	<path d="M43.45,66.18c-1.12-8.82-0.87-9.13,7.47-9.14c7.96-0.01,15.92,0.15,23.87-0.07c3.85-0.11,5.14,1.08,5.21,5.08
		c0.07,4.07-1.91,4.18-4.88,4.16C64.56,66.14,53.99,66.18,43.45,66.18z"/>
</g>
</svg>
