<?xml version="1.0" encoding="utf-8"?>
<!-- Generator: Adobe Illustrator 27.0.1, SVG Export Plug-In . SVG Version: 6.00 Build 0)  -->
<svg version="1.1" id="Layer_1" xmlns="http://www.w3.org/2000/svg" xmlns:xlink="http://www.w3.org/1999/xlink" x="0px" y="0px"
	 viewBox="0 0 359.01 146.37" style="enable-background:new 0 0 359.01 146.37;" xml:space="preserve">
<style type="text/css">
	.st0{fill:none;}
	.st1{fill:#019584;}
	.st2{fill:#606363;}
	.st3{fill:#525254;}
	.st4{fill:#505051;}
	.st5{fill:#EBEEED;}
	.st6{fill:#8F9090;}
	.st7{fill:#CBCCCC;}
	.st8{fill:#BBBDBD;}
	.st9{fill:#7E7F7F;}
	.st10{fill:#049685;}
</style>
<g>
	<path class="st0" d="M181.64,0c60.19,0,120.37,0,180.56-0.03c0.98,0,1.16,0.2,1.16,1.17c-0.03,48.02-0.03,96.04,0,144.05
		c0,0.94-0.14,1.18-1.15,1.18c-120.37-0.03-240.74-0.03-361.11-0.01c-0.9,0-1.1-0.21-1.1-1.1C0.02,97.21,0.02,49.15,0,1.09
		c0-0.87,0.15-1.12,1.08-1.12C61.27,0,121.46,0,181.64,0z"/>
	<path class="st1" d="M3.18,5.51C3.19,5.47,3.2,5.43,3.21,5.4C3.34,3.42,3.34,3.42,5.3,3.31c0.32,0.01,0.64,0.04,0.96,0.04
		c95.68,0.13,191.37-0.28,287.05,0.21c1.97,0.29,3.94,0.54,5.9,0.87c4.56,0.77,8.95,2.17,13.27,3.77c3.1,1.36,6.08,2.96,9.07,4.52
		c0.34,0.36,0.75,0.6,1.22,0.74c0,0,0-0.01,0-0.01c2.01,1.42,4.02,2.85,6.02,4.27c0.15,0.29,0.41,0.44,0.7,0.55
		c0.07,0.06,0.15,0.12,0.22,0.19c2,1.84,3.99,3.67,5.99,5.51c1.44,1.68,2.88,3.36,4.32,5.03c0.13,0.42,0.39,0.73,0.75,0.95l-0.01,0
		c0.27,0.66,0.72,1.19,1.22,1.68c0.06,0.08,0.12,0.16,0.19,0.24c1.37,2.23,2.74,4.46,4.11,6.69c0.1,0.26,0.18,0.53,0.3,0.77
		c2.21,4.27,3.98,8.72,5.28,13.34c1.05,4.18,1.79,8.42,2.15,12.71c-0.15,1.28,0.19,2.53,0.2,3.8c0.01,3.54-0.29,7.06-0.67,10.57
		c0.02,0.2,0.1,0.41,0.06,0.58c-0.91,3.45-1.46,6.99-2.59,10.4c-3.77,11.4-10.01,21.19-18.94,29.27c-4.35,3.93-9.13,7.21-14.32,9.91
		c-6.49,3.37-13.39,5.5-20.6,6.66c-0.24,0.06-0.48,0.12-0.72,0.18c-0.32,0.02-0.64,0.04-0.96,0.05c-9,0.87-18.03,0.42-27.04,0.43
		c-65.93,0.04-131.85,0.02-197.78,0.02c-0.92,0-1.84,0.01-2.76,0.02c-0.16,0-0.32,0-0.48,0c-0.16,0-0.32-0.01-0.48-0.01
		c-5.03-0.4-10.01-1.09-14.89-2.4c-0.14-0.02-0.29-0.03-0.43-0.05c-1.09-0.52-2.24-0.85-3.4-1.16c-0.24-0.08-0.47-0.16-0.71-0.24
		c-0.11-0.18-0.28-0.23-0.49-0.22c-2.47-1.07-4.94-2.13-7.41-3.2c-0.15-0.07-0.29-0.14-0.44-0.2c-0.2-0.26-0.44-0.45-0.78-0.45
		c-0.57-0.35-1.14-0.71-1.72-1.06c-1.82-1.09-3.64-2.18-5.46-3.27l0.01,0.01c-0.11-0.52-0.51-0.66-0.96-0.73
		c-0.08-0.22-0.22-0.39-0.45-0.47c-0.09-0.06-0.19-0.12-0.28-0.18c-2.15-1.88-4.29-3.75-6.44-5.63c-1.52-1.67-3.05-3.33-4.57-5
		c-0.06-0.08-0.12-0.15-0.17-0.23c-0.12-0.29-0.27-0.54-0.56-0.7c-1.16-1.6-2.31-3.19-3.47-4.79c-0.15-0.23-0.31-0.46-0.46-0.69
		c-0.06-0.21-0.13-0.41-0.35-0.52c-0.73-1.23-1.55-2.42-2.19-3.69c-1.17-2.33-2.23-4.72-3.33-7.08c-2.26-5.96-3.77-12.09-4.45-18.43
		c-0.03-0.15-0.05-0.31-0.08-0.46c-0.04-0.64-0.08-1.29-0.11-1.93c-0.03-1.15-0.1-2.31-0.1-3.46c0-21.44,0-42.89,0-64.33
		C3.24,6.3,3.2,5.91,3.18,5.51z M150.23,10.34c-46.12,0-92.24,0-138.36,0c-1.56,0-1.56,0-1.56,1.61c0,19.36,0.03,38.72-0.01,58.08
		c-0.02,10.21,2.17,19.9,7.23,28.75c11.54,20.19,29.07,31.29,52.34,31.4c72.54,0.32,145.08,0.12,217.62,0.11
		c3.16,0,6.31-0.27,9.42-0.8c13.2-2.28,24.49-8.2,33.72-17.92c9.77-10.3,15.25-22.58,16.34-36.71c0.95-12.32-1.51-24.02-7.96-34.61
		C327.28,21,309.99,10.59,287.4,10.44C241.68,10.12,195.96,10.34,150.23,10.34z"/>
	<path class="st0" d="M150.23,10.34c45.72,0,91.44-0.22,137.16,0.09c22.59,0.16,39.88,10.56,51.61,29.82
		c6.45,10.59,8.91,22.29,7.96,34.61c-1.09,14.13-6.56,26.41-16.34,36.71c-9.23,9.72-20.52,15.64-33.72,17.92
		c-3.11,0.54-6.26,0.8-9.42,0.8c-72.54,0-145.08,0.21-217.62-0.11c-23.28-0.1-40.8-11.21-52.34-31.4
		c-5.06-8.85-7.25-18.54-7.23-28.75c0.04-19.36,0.01-38.72,0.01-58.08c0-1.61,0-1.61,1.56-1.61
		C57.99,10.34,104.11,10.34,150.23,10.34z M314.07,68.29c0.12-0.42,0.19-0.69,0.26-0.95c0.03-0.12,0.05-0.23,0.07-0.35
		c1.53-8.93,0.26-17.42-3.83-25.52c-7.83-15.51-25.65-23.93-42.55-19.83c-8.92,2.16-16.47,6.87-22.67,13.56
		c-11.46,12.35-15.78,27-13.6,43.63c0.09,0.67,0.02,1.43,0.57,2.03c-0.43-19.38,12.9-38.14,33.63-42.42
		C286.43,34.2,307.91,46.77,314.07,68.29z M267.08,101.46c0.16,0.3,0.18,0.38,0.24,0.43c0.17,0.17,0.34,0.33,0.52,0.49
		c8.92,7.63,19.26,10.82,30.8,8.86c14.62-2.48,24.52-11.13,29.86-24.84c3.3-8.48,3.43-17.34,1.48-26.13
		c-3.91-17.69-14.23-30.2-31.06-37.2c-0.36-0.15-0.73-0.5-1.2-0.23c17.05,10.7,24.61,30.53,18.85,49.59
		c-2.76,9.14-7.93,16.67-15.73,22.24C290.69,101.93,279.43,104.13,267.08,101.46z M313.19,109.99c-9.78,5.22-20.05,6.74-30.77,3.94
		c-10.8-2.82-19.35-9.04-24.9-18.67c-10.58-18.35-8.2-35.76,4.63-52.16c-0.23-0.11-0.55,0.15-0.87,0.27
		c-6.37,2.3-11.79,6.02-16.13,11.2c-7.27,8.69-10.31,18.72-9.18,29.99c0.79,7.85,3.6,14.94,8.69,20.98
		c8.21,9.75,18.96,14.93,31.48,16.29c11.4,1.24,22.03-1.4,31.71-7.62C309.74,112.99,311.58,111.68,313.19,109.99z M283.69,71.82
		c0.5,0.19,0.82,0.37,1.16,0.43c1.23,0.21,1.52,0.91,1.46,2.1c-0.1,2.23-0.03,4.47-0.03,6.7c0,2.58,0,2.55,2.65,2.56
		c0.77,0,1.01-0.18,1.01-0.98c-0.03-8.3-0.03-16.6,0-24.9c0-0.71-0.26-1.07-0.83-1.39c-1.59-0.92-3.13-1.92-4.73-2.81
		c-0.7-0.39-0.76-0.74-0.38-1.4c0.57-1.01,1.06-2.08,1.64-3.24c-1.81,0-3.41,0.03-5.01-0.01c-0.68-0.02-0.77,0.28-0.77,0.85
		c0.01,9.26,0.01,18.52,0.01,27.77c0,0.31-0.07,0.63,0.29,0.84c1.13,0.63,2.26,1.28,3.52,2C283.69,77.39,283.69,74.69,283.69,71.82z
		 M268.61,83.85c1.03-0.64,1.85-1.21,2.72-1.67c0.73-0.38,0.98-0.88,0.96-1.71c-0.05-2.71-0.03-5.42-0.01-8.13
		c0-0.35-0.22-0.83,0.34-1.01c0.8-0.26,1.55-0.71,2.54-0.78c0,3.1,0,6.09,0,9.2c1.08-0.67,2.01-1.29,2.97-1.84
		c0.46-0.26,0.54-0.61,0.54-1.08c-0.01-8.65-0.01-17.3,0.01-25.96c0-0.74-0.17-0.85-0.88-0.63c-2.73,0.86-5.48,1.67-8.24,2.44
		c-0.76,0.21-0.97,0.54-0.96,1.31c0.03,6.34,0.02,12.68,0.02,19.02C268.61,76.56,268.61,80.1,268.61,83.85z M292.11,57.94
		c-1.12-0.27-1.12-0.27-1.13,0.91c0,0.68,0.04,1.36-0.01,2.03c-0.04,0.6,0.15,0.98,0.74,1.18c0.91,0.3,1.17,0.91,1.17,1.89
		c-0.05,7.34-0.01,14.68-0.05,22.02c0,0.84,0.22,1.11,1.06,1.06c1.07-0.07,2.16-0.09,3.23,0c0.99,0.08,1.17-0.31,1.17-1.22
		c-0.04-6.3-0.02-12.61-0.02-18.91c0-0.41,0.04-0.82,0.06-1.33c0.82,0.43,1.51,0.79,2.33,1.22c0-1.09-0.04-2,0.01-2.9
		c0.05-0.8-0.12-1.4-0.95-1.68c-1.25-0.42-1.69-1.3-1.47-2.58c0.08-0.47-0.04-0.96,0.02-1.43c0.16-1.11-0.28-1.98-0.94-2.83
		c-1.52-1.95-2.96-3.96-4.45-5.94c-0.18-0.24-0.26-0.69-0.79-0.6C292.11,51.87,292.11,54.9,292.11,57.94z M183.32,62.71
		c-5.57,0-9.44,3.77-9.44,9.19c0,5.6,3.86,9.46,9.47,9.44c5.46-0.01,9.39-3.87,9.45-9.29C192.86,66.68,188.84,62.71,183.32,62.71z
		 M154.07,78.42c0.46,2.33,1.5,3,3.97,2.77c2.09-0.19,0.72-1.8,1.11-2.69c0.07-0.17,0.02-0.4,0.01-0.59
		c-0.02-0.3,0.08-0.64-0.33-0.8c-0.75-0.28-0.76-0.94-0.76-1.59c0-2.04,0.02-4.07-0.01-6.1c-0.04-2.82-1.61-5.21-4.22-6.08
		c-3.85-1.29-7.54-0.71-11.03,1.34c-0.36,0.21-0.56,0.45-0.3,0.85c0.52,0.8,0.58,1.9,1.48,2.44c0.11,0.07,0.47-0.25,0.7-0.39
		c1.02-0.64,2.12-1.11,3.3-1.36c3.15-0.68,5.2,0.58,5.44,3.32c0.05,0.57,0.14,0.99-0.77,0.72c-1.82-0.54-3.7-0.56-5.57-0.29
		c-2.89,0.41-5.12,2.2-5.59,4.51c-0.82,4.02,2.46,7.31,6.81,6.87C150.54,81.1,152.4,80.13,154.07,78.42z M85.89,78.49
		c0.1,0.18,0.15,0.24,0.17,0.3c0.41,1.99,1.52,2.65,3.94,2.38c1.88-0.21,0.76-1.65,1.03-2.51c0.09-0.29,0.02-0.63,0.01-0.95
		c-0.01-0.24,0.01-0.49-0.28-0.59c-0.83-0.29-0.81-0.99-0.81-1.68c0-2,0.02-3.99-0.01-5.99c-0.04-3.04-1.72-5.37-4.62-6.27
		c-2.92-0.9-5.86-0.74-8.65,0.51c-3.33,1.49-2.56,0.89-1.37,3.69c0.24,0.56,0.48,0.71,1.04,0.32c1.05-0.74,2.22-1.23,3.48-1.51
		c3.1-0.68,5.11,0.48,5.47,3.13c0.11,0.8,0.11,1.13-0.93,0.87c-2.56-0.65-5.14-0.67-7.62,0.4c-2.54,1.1-3.8,3.28-3.44,5.81
		c0.36,2.54,2.28,4.41,4.93,4.81C81.24,81.68,83.72,80.65,85.89,78.49z M98.52,65.84c-0.36-1,0.38-2.3-0.42-2.74
		c-0.77-0.42-1.95-0.05-2.95-0.13c-0.87-0.07-1.05,0.26-1.05,1.08c0.04,4.39,0,8.78,0.03,13.17c0.01,1.22-0.55,2.9,0.24,3.55
		c0.75,0.61,2.37,0.14,3.6,0.21c0.7,0.04,0.87-0.2,0.86-0.87c-0.03-2.83,0.03-5.67-0.04-8.5c-0.03-1.35,0.46-2.41,1.4-3.29
		c1.21-1.13,2.6-1.99,4.31-1.28c1.64,0.68,1.72,2.26,1.73,3.76c0.03,3.03,0.05,6.07-0.02,9.1c-0.02,0.94,0.28,1.15,1.14,1.09
		c0.95-0.07,1.92-0.04,2.87-0.01c0.49,0.01,0.73-0.12,0.72-0.66c-0.08-4.23,0.21-8.46-0.18-12.68c-0.31-3.4-2.12-4.92-5.55-4.92
		C102.54,62.7,100.3,63.69,98.52,65.84z M50.26,56.55c-2.28,0-4.55-0.01-6.83,0c-1.07,0.01-2.53-0.36-3.11,0.18
		c-0.74,0.7-0.14,2.18-0.25,3.32c-0.07,0.64,0.19,0.81,0.81,0.8c1.96-0.04,3.92,0.03,5.87-0.03c0.85-0.03,1.05,0.23,1.05,1.06
		c-0.04,5.23-0.03,10.45-0.01,15.68c0,1.1-0.49,2.56,0.21,3.21c0.69,0.65,2.14,0.09,3.24,0.2c1.06,0.11,1.4-0.2,1.39-1.33
		c-0.06-5.9-0.01-11.81-0.05-17.71c-0.01-0.91,0.24-1.17,1.13-1.11c1.15,0.08,2.32,0.05,3.47,0.01c1.06-0.04,2.51,0.48,3.08-0.23
		c0.53-0.67,0.12-2.06,0.2-3.12c0.05-0.75-0.24-0.95-0.96-0.94C56.41,56.57,53.34,56.55,50.26,56.55z M264.53,72.91
		c-0.07,0.01-0.14,0.01-0.22,0.02c-1.06-2.82-2.12-5.63-3.21-8.54c-1.74,1.13-3.39,2.24-5.07,3.28c-0.66,0.41-0.81,0.76-0.47,1.51
		c1.33,2.93,2.54,5.92,3.88,8.85c0.88,1.91,1.57,3.82,1.26,5.96c-0.13,0.89,0.29,1.07,1.08,1.03c0.71-0.04,1.3,0.07,1.25-1.01
		c-0.09-1.93-0.03-3.87-0.03-5.81c0.65,1.86,1.2,3.73,1.43,5.64c0.18,1.47,1.09,1.15,1.95,1.16c1.08,0.02,1.01-0.74,1.01-1.49
		c-0.01-7.38-0.01-14.76-0.01-22.14c0-0.3,0-0.6,0-1.06c-0.66,0.41-1.14,0.76-1.66,1.01c-0.99,0.47-1.27,1.18-1.25,2.27
		C264.58,66.7,264.53,69.8,264.53,72.91z M121.58,81.36c0.55-0.05,1.27-0.07,1.98-0.19c2.99-0.48,4.85-2.35,5.13-5.13
		c0.25-2.45-0.87-3.89-3.98-5.04c-1.57-0.58-3.18-1.04-4.75-1.61c-0.71-0.26-1.24-0.76-1.17-1.62c0.07-0.82,0.59-1.25,1.35-1.48
		c1.6-0.47,3.06-0.05,4.52,0.58c0.73,0.31,1.34,1.38,2.1,0.96c0.64-0.35,0.91-1.36,1.41-2.03c0.38-0.51,0.22-0.8-0.22-1.17
		c-2.74-2.3-7.89-2.74-10.94-0.86c-1.9,1.18-2.75,2.92-2.59,5.15c0.14,1.98,1.42,2.99,3.1,3.72c1.68,0.74,3.46,1.19,5.19,1.79
		c0.79,0.27,1.54,0.65,1.47,1.63c-0.06,0.92-0.73,1.35-1.57,1.57c-2.04,0.53-3.85-0.15-5.6-1.07c-0.66-0.35-1.29-0.76-1.93-1.14
		c-0.4,0.68-0.76,1.39-1.22,2.03c-0.48,0.67-0.34,1.07,0.29,1.55C116.3,80.66,118.76,81.28,121.58,81.36z M163.09,72.45
		c0,1.63-0.02,3.27,0,4.9c0.03,1.8,0.99,3.07,2.72,3.64c1.49,0.5,2.99,0.34,4.47-0.02c2.66-0.64,2.66-0.65,1.99-3.23
		c-0.01-0.04-0.03-0.08-0.03-0.12c-0.07-0.99-0.33-1.34-1.47-0.89c-2.08,0.82-3.08,0.01-3.08-2.25c0-1.75,0-3.51,0-5.26
		c0-2.62,0-2.62,2.68-2.64c0.16,0,0.32-0.01,0.48,0c0.44,0.04,0.6-0.11,0.65-0.59c0.31-2.98,0.31-2.99-2.66-3.01
		c-0.12,0-0.24-0.01-0.36,0c-0.64,0.09-0.82-0.2-0.8-0.82c0.04-1.39-0.02-2.79,0.02-4.19c0.02-0.64-0.21-0.83-0.82-0.8
		c-1,0.04-2,0.04-2.99,0c-0.63-0.03-0.83,0.18-0.81,0.81c0.04,1.39-0.01,2.79,0.02,4.19c0.02,0.6-0.12,0.83-0.78,0.83
		c-1.63,0.01-1.63,0.05-1.63,1.73c0,0.12,0.02,0.24,0,0.36c-0.18,1.11,0.12,1.76,1.42,1.49c0.75-0.15,1.04,0.14,1,0.95
		C163.05,69.17,163.09,70.81,163.09,72.45z M136.45,66.1c0-2.19,0.03-4.39-0.01-6.58c-0.03-1.17,0.55-2.81-0.26-3.4
		c-0.82-0.6-2.37-0.16-3.61-0.23c-0.65-0.03-0.81,0.25-0.81,0.85c0.01,6.78-0.03,13.56,0.03,20.34c0.02,2.64,1.6,4.1,4.24,4.15
		c0.72,0.01,1.44,0,2.15-0.12c2.67-0.46,2.67-0.48,2.19-3.09c-0.01-0.08-0.04-0.16-0.04-0.24c0.02-0.84-0.29-0.94-1.1-0.73
		c-2.12,0.56-2.76,0-2.77-2.22C136.44,71.92,136.45,69.01,136.45,66.1z M200.17,66.03c0-0.78-0.02-1.57,0.01-2.35
		c0.02-0.51-0.16-0.71-0.69-0.7c-0.88,0.03-1.76,0.06-2.64-0.01c-0.84-0.07-1.08,0.22-1.07,1.06c0.04,4.43,0,8.86,0.03,13.29
		c0.01,1.18-0.53,2.8,0.23,3.43c0.73,0.6,2.29,0.13,3.48,0.22c0.78,0.05,1.01-0.19,1-0.98c-0.05-2.91,0.03-5.83-0.04-8.74
		c-0.03-1.17,0.43-1.98,1.26-2.67c0.75-0.62,1.64-0.95,2.54-1.29c0.76-0.29,1.89,0.21,2.27-0.6c0.32-0.69,0.08-1.65,0.09-2.48
		c0-0.08-0.01-0.16,0-0.24c0.26-1.19-0.43-1.33-1.35-1.21c-0.23,0.03-0.47,0.09-0.7,0.15C202.75,63.37,201.47,64.58,200.17,66.03z
		 M65.76,66.26c-0.28-1.21,0.34-2.56-0.34-3.09c-0.64-0.49-1.92-0.1-2.9-0.2c-0.97-0.1-1.29,0.18-1.28,1.22
		c0.06,4.35,0.01,8.7,0.03,13.05c0.01,1.19-0.51,2.76,0.19,3.47c0.76,0.76,2.35,0.13,3.56,0.26c0.85,0.09,0.96-0.3,0.95-1.02
		c-0.03-2.87,0.06-5.75-0.04-8.62c-0.05-1.39,0.57-2.26,1.58-3c0.65-0.47,1.41-0.73,2.15-1.02c0.79-0.31,1.97,0.2,2.35-0.66
		c0.33-0.73,0-1.74,0.11-2.6c0.16-1.2-0.41-1.45-1.41-1.29c-0.23,0.04-0.47,0.1-0.7,0.16C68.19,63.38,66.93,64.62,65.76,66.26z
		 M301.88,84.22c0.1,0.05,0.2,0.1,0.29,0.15c0.03-0.11,0.05-0.23,0.1-0.33c1.5-2.86,3-5.71,4.5-8.56c0.17-0.33,0.27-0.66,0.27-1.02
		c-0.01-1.72-0.03-3.43,0.01-5.15c0.01-0.62-0.17-0.84-0.81-0.81c-1.12,0.05-2.24,0.07-3.35-0.01c-0.88-0.06-1.04,0.28-1.03,1.08
		c0.04,4.15,0.02,8.3,0.02,12.45C301.88,82.75,301.88,83.49,301.88,84.22z M295.59,94.28c0.98-1.7,1.87-3.26,2.81-4.88
		c-1.93,0-3.67,0-5.57,0C293.76,91.05,294.64,92.59,295.59,94.28z M305.81,66.83c-1.3-1.76-2.5-3.38-3.69-5
		c-0.24,1.54-0.23,3-0.25,4.46c-0.01,0.54,0.31,0.55,0.7,0.54C303.57,66.82,304.57,66.83,305.81,66.83z"/>
	<path class="st2" d="M67.41,137.28c0.16,0,0.32,0,0.48,0c0.05,0.35,0.28,0.43,0.6,0.45c1.61,0.07,3.22,0.23,4.83,0.23
		c72.15,0.01,144.29,0.01,216.44,0.03c1.02,0,2.05-0.08,3.06-0.15c0.86-0.06,1.84,0.2,2.66-0.35c0.32-0.08,0.64-0.16,0.96-0.23
		c1.17,0.55,2.25,0.04,3.36-0.24c0.16,0,0.32,0,0.48,0c0.33-0.03,0.71,0.11,0.96-0.24c0.16,0,0.32,0,0.48,0
		c1.17,0,2.26-0.4,3.38-0.66c5.64-1.33,11.02-3.29,16.12-6.06c7.44-4.04,13.79-9.37,19.16-15.92c4.82-5.88,8.4-12.44,10.96-19.56
		c3.08-8.56,3.76-17.44,3.32-26.44c-0.04-0.86,0.28-1.98-0.62-2.72c-0.36-4.3-1.09-8.53-2.15-12.71c0.58,0.12,0.54,0.66,0.65,1.04
		c1.37,4.61,2.33,9.29,2.71,14.11c0.33,4.15,0.3,8.28-0.08,12.4c-0.37,4.03-1.21,8-2.37,11.88c-1.41,4.7-3.3,9.21-5.73,13.47
		c-1.7,2.97-3.61,5.8-5.76,8.48c-3.13,3.9-6.65,7.4-10.56,10.5c-3.31,2.63-6.89,4.82-10.63,6.81c-3.71,1.97-7.55,3.6-11.55,4.82
		c-6.31,1.92-12.84,2.72-19.41,2.72c-69.38,0.04-138.77,0.03-208.15,0.03c-5.3,0-10.59-0.05-15.86-0.69
		c-3.92-0.47-7.75-1.31-11.52-2.45c-0.56-0.17-1.29-0.19-1.56-0.91c4.88,1.3,9.86,2,14.89,2.4c0.02,0.16,0.04,0.34,0.24,0.35
		C67.37,137.62,67.38,137.43,67.41,137.28z"/>
	<path class="st3" d="M295.47,137.48c-0.82,0.55-1.8,0.29-2.66,0.35c-1,0.07-2.03,0.15-3.06,0.15
		c-72.15-0.02-144.29-0.02-216.44-0.03c-1.61,0-3.22-0.16-4.83-0.23c-0.32-0.01-0.55-0.1-0.6-0.45c0.92-0.01,1.84-0.02,2.76-0.02
		c65.93,0,131.85,0.02,197.78-0.02c9.01-0.01,18.04,0.45,27.04-0.43C295.47,137.03,295.47,137.26,295.47,137.48z"/>
	<path class="st4" d="M300.26,137c-0.16,0-0.32,0-0.48,0c-0.42-0.42-0.87-0.17-1.33-0.09c-0.46,0.07-1.04,0.4-1.3-0.34
		c7.21-1.15,14.11-3.29,20.6-6.66c5.19-2.69,9.97-5.98,14.32-9.91c8.93-8.07,15.17-17.86,18.94-29.27c1.13-3.4,1.68-6.94,2.59-10.4
		c0.05-0.18-0.03-0.39-0.06-0.58c0.52,0.08,0.47,0.48,0.42,0.83c-0.25,1.68-0.46,3.38-0.79,5.04c-1.29,6.47-3.52,12.61-6.67,18.42
		c-2.73,5.03-6.12,9.57-10.07,13.7c-1.84,1.93-3.83,3.71-5.88,5.42c-4.15,3.47-8.79,6.16-13.65,8.46c-4.65,2.2-9.56,3.71-14.63,4.63
		c-0.32,0.06-0.53,0.14-0.56,0.48c-0.16,0-0.32,0-0.48,0C300.8,136.44,300.44,136.33,300.26,137z"/>
	<path class="st3" d="M301.7,136.76c0.03-0.35,0.25-0.43,0.56-0.48c5.07-0.92,9.98-2.43,14.63-4.63c4.86-2.3,9.5-4.99,13.65-8.46
		c2.05-1.71,4.04-3.49,5.88-5.42c3.95-4.13,7.34-8.67,10.07-13.7c3.15-5.81,5.38-11.94,6.67-18.42c0.33-1.67,0.54-3.36,0.79-5.04
		c0.05-0.35,0.11-0.75-0.42-0.83c0.38-3.51,0.68-7.03,0.67-10.57c0-1.27-0.35-2.52-0.2-3.8c0.9,0.74,0.58,1.86,0.62,2.72
		c0.44,9-0.24,17.88-3.32,26.44c-2.56,7.13-6.14,13.68-10.96,19.56c-5.36,6.55-11.71,11.87-19.16,15.92
		c-5.1,2.77-10.48,4.73-16.12,6.06C303.96,136.36,302.87,136.77,301.7,136.76z"/>
	<path class="st3" d="M297.15,136.57c0.26,0.74,0.85,0.42,1.3,0.34c0.46-0.08,0.91-0.33,1.33,0.09c-1.11,0.28-2.19,0.79-3.36,0.24
		c0-0.17,0-0.33,0-0.5C296.67,136.69,296.91,136.63,297.15,136.57z"/>
	<path class="st2" d="M51.61,134.82c-1.29,0.07-2.49-0.1-3.4-1.16C49.38,133.96,50.53,134.3,51.61,134.82z"/>
	<path class="st5" d="M3.46,76.42c-0.38-0.62-1.03-1.23-0.11-1.93C3.38,75.13,3.42,75.77,3.46,76.42z"/>
	<path class="st4" d="M296.43,136.75c0,0.17,0,0.33,0,0.5c-0.32,0.08-0.64,0.16-0.96,0.23c0-0.23,0-0.45,0-0.68
		C295.79,136.79,296.11,136.77,296.43,136.75z"/>
	<path class="st6" d="M31.21,125.02c-0.53,0.03-0.94-0.09-0.96-0.73C30.7,124.36,31.1,124.5,31.21,125.02z"/>
	<path class="st7" d="M321.54,12.72c0.56-0.01,1.14-0.05,1.22,0.74C322.29,13.33,321.88,13.08,321.54,12.72z"/>
	<path class="st7" d="M13.85,106.6c-0.18-0.05-0.4-0.06-0.51-0.17c-0.12-0.12,0.02-0.27,0.17-0.34
		C13.72,106.19,13.79,106.39,13.85,106.6z"/>
	<path class="st8" d="M18.33,112.78c-0.54,0.05-0.58-0.3-0.56-0.7C18.06,112.23,18.21,112.49,18.33,112.78z"/>
	<path class="st8" d="M328.79,17.73c0.39-0.01,0.74,0.01,0.7,0.55C329.2,18.17,328.94,18.02,328.79,17.73z"/>
	<path class="st9" d="M39.17,129.79c-0.37,0.03-0.74,0.07-0.78-0.45C38.73,129.35,38.98,129.53,39.17,129.79z"/>
	<path class="st2" d="M47.51,133.41c-0.35,0.36-0.43,0.08-0.49-0.22C47.22,133.18,47.39,133.23,47.51,133.41z"/>
	<path class="st3" d="M67.41,137.28c-0.02,0.16-0.04,0.34-0.24,0.34c-0.2,0-0.21-0.19-0.24-0.35
		C67.09,137.27,67.25,137.27,67.41,137.28z"/>
	<path class="st6" d="M29.8,123.82c-0.09-0.06-0.19-0.12-0.28-0.18C29.61,123.69,29.7,123.76,29.8,123.82z"/>
	<path class="st1" d="M314.07,68.29c-6.17-21.52-27.65-34.09-48.11-29.86c-20.73,4.28-34.06,23.04-33.63,42.42
		c-0.55-0.6-0.49-1.36-0.57-2.03c-2.18-16.63,2.15-31.28,13.6-43.63c6.2-6.69,13.76-11.4,22.67-13.56
		c16.9-4.09,34.72,4.32,42.55,19.83c4.09,8.1,5.36,16.6,3.83,25.52c-0.02,0.12-0.04,0.24-0.07,0.35
		C314.27,67.61,314.19,67.88,314.07,68.29z"/>
	<path class="st1" d="M267.08,101.46c12.35,2.68,23.61,0.47,33.76-6.79c7.79-5.57,12.96-13.1,15.73-22.24
		c5.76-19.06-1.8-38.89-18.85-49.59c0.47-0.28,0.84,0.08,1.2,0.23c16.84,7,27.15,19.5,31.06,37.2c1.94,8.79,1.82,17.65-1.48,26.13
		c-5.34,13.71-15.24,22.36-29.86,24.84c-11.54,1.96-21.88-1.23-30.8-8.86c-0.18-0.16-0.36-0.32-0.52-0.49
		C267.27,101.84,267.25,101.76,267.08,101.46z"/>
	<path class="st1" d="M313.19,109.99c-1.61,1.69-3.44,3-5.34,4.23c-9.68,6.23-20.3,8.86-31.71,7.62
		c-12.52-1.36-23.27-6.55-31.48-16.29c-5.09-6.04-7.9-13.13-8.69-20.98c-1.13-11.27,1.91-21.3,9.18-29.99
		c4.34-5.18,9.76-8.9,16.13-11.2c0.32-0.12,0.64-0.37,0.87-0.27c-12.83,16.39-15.21,33.8-4.63,52.16
		c5.55,9.63,14.1,15.85,24.9,18.67C293.14,116.72,303.4,115.21,313.19,109.99z"/>
	<path class="st4" d="M283.69,71.82c0,2.87,0,5.58,0,8.51c-1.26-0.72-2.38-1.37-3.52-2c-0.37-0.2-0.29-0.53-0.29-0.84
		c0-9.26,0-18.52-0.01-27.77c0-0.57,0.09-0.87,0.77-0.85c1.6,0.05,3.19,0.01,5.01,0.01c-0.58,1.16-1.07,2.22-1.64,3.24
		c-0.37,0.66-0.32,1.01,0.38,1.4c1.6,0.89,3.14,1.89,4.73,2.81c0.57,0.33,0.84,0.68,0.83,1.39c-0.03,8.3-0.03,16.6,0,24.9
		c0,0.8-0.24,0.99-1.01,0.98c-2.65-0.01-2.65,0.02-2.65-2.56c0-2.23-0.07-4.47,0.03-6.7c0.06-1.19-0.24-1.9-1.46-2.1
		C284.51,72.19,284.19,72.01,283.69,71.82z M283.69,58.78c0,1.88,0,3.74,0,5.61c0,1.93,0.01,1.9,1.85,2.52
		c0.6,0.2,0.78,0.12,0.76-0.52c-0.03-1.47-0.01-2.94-0.01-4.41c0-2.47,0-2.47-2.33-3.26C283.93,58.71,283.89,58.74,283.69,58.78z"/>
	<path class="st4" d="M268.61,83.85c0-3.75,0-7.3,0-10.84c0-6.34,0.01-12.68-0.02-19.02c0-0.77,0.21-1.1,0.96-1.31
		c2.76-0.76,5.51-1.58,8.24-2.44c0.71-0.22,0.88-0.11,0.88,0.63c-0.02,8.65-0.02,17.3-0.01,25.96c0,0.47-0.08,0.82-0.54,1.08
		c-0.96,0.55-1.89,1.17-2.97,1.84c0-3.11,0-6.1,0-9.2c-0.99,0.08-1.74,0.53-2.54,0.78c-0.56,0.18-0.34,0.66-0.34,1.01
		c-0.02,2.71-0.04,5.42,0.01,8.13c0.02,0.83-0.23,1.32-0.96,1.71C270.46,82.64,269.64,83.21,268.61,83.85z M275.08,58.65
		c-0.84,0.28-1.59,0.54-2.33,0.79c-0.34,0.12-0.49,0.34-0.49,0.72c0.01,1.95,0.01,3.89,0.01,5.97c0.86-0.29,1.6-0.55,2.35-0.79
		c0.35-0.12,0.48-0.34,0.48-0.71C275.08,62.66,275.08,60.71,275.08,58.65z"/>
	<path class="st3" d="M292.11,57.94c0-3.04,0-6.07,0-9.11c0.53-0.09,0.61,0.36,0.79,0.6c1.49,1.97,2.93,3.98,4.45,5.94
		c0.66,0.86,1.1,1.72,0.94,2.83c-0.07,0.47,0.05,0.97-0.02,1.43c-0.21,1.28,0.22,2.16,1.47,2.58c0.83,0.28,1,0.88,0.95,1.68
		c-0.06,0.91-0.01,1.82-0.01,2.9c-0.82-0.43-1.51-0.79-2.33-1.22c-0.02,0.51-0.06,0.92-0.06,1.33c0,6.3-0.02,12.61,0.02,18.91
		c0.01,0.9-0.18,1.3-1.17,1.22c-1.07-0.09-2.16-0.07-3.23,0c-0.84,0.05-1.07-0.22-1.06-1.06c0.03-7.34,0-14.68,0.05-22.02
		c0.01-0.98-0.26-1.59-1.17-1.89c-0.59-0.2-0.78-0.57-0.74-1.18c0.05-0.68,0.01-1.36,0.01-2.03
		C290.98,57.68,290.98,57.68,292.11,57.94z"/>
	<path class="st10" d="M183.32,62.71c5.52,0,9.54,3.97,9.48,9.35c-0.06,5.41-3.99,9.27-9.45,9.29c-5.61,0.01-9.47-3.84-9.47-9.44
		C173.89,66.48,177.76,62.71,183.32,62.71z M178.67,71.96c-0.01,2.81,1.57,4.95,3.97,5.35c2.09,0.36,4.15-0.98,4.98-3.23
		c0.29-0.79,0.42-1.62,0.37-2.46c-0.23-3.44-2.99-5.66-5.95-4.78C180.06,67.42,178.67,69.53,178.67,71.96z"/>
	<path class="st10" d="M154.07,78.42c-1.67,1.71-3.53,2.68-5.76,2.91c-4.36,0.44-7.63-2.86-6.81-6.87c0.47-2.31,2.71-4.1,5.59-4.51
		c1.88-0.26,3.76-0.25,5.57,0.29c0.91,0.27,0.82-0.15,0.77-0.72c-0.25-2.74-2.29-3.99-5.44-3.32c-1.18,0.25-2.27,0.72-3.3,1.36
		c-0.24,0.15-0.59,0.46-0.7,0.39c-0.9-0.54-0.96-1.64-1.48-2.44c-0.26-0.4-0.06-0.63,0.3-0.85c3.48-2.05,7.17-2.63,11.03-1.34
		c2.6,0.87,4.17,3.26,4.22,6.08c0.03,2.03,0,4.07,0.01,6.1c0,0.65,0.01,1.31,0.76,1.59c0.42,0.16,0.31,0.5,0.33,0.8
		c0.01,0.2,0.06,0.43-0.01,0.59c-0.38,0.89,0.98,2.49-1.11,2.69C155.57,81.42,154.53,80.75,154.07,78.42z M148.94,77.87
		c2.75,0.02,4.64-1.63,4.51-3.93c-0.02-0.32,0.01-0.61-0.33-0.83c-1.36-0.88-5.14-0.69-6.41,0.35c-1.09,0.89-1.24,2.3-0.33,3.38
		C147.05,77.61,147.93,77.92,148.94,77.87z"/>
	<path class="st10" d="M85.89,78.49c-2.17,2.15-4.65,3.19-7.65,2.73c-2.65-0.4-4.56-2.27-4.93-4.81c-0.36-2.52,0.9-4.7,3.44-5.81
		c2.48-1.08,5.06-1.06,7.62-0.4c1.03,0.26,1.03-0.07,0.93-0.87c-0.36-2.65-2.37-3.82-5.47-3.13c-1.26,0.28-2.43,0.78-3.48,1.51
		c-0.56,0.39-0.8,0.23-1.04-0.32c-1.19-2.8-1.96-2.2,1.37-3.69c2.79-1.25,5.72-1.4,8.65-0.51c2.91,0.89,4.58,3.23,4.62,6.27
		c0.03,1.99,0,3.99,0.01,5.99c0,0.69-0.01,1.39,0.81,1.68c0.29,0.1,0.28,0.36,0.28,0.59c0.01,0.32,0.08,0.66-0.01,0.95
		c-0.28,0.86,0.84,2.3-1.03,2.51c-2.43,0.27-3.53-0.4-3.94-2.38C86.05,78.73,85.99,78.67,85.89,78.49z M81.51,72.54
		c-0.71-0.05-1.68,0.12-2.55,0.67c-1.71,1.09-1.66,3.26,0.11,4.26c1.81,1.02,5.02,0.09,5.99-1.74c0.81-1.52,0.32-2.57-1.35-3
		C83.08,72.57,82.45,72.57,81.51,72.54z"/>
	<path class="st10" d="M98.52,65.84c1.78-2.15,4.02-3.14,6.72-3.14c3.43,0,5.24,1.52,5.55,4.92c0.39,4.22,0.09,8.45,0.18,12.68
		c0.01,0.54-0.23,0.68-0.72,0.66c-0.96-0.03-1.92-0.06-2.87,0.01c-0.86,0.07-1.16-0.15-1.14-1.09c0.07-3.03,0.04-6.06,0.02-9.1
		c-0.01-1.5-0.09-3.07-1.73-3.76c-1.71-0.71-3.1,0.14-4.31,1.28c-0.94,0.88-1.43,1.93-1.4,3.29c0.07,2.83,0,5.67,0.04,8.5
		c0.01,0.67-0.16,0.91-0.86,0.87c-1.23-0.07-2.85,0.41-3.6-0.21c-0.79-0.64-0.24-2.32-0.24-3.55c-0.03-4.39,0.01-8.78-0.03-13.17
		c-0.01-0.81,0.18-1.15,1.05-1.08c0.99,0.08,2.17-0.29,2.95,0.13C98.89,63.54,98.16,64.85,98.52,65.84z"/>
	<path class="st1" d="M50.26,56.55c3.08,0,6.15,0.02,9.23-0.01c0.72-0.01,1.01,0.19,0.96,0.94c-0.07,1.07,0.33,2.45-0.2,3.12
		c-0.57,0.71-2.01,0.19-3.08,0.23c-1.16,0.04-2.32,0.07-3.47-0.01c-0.89-0.06-1.14,0.2-1.13,1.11c0.04,5.9-0.01,11.81,0.05,17.71
		c0.01,1.13-0.33,1.44-1.39,1.33c-1.1-0.12-2.55,0.44-3.24-0.2c-0.7-0.66-0.21-2.11-0.21-3.21c-0.02-5.23-0.03-10.45,0.01-15.68
		c0.01-0.83-0.19-1.09-1.05-1.06c-1.95,0.07-3.91,0-5.87,0.03c-0.62,0.01-0.87-0.15-0.81-0.8c0.12-1.14-0.49-2.62,0.25-3.32
		c0.58-0.55,2.04-0.18,3.11-0.18C45.71,56.54,47.98,56.55,50.26,56.55z"/>
	<path class="st4" d="M264.53,72.91c0-3.1,0.05-6.21-0.03-9.31c-0.03-1.09,0.26-1.8,1.25-2.27c0.53-0.25,1-0.6,1.66-1.01
		c0,0.46,0,0.76,0,1.06c0,7.38,0,14.76,0.01,22.14c0,0.75,0.07,1.5-1.01,1.49c-0.86-0.01-1.77,0.31-1.95-1.16
		c-0.23-1.91-0.78-3.78-1.43-5.64c0,1.94-0.07,3.87,0.03,5.81c0.05,1.08-0.54,0.98-1.25,1.01c-0.8,0.04-1.21-0.14-1.08-1.03
		c0.3-2.14-0.39-4.05-1.26-5.96c-1.35-2.93-2.55-5.92-3.88-8.85c-0.34-0.76-0.19-1.1,0.47-1.51c1.69-1.04,3.33-2.15,5.07-3.28
		c1.09,2.91,2.15,5.72,3.21,8.54C264.39,72.92,264.46,72.91,264.53,72.91z"/>
	<path class="st10" d="M121.58,81.36c-2.82-0.08-5.28-0.7-7.43-2.35c-0.63-0.48-0.77-0.88-0.29-1.55c0.46-0.64,0.81-1.35,1.22-2.03
		c0.64,0.38,1.27,0.8,1.93,1.14c1.75,0.92,3.56,1.61,5.6,1.07c0.84-0.22,1.51-0.66,1.57-1.57c0.07-0.98-0.68-1.36-1.47-1.63
		c-1.73-0.6-3.5-1.06-5.19-1.79c-1.67-0.73-2.95-1.74-3.1-3.72c-0.16-2.23,0.69-3.98,2.59-5.15c3.05-1.88,8.19-1.45,10.94,0.86
		c0.44,0.37,0.6,0.65,0.22,1.17c-0.49,0.67-0.76,1.68-1.41,2.03c-0.77,0.42-1.37-0.65-2.1-0.96c-1.46-0.63-2.92-1.05-4.52-0.58
		c-0.76,0.22-1.28,0.66-1.35,1.48c-0.08,0.86,0.45,1.36,1.17,1.62c1.57,0.57,3.18,1.03,4.75,1.61c3.11,1.15,4.23,2.59,3.98,5.04
		c-0.28,2.79-2.14,4.66-5.13,5.13C122.85,81.29,122.13,81.31,121.58,81.36z"/>
	<path class="st1" d="M163.09,72.45c0-1.63-0.05-3.27,0.02-4.9c0.03-0.81-0.25-1.1-1-0.95c-1.3,0.26-1.59-0.38-1.42-1.49
		c0.02-0.12,0-0.24,0-0.36c0-1.68,0-1.72,1.63-1.73c0.66-0.01,0.8-0.23,0.78-0.83c-0.04-1.39,0.02-2.79-0.02-4.19
		c-0.02-0.63,0.18-0.84,0.81-0.81c1,0.05,2,0.04,2.99,0c0.62-0.03,0.84,0.16,0.82,0.8c-0.04,1.39,0.01,2.79-0.02,4.19
		c-0.02,0.61,0.16,0.91,0.8,0.82c0.12-0.02,0.24,0,0.36,0c2.97,0.02,2.97,0.03,2.66,3.01c-0.05,0.48-0.21,0.63-0.65,0.59
		c-0.16-0.01-0.32,0-0.48,0c-2.68,0.01-2.68,0.01-2.68,2.64c0,1.75,0,3.51,0,5.26c0.01,2.26,1,3.07,3.08,2.25
		c1.14-0.45,1.4-0.09,1.47,0.89c0,0.04,0.02,0.08,0.03,0.12c0.66,2.58,0.67,2.59-1.99,3.23c-1.49,0.36-2.98,0.52-4.47,0.02
		c-1.73-0.57-2.7-1.84-2.72-3.64C163.07,75.72,163.09,74.08,163.09,72.45z"/>
	<path class="st10" d="M136.45,66.1c0,2.91-0.01,5.82,0,8.73c0.01,2.22,0.65,2.78,2.77,2.22c0.81-0.21,1.12-0.11,1.1,0.73
		c0,0.08,0.02,0.16,0.04,0.24c0.48,2.61,0.48,2.63-2.19,3.09c-0.7,0.12-1.43,0.14-2.15,0.12c-2.64-0.05-4.22-1.51-4.24-4.15
		c-0.05-6.78-0.01-13.56-0.03-20.34c0-0.6,0.16-0.88,0.81-0.85c1.23,0.06,2.78-0.37,3.61,0.23c0.81,0.58,0.23,2.22,0.26,3.4
		C136.49,61.71,136.45,63.9,136.45,66.1z"/>
	<path class="st10" d="M200.17,66.03c1.3-1.45,2.59-2.66,4.43-3.13c0.23-0.06,0.46-0.11,0.7-0.15c0.92-0.13,1.61,0.01,1.35,1.21
		c-0.02,0.08,0,0.16,0,0.24c-0.01,0.84,0.23,1.79-0.09,2.48c-0.37,0.81-1.5,0.31-2.27,0.6c-0.9,0.34-1.79,0.66-2.54,1.29
		c-0.84,0.69-1.29,1.5-1.26,2.67c0.08,2.91,0,5.83,0.04,8.74c0.01,0.79-0.21,1.04-1,0.98c-1.19-0.08-2.75,0.38-3.48-0.22
		c-0.77-0.63-0.23-2.25-0.23-3.43c-0.03-4.43,0.01-8.86-0.03-13.29c-0.01-0.84,0.23-1.13,1.07-1.06c0.87,0.07,1.76,0.04,2.64,0.01
		c0.53-0.02,0.71,0.18,0.69,0.7C200.15,64.46,200.17,65.25,200.17,66.03z"/>
	<path class="st10" d="M65.76,66.26c1.17-1.65,2.43-2.88,4.26-3.34c0.23-0.06,0.46-0.12,0.7-0.16c1.01-0.16,1.57,0.09,1.41,1.29
		c-0.11,0.86,0.22,1.87-0.11,2.6c-0.38,0.85-1.56,0.34-2.35,0.66c-0.74,0.3-1.5,0.55-2.15,1.02c-1.01,0.74-1.63,1.61-1.58,3
		c0.1,2.87,0.01,5.75,0.04,8.62c0.01,0.72-0.1,1.11-0.95,1.02c-1.22-0.13-2.81,0.5-3.56-0.26c-0.7-0.71-0.19-2.28-0.19-3.47
		c-0.02-4.35,0.03-8.7-0.03-13.05c-0.01-1.03,0.31-1.31,1.28-1.22c0.99,0.1,2.26-0.29,2.9,0.2C66.1,63.7,65.48,65.05,65.76,66.26z"
		/>
	<path class="st4" d="M301.88,84.22c0-0.74,0-1.47,0-2.21c0-4.15,0.02-8.3-0.02-12.45c-0.01-0.8,0.15-1.14,1.03-1.08
		c1.11,0.08,2.24,0.05,3.35,0.01c0.64-0.03,0.82,0.2,0.81,0.81c-0.04,1.72-0.02,3.43-0.01,5.15c0,0.37-0.09,0.7-0.27,1.02
		c-1.51,2.85-3.01,5.71-4.5,8.56c-0.05,0.1-0.07,0.22-0.1,0.33C302.07,84.32,301.98,84.27,301.88,84.22z"/>
	<path class="st3" d="M295.59,94.28c-0.95-1.68-1.82-3.23-2.76-4.88c1.9,0,3.63,0,5.57,0C297.46,91.02,296.56,92.58,295.59,94.28z"
		/>
	<path class="st4" d="M305.81,66.83c-1.24,0-2.24-0.01-3.24,0c-0.39,0-0.71,0-0.7-0.54c0.02-1.46,0.01-2.92,0.25-4.46
		C303.32,63.45,304.51,65.07,305.81,66.83z"/>
	<path class="st3" d="M300.26,137c0.17-0.68,0.54-0.57,0.96-0.24C300.97,137.12,300.6,136.97,300.26,137z"/>
	<path class="st0" d="M283.69,58.78c0.2-0.04,0.24-0.07,0.28-0.06c2.33,0.78,2.33,0.78,2.33,3.26c0,1.47-0.02,2.94,0.01,4.41
		c0.01,0.64-0.17,0.71-0.76,0.52c-1.84-0.61-1.85-0.58-1.85-2.52C283.69,62.52,283.69,60.66,283.69,58.78z"/>
	<path class="st0" d="M275.08,58.65c0,2.06-0.01,4.01,0.01,5.96c0,0.38-0.13,0.6-0.48,0.71c-0.75,0.25-1.49,0.5-2.35,0.79
		c0-2.07,0.01-4.02-0.01-5.97c0-0.37,0.15-0.6,0.49-0.72C273.5,59.18,274.25,58.93,275.08,58.65z"/>
	<path class="st0" d="M178.67,71.96c0.01-2.43,1.39-4.54,3.37-5.12c2.96-0.87,5.72,1.34,5.95,4.78c0.06,0.84-0.07,1.67-0.37,2.46
		c-0.83,2.26-2.89,3.59-4.98,3.23C180.24,76.91,178.66,74.77,178.67,71.96z"/>
	<path class="st0" d="M148.95,77.87c-1.01,0.05-1.89-0.26-2.55-1.04c-0.91-1.08-0.76-2.49,0.33-3.38c1.27-1.04,5.04-1.23,6.41-0.35
		c0.34,0.22,0.31,0.51,0.33,0.83C153.59,76.24,151.7,77.88,148.95,77.87z"/>
	<path class="st0" d="M81.51,72.54c0.94,0.03,1.57,0.04,2.2,0.2c1.67,0.43,2.15,1.47,1.35,3c-0.97,1.83-4.18,2.76-5.99,1.74
		c-1.77-1-1.82-3.17-0.11-4.26C79.83,72.65,80.79,72.48,81.51,72.54z"/>
</g>
</svg>
