<?xml version="1.0" encoding="utf-8"?>
<!-- Generator: Adobe Illustrator 27.0.1, SVG Export Plug-In . SVG Version: 6.00 Build 0)  -->
<svg version="1.1" id="Layer_1" xmlns="http://www.w3.org/2000/svg" xmlns:xlink="http://www.w3.org/1999/xlink" x="0px" y="0px"
	 viewBox="0 0 1686 293.25" style="enable-background:new 0 0 1686 293.25;" xml:space="preserve">
<style type="text/css">
	.st0{fill:#D92342;}
</style>
<g>
	<path class="st0" d="M1255.77,160.52c18.36,33.75,36.56,67.21,54.67,100.51c-1.63,1.43-2.76,1.12-3.8,1.12
		c-17.92,0.02-35.84-0.01-53.75,0.04c-2.77,0.01-4.89-0.25-6.47-3.21c-19.37-36.48-38.89-72.88-58.35-109.31
		c-0.09-0.17-0.01-0.44-0.01-1.02c6.6-1,13.28-1.94,19.92-3.04c5.02-0.84,9.91-2.28,14.57-4.32c11.11-4.86,18.13-13,20.18-25.2
		c1.56-9.32,1.25-18.48-1.6-27.52c-4.1-13-13.1-20.79-26.18-23.65c-11.56-2.53-23.37-1.08-35.07-1.36
		c-2.04-0.05-2.69,1.07-2.64,2.92c0.05,1.77,0,3.54,0,5.31c0,61.05,0.01,122.11-0.01,183.16c0,8.01,0.78,7.2-6.97,7.21
		c-15.26,0.03-30.53,0.02-45.79,0c-6.4-0.01-6.52,0.93-6.51-6.42c0.02-38.49,0.01-76.98,0.01-115.47c0-33.85,0-67.69,0-101.54
		c0-1.55,0.07-3.1-0.01-4.64c-0.12-2.23,0.82-3.29,3.08-3.16c1.1,0.06,2.21,0,3.32,0c34.95,0,69.9,0.04,104.85-0.02
		c12.32-0.02,24.19,1.88,35.43,7.12c26,12.12,40.63,37.71,37.92,66.25c-0.48,5.07-1.07,10.11-2.47,15.02
		c-4.49,15.87-14.64,26.98-29.14,34.31C1266.09,156.07,1261,158.15,1255.77,160.52z"/>
	<path class="st0" d="M167.73,109.67c0,2.32,0,4.63,0,6.95c0,45.56,0,91.11,0,136.67c0,1.55-0.11,3.1,0.02,4.64
		c0.25,3-0.67,4.36-4.04,4.3c-10.61-0.19-21.23-0.21-31.84,0.01c-3.66,0.07-4.7-1.4-4.35-4.67c0.12-1.09,0.02-2.21,0.02-3.32
		c0-71.87,0-143.74,0-215.61c0-0.88-0.01-1.77,0-2.65c0.09-4.95,0.09-5.03,5.12-5.04c15.26-0.04,30.52,0.15,45.77-0.12
		c4.24-0.08,6.8,1.29,9.41,4.58c30.82,38.76,61.8,77.4,92.74,116.06c1.34,1.68,2.73,3.31,4.63,5.63c1.35-2.93,0.9-5.29,0.9-7.52
		c0.03-36.93,0.02-73.86,0.02-110.79c0-1.55,0.07-3.1-0.01-4.64c-0.12-2.11,0.44-3.26,2.91-3.24c10.39,0.09,20.79,0.1,31.18,0
		c2.69-0.02,3.49,1.18,3.27,3.61c-0.1,1.1-0.02,2.21-0.02,3.32c0,72.31,0.01,144.63-0.01,216.94c0,8.26,0.89,7.35-7.47,7.39
		c-6.63,0.03-13.28-0.2-19.9,0.09c-3.92,0.17-6.42-1.15-8.87-4.25c-27.39-34.71-54.92-69.3-82.42-103.93
		c-11.82-14.88-23.65-29.77-35.47-44.65C168.81,109.51,168.27,109.59,167.73,109.67z"/>
	<path class="st0" d="M466.47,271.29c-17-0.27-32.27-2.3-46.85-8.06c-26.4-10.43-45.56-28.84-56.67-54.71
		c-17.52-40.77-17.93-82.26-0.22-122.98c15.65-36,43.91-56.7,82.89-62.33c18.61-2.69,37.1-1.9,55.16,3.48
		c31.2,9.28,53.31,29.38,65.71,59.13c17.15,41.12,17.22,82.9-0.96,123.65c-16.77,37.59-47.12,57.24-87.9,61.03
		C473.44,270.89,469.24,271.1,466.47,271.29z M521.33,145.79c-0.34-11.15-0.9-23.05-3.44-34.77c-3.17-14.63-8.17-28.44-18.03-40.01
		c-20.06-23.55-51.43-23.18-71.06,0.76c-6.98,8.51-11.59,18.26-14.46,28.78c-7.7,28.25-7.79,56.72-1.71,85.25
		c2.84,13.33,7.98,25.72,16.87,36.26c19.27,22.84,50.14,23.06,69.81,0.57c5.88-6.73,10.1-14.43,13.33-22.73
		C519.3,182.73,521,164.76,521.33,145.79z"/>
	<path class="st0" d="M1036.98,30.94c12.84,0,25.86,0.02,38.88-0.02c2.19-0.01,3.31,0.77,3.1,3.09c-0.1,1.1-0.01,2.21-0.01,3.32
		c0,48.21-0.03,96.41,0.02,144.62c0.01,9.77-0.77,19.46-3.02,28.95c-6.57,27.66-23.24,46.23-50.63,54.38
		c-28.02,8.34-56.31,8.38-84.27-0.07c-32.4-9.78-49.01-32.88-53.2-65.74c-0.95-7.47-1.15-14.97-1.15-22.5
		c0.06-46,0.03-91.99,0.03-137.99c0-2.42,0-4.84,0-7.03c1.86-1.43,3.69-1,5.42-1c16.36-0.03,32.73-0.03,49.09-0.01
		c5.63,0.01,5.67,0.05,5.67,5.82c0.01,47.32-0.02,94.65,0.03,141.97c0.01,8.17,0.12,16.34,1.76,24.42
		c3.76,18.54,12.98,27.87,31.54,30.8c9.21,1.45,18.55,1.28,27.67-1.04c12.3-3.13,20.52-10.84,24.51-22.9
		c3.24-9.78,3.79-19.93,3.79-30.12c0.02-47.1,0-94.2,0.04-141.3C1036.26,36.2,1035.72,33.74,1036.98,30.94z"/>
	<path class="st0" d="M1558.54,262.16c-21.26,0-41.59-0.1-61.93,0.09c-3.67,0.03-4.31-2.14-5.31-4.64
		c-6.87-17.22-13.78-34.41-20.68-51.62c-0.57-1.43-1.21-2.85-1.66-4.32c-0.77-2.48-2.34-3.24-4.92-3.24
		c-25.87,0.09-51.74,0.13-77.61-0.04c-3.63-0.02-4.33,2.05-5.34,4.6c-6.84,17.23-13.76,34.43-20.64,51.64
		c-0.57,1.43-1.16,2.87-1.66,4.33c-0.82,2.37-2.28,3.3-4.93,3.27c-11.71-0.15-23.42-0.06-35.34-0.06c-0.91-2.75,0.8-4.73,1.64-6.82
		c24.21-60.43,48.47-120.84,72.71-181.25c5.18-12.9,10.47-25.76,15.43-38.75c1.33-3.48,3.08-4.59,6.79-4.52
		c14.37,0.24,28.74,0.1,43.11,0.1c7.24,0,5.68-0.28,8.04,5.46c20.97,51.03,41.83,102.1,62.71,153.17
		c9.02,22.06,18.04,44.12,27.05,66.19C1556.75,257.55,1557.45,259.37,1558.54,262.16z M1395.83,165.28c19.57,0,38.4,0,57.97,0
		c-9.64-24.12-19.09-47.75-28.98-72.48C1414.92,117.55,1405.47,141.18,1395.83,165.28z"/>
	<path class="st0" d="M790.13,262.17c-17.86,0-34.87,0.04-51.89-0.04c-3.5-0.02-7.81,1.47-10.28-0.72c-2.37-2.1-3.04-6.22-4.27-9.52
		c-17.03-45.48-34.01-90.97-51.05-136.45c-0.91-2.43-1.43-5.07-3.18-7.21c-2.21,1.6-2.39,4.21-3.22,6.41
		c-17.7,47.11-35.33,94.25-52.98,141.38c-2.29,6.13-2.3,6.13-8.78,6.13c-11.49,0.01-22.98,0-34.51,0c-0.34-2.63,0.89-4.55,1.65-6.58
		C598.81,182.8,625.97,110,653.23,37.25c2.73-7.28,0.84-6.26,9.33-6.31c10.84-0.05,21.68-0.05,32.51,0c8.63,0.04,6.59-0.97,9.6,6.88
		c13.14,34.2,26.18,68.45,39.26,102.68c14.66,38.35,29.33,76.7,43.97,115.06C788.61,257.37,789.16,259.26,790.13,262.17z"/>
	<path class="st0" d="M758.09,107.92c-2.16,5.74-4.23,11.24-6.28,16.71c-2.41-0.27-2.16-2.29-2.66-3.55
		c-6.06-15.16-11.9-30.41-18.05-45.53c-1.37-3.36-1.28-6.17,0.06-9.47c4.09-10.01,8.03-20.08,11.71-30.24
		c1.3-3.59,2.93-5.14,7.04-5.03c12.59,0.32,25.2,0.1,37.8,0.12c5.36,0.01,5.38,0.03,7.38,5.26c18.11,47.4,36.23,94.8,54.33,142.2
		c9.84,25.76,19.66,51.54,29.48,77.31c0.7,1.83,1.37,3.66,2.31,6.19c-2.35,0.1-4.21,0.26-6.07,0.26
		c-17.69,0.02-35.37,0.02-53.06,0.01c-7.47-0.01-6,0.6-8.36-5.8c-17.38-46.97-34.63-93.98-51.97-140.96
		C760.84,112.96,760.51,110.22,758.09,107.92z"/>
	<path class="st0" d="M655.58,254.83c9.74-26.8,19.13-52.61,28.5-78.39c2.57,0.23,2.28,2.29,2.77,3.49
		c5.51,13.46,10.85,26.99,16.31,40.46c1.12,2.75,1.52,5.2,0.23,8.16c-3.25,7.47-6.17,15.09-9.05,22.72
		c-0.88,2.32-1.88,3.65-4.65,3.61C678.67,254.75,667.64,254.83,655.58,254.83z"/>
</g>
</svg>
