<?xml version="1.0" encoding="utf-8"?>
<!-- Generator: Adobe Illustrator 19.1.0, SVG Export Plug-In . SVG Version: 6.00 Build 0)  -->
<svg version="1.1" id="Layer_1" xmlns="http://www.w3.org/2000/svg" xmlns:xlink="http://www.w3.org/1999/xlink" x="0px" y="0px"
	 viewBox="-41 302 528.1 189" style="enable-background:new -41 302 528.1 189;" xml:space="preserve">
<style type="text/css">
	.st0{fill:#FFFFFF;}
	.st1{clip-path:url(#SVGID_5_);}
	.st2{clip-path:url(#SVGID_6_);}
	.st3{fill:#241F20;}
	.st4{fill:none;stroke:#403C3D;stroke-miterlimit:10;stroke-dasharray:1;}
	.st5{opacity:0.75;}
	.st6{fill:#85361C;}
	.st7{fill:none;stroke:#85361C;stroke-miterlimit:10;stroke-dasharray:1;}
	.st8{clip-path:url(#SVGID_11_);}
	.st9{clip-path:url(#SVGID_12_);}
	.st10{fill:#736658;}
</style>
<g>
	<path class="st0" d="M146.7,891.5"/>
</g>
<g>
	<g>
		<g>
			<g>
				<defs>
					<polygon id="SVGID_1_" points="6,699.9 7,699.9 6,700.9 					"/>
				</defs>
				<clipPath id="SVGID_2_">
					<use xlink:href="#SVGID_1_"  style="overflow:visible;"/>
				</clipPath>
			</g>
			<g>
				<defs>
					<polygon id="SVGID_3_" points="6,699.9 7,699.9 6,700.9 					"/>
				</defs>
				<defs>
					<polygon id="SVGID_4_" points="4,697.9 3,697.9 4,696.9 					"/>
				</defs>
				<clipPath id="SVGID_5_">
					<use xlink:href="#SVGID_3_"  style="overflow:visible;"/>
				</clipPath>
				<clipPath id="SVGID_6_" class="st1">
					<use xlink:href="#SVGID_4_"  style="overflow:visible;"/>
				</clipPath>
				<g class="st2">
					<g>
						<path class="st3" d="M744.9,1149.9"/>
						<path class="st4" d="M744.9,1149.9"/>
					</g>
					<g class="st5">
						<path class="st6" d="M744.9,1149.9"/>
						<path class="st7" d="M744.9,1149.9"/>
					</g>
				</g>
			</g>
		</g>
	</g>
</g>
<g>
	<g>
		<g>
			<g>
				<defs>
					<polygon id="SVGID_7_" points="6,699.9 7,699.9 6,700.9 					"/>
				</defs>
				<clipPath id="SVGID_8_">
					<use xlink:href="#SVGID_7_"  style="overflow:visible;"/>
				</clipPath>
			</g>
			<g>
				<defs>
					<polygon id="SVGID_9_" points="6,699.9 7,699.9 6,700.9 					"/>
				</defs>
				<defs>
					<polygon id="SVGID_10_" points="4,697.9 3,697.9 4,696.9 					"/>
				</defs>
				<clipPath id="SVGID_11_">
					<use xlink:href="#SVGID_9_"  style="overflow:visible;"/>
				</clipPath>
				<clipPath id="SVGID_12_" class="st8">
					<use xlink:href="#SVGID_10_"  style="overflow:visible;"/>
				</clipPath>
				<g class="st9">
					<g>
						<path class="st3" d="M73,1149.9"/>
						<path class="st4" d="M73,1149.9"/>
					</g>
					<g class="st5">
						<path class="st6" d="M73,1149.9"/>
						<path class="st7" d="M73,1149.9"/>
					</g>
				</g>
			</g>
		</g>
	</g>
</g>
<g>
	<g>
		<g>
			<path class="st3" d="M-5.8,471.2c0,11.3,0.3,12.7,10.2,13.4l4.2,0.3c0.9,0.5,0.6,2.4-0.3,2.7c-8.8-0.2-13.9-0.3-20.1-0.3
				c-6.5,0-12,0.1-18.8,0.3c-0.9-0.3-1.2-2-0.3-2.7l3.2-0.3c9-0.9,9.3-2.1,9.3-13.4v-39.6c0-9.1-0.1-10.9-7-11.5l-5.7-0.4
				c-0.1,0-0.2,0-0.3,0c-7.9-0.1-9.8-2.6,0.4-2.7c8.2-0.8,17.8-0.9,30.6-0.9s22.4,1.2,29.6,4.3c7.1,3.1,12.3,8.7,12.3,16.1
				c0,9.9-8.8,14.8-15.4,17.1c-6.8,2.3-15,2.8-21.3,3.2l-0.2-2.1c16.7-2.1,22.7-8.7,22.7-18c0-10.4-8.8-17.2-24.8-17.2
				c-8.2,0-8.3,0.4-8.3,3.9L-5.8,471.2L-5.8,471.2z"/>
		</g>
		<g>
			<path class="st3" d="M56.7,432c0-8.4-0.2-9.6-6.2-10.1l-1.6-0.2c-0.6-0.3-0.4-1.8,0.2-2c4.3,0.2,7.8,0.2,11.9,0.2h19
				c6.5,0,12.4,0,13.7-0.2c0.6,1.4,1.2,7.2,1.6,10.7c0.6,5.8-2,0.6-2.5,0.2c-1.5-3.8-2.4-6.6-7.7-7.6c-2.1-0.4-5.4-0.5-9.8-0.5H68
				c-3,0-3,0.2-3,3.2v16.1c0,2.3,0.3,2.3,3.3,2.3h5.9c4.2,0,7.4-0.2,8.6-0.5s1.9-0.8,2.4-2.8l0.8-3.3c0.5-0.5,2.2-0.5,2.6,0.1
				c0,1.9-0.4,5.1-0.4,8.1c0,2.9,0.4,5.9,0.4,7.7c-0.4,0.6-2.1,0.6-2.6,0.1l-0.9-3.1c-0.4-1.4-1.1-2.7-3.1-3.1
				c-1.4-0.3-3.8-0.4-7.8-0.4h-5.9c-3,0-3.3,0.1-3.3,2.2v11.3c0,4.3,0.3,7,1.9,8.4c1.2,1,3.3,1.8,12.2,1.8c7.8,0,10.7-0.3,12.9-1.2
				c1.8-0.8,4.6-3.6,7.2-7.8c0.7-0.4,2.1-0.2,2.5,0.6c-0.7,2.8-3.2,9-4.6,11.2c-9.1-0.2-18.1-0.2-27.1-0.2h-9.1
				c-4.3,0-7.8,0.1-13.8,0.2c-0.6-0.2-0.8-1.5-0.2-2l3.3-0.2c5.8-0.4,6.3-1.6,6.3-10V432L56.7,432L56.7,432z"/>
		</g>
		<g>
			<path class="st3" d="M170.6,459.4c0,2.4,0,12,0.3,14.1c-0.2,0.5,0,2.8-1.1,2.8c-1.2-1.4-4.9-6.1-13.7-14.1L132.6,441
				c-2.7-2.5-9.6-9.1-11.7-10.9h-0.2c-0.4,1-0.5,2.8-0.5,5.2v17.5c0,3.8,0.1,14.2,1.8,16.6c0.6,0.9,2.6,1.4,5.2,1.5l3.1,0.2
				c0.6,0.6,0.5,1.6-0.2,2c-4.6-0.2-8.1-0.2-11.8-0.2c-4.2,0-7,0.1-10.5,0.2c-0.7-0.4-0.8-1.5-0.2-2l2.7-0.2
				c2.3-0.2,3.9-0.7,4.5-1.6c0.2-0.4,1.3-13.8,1.3-16.6v-23.2c0-2.3-0.1-3.9-2.2-5.8c-1.4-1.1-3.8-1.7-6.3-1.9l-1.7-0.2
				c-0.6-0.5-0.6-1.7,0.2-2c4.2,0.2,9.6,0.2,11.4,0.2c1.6,0,3.3-0.1,4.7-0.2c2,4.1,14,14.7,17.3,17.7l9.8,8.8
				c7,6.2,11.9,10.7,16.7,14.5h0.2c0.4-0.4,0.4-1.7,0.4-3.4V440c0-3.8-0.1-14.2-2-16.6c-0.6-0.7-2.2-1.2-6.3-1.6l-1.7-0.2
				c-0.7-0.5-0.6-1.8,0.2-2c4.7,0.2,8.1,0.2,11.9,0.2c4.3,0,7-0.1,10.4-0.2c0.8,0.4,0.8,1.5,0.2,2l-1.4,0.2c-3.2,0.4-5.3,1-5.7,1.7
				c-1.7,2.9-1.5,12.9-1.5,16.6L170.6,459.4L170.6,459.4z"/>
		</g>
		<g>
			<path class="st3" d="M208.3,447.1c-4.9,0-5.1,0.2-5.1,2.6V461c0,8.4,0.5,9.6,6.2,10l2.9,0.2c0.6,0.3,0.4,1.8-0.2,2
				c-5.5-0.2-8.9-0.2-12.8-0.2c-4.3,0-7.8,0.2-11.7,0.2c-0.6-0.2-0.8-1.5-0.2-2l1.7-0.2c5.7-0.8,5.9-1.6,5.9-10v-28.9
				c0-8.4-0.7-9.8-6-10.1l-2.6-0.2c-0.6-0.3-0.4-1.8,0.2-2c5,0.1,8.4,0.2,12.7,0.2c3.9,0,7.4-0.1,11.7-0.2c0.6,0.2,0.8,1.7,0.2,2
				l-1.9,0.2c-5.9,0.5-6.1,1.7-6.1,10.1v9.2c0,2.5,0.2,2.6,5.1,2.6h28.9c4.9,0,5.1-0.1,5.1-2.6v-9.2c0-8.4-0.2-9.6-6.2-10.1
				l-1.9-0.2c-0.6-0.3-0.4-1.8,0.2-2c4.7,0.2,8.1,0.2,12.2,0.2c3.9,0,7.4-0.1,11.9-0.2c0.6,0.2,0.8,1.7,0.2,2l-2.1,0.2
				c-5.9,0.5-6.1,1.7-6.1,10.1V461c0,8.4,0.2,9.5,6.1,10l2.4,0.2c0.6,0.3,0.4,1.8-0.2,2c-4.9-0.2-8.3-0.2-12.2-0.2
				c-4.1,0-7.8,0.1-12.2,0.2c-0.6-0.2-0.8-1.5-0.2-2l1.9-0.2c6.2-0.8,6.2-1.6,6.2-10v-11.3c0-2.4-0.2-2.6-5.1-2.6H208.3z"/>
		</g>
		<g>
			<path class="st3" d="M304.7,454.4c-0.7-1.8-1.1-2-4.1-2h-15.3c-2.5,0-3.1,0.2-3.8,1.9l-3.5,8.4c-1.5,3.6-2.2,5.8-2.2,6.7
				c0,1,0.5,1.4,2.9,1.6l3.3,0.2c0.7,0.4,0.7,1.7-0.2,2c-2.6-0.2-5.8-0.2-10.5-0.2c-3.3,0-7,0.2-9.7,0.2c-0.6-0.3-0.8-1.6-0.2-2
				l3.3-0.2c2.4-0.2,4.7-1,6.1-3.9c1.8-3.7,4.7-8.9,8.9-17.9l10.3-21.7c1.4-2.9,2-4.4,1.7-5.7c2.4-0.6,4.1-2,5.3-3.1
				c0.6,0,1.3,0.2,1.5,0.7c1.3,3.5,2.9,7.2,4.5,10.8l13.9,32.3c2.9,6.9,4.2,8.1,8.6,8.5l2.7,0.2c0.7,0.4,0.5,1.7,0,2
				c-4.1-0.2-7.7-0.2-12.2-0.2c-4.9,0-8.7,0.2-11.6,0.2c-0.8-0.3-0.9-1.6-0.2-2l2.9-0.2c2.1-0.2,3.5-0.6,3.5-1.4
				c0-0.9-0.5-2.3-1.3-4.3L304.7,454.4z M284.7,447.2c-0.8,1.8-0.7,1.9,2.1,1.9h12.4c2.9,0,3.1-0.3,2.2-2.5l-5.5-13.1
				c-0.8-1.9-1.7-4.1-2.3-5.1h-0.2c-0.3,0.4-1.3,2.3-2.4,4.7L284.7,447.2z"/>
		</g>
		<g>
			<path class="st3" d="M314.6,421.7c-0.6-0.5-0.5-1.6,0.3-1.9c2.7,0.2,7.3,0.2,10.4,0.2c2.8,0,8-0.1,11.5-0.2
				c0.9,0.2,0.8,1.4,0.2,1.9l-2.3,0.2c-2.1,0.2-3.3,0.6-3.3,1.4c0,1,2.1,5.1,5.3,10.8c5.7,10,11.6,20.1,17.5,30
				c2.4-4,5.2-8.5,7.8-13c0.9-1.5,1.6-2.9,1.6-3.3s-0.3-1.1-0.8-2.1c-3.5-6.4-7.3-12.9-11.1-19.3c-1.5-2.5-3-4.2-6.5-4.4l-2.4-0.2
				c-0.7-0.6-0.6-1.6,0.2-1.9c2.9,0.2,6.8,0.2,10.8,0.2c5.1,0,8.8-0.1,11.1-0.2c0.7,0.2,0.8,1.3,0.2,1.9l-2.6,0.2
				c-3.9,0.2-4,0.8-2.1,4.4c2.1,3.9,5,9,7.8,14c1.9-3.1,3.7-6.2,6-10.5c3.6-6.8,3.1-7.7-0.1-7.9l-3-0.2c-0.7-0.8-0.5-1.7,0.2-1.9
				c2.7,0.2,5.8,0.2,9.5,0.2c3.3,0,7.4-0.1,9.7-0.2c0.7,0.2,0.8,1.3,0.2,1.9l-2.9,0.2c-4.2,0.2-6.1,3.9-8.3,7.2
				c-2.1,3-6.4,10-7.9,12.8c-0.5,0.8-0.9,1.6-0.9,1.9s0.2,1,0.7,1.9c3.4,6.2,7,12.2,10.3,18.3c3.1-5.6,6.2-11.3,9.1-17
				c2-3.9,7.4-14.5,8.1-16c1.3-2.9,3-6.3,3-7.3c0-1.1-1.2-1.8-3.3-1.8l-2.9-0.2c-0.8-0.7-0.7-1.6,0.1-1.9c3.8,0.2,6.6,0.2,9.7,0.2
				c3.8,0,6.8-0.1,9.4-0.2c0.8,0.2,0.9,1.3,0.2,1.9l-1.9,0.2c-5.1,0.4-6,2.8-12,14l-7.4,13.6c-4.5,8.2-8.5,16.1-12.6,24.7
				c-0.2,0.4-0.9,2.2-1.4,2.2s-1-1.6-1.3-2.2c-3.2-7.2-9.1-17.2-12.2-22.8c-3.6,5.9-9.7,16.2-12.6,22.8c-0.2,0.4-0.9,2.2-1.3,2.2
				c-0.5,0-1.3-1.7-1.4-2.2c-1.7-3.4-5.7-10.6-7-12.9c-6.5-11.2-12.7-22.3-19.3-33.5c-1.9-3.3-3.1-5.5-7.4-5.8L314.6,421.7z"/>
		</g>
		<g>
			<path class="st3" d="M426.5,432c0-8.4-0.2-9.7-6.1-10.1l-2.5-0.2c-0.6-0.3-0.4-1.8,0.2-2c5,0.2,8.2,0.2,12.7,0.2
				c3.9,0,7.4-0.1,11.7-0.2c0.6,0.2,0.8,1.7,0.2,2l-1.9,0.2c-5.9,0.5-6.1,1.7-6.1,10.1v9.2c0,1.5,0.2,3.1,1.3,3.1
				c0.9,0,2.1-0.5,2.8-0.9c1.4-1,4-3.1,5.2-3.9l10.9-8.6c1.9-1.4,6.9-5.5,7.9-6.7c0.5-0.6,0.7-1,0.7-1.3s-0.4-0.6-1.7-0.8l-2.7-0.5
				c-0.7-0.6-0.6-1.6,0.2-2c3.5,0.2,7.6,0.2,11.1,0.2s7-0.1,10-0.2c0.7,0.4,0.8,1.5,0.2,2c-2.6,0.2-6.6,1-9.4,2.3s-8.5,5.1-14.2,9.3
				l-9.1,6.8c-1.4,1.1-2.3,1.8-2.3,2.5c0,0.6,0.6,1.2,1.9,2.5c9.6,8.8,17.4,16,25.3,22.6c2.4,1.9,4.7,3,8.1,3.3l2.7,0.2
				c0.7,0.4,0.5,1.8-0.2,2c-2.6-0.2-6.6-0.2-11.3-0.2c-4.1,0-7.7,0.1-12.3,0.2c-0.7-0.2-1-1.5-0.4-2l2.3-0.3
				c1.4-0.2,2.4-0.4,2.4-0.8c0-0.5-0.7-1.1-1.4-1.8c-1.9-1.9-4.6-4.1-8.4-7.6l-8.1-7.2c-5.8-5.1-7.4-6.8-9.8-6.8
				c-1.5,0-1.7,1-1.7,3.9v10.4c0,8.4,0.2,9.6,5.9,10l2.7,0.2c0.6,0.3,0.4,1.8-0.2,2c-5-0.2-8.4-0.2-12.3-0.2
				c-4.1,0-7.6,0.1-11.7,0.2c-0.6-0.2-0.8-1.4-0.2-2l2-0.2c5.4-0.6,5.6-1.6,5.6-10L426.5,432L426.5,432z"/>
		</g>
	</g>
	<g>
		<polygon class="st10" points="221.6,402.7 160.2,360.3 195.7,305.5 257.1,347.9 		"/>
		<path class="st0" d="M215.2,362c0.9,1,1.3,2.3,1.6,3.6c0.2,0.9,0.3,1.8,0.5,2.6c0.3-2.5,0.4-5-0.6-7.7c1,1.3,1.8,6.4,1.3,8.1
			c0-1.2-0.1-2.3-0.1-3.4c-0.1,0-0.1,0-0.2,0c0.3,3.5-1,6.8-0.3,10.4c0.1,0,0.1,0,0.2,0c0-1.1,0-2.2,0-3.4c0.5,1.7,0,3.6,1,5.4
			c-0.1-1.4-0.2-2.5-0.2-3.7h0.1c0.1,1.4,0.3,2.8,0.4,4.2c0,0,0,0,0.1,0c0-1.2,0-2.5,0-3.7c0.1-1.7,0.3-3.3,0.2-5
			c-0.1-1.6-0.4-3.3-0.6-4.9c1,3.3,1,6.6,0.6,9.9c0.9-1.4,1.8-2.8,2.7-4.1c-0.1-0.1-0.2-0.2-0.4-0.3c0.1,0.7-0.3,1.6-0.7,2.3
			c-0.4,0.8-0.8,1.6-1.2,2.4c-0.1,0.2-0.1,0.5-0.1,0.8c0.7-1.1,1.2-2.3,1.9-3.3c1.1-1.7,1.2-3.8,1.1-6c0-0.2,0-0.3,0-0.5
			c0,0,0,0,0.1-0.1c0.5,2.5,0.4,4.8-0.8,6.8c-0.7,1-1.3,2.2-1.8,3.3c-0.5,0.9-0.5,2.1-0.4,3.2c0,0.2,0.1,0.4,0.3,0.6
			c0-2.2,1.2-3.3,2-4.8c1.7-3,2-5.3,1.2-9.1c0.7,1.2,1,3.3,0.4,5.8c-0.5,1.8-1.3,3.5-2,5.2c1.2-0.5,2.4-1,3.5-1.4
			c-0.3,0.6-0.5,0.8-1.6,1.2c-0.2,0.1-0.5,0.1-0.8,0.2c-1.2,0.1-1.9,0.9-2.3,2.3c-0.2,0.8-0.2,1.4,0.2,2.1c1.9,3.1,3.9,6.2,5.8,9.3
			c1.4,2.3,2.9,4.6,4.3,6.9c0.1,0.2,0,0.5,0.1,0.8c-0.2-0.1-0.4-0.1-0.5-0.3c-2.8-4.3-5.6-8.7-8.3-13c-0.4-0.7-0.9-1.4-1.3-2.1
			c-0.3,1.9-1.9,1.7-2.8,2.8c0.2-0.7,0.7-1.1,1.5-1.5c0.9-0.4,1.1-0.7,1-2c-0.4,1.3-1.1,2-2.2,2.2c1.6-0.9,2.1-2.1,1.3-3.4
			c-0.7,2.9-2.3,3.8-4.6,3.4c0.8-0.1,1.5-0.1,2.1-0.4s1.4-0.6,1.6-1.8c-0.2,0.1-0.3,0.1-0.5,0.2c0.4-0.7,0.7-1.3,1.1-2
			c-0.1-0.1-0.1-0.1-0.2-0.2c-0.5,0.5-0.9,1.2-1.4,1.5c-1.2,0.8-2.5,1.1-3.9,0.5c-1.1-0.5-2.2-1.2-3.1-2.2c-0.7-0.8-1.4-1.7-2.2-2.4
			c-1.1-0.9-1.9-2.2-2.6-3.5c-0.1-0.1-0.1-0.4-0.2-0.5c1.8,2.4,3.8,3.9,6.4,3.8c-0.8,0.2-1.5,0.4-2.3-0.1c-0.7-0.4-1.5-0.8-2.2-1.2
			c0.6,0.6,1.1,1.1,1.8,1.6c0.6,0.4,1.3,0.8,1.9,1.1c0.6,0.3,1.3,0.4,1.9,0.6c-1.1,0.6-2.1-0.5-3.2-0.8c0.3,0.3,0.6,0.6,0.8,0.8
			c1.2,1.3,2.5,2.3,4,2.4c0.6,0,1.3,0.4,1.9-0.2c0.7-0.7,1.6-1.2,2.5-2c-0.4-0.4-0.8-0.9-1.1-0.9c-0.4,0-0.8,0.3-1.1,0.6
			c-1,0.9-2.1,1.2-3.1,1.3c1.3-0.8,2.7-1.6,4.1-2.5c-0.3-0.6-0.6-1.1-0.8-1.4c-0.1-0.2-0.4-0.4-0.5-0.3c-0.9,0.4-1.9,0.8-2.8,1.2
			c-0.6,0.3-1.3,0.6-1.9,0.9c0-0.1-0.1-0.2-0.1-0.3c1.6-0.7,3.2-1.4,4.9-2.2c0-0.1,0-0.3-0.1-0.4c-0.2-0.1-0.4-0.2-0.6-0.2
			s-0.4,0.2-0.7,0.3c0.2-0.3,0.3-0.4,0.4-0.5c0.1-0.1,0.3-0.2,0.4-0.4c-0.2-0.3-0.3-0.6-0.4-0.7c-0.5,0.3-1.1,0.7-1.6,1
			c1.3-1.4,1.3-1.5,1-2c-0.5,0.3-1,0.6-1.5,0.8c-0.8,0.3-1.6,0.4-2.3,0.9c-1,0.6-1.9,0.7-3,0.1c1.5,0.3,2.8-0.3,4.3-1
			c-2.7-0.6-5.2-0.6-7.7-2.2c0.2,0.5,0.3,0.8,0.5,1.2c-1.1-1.6-2.2-3.1-3.2-4.8c-0.7-1.2-1.3-2.7-1.9-4c-0.1-0.2-0.1-0.5-0.2-0.7
			c0.8,1.9,2.1,3.1,3.3,4.4c0.2,0.2,0.4,0.5,0.6,0.7c-0.9-0.8-1.8-1.6-2.8-2.5c0.3,0.6,0.6,1.1,0.8,1.7c1.2,2.4,2.7,4.2,4.8,4.7
			c1.8,0.5,3.7,1.1,5.5,0.9c0.8-0.1,1.7-0.2,2.4-0.7c-0.2-0.9-0.5-1.1-1.1-0.7c-0.2,0.2-0.5,0.1-0.9,0.2c0.5-0.3,0.9-0.5,1.2-0.7
			c-1.6-0.1-3.1-0.1-4.7-0.2c1.4-0.5,3,0.3,4.4-0.8c-0.3-0.3-0.5-0.9-0.7-0.9c-0.9,0-1.8,0.1-2.6,0.2c-1.4,0.2-2.8,0.1-4.1-0.2
			c-0.5-0.1-0.9-0.4-1.4-0.7c1,0.2,2.1,0.5,3.1,0.6c0.4,0.1,0.9-0.1,1.4-0.1c-1.1-0.4-2.1-0.7-3.2-1c1.5,0.3,3.1,0.5,4.6,0.8h0.1
			c0.6,0,1.1,0.1,1.7,0.1c0.1,0,0.2-0.2,0.3-0.3c-0.1-0.2-0.2-0.4-0.3-0.4c-0.8-0.2-1.6-0.4-2.5-0.5c-1.8-0.2-3.6-0.3-5.3-1.7
			c-1.2-1-2.4-2-3.2-3.6c0.1,0.1,0.3,0.1,0.3,0.2c0.6,0.7,1.1,1.4,1.7,2c0.4,0.4,0.8,0.7,1.2,1c0.8,0.5,1.5,1.1,2.3,1.3
			c1.3,0.3,2.6,0.4,4,0.6c0.4,0,0.7,0,1.3,0.1c-0.4-0.7-0.7-1.3-1.1-1.5c-0.4-0.3-0.9-0.4-1.4-0.5c-1.2-0.2-2.4-0.4-3.6-0.6
			c-1.3-0.2-2.5-0.6-3.6-1.7c-0.4-0.4-0.9-0.8-1.3-1.2c-0.6-1-1.2-2.1-1.9-3.1c-0.1,0-0.1,0.1-0.2,0.1c0.5,1.1,1,2.3,1.6,3.3
			c0.7,1.3,1.6,2.6,2.4,3.9c-0.7-0.9-1.5-1.7-2-2.8c-0.8-1.6-1.6-3.3-2.2-5.1c-0.2-0.6-0.2-1.4-0.4-2.3c2,5.2,4.7,8.8,9.2,8.7
			c-0.9-0.6-1.8-1.2-2.7-1.9c-1.8-1.4-3.2-3.3-4.5-5.3c-0.5-0.7-1.1-1.3-1.6-2.1c-0.9-1.6-1.7-3.2-2.6-4.8c-0.8-1.5-1.4-3.2-2.1-4.8
			c-0.1-0.3-0.3-0.7-0.3-1c-0.2-2.6-1.6-4.6-2.3-7c-0.6-2-1.2-4-1.7-6c-0.3-1.1-0.3-2.3-0.5-3.4c-0.3-3.1-0.6-6.1-1-9.2
			c-0.3-3-0.2-5.9,0.4-8.7c0.3-1.3,0.4-2.6,0.7-3.9c0.2-0.8,0.6-1.1,1.3-1.2c1.7-0.1,3,1.6,3.5,3.9s0.6,4.8,0.1,7.4
			c0-0.6,0.1-1.1,0.1-1.7c0.1-2.4,0-4.8-1.1-7c-0.5-1-1.1-1.6-1.8-2c0.3,1.3,0.7,2.6,1,3.9c-0.1,0-0.2,0.1-0.2,0.1
			c-0.2-1.3-0.4-2.6-1.2-3.7c-0.3-0.4-0.6-0.9-1-0.2c-0.1,0.2-0.4,0.3-0.4,0.5c-0.2,0.9-0.3,1.8-0.5,2.8c-0.3,1.9-0.5,3.8-0.7,5.7
			c0,0.4,0.1,1.1,0.4,1.4c0.4,0.5,0.9,0.9,1.3,1.4c0,0.1,0,0.1-0.1,0.2c-0.5-0.4-1-0.9-1.6-1.3c0,0.2-0.1,0.3,0,0.4
			c0.3,3,0.6,6.1,0.9,9.1c0,0.2,0.1,0.4,0.2,0.5c0.8,1.1,1.7,1.8,2.8,2.1c0.5,0.1,0.9,0.4,1.4,0.7c-1.6-0.4-3.2-0.4-4.3-2.7
			c0,2.1-0.3,2,1.7,3.5c-0.5-0.3-1-0.6-1.5-0.9c-0.1,2,0.1,2.5,1.6,2.9c0.6,0.2,1.2,0.4,1.8,0.6c0,0.1,0,0.1,0,0.2
			c-1-0.3-2-0.6-3.1-0.9c0.9,1.5,0.9,3.8,2.7,4.3c0.1,0,0.1,0.2,0.2,0.3c-0.3-0.1-0.5-0.2-0.7-0.4c-0.3-0.1-0.5-0.3-0.8-0.4
			c0.3,2,0.6,2.5,1.7,3.2c0-1.9,0.3-3.6,1.2-5.1c-0.1,1-0.2,1.9-0.2,2.8c0.3,0.2,0.5,0.3,0.8,0.5c0,0.1,0,0.1-0.1,0.2
			c-0.2-0.1-0.4-0.2-0.8-0.4c0.2,0.7,0.3,1.4,0.4,2c-0.4,0.5-0.2,1.4,0.4,2c-0.1,0.1-0.3,0.3-0.3,0.4c0,0.8,0.4,1.1,0.9,1.5
			c0.8,0.6,1.5,1.2,2.2,1.8c0,0.1,0,0.1-0.1,0.2c-0.8-0.6-1.7-1.2-2.5-1.8c1.5,1.6,3,3.2,4.6,4.6s3.3,2.6,4.9,3.8
			c-0.9-3.1-2.5-5-4.8-6c-0.7-0.3-1.3-0.9-1.9-1.3c0-0.1,0.1-0.2,0.1-0.3c1.7,1.1,3.4,2.2,5,3.3c-0.2-0.9-0.8-1.6-1.5-2
			c-1-0.6-2-1-3-1.6c-0.8-0.5-1.5-1.1-2.2-1.6c0.2,0.1,0.4,0.1,0.6,0.2c0.6,0.4,1.1,0.8,1.7,1.1c1.2,0.6,2.5,1.2,3.7,1.7
			c-0.5-1.7-0.5-1.8-1.4-2.4c-0.4-0.3-0.9-0.3-1.3-0.5c-1-0.4-2-0.7-2.8-1.8c0.2,0.1,0.4,0.2,0.6,0.3c1.3,0.6,2.5,1.2,3.8,1.8
			c0-0.1,0.1-0.2,0.1-0.3c-0.2-0.7-0.4-1.4-0.7-2.1c-0.1-0.2-0.3-0.3-0.5-0.3c-0.8-0.3-1.6-0.6-2.4-1.5c1,0.3,1.7,1.1,2.6,0.8
			c-0.1-1-0.6-1.3-1.2-1.5c-0.7-0.3-1.4-0.7-2-1.7c0.8,0.7,1.6,1.3,2.5,1.1c-0.5-1.8-0.5-1.8-2-3.1c0.4,0.1,0.7,0.2,1.1,0.2
			c-0.1-0.3-0.2-0.5-0.3-0.7c-0.2-0.9-0.6-1.6-1.4-1.8c-0.3-0.1-0.7-0.5-1.1-0.9c0.6,0.1,1.1,0.1,1.8,0.2c-0.4-0.9-0.8-1.7-1.1-2.5
			c0,0,0.1,0,0.2,0c-0.4-1.3-0.7-2.6-1.2-3.7s-1.2-2.1-1.9-3.1c0.4,0.4,0.8,0.9,1.4,1.5c-0.4-1.3-0.8-2.4-1-3.5
			c-0.2-1.1-0.8-1.7-1.5-2.2c-0.2-0.1-0.4-0.2-0.7-0.3c0-0.1,0-0.1,0-0.2c0.5,0.2,0.9,0.4,1.3,0.5c0-1.5-1.1-1.8-1.7-2.7
			c0.4,0.2,0.8,0.4,1.2,0.6c-0.8-3.3-1.7-6.5-2.5-9.8c0.5,1.7,1.1,3.5,1.6,5.2c0.3,1.1,0.6,2.1,1,3.4c0.5-1.5,0.6-2.8,0.4-4.2
			c0.1,0,0.1,0,0.2,0c0,1.1,0.2,2.3,0,3.2c-0.4,1.6,0,3,0.4,4.4c0.5,1.7,1,3.3,1.6,5.1c0.1-0.2,0.1-0.4,0.2-0.6c0,0-0.1,0-0.1,0.1
			c0.5,1.7,0.9,3.4,1.4,5.1c0.1,0,0.1,0,0.2,0c0-0.3,0.1-0.5,0.1-0.8c0,0,0,0,0.1,0c0.1,0.6,0.1,1.1,0.2,1.7
			c0.1,0.5,0.2,1.1,0.4,1.6c0.2,0.6,0.4,1.1,0.7,1.6c0-1.6,0.1-3.1,0.1-4.7h0.1c0,1.1,0,2.3,0,3.4s-0.2,2.2,0.4,3.5
			c-0.1-1.7-0.3-3.3,0.3-4.7c-0.4,2.5-0.1,5,0.7,7.4c0-0.7,0-1.4,0-2.1s0-1.5,0-2.2c0.1-3.9,0.2-7.9,0.3-11.8c0-1.5,0-3-0.3-4.5
			c-0.2-1.3-0.7-2.7-1.3-3.9c-0.7-1.4-1.6-2.7-2.8-3.5c0,0-0.1-0.1-0.1-0.2c1.4,0.5,2.8,2.1,3.6,4.3c0.6,1.6,1.1,3.2,1.9,4.7
			c0.5,0.9,0.7,2.1,0.9,3.2c0.2,1.3,0.7,2.3,1.3,3.3c1.2,1.8,1.3,3.8,1.2,6c-0.2-1.3-0.4-2.6-0.6-3.9c0,0,0,0-0.1,0
			c0,0.6-0.1,1.2-0.1,1.8c0-0.3,0-0.7,0-1c0-1.4-0.4-2.7-1.4-3.7c0,0.5,0,0.9,0,1.3s0,0.7,0,1c-0.2-2.2-0.3-4.3-1-6.4
			c0.4,4.1,0.3,8.1-0.2,12c0-0.3-0.1-0.5,0-0.8c0.1-1.3,0.2-2.6,0.2-3.9c0-2.5-0.2-5-0.2-7.5c0-0.9-0.2-1.7-0.7-2.4
			c0,1,0.1,1.9,0.1,2.7c-0.2,5.6-0.4,11.2-0.2,16.9c0.1,1.8,0.6,4,1.2,5c0-0.1,0-0.3,0.1-0.6c0.2,2.6,1.3,4.5,2,6.6
			c0-0.3,0.1-0.6,0-0.8c-0.4-2.3,0-4.4,0.1-6.6c0,1.1,0.1,2.2,0,3.2c-0.2,2.5,0,4.9,1,7.1c0.5,1.2,1.1,2.4,1.7,3.8
			c0.1-0.4,0.1-0.6,0.1-0.9c0.2-3.1,0.4-6.1,0.5-9.2c0-1.3,0-2.7-0.2-4.1c-0.3-1.7-0.8-3.4-1.2-5.1c0.2,0.3,0.4,0.6,0.4,0.9
			c0.4,1.6,0.9,3.3,1,4.9c0.2,1.8,0,3.7,0,5.6c-0.1,2.4,0,4.8-0.3,7.1c-0.2,1.5,0.5,2.3,0.9,3.4c0-3.8,0-7.7,0-11.5
			c0.1,0,0.1,0,0.2,0c0,2,0.1,3.9,0,5.9c-0.1,2.3,0.1,4.6,0.4,6.9c0.1,0.4,0.2,0.7,0.4,1c0,0,0.1,0,0.1-0.1
			c-0.1-2.1-0.1-4.2-0.2-6.3c0.1,0.2,0.1,0.4,0.2,0.6c0.2,2.2,0.3,4.4,0.5,6.6c0.1,0.6,0.4,1.1,0.6,1.7c0.1-2.1,0.1-4.1,0.1-6.1
			c0-3.5,0-7-0.6-10.5c-0.3-1.7-0.7-3.3-1.1-4.9c-0.5-2.4-1.2-4.6-2.2-6.7c-0.8-1.7-1.8-2.4-3-2.1c1.7,2,2.5,4.8,2.5,8.7
			c-0.2-1.4-0.3-2.7-0.5-4h-0.1c0,1.2,0,2.5,0,3.7c-0.2-2.1-0.1-4.3-0.9-6.6c0,1.1,0,2,0,2.9c-0.1,1.3-0.2,2.6-0.3,3.9
			c0-1.5,0.1-3.1,0.1-4.6s0.2-3.1-1.4-3.9c0.5-0.3,0.9-0.5,1.2-0.7c0-0.7,0.1-1.4,0.1-2c0,0.3,0,0.6,0,0.8c0,0.7,0.1,1.1,0.8,1.5
			c0.7,0.4,1.3,1.4,1.7,2.2c2,4.2,3.1,8.8,3.5,13.6c0.1,1,0.3,1.9,0.9,2.7c0.9,1.2,1.4,2.6,1.8,4.2c0.6,2.1,1.3,4.1,1.9,6.1
			C214.8,360.5,215,361.3,215.2,362c0.1,0.5,0.1,1.1,0.2,1.6c0.3,1.9,0.7,3.8,0.5,5.7c-0.1,0.7-0.2,1.4-0.2,2c0,0.5,0,1.1,0.1,1.5
			c0.3,0.7,0.7,1.3,1.1,2c0-0.7,0-1.4,0.1-2C217.2,369.1,217,365.4,215.2,362z M196.1,347.8c-0.3-0.5-0.6-1-0.8-1.5
			c-1.1-2.5-1.3-5.1-1.4-7.8c0-0.7,0-1.3-0.1-2c-0.1,0-0.1,0-0.2,0c-0.1,1.2-0.2,2.5-0.2,3.7c0.1,4.2,1.4,7.9,3.7,11.1
			c0.3,0.5,0.6,1,0.9,1.5c-0.3-0.3-0.6-0.6-0.9-0.9c0,0.1-0.1,0.1-0.1,0.2c0.8,1.4,1.5,2.7,2.3,4.1c0.1,0,0.1-0.1,0.2-0.1
			c-0.5-1-0.9-2-1.4-3.1c0.3-0.7,0-1.1-0.4-1.4c0.5-0.8-0.1-1.2-0.5-1.7c0.2,0,0.3,0.1,0.5,0.1c-0.1-0.3-0.2-0.5-0.2-0.6
			c0.1,0.1,0.3,0.3,0.5,0.5c0-0.4,0.1-0.8,0.1-1.1c-1.6-1.1-2.6-2.9-3.3-5c0,0.4,0.1,0.7,0.2,1C195.3,345.7,195.7,346.7,196.1,347.8
			z M206.2,361.9c0-0.1,0-0.1,0.1-0.2c1,0.1,2,0.2,3.1,0.4c-0.3-0.7-0.4-1.1-0.6-1.5s-0.4-0.8-0.9-0.8c-1.6-0.3-1.7-0.4-2.4-1.2
			c0.8,0.4,1.7,0.9,2.6,0.4c-1.5-0.8-3-1.5-4.5-2.3c0-0.1,0-0.1,0-0.2c1.3,0.6,2.6,1.2,4,1.8c-0.6-2.5-1.9-3.7-3.7-4
			c-0.2,0-0.4,0-0.6-0.2c-1.5-0.9-3-1.9-4.4-2.9c0,0,0,0.1-0.1,0.1c0.5,0.4,1,0.9,1.5,1.3c0,0.1-0.1,0.1-0.1,0.2
			c-0.3-0.3-0.7-0.6-1-0.8c0,0.1-0.1,0.1-0.1,0.2c0.2,0.3,0.5,0.7,0.6,0.9c0,0.3,0,0.6,0.1,0.7c0.7,1.1,1.5,2.2,2.3,3.2
			c0.6,0.7,1.3,1.3,1.9,2c-2.2-1.6-4.2-3.2-5.7-8.7c-0.2,2.3,1.8,7,4.7,10.4c2.3,2.7,5,4.2,8,4.9c-0.3-0.6-0.5-1-0.7-1.4
			c-0.5-1.5-1.4-1.9-2.6-1.9C207.3,362.3,206.7,362,206.2,361.9z M210.4,348.9h-0.1c0,0.1,0,0.2,0,0.3c0,3.7,0.2,7.4,0.1,11.1
			c0,1.7,0.4,3,1.3,4.4c0-0.7,0-1.2,0-1.8s0-1.1,0.1-1.7c0,4.8,0.2,4.5,1,5.6c0-0.9,0-1.7,0-2.5c-0.1-1.7-0.1-3.4,0.5-5
			c0.1-0.3,0.1-0.7,0.1-1.1c-0.1-1.9-0.4-3.7-1.1-5.4C211.7,351.5,211,350.2,210.4,348.9z M214.6,370.9l0.1-0.1
			c0.1-1.8,0.1-3.6,0.2-5.4c0.2,2.1-0.1,4.2,0.4,6.3c0.7-4.7-0.3-11.7-1.8-13.7c-0.2,0.9-0.5,1.9-0.5,2.9c-0.1,1.8,0,3.7-0.1,5.6
			c-0.1,1.2,0.4,1.9,0.9,2.8c0-0.3,0.1-0.4,0.1-0.5s0-0.2,0-0.2C214.3,369.4,214.5,370.2,214.6,370.9z M198.3,348.7
			c0.1,1,0.1,1.8,0.9,2.3c0.6,0.3,1.1,0.6,1.6,1.1c1.5,1.4,3.3,1.8,5,2.1c-0.4-0.7-0.7-1.4-1.2-1.8c-0.5-0.5-1.1-0.8-1.6-1.1
			c-0.8-0.5-1.6-1-2.4-1.4C199.9,349.4,199.1,349.1,198.3,348.7z M195.7,344.6c0,0.1-0.1,0.2-0.1,0.3c1,2.7,2.9,3.8,4.9,4.5
			C198.9,347.8,197.3,346.2,195.7,344.6z M192.5,339.5c0.1,0.3,0.2,0.6,0.3,0.9s0.3,0.6,0.5,0.9
			C193.4,340.1,193.3,339.9,192.5,339.5z"/>
	</g>
</g>
</svg>
