<?xml version="1.0" encoding="utf-8"?>
<!-- Generator: Adobe Illustrator 19.1.0, SVG Export Plug-In . SVG Version: 6.00 Build 0)  -->
<svg version="1.1" id="Layer_1" xmlns="http://www.w3.org/2000/svg" xmlns:xlink="http://www.w3.org/1999/xlink" x="0px" y="0px"
	 viewBox="0 0 1133.9 155.1" style="enable-background:new 0 0 1133.9 155.1;" xml:space="preserve">
<style type="text/css">
	.st0{fill:none;stroke:#241F20;stroke-miterlimit:10;}
	.st1{fill:#FFFFFF;}
</style>
<rect class="st0" width="1133.9" height="155.1"/>
<g>
	<g>
		<path class="st1" d="M69.9,119.5c0,24.5,0.7,27.5,22.1,29.1l9.1,0.7c2,1.2,1.3,5.1-0.7,5.8c-19.1-0.5-30.2-0.7-43.6-0.7
			c-14.1,0-26.1,0.2-40.9,0.7c-2-0.7-2.7-4.4-0.7-5.8l7-0.7c19.4-1.9,20.1-4.7,20.1-29.1V33.5c0-19.8-0.1-23.7-15.2-24.9l-12.3-1
			c-0.2,0-0.4,0-0.6,0C-2.8,7.6-7,2,15.2,1.9C33,0.2,53.8,0,81.6,0s48.6,2.6,64.4,9.3c15.4,6.8,26.8,18.9,26.8,34.9
			c0,21.4-19.1,32.1-33.5,37c-14.7,4.9-32.6,6-46.3,7l-0.3-4.7c36.2-4.7,49.3-18.9,49.3-39.1c0-22.6-19.1-37.3-54-37.3
			c-17.8,0-18.1,0.9-18.1,8.4V119.5z"/>
	</g>
	<g>
		<path class="st1" d="M205.4,34.5c0-18.2-0.4-20.8-13.4-22l-3.5-0.3c-1.3-0.7-0.9-3.8,0.4-4.4c9.4,0.3,16.9,0.5,25.9,0.5h41.3
			c14.1,0,27,0,29.7-0.5c1.3,3,2.6,15.5,3.5,23.2c1.3,12.5-4.4,1.4-5.5,0.3c-3.3-8.2-5.3-14.3-16.7-16.6c-4.6-0.9-11.6-1-21.3-1
			h-15.8c-6.6,0-6.6,0.3-6.6,7v34.9c0,4.9,0.7,4.9,7.3,4.9h12.7c9.2,0,16-0.3,18.7-1c2.6-0.7,4.2-1.7,5.3-6.1l1.8-7.2
			c1.1-1,4.8-1,5.7,0.2c0,4.2-0.9,11-0.9,17.6c0,6.3,0.9,12.9,0.9,16.8c-0.9,1.2-4.6,1.2-5.7,0.2l-2-6.8c-0.9-3.1-2.4-5.8-6.8-6.6
			c-3.1-0.7-8.3-0.9-16.9-0.9h-12.7c-6.6,0-7.3,0.2-7.3,4.7v24.6c0,9.3,0.7,15.2,4.2,18.2c2.6,2.1,7.3,4,26.6,4
			c16.9,0,23.3-0.7,28.1-2.6c4-1.7,9.9-7.9,15.6-16.9c1.5-0.9,4.6-0.3,5.5,1.2c-1.5,6.1-7,19.6-9.9,24.3
			c-19.8-0.3-39.3-0.5-58.9-0.5h-19.8c-9.4,0-16.9,0.2-29.9,0.5c-1.3-0.5-1.8-3.3-0.4-4.4l7.3-0.5c12.5-0.9,13.6-3.5,13.6-21.8V34.5
			z"/>
	</g>
	<g>
		<path class="st1" d="M452.9,93.8c0,5.2,0,26,0.7,30.5c-0.4,1,0,6.2-2.5,6.2c-2.6-3-10.7-13.3-29.8-30.6l-51-46.1
			c-5.9-5.4-20.9-19.7-25.5-23.6h-0.4c-0.9,2.1-1.1,6.1-1.1,11.3v38.1c0,8.2,0.2,30.9,4,36.1c1.3,1.9,5.7,3,11.2,3.3l6.8,0.5
			c1.3,1.4,1.1,3.5-0.4,4.4c-9.9-0.3-17.6-0.5-25.7-0.5c-9.2,0-15.2,0.2-22.8,0.5c-1.5-0.9-1.8-3.3-0.4-4.4l5.9-0.5
			c5.1-0.5,8.6-1.6,9.7-3.5c0.5-0.9,2.9-29.9,2.9-36V29.2c0-4.9-0.2-8.6-4.8-12.6c-3.1-2.4-8.3-3.7-13.6-4.2l-3.7-0.3
			c-1.3-1-1.3-3.7,0.4-4.4c9.2,0.5,20.9,0.5,24.8,0.5c3.5,0,7.2-0.2,10.1-0.5c4.4,8.9,30.3,31.9,37.6,38.4l21.3,19
			c15.2,13.4,25.9,23.2,36.2,31.6h0.4c0.9-0.9,0.9-3.7,0.9-7.3V52.1c0-8.2-0.2-30.9-4.4-36.1c-1.3-1.6-4.8-2.6-13.6-3.5l-3.7-0.3
			c-1.5-1-1.3-3.8,0.4-4.4c10.1,0.3,17.6,0.5,25.9,0.5c9.4,0,15.2-0.2,22.6-0.5c1.8,0.9,1.8,3.3,0.4,4.4l-3.1,0.3
			c-7,0.9-11.4,2.3-12.3,3.7c-3.7,6.3-3.3,27.9-3.3,36V93.8z"/>
	</g>
	<g>
		<path class="st1" d="M534.7,67.1c-10.5,0-11,0.3-11,5.6v24.6c0,18.3,1.1,20.8,13.4,21.8l6.4,0.5c1.3,0.7,0.9,3.8-0.4,4.4
			c-11.9-0.3-19.3-0.5-27.9-0.5c-9.4,0-16.9,0.3-25.5,0.5c-1.3-0.5-1.8-3.3-0.4-4.4l3.7-0.5c12.3-1.7,12.7-3.5,12.7-21.8V34.5
			c0-18.3-1.5-21.3-13-22l-5.7-0.3c-1.3-0.7-0.9-3.8,0.4-4.4c10.8,0.2,18.2,0.5,27.7,0.5c8.6,0,16-0.2,25.5-0.5
			c1.3,0.5,1.8,3.7,0.4,4.4l-4.2,0.3c-12.7,1-13.2,3.7-13.2,22v20.1c0,5.4,0.4,5.6,11,5.6h62.8c10.5,0,11-0.2,11-5.6V34.5
			c0-18.3-0.4-20.9-13.4-22l-4.2-0.3c-1.3-0.7-0.9-3.8,0.4-4.4C601.5,8.1,609,8.3,618,8.3c8.6,0,16-0.2,25.9-0.5
			c1.3,0.5,1.8,3.7,0.4,4.4l-4.6,0.3c-12.7,1-13.2,3.7-13.2,22v62.8c0,18.3,0.4,20.6,13.2,21.8l5.3,0.5c1.3,0.7,0.9,3.8-0.4,4.4
			c-10.5-0.3-18-0.5-26.6-0.5c-9,0-16.9,0.2-26.6,0.5c-1.3-0.5-1.8-3.3-0.4-4.4l4.2-0.5c13.4-1.7,13.4-3.5,13.4-21.8V72.7
			c0-5.2-0.4-5.6-11-5.6H534.7z"/>
	</g>
	<g>
		<path class="st1" d="M744.1,83c-1.5-3.8-2.4-4.4-9-4.4h-33.2c-5.5,0-6.8,0.5-8.3,4.2l-7.7,18.3c-3.3,7.9-4.8,12.6-4.8,14.5
			c0,2.1,1.1,3.1,6.4,3.5l7.2,0.5c1.5,0.9,1.5,3.7-0.4,4.4c-5.7-0.3-12.5-0.3-22.8-0.5c-7.3,0-15.2,0.3-21.1,0.5
			c-1.3-0.7-1.8-3.5-0.4-4.4l7.2-0.5c5.3-0.3,10.1-2.3,13.2-8.6c4-8,10.1-19.4,19.3-38.9L712,24.5c3.1-6.3,4.4-9.6,3.7-12.4
			c5.3-1.2,9-4.4,11.4-6.6c1.3,0,2.9,0.3,3.3,1.6c2.9,7.7,6.4,15.7,9.7,23.4l30.1,70.2c6.4,15,9.2,17.6,18.7,18.5l5.9,0.5
			c1.5,0.9,1.1,3.7,0,4.4c-9-0.3-16.7-0.5-26.6-0.5c-10.5,0-18.9,0.3-25.3,0.5c-1.8-0.7-2-3.5-0.4-4.4l6.4-0.5
			c4.6-0.3,7.7-1.4,7.7-3.1c0-1.9-1.1-5.1-2.9-9.3L744.1,83z M700.6,67.5c-1.8,4-1.5,4.2,4.6,4.2h27c6.4,0,6.8-0.7,4.8-5.4
			l-11.9-28.5c-1.8-4.2-3.7-8.9-5.1-11h-0.4c-0.7,0.9-2.9,5.1-5.3,10.3L700.6,67.5z"/>
	</g>
	<g>
		<path class="st1" d="M765.6,12c-1.3-1-1.1-3.5,0.7-4.2c5.9,0.3,15.8,0.5,22.6,0.5c6.1,0,17.4-0.2,25-0.5c2,0.5,1.8,3,0.4,4.2
			l-5.1,0.3c-4.6,0.3-7.2,1.4-7.2,3c0,2.1,4.6,11,11.4,23.4c12.3,21.8,25.3,43.6,38,65.1c5.3-8.7,11.2-18.5,16.9-28.3
			c2-3.3,3.5-6.3,3.5-7.2s-0.7-2.4-1.8-4.5c-7.7-14-15.8-27.9-24.2-41.9c-3.3-5.4-6.6-9.1-14.1-9.6l-5.3-0.3
			c-1.5-1.4-1.3-3.5,0.4-4.2c6.4,0.3,14.7,0.5,23.5,0.5c11,0,19.1-0.2,24.2-0.5c1.5,0.5,1.8,2.8,0.4,4.2l-5.7,0.3
			c-8.6,0.5-8.8,1.7-4.6,9.6c4.6,8.6,10.8,19.6,16.9,30.4c4.2-6.8,8.1-13.4,13-22.9c7.9-14.8,6.8-16.8-0.2-17.1L888,12
			c-1.5-1.7-1.1-3.7,0.4-4.2c5.9,0.3,12.5,0.5,20.7,0.5c7.3,0,16-0.2,21.1-0.5c1.5,0.5,1.8,2.8,0.4,4.2l-6.4,0.3
			c-9.2,0.5-13.2,8.4-18,15.5c-4.6,6.5-13.8,21.6-17.1,27.8c-1.1,1.7-2,3.5-2,4.2c0,0.7,0.4,2.1,1.5,4.2
			c7.5,13.4,15.2,26.5,22.4,39.8c6.8-12.2,13.4-24.4,19.8-36.8c4.4-8.4,16-31.6,17.6-34.7c2.9-6.3,6.6-13.8,6.6-15.9
			c0-2.4-2.6-3.8-7.2-4l-6.4-0.3c-1.8-1.6-1.5-3.5,0.2-4.2c8.3,0.3,14.3,0.5,21.1,0.5c8.3,0,14.7-0.2,20.4-0.5
			c1.8,0.5,2,2.8,0.4,4.2l-4.2,0.3c-11,0.9-13,6.1-26.1,30.4l-16,29.5c-9.7,17.8-18.5,34.9-27.5,53.6c-0.4,0.9-1.9,4.8-3,4.8
			c-1.1,0-2.2-3.6-2.7-4.8c-7-15.5-19.8-37.4-26.6-49.6c-7.9,12.7-21.1,35.1-27.5,49.6c-0.4,0.9-1.9,4.8-2.8,4.8
			c-1,0-2.8-3.7-3.1-4.8c-3.7-7.3-12.3-23-15.2-28.1c-14.1-24.3-27.7-48.5-42-72.8c-4.2-7.2-6.8-11.9-16-12.6L765.6,12z"/>
	</g>
	<g>
		<path class="st1" d="M1008.6,34.5c0-18.3-0.4-21.1-13.2-22l-5.5-0.3c-1.3-0.7-0.9-3.8,0.4-4.4c10.8,0.3,17.8,0.5,27.7,0.5
			c8.6,0,16-0.2,25.5-0.5c1.3,0.5,1.8,3.7,0.4,4.4l-4.2,0.3c-12.7,1-13.2,3.7-13.2,22v20.1c0,3.3,0.4,6.6,2.9,6.6c2,0,4.6-1,6.1-1.9
			c3.1-2.1,8.8-6.6,11.2-8.4l23.7-18.7c4.2-3.1,14.9-12,17.1-14.5c1.1-1.2,1.5-2.1,1.5-2.8c0-0.7-0.9-1.2-3.7-1.7l-5.9-1
			c-1.5-1.2-1.3-3.5,0.4-4.4c7.7,0.3,16.5,0.5,24.2,0.5c7.7,0,15.2-0.2,21.8-0.5c1.5,0.9,1.8,3.3,0.4,4.4
			c-5.7,0.3-14.3,2.1-20.4,4.9c-6.1,2.8-18.5,11-30.8,20.2l-19.8,14.8c-3.1,2.4-5.1,4-5.1,5.4c0,1.2,1.3,2.6,4.2,5.4
			c20.9,19,37.8,34.7,54.9,49c5.3,4.2,10.1,6.5,17.6,7.2l5.9,0.5c1.5,0.9,1.1,3.8-0.4,4.4c-5.7-0.3-14.3-0.5-24.6-0.5
			c-9,0-16.7,0.2-26.8,0.5c-1.5-0.3-2.2-3.3-0.9-4.4l5.1-0.7c3.1-0.3,5.3-0.9,5.3-1.7c0-1-1.5-2.4-3.1-4c-4.2-4.2-9.9-8.9-18.2-16.4
			l-17.6-15.7c-12.5-11.2-16-14.7-21.3-14.7c-3.3,0-3.7,2.3-3.7,8.4v22.5c0,18.3,0.4,20.8,12.7,21.8l5.9,0.5
			c1.3,0.7,0.9,3.8-0.4,4.4c-10.8-0.3-18.2-0.5-26.8-0.5c-9,0-16.5,0.2-25.5,0.5c-1.3-0.5-1.8-3.1-0.4-4.4l4.4-0.5
			c11.6-1.4,12.1-3.5,12.1-21.8V34.5z"/>
	</g>
</g>
</svg>
