<?xml version="1.0" encoding="utf-8"?>
<!-- Generator: Adobe Illustrator 21.1.0, SVG Export Plug-In . SVG Version: 6.00 Build 0)  -->
<svg version="1.1" id="Layer_1" xmlns="http://www.w3.org/2000/svg" xmlns:xlink="http://www.w3.org/1999/xlink" x="0px" y="0px"
	 viewBox="0 0 362 359.2" style="enable-background:new 0 0 362 359.2;" xml:space="preserve">
<style type="text/css">
	.st0{fill:#FEFEFE;}
	.st1{fill:#DF316F;}
	.st2{fill:#FAA142;}
	.st3{fill:#FBA948;}
	.st4{fill:#DA2E7A;}
	.st5{fill:#D82E7E;}
	.st6{fill:#D42F86;}
	.st7{fill:#AB34A8;}
	.st8{fill:#FBA544;}
	.st9{fill:#D62E82;}
	.st10{fill:#DE2F73;}
	.st11{fill:#E23568;}
	.st12{fill:#B431A3;}
	.st13{fill:#C72F94;}
	.st14{fill:#B033A5;}
	.st15{fill:#CF2E8D;}
	.st16{fill:#DC2F77;}
	.st17{fill:#A338AC;}
	.st18{fill:#CD2F8E;}
	.st19{fill:#973DAC;}
	.st20{fill:#BE309C;}
	.st21{fill:#903CA7;}
	.st22{fill:#A53796;}
	.st23{fill:#FCB04D;}
	.st24{fill:#CA3092;}
	.st25{fill:#9A399E;}
	.st26{fill:#EC6A40;}
	.st27{fill:#BB319F;}
	.st28{fill:#C43097;}
	.st29{fill:#9639A1;}
	.st30{fill:#E33765;}
	.st31{fill:#9F379B;}
	.st32{fill:#A836A9;}
	.st33{fill:#F48338;}
	.st34{fill:#C2319A;}
	.st35{fill:#9E3BAC;}
	.st36{fill:#8842B1;}
	.st37{fill:#FCB453;}
	.st38{fill:#A93792;}
	.st39{fill:#8241B0;}
	.st40{fill:#B63887;}
	.st41{fill:#FA9C3E;}
	.st42{fill:#CC416F;}
	.st43{fill:#F99445;}
	.st44{fill:#B1378B;}
	.st45{fill:#FBA54A;}
	.st46{fill:#F8953A;}
	.st47{fill:#853FAE;}
	.st48{fill:#C43D79;}
	.st49{fill:#F27D39;}
	.st50{fill:#EC514F;}
	.st51{fill:#FCAF50;}
	.st52{fill:#C83E73;}
	.st53{fill:#E43A62;}
	.st54{fill:#BA3883;}
	.st55{fill:#E73F5C;}
	.st56{fill:#F17839;}
	.st57{fill:#EE703C;}
	.st58{fill:#B732A3;}
	.st59{fill:#BD3A7F;}
	.st60{fill:#E96544;}
	.st61{fill:#F99B46;}
	.st62{fill:#DB5159;}
	.st63{fill:#E84456;}
	.st64{fill:#F57843;}
	.st65{fill:#F05C48;}
	.st66{fill:#E05751;}
	.st67{fill:#F9983C;}
	.st68{fill:#E35A4E;}
	.st69{fill:#F0743B;}
	.st70{fill:#D24666;}
	.st71{fill:#CF446B;}
	.st72{fill:#923FAD;}
	.st73{fill:#F78543;}
	.st74{fill:#E86447;}
	.st75{fill:#C13B7C;}
	.st76{fill:#F88E43;}
	.st77{fill:#D84C5F;}
	.st78{fill:#F68B38;}
	.st79{fill:#8F41AE;}
	.st80{fill:#EB4B52;}
	.st81{fill:#F58738;}
	.st82{fill:#EA4855;}
	.st83{fill:#F26646;}
	.st84{fill:#E8425A;}
	.st85{fill:#D94F5C;}
	.st86{fill:#D54963;}
	.st87{fill:#F36D45;}
	.st88{fill:#FBAA4E;}
	.st89{fill:#9239A3;}
	.st90{fill:#8345B3;}
	.st91{fill:#F88A43;}
	.st92{fill:#D22E8A;}
	.st93{fill:#EF594C;}
	.st94{fill:#883EAB;}
	.st95{fill:#FAA049;}
	.st96{fill:#F7903A;}
	.st97{fill:#F16049;}
	.st98{fill:#F47345;}
	.st99{fill:#8B3CA9;}
	.st100{fill:#8047B5;}
	.st101{fill:#8D3CA8;}
	.st102{fill:#F67D46;}
	.st103{fill:#FBA046;}
	.st104{fill:#FA9A42;}
	.st105{fill:#F98F40;}
	.st106{fill:#F88840;}
	.st107{fill:#F67C3F;}
	.st108{fill:#F99441;}
	.st109{fill:#F78240;}
	.st110{fill:#FBAC4C;}
	.st111{fill:#D12E89;}
	.st112{fill:#AB35A3;}
	.st113{fill:#A837A2;}
	.st114{fill:#B135A1;}
	.st115{fill:#B831A0;}
	.st116{fill:#A538A5;}
	.st117{fill:#A239A8;}
	.st118{fill:#9A3BA8;}
	.st119{fill:#9B3BAB;}
	.st120{fill:#923FAC;}
	.st121{fill:#963CA8;}
	.st122{fill:#8D3FAC;}
	.st123{fill:#953CA6;}
	.st124{fill:#8B3DAB;}
	.st125{fill:#943AA4;}
	.st126{fill:#9F3AA7;}
	.st127{fill:#883FAD;}
	.st128{fill:#AE368F;}
	.st129{fill:#EE544C;}
	.st130{fill:#E63C5F;}
	.st131{fill:#DF5455;}
	.st132{fill:#DD5555;}
	.st133{fill:#F57340;}
	.st134{fill:#F67F42;}
	.st135{fill:#F16245;}
	.st136{fill:#E65F4A;}
	.st137{fill:#F36A45;}
	.st138{fill:#F46E42;}
	.st139{fill:#D03081;}
	.st140{fill:#F3673B;}
	.st141{fill:#C5318A;}
	.st142{fill:#DB3173;}
	.st143{fill:#D52F7C;}
	.st144{fill:#C13095;}
	.st145{fill:#F1633E;}
	.st146{fill:#C63287;}
	.st147{fill:#D83078;}
	.st148{fill:#C53091;}
	.st149{fill:#D32F7E;}
	.st150{fill:#EF5A43;}
	.st151{fill:#CC3083;}
	.st152{fill:#CE347A;}
	.st153{fill:#DE326E;}
	.st154{fill:#EE5546;}
	.st155{fill:#ED5049;}
	.st156{fill:#E23666;}
	.st157{fill:#C82F8F;}
	.st158{fill:#E43A61;}
	.st159{fill:#C73381;}
	.st160{fill:#CA347D;}
	.st161{fill:#DF346A;}
	.st162{fill:#D03676;}
	.st163{fill:#EF6041;}
	.st164{fill:#E7514E;}
	.st165{fill:#E54D53;}
	.st166{fill:#C93188;}
	.st167{fill:#E63E5C;}
	.st168{fill:#E34958;}
	.st169{fill:#D93F67;}
	.st170{fill:#D33871;}
	.st171{fill:#D53B6E;}
	.st172{fill:#EC4B4E;}
	.st173{fill:#9E39A3;}
	.st174{fill:#EA4751;}
	.st175{fill:#EB5748;}
	.st176{fill:#E74158;}
	.st177{fill:#DD445F;}
	.st178{fill:#EA544A;}
	.st179{fill:#E94455;}
	.st180{fill:#A33BA4;}
	.st181{fill:#ED5946;}
	.st182{fill:#CA308D;}
	.st183{fill:#F05C41;}
	.st184{fill:#ED5C43;}
	.st185{fill:#E0465D;}
	.st186{fill:#D73C6B;}
	.st187{fill:#DB4263;}
	.st188{fill:#CC3086;}
	.st189{fill:#9B3DA6;}
	.st190{fill:#9B3BA5;}
	.st191{fill:#923CA9;}
	.st192{fill:#CA3185;}
	.st193{fill:#EF5D41;}
	.st194{fill:#F1603F;}
	.st195{fill:#CA3181;}
</style>
<g>
	<path class="st0" d="M181,361.9c-59.4,0-118.7,0-178.1,0.1c-2.3,0-2.9-0.3-2.9-2.8C0.1,240.4,0.1,121.7,0,3c0-2.7,0.7-3,3.1-3
		c118.6,0.1,237.2,0.1,355.8,0c2.4,0,3.1,0.3,3.1,3c-0.1,118.7-0.1,237.4,0,356.1c0,2.5-0.6,2.9-2.9,2.8
		C299.7,361.9,240.4,361.9,181,361.9z"/>
	<path class="st1" d="M358.1,280.1c-1.1,8-3.4,15.7-7,22.9c-1.7-1.6-1.7-3.9-2.5-5.9c-4.1-9.7-9.9-18.3-17.4-25.7
		c-1.8-1.8-2.4-4.6-5-5.6c0.3-10,0.4-20.1,2-30c2.4-2.3,2.8,0.2,2.8,1.5c0,4.5,1.2,8.1,5.9,9.8c0.3,0.1,0.6,0.4,0.7,0.7
		c4.6,10.4,14.4,17.1,19.6,27.1C358.1,276.6,359.2,278.2,358.1,280.1z"/>
	<path class="st2" d="M36.1,337c-2.5-1.5-4.4-3.7-6.2-5.9c7.4-1.4,14.4-4.7,22.2-3.6c2.7,0.4,5.2-0.2,7.3-2.2
		c1.8-1.7,4.2-1.6,6.5-1.7c4.9-0.2,9.9,0.5,14.8-0.5c36.9,6.9,74.2,3.6,111.4,4.3c9,0.2,17.9,0,26.9,0c2.3,0,4.7-0.2,6.7,1.2
		c0.8,2.7-1.6,2.3-2.9,2.6c-2.5,0.5-5.1,0.1-7.7,0.1c-4.1,0.2-8.1,0-12.2,0c-4.4,0.2-8.7,0.1-13.1,0c-7.8,0.3-15.7,0-23.5,0
		c-3,0-6,0.1-9.1,0c-4.9,0.1-9.8,0-14.8,0c-1.8,0-3.7-0.2-4.9,1.6c-2.3,1-3.5,3.3-5.3,4.7c-4.5,1.2-8.8,1.3-12.7-2.1
		c-1.6-1.4-3.7-1.2-5.7-1.2c-20.9,0-41.8-0.2-62.7,0c-2.9,0-5.6,0.5-8.2,1.9C40.9,337.6,38.6,338.4,36.1,337z"/>
	<path class="st3" d="M54.9,349.1c-4-1.3-7.6-3.4-10.8-6.1c0.8-2.8,3.2-3.1,5.5-3.3c4.6-0.4,9.3-0.8,13.4-3.2
		c1.3-0.8,2.9-0.9,4.4-0.8c9.6,0.7,19.2-0.5,28.8-0.1c2.7,0.1,5.3,0,7.8,1.2c0.3,0.1,0.7,0.4,0.9,0.3c10.3-3.2,19.1,4.6,29.1,3.8
		c2-0.2,3.4,1,4.5,2.6c1.7,1.9,4.7,3.2,2.8,6.6c-2.3,1.6-5.2,1.9-7,0.3c-5-4.3-11.1-2.6-16.6-3.6c-0.6-0.1-1.5,0.3-2,0
		c-5.6-3.5-10.9-0.7-16.3,0.5c-11.3,0.7-22.5-0.6-33.8,0C61.9,347.6,58.5,349,54.9,349.1z"/>
	<path class="st4" d="M361.9,225c0.2,8.1,0.4,16.1-0.8,24.1c-3.8-5.2-10.6-8-11.9-15.2c-0.3-1.6-1.9-2.3-3.2-3
		c-1.6-0.9-3.3-1.6-4.6-2.9c-3.9-3.8-6.6-9-12.3-10.8c-0.8-6.1-0.8-12.2,0-18.3c1.5-2.3,3.1-1.3,4.6-0.1c2,1.5,3.9,3.2,5.4,5.2
		c2.2,2.9,4.8,5,8.8,4.9c2.5-0.1,4,1.3,4.2,4c0.1,1.7,0.4,3.6,2.6,3.7c4.2,0.2,5.9,2.4,6,6.4C360.7,223.7,361.4,224.4,361.9,225z"/>
	<path class="st5" d="M361.9,225c-2-0.2-3-1.5-2.8-3.4c0.3-3.4-1.6-3.9-4.3-3.6c-3.4,0.4-4.5-1.5-4-4.5c0.5-2.7-0.6-3.9-3.1-3.5
		c-5,0.9-7.2-2.7-10-5.6c-2.3-2.4-4.2-5.4-7.6-6.4c-2.8-5.4-1.2-11.2-1.1-16.8c2.8-3.9,5.6-1.1,8.1,0.3c4.6,2.7,8.4,6.4,12.1,10.2
		c4.4,4.6,9.2,8.9,12.8,14.3C362,212.4,361.9,218.7,361.9,225z"/>
	<path class="st6" d="M362,165c0,6.7,0,13.3,0,20c-4.3,1.9-7.4-0.3-9.9-3.4c-3.6-4.5-7.3-8.6-13.8-8.5c-2,0-3.7-1.1-4.1-3
		c-0.7-3-2.9-4.7-4.9-6.6c-1-4-1-8,0-12c3.4-3.1,6.8-2,9.9,0.2c2.3,1.6,4.4,2.9,7.3,2.5c2.3-0.3,4.1,0.9,4.5,3.1
		c0.8,4.4,3.8,5.5,7.6,5.7C359.9,163.4,361,164.1,362,165z"/>
	<path class="st7" d="M309.2,14c5.7,2.3,10.7,5.7,15.1,9.9c-0.4,1.2-1.4,2.1-2.5,2.1c-6.4-0.1-12.7,2.5-19.1,0.9
		c-5.6-1.3-11.2-0.8-16.8-0.6c-6.8,0.2-13.6,0.4-20.3-0.1c-3.5-1.2-6.9-2.8-10.7-3.1c-2.2-0.1-4-1.3-5.3-3.1
		c-0.5-1.1-0.4-2.2,0.3-3.2c1.7-1.3,3.8-1.3,5.8-1.1c8,0.8,15.9-0.7,24.2,0.9c6,1.1,13.2-0.6,19.5-2.7
		C302.9,12.6,305.9,12.4,309.2,14z"/>
	<path class="st8" d="M137,345c0.1-2-0.8-3.6-2.8-2.9c-5.5,1.9-10.2-3.8-15.7-1.3c-0.3,0.1-1.2-0.6-1.5-1.1
		c-2.2-4.3-5.5-3.2-8.4-1.4c-2,1.3-3.4,1.7-5.1-0.3c-0.5-0.6-1.5-1-2.2-1c-8.9,0.4-17.9-1.4-26.7,1c-1.5,0.4-2.1-0.6-3.1-0.7
		c-3.4-0.4-6.6-1-10,1.4c-3.1,2.2-7.2,2.2-11,2.2c-2.5,0-4.6,0.5-6.4,2.1c-3-1.6-5.5-3.7-8-6c1.1-0.1,2.6,0.2,3.4-0.4
		c5.5-4.3,11.8-3.6,18.1-3.6c19.4,0,38.8,0,58.3,0c2.5,0,4.4,0.3,6.4,2.6c2.7,3.1,7.2,0.8,10.9,1.4c5-1.5,6.7,2.7,9.4,5.3
		C142,346,139.7,345.9,137,345z"/>
	<path class="st9" d="M330.1,164c3.4-0.7,4.4,1.6,4.8,4.2c0.3,2.9,1.8,4.2,4.6,3.8c6-0.8,9.7,3.2,12.4,7.2c2.7,4,6,5.2,10.1,5.8
		c0,7,0,14,0,21c-4.2-3.4-7.8-7.4-11.5-11.2c-5.9-5.9-11.3-13-20.3-14.8C327.8,174.7,327.8,169.4,330.1,164z"/>
	<path class="st10" d="M358.1,280.1c0.8-3.3-2.2-5.7-3.6-7c-3.5-3.4-3.9-9.1-9.2-11.2c-2.5-1-3.8-4.1-4.9-6.6
		c-1.8-4-3.1-7.9-8.2-8.9c-1.9-0.4-2.1-2.6-2.2-4.6c-0.1-2.2,0.8-4.7-0.8-6.7c-2.1-2.2-1.7-4.7-0.9-7.2c2.2-2.2,3.2,0.2,4.2,1.4
		c2.4,2.8,6.1,4.5,8,7.3c4.9,6.8,12.6,11,16.4,18.8c1.7,3.6,4.2,6.6,3.2,10.8C360.2,270.9,359.5,275.5,358.1,280.1z"/>
	<path class="st11" d="M327.3,267c0.5-0.8,1-1.7,2.1-3.7c0,6.4,5.3,8,7.5,11.8c5.3,9,13.6,16.5,14.2,27.9c-1.8,5.4-4.5,10.4-8,14.9
		c-1.8-1.1-2.1-2.9-2.2-4.7c-0.4-7.3-2.7-13.8-7.6-19.4c-3.7-4.2-4.6-10.2-8.9-14.1C323.9,275.2,324.3,270.8,327.3,267z"/>
	<path class="st12" d="M337.8,37c0.7,1.1,1.5,2.1,2.2,3.2c-4.5,6.1-10.9,6.8-17.7,6.2c-7.6,0.4-15.2-1.2-22.8-0.1
		c-4.2-1.2-8.5-2.3-11.1-6.2c-0.3-4.5,4.1-5.3,6.2-7.9c9.4-0.7,19-2.2,28.3-0.3C327.9,32.9,333,34.6,337.8,37z"/>
	<path class="st13" d="M360.8,103c0.4,8.3,1.4,16.6,0.9,25c-2.7-1-2-3.5-2-5.5c0-3.2-0.4-5.7-4.1-6.9c-2.2-0.8-4-2.8-6.1-4.1
		c-3.5-2.2-7.1-3.4-11.2-3.1c-4.4,0.4-6.2-3.4-8.8-5.7c-0.9-0.8-1.4-2.2-2.4-3.1c-1.8-2.5-1.4-5.3-1.4-8.1c1.4-4.6,4.5-6.2,8.5-3.6
		c6.9,4.6,15.2,6.2,22.4,10.1C358.8,99.1,359.9,100.9,360.8,103z"/>
	<path class="st14" d="M337.8,37c-4.4-0.6-8.8-0.5-12.9-3.5c-2.3-1.7-6.5-1.8-9.6-1.2c-7.1,1.3-14.2,0.3-21.3,0.7
		c-2.2,1.5-5,2.1-7,0.7c-5.3-3.7-11.3-2.9-17.1-3.3c-2-0.1-4,0.1-5.8-1c-1.3-1.8-1-3.3,0.9-4.4c9.9-0.3,19.8,0.8,29.6-0.9
		c0.9-0.2,1.9,0.3,2.9,0.6c9,2,17.9,0.8,26.8-0.8C329.5,27.5,334,32,337.8,37z"/>
	<path class="st15" d="M330.1,164c0,5.3,0,10.7,0,16c0,6,0,12,0,18c0,6.7,0,13.3,0,20c2.1,4.7,1.8,6.3-1.4,7.7
		c-1.4-1.9-1.3-4.1-1.3-6.2c0-29.1,0-58.2,0-87.3c0-1.7,0-3.3,0.5-4.9c1.7-3.2,4.1-2,5.5-0.2c2.6,3.4,6,3.7,9.7,3.5
		c7.8-0.4,7.8-0.4,10,7c2.8-1.4,5.6-5.2,8.7-0.6c0,5,0,10,0.1,15c-3.5,2.4-6.9,1.4-9.2-1.5c-2.7-3.4-5.7-5.6-10-6.1
		c-0.8-0.1-1.4-0.8-2.1-1.3c-2.6-2-6.5-1.6-8.5-5.3c-1.9,4.5,0.7,9.3-2,13.1C330.1,155.4,330.1,159.7,330.1,164z"/>
	<path class="st16" d="M329.4,226c1.4-2.6,0.3-5.3,0.8-8c3.7-0.3,6.4,0.1,8.2,4.4c1.4,3.3,4.6,6,8.3,7.4c2.9,1.1,5,2.6,4.4,6.2
		c-0.6,3.7,3.5,3.8,5,5.8c1.9,2.4,3.6,4.8,5,7.4c0,5.7,0.4,11.4-1,16.9c-2.1-8.4-5.9-15.6-13.6-20.2c-1.6-1-2.7-2.6-3.1-4.4
		c-0.5-2.2-1.9-3.5-3.7-4.3c-4.7-2.2-7.4-6.3-10.4-10.2c-0.3-0.3-0.4-0.5-0.2-0.7C329.1,226.1,329.2,226,329.4,226z"/>
	<path class="st17" d="M258,1.2c0.4,0,0.7,0,1.1,0.1c2,0.8,4.2-0.2,6.2,0.7c10.3,0.3,20.2,2.2,29.8,6.1c-0.4,1.2-1.2,2.4-2.3,2.4
		c-6.8,0.3-12.9,4.3-20.1,2.7c-5.9-1.3-12.2,0.8-18.3,0.3c-6.3,0.1-12.7,0.3-19-0.1c-2.7-0.7-4.4-2.1-3.7-5.2c1.4-1.5,3.2-1.5,5-1.4
		c2.9,0,5.4-0.4,7.6-2.6c1.6-1.6,3.9-1.3,6.1-1.4C253,2.5,255.7,2.9,258,1.2z"/>
	<path class="st18" d="M361.9,137c-2.9-1.2-5.8-2.3-7,2.2c-0.2,0.8-0.8,1.6-1.8,1.4c-1.4-0.3-1.9-1.7-1.8-2.6c0.7-6.4-2.5-6.8-7.8-6
		c-4,0.6-8.8,1.6-10.8-4.1c-0.4-1.1-2.1-1.6-3.4-1.7c-2.5-2.7-1.3-6-1.6-9.1c0.6-7.5,3.8-9.3,9.7-4.7c7.8,6.2,16,11.8,24.6,16.8
		C361.9,131.7,361.9,134.3,361.9,137z"/>
	<path class="st19" d="M190,0.1c9.7,0,19.3,0.1,29,0.1c2.1,4.1-0.6,4.8-3.6,5.2c-5.9,0-11.9-0.2-17.3,3.1c-2.7,1.6-6.2,1-9.3,1
		c-2.8-0.1-5.2,0.6-6.8,3.1c-3.8,1.7-7.8,0.8-11.7,0.9c-3,0.1-5.9,0.3-8.3,2.4c-2,1.7-4.6,1.6-7.1,1.6c-4.4,0-8.9,0.1-13.3,0
		c-1.5-0.2-3-0.1-4.3-1.1c0-4.3,1.1-5.5,5.9-5.7c4-0.2,8,0.3,10.9-3.3c2-0.9,4.2-0.9,6.3-0.8c5.2,0.2,10.2-0.2,14.8-2.9
		c2.5-1.4,5.4-1.1,8.2-1.2C185.9,2.6,188.4,2.3,190,0.1z"/>
	<path class="st20" d="M355.1,70c1.4,2.5,1.9,5.2,2.1,8c-5.7,2-11.4,2.9-16.7-1.2c-1.7-1.3-3.3-1.5-5-0.3c-3.4,2.3-5.6,1.3-6.6-2.4
		c-0.7-2.4-1.9-3.4-4.3-2.6c-1.5,0.5-2.9,0.3-4.3-0.5c-3.2-3.5-5.7-7.4-6.8-12.1c0.1-0.5,0.4-1.3,0.7-1.2c5.2,1.1,10.6-3.3,15.7,1
		c3.5,2.9,8.2,4.1,12.3,5.5C346.8,65.7,350.6,68.6,355.1,70z"/>
	<path class="st21" d="M11.3,58c0.6-1.9,1.2-3.7,2.6-5.2c6.8-2,13.2-5,19.4-8.3c0.4-0.2,0.9-0.4,1.3-0.6c6.5-4.2,14-6.7,20-11.8
		c3.2-0.7,6.3-1,8.9-3.5c1.9-1.9,5-1,7.6-1.1c2.5,0.2,5.2-0.4,7.6,1c1.5,3.9-1.6,8.6-6.4,9.7c-2.1,0.4-4.3,0.3-5.8,2.3
		c-1.4,1.3-3.1,1.8-5,1.8c-3.3,0-6.6,0-8.9,3.1c-0.2,0.3-0.6,0.5-0.9,0.4c-7.5-0.4-12.2,5.7-18.5,8.1c-5.8,1.5-11.7,2.1-17.3,4.2
		C14.7,58.8,12.9,59.2,11.3,58z"/>
	<path class="st22" d="M1.2,107C0.9,103,1,99,2.1,95c5-5,10.7-8.6,17.7-10.3c4.6-1.1,8.7-3.8,12.8-6.1c2.4-1.4,4.4-2.5,6.2,0.6
		c0.1,4.5-0.9,8.7-3,12.6c-3.2,3.4-7,4.6-11.6,4.7c-6.4,0.1-11.5,2.6-14.2,8.9C8.6,108.8,5.9,109.1,1.2,107z"/>
	<path class="st23" d="M54.9,349.1c2.7-2.6,5.8-3.2,9.5-3.2c11.9,0.2,23.8,0.1,35.6,0.1c1.3,2,3.4,1.9,5.4,1.7
		c4-0.3,7.9,0.7,11.9,1.1c2.8,0.3,4.3,1.7,3.4,4.7c-1,1.7-2.9,1.9-4.3,1.2c-3.9-2.1-7.4-1.4-10.9,0.6c-12.9,0.1-25.8,1.4-38.5-1.3
		C62.6,353.2,58.6,351.5,54.9,349.1z"/>
	<path class="st24" d="M361.9,129c-7.6-1.7-13.5-6.6-19.5-11.2c-2.2-1.7-4.3-3.6-6.5-5.3c-1.6-1.2-3.6-2.2-5.6-1.3
		c-2.2,1-0.9,3.2-1.3,4.9c-0.9-0.1-1.6-0.6-1.8-1.4c-0.9-5.3-1.8-10.6,0.8-15.7c2.5,1,4.4,3.6,5.5,5.3c1.7,2.6,3.3,2.9,5.5,2.7
		c6.7-0.7,10.9,4.7,16.3,6.5c8.1,2.8,5.1,8.3,5.8,13.1c0.1,0.5,0.4,0.9,0.6,1.3C361.8,128.3,361.8,128.7,361.9,129z"/>
	<path class="st25" d="M3.1,87c0.2-4.6,1.1-9,2.8-13.2c0.9-0.3,1.8-1,2.8-0.9c5.5,0.5,8.9-2.5,12.8-6.1c3.1-3,7.9-4.6,12.2-5.8
		c3.1-0.9,5.8-1.9,8.5-3.8c2.5-1.8,5.2-4.6,8.8-1.7c-0.8,5.3-4.4,8.7-8,12.1c-1.4,0-2.5,0.7-3.6,1.5c-3.9,3-7.9,5.2-12.7,6.9
		c-6.1,2.3-13.1,4.1-18,9.3C7.4,86.8,5.6,88.5,3.1,87z"/>
	<path class="st26" d="M1.7,263.1c-1-2.7-0.7-5.4-0.6-8.1c1.6-4.3,4.8-5.8,9.3-5.5c4.1,0.3,7.9,0,11.7-2.8c3.2-2.3,7.6-1.4,11.6-1
		c2.9,4.3,2.2,8.8,0.6,13.4c-3.5,2.3-7.4,1.2-11.1,1.4c-3.5,0.1-6.7,0.5-9.8,2.5C9.9,265.4,5.7,265.2,1.7,263.1z"/>
	<path class="st27" d="M355.1,70c-2.8,0.1-5.7,0.5-7.4-2.7c-0.4-0.7-1.7-1.2-2.6-1.2c-3,0-6,0.3-7.5-3.3c-0.2-0.5-1.8-0.7-2.7-0.7
		c-2.4,0.1-4.3-0.3-6-2.5c-1.7-2.3-4.3-3.4-6.7-0.7c-1.4,1.6-2.5,0.9-3.9-0.1c-1.5-1-3.1-2.5-4.3,0.4c-3.9-1.1-6.7-3.3-7.1-7.7
		c2.4-3.3,5.1-3.8,8.3-1c2.4,2.1,5.6,3,8.3,2.3c4.5-1.1,8.8-0.1,13.2,0c4,1.3,7.8,4,12.2,1.2C351.5,59.2,354.1,64.3,355.1,70z"/>
	<path class="st28" d="M360.8,103c-4.9-3.7-10.1-6.6-16.2-8.4c-3.4-1-7.4-2.3-10.4-5.1c-3-2.8-6-2-7.2,1.7c-3.9-3.2-3.3-7.7-3.8-12
		c1.9-3.4,4.6-2.5,7.3-1.3c6.3,2.8,12.8,4.9,19.4,7.1c4,1.3,7.3,3.7,10,7C360.2,95.7,360.5,99.3,360.8,103z"/>
	<path class="st29" d="M50.9,56c-3.6-2.2-5.8,1-8.3,2.3c-1,0.5-1.8,2.3-3,2.3c-5.7,0-9.6,5.3-15.2,5.4c-3.2,0.1-3.9,3.6-5.1,5.1
		c-2.4,3.1-4.8,2.9-7.6,2.8c-1.9-0.1-3.8,0.9-5.7-0.1c0.4-3.5,1.4-6.7,3.1-9.8c1.8,0.3,3.6,0.6,5.2-0.6c2.5-1.8,5.2-2.7,8.3-2.7
		c3.3,0,5.4-3.1,8.5-3.8c7.5-4,15.9-6.1,22.9-11.1c2.7-1.9,5.5-3.3,8.4-0.4C59.9,50.4,56.5,54.4,50.9,56z"/>
	<path class="st30" d="M324.7,279.9c3.1,0.6,4.9,2.4,5.3,5.6c0.4,2.9,2.4,5.3,4,7.2c5.7,6.3,7.9,13.7,8,21.9c0,1.1,0.6,2.2,0.9,3.3
		c-0.7,1-1.4,2-2.1,3c-1.1,0.9-2.4,1-3-0.1c-1.8-3.1-4.2-5.8-5.1-9.5c-1.3-5.2-3.5-10.1-7.5-13.9c-2.5-2.3-3.6-5.1-4.1-8.3
		C321.2,285.7,321.3,282.2,324.7,279.9z"/>
	<path class="st31" d="M3.1,87c4.5-0.7,6.9-4.6,10.2-7.1c1.6-1.2,2.8-2,4.7-2c2.2,0,4.9,0.7,5.3-2.8c0.1-0.9,1.2-1.2,2-1.1
		c6.2,1.2,9.6-3,13.4-6.7c1.1-1.1,2.7-2.3,4.3-0.3c0.3,4.8-1.1,8.9-5,12c-1.2-1.5-3.1-1.5-3.9-0.3c-1.7,2.5-4.8,2.3-6.5,3.6
		c-6,4.8-14.3,3.9-20,9.1C6.2,92.9,5,95.6,2.1,95C1.9,92.3,2,89.6,3.1,87z"/>
	<path class="st32" d="M255,12c4.9-0.4,9.8,0.2,14.8-0.9c2.8-0.6,6.7,0.5,10,1c3.7,0.6,5.1-3.7,6.8-3.5c2.8,0.2,5.4,2.1,8-0.5
		c0.1-0.1,0.3-0.1,0.5-0.1c5.1,1.1,9.8,3.2,14.1,6c-5.7-2.3-10.2,2.4-15.6,2.6c-4.4,0.2-9.4-0.6-13.4,2.6c-0.2,0.2-0.7,0.3-0.9,0.1
		c-7.4-5.7-15.9-0.8-23.8-2.3c-1.8-0.3-3.7-0.1-5.5-0.1c-1.4,2.5-3.2,4-6.1,2.2c-1-3.6,2.1-3.6,4.1-4.1
		C250.5,14.4,253.3,14.4,255,12z"/>
	<path class="st33" d="M9.8,300.1c-1.5-2.5-2.5-5.2-2.8-8.1c1.3-1.4,3-1.3,4.6-1.4c2.1-0.1,4-0.4,5.4-2.1c0.3-0.4,0.7-0.9,1.2-0.9
		c7.1,0.3,12.5-5.7,19.7-5.2c3.9,2.7,4.7,6.7,4.7,11.1c-3.1,4.1-7.9,3-12,3.6c-3.6,0.6-7,0.8-10.3,3
		C17.1,302.3,13.3,302.1,9.8,300.1z"/>
	<path class="st34" d="M359.8,92c-5.4-4.6-12.5-6-18.7-8.9c-4.3-2-9.3-2.3-13.5-4.9c-0.9-0.6-2.6-0.4-3.6,0.9c-3.6-2-4.2-5.3-3.7-9
		c1.5,0.3,2.8,1,4.6-0.1c2.6-1.8,4.7-0.9,5.1,2.6c0.3,3.3,0.2,6.9,4.7,2.2c1.5-1.6,5.7-1.5,6.3-0.1c2,5,5.9,3,9.2,3.3
		c2.3,0.2,4.6,0,7,0C358.9,82.5,359.4,87.2,359.8,92z"/>
	<path class="st35" d="M215,4c2.9,0.4,4.5-0.7,4-3.8c13-0.6,26,0.4,39,1c-1.3,3.5-4.4,2.7-7.1,2.8c-2.8,0.1-5.8-0.8-7.5,3.1
		C242.7,9,239.9,7.9,238,8c-2,0.1-4,0-5.9,0c-2.9,1.5-5.9,2.5-8.7,4.5c-2.7,2-5.7-0.8-8.6-1.1c-2.6-0.5-5.4,0.7-8-0.4
		c-1.3-2.9,0.5-3.8,2.8-4.2C211.8,6.5,213.7,5.9,215,4z"/>
	<path class="st36" d="M113,1c9-1.2,18-1,27-0.8c1.2,1.6,1.3,3.8-0.5,4.2c-5.8,1-10.1,6.6-16.5,5.1c-4.1,0-7.9,0.2-11.7,2.9
		c-3.7,2.6-8.7,0.8-13.2,1.1c-1.8-0.2-3.6,0-5.2-1.1c-1-1.3-1.1-2.7-0.5-4.1c5.8-1.4,10.6-5.9,16.9-5.7C110.8,2.6,112,1.8,113,1z"/>
	<path class="st37" d="M67,354.1c13.4,0,26.7,0,40.1,0c2.6,2.1,5.6,2.6,8.8,2.6c4.8-0.1,9.6-0.2,14.4,0.1c3.2,0.2,5.6,1.3,4.7,5.2
		c-21-0.1-42-0.3-62.5-5.8C70.6,355.6,68.6,355.3,67,354.1z"/>
	<path class="st38" d="M1.2,107c4.3,0.5,7,0,9.1-5.1c1.6-4.1,6.9-7,12.1-6.8c4.9,0.2,9.2-0.6,12.7-4.1c1.9,2.8,1.7,5.6-0.2,8.3
		c-5.4,4.5-12.3,6.2-18.4,9.4c-3.2,1.6-6.4,3.1-9.5,4.7c-3.2,1.7-5.3,4.9-5.1,9c-0.3,0.8-0.7,1.4-1.6,1.5
		C-0.1,118.3,0.8,112.7,1.2,107z"/>
	<path class="st39" d="M93,8c0,1.3,0,2.7,0,4c-2.3,2-5,1.3-7.6,1.5c-4-0.3-8-0.4-11.1,2.9c-0.3,0.4-0.9,0.6-1.4,0.6
		c-7.1-0.5-12.9,4.1-19.8,4.7c-2.5,0.2-4.8,1.1-6.8,2.8c-3.1,2.5-6.6,2.8-10.1,0.6c6.1-5.7,12.9-10.1,20.7-13.1
		c2.5-0.9,5.1-1.2,7.7-1.4c2.4-0.1,4.4-0.7,6.3-2.2c3.1-2.5,6.8-1.8,10.4-1.8C85.2,6.8,89.4,5.4,93,8z"/>
	<path class="st40" d="M0.2,140c0-2.7,0-5.4,0-8c0.1-3.1,1.7-4.4,4.6-5.9c5.6-2.9,12-3.3,17.3-7.2c2.9-2.1,7.3-3,11.3-1.8
		c1.2,2.1,1.1,4.3,0.2,6.5c-5.9,2.9-11.3,6.6-17.5,9.1c-3.8,1.5-7.2,4-10.3,6.7C4,141.1,2.3,141.7,0.2,140z"/>
	<path class="st41" d="M80,324.2c-5,1.8-10.2,0.4-15.3,0.8c-2.1,0.2-4.3-0.4-5.2,2.5c-0.5,1.7-2.4,1.5-3.9,1.5c-4.3,0-8.7,0-13,0
		c-2.1,0-4.3-0.4-4.9,2.7c-0.3,1.7-2.1,1.5-3.3,0.8c-1.5-0.8-2.8-1.8-4.6-1.5c-0.3-0.3-0.6-0.6-0.9-0.9c-1-4.4-0.2-5.8,3.9-6.5
		c2-0.3,4-0.2,5.9-0.2c1.3,0,3,0.3,3.9-0.5c6.3-5.6,13.8-2.9,20.8-3.5c1.8-0.1,3.6,0.1,5.4-0.1C73.2,319.8,77.1,320.9,80,324.2z"/>
	<path class="st42" d="M0.1,181c0-2.3,0-4.7,0-7c2.3-3.7,5.1-6.5,9.9-6.4c1.5,0,2.9-0.8,4.1-1.8c2.8-2.3,6.1-3.5,9.7-3.1
		c3.3,0.4,5.4-2.5,8.3-3.1c0.6,0,1.1,0.2,1.4,0.7c0.9,1.6,0.8,3.3,0.5,5c-1.8,8.4-2.7,9.6-11.3,9.1c-6.7-0.4-11.6,3.2-16.8,6.2
		C3.9,181.8,2.2,182.7,0.1,181z"/>
	<path class="st43" d="M215,361.9c-4,0-8,0.1-12,0.1c-3.4-3.1-6.2-7.1-11.6-7.1c-2.2,0-2.9-2.9-4.6-4.1c-1.7-1.8-2.8-4-4.6-5.8
		c-1.1-1.1-2.2-2.5-0.9-4.3c1.5-0.9,3.1-0.9,4.7-0.9c3.9-0.1,7.6,0.6,10,4.1c2.9,2.4,5.7,4.5,9.7,5.5c4.7,1.3,6.9,6.3,10,9.8
		C216.3,359.9,215.8,361.1,215,361.9z"/>
	<path class="st44" d="M33.1,117c-7.6,0.8-13.4,6.3-21,7.4c-3.3,0.5-5.9,3.8-9.8,3.9c-1.7,0.1-0.6,2.7-2,3.7c0.1-2.7,0.1-5.4,0.2-8
		c0.2-0.3,0.4-0.6,0.7-0.9c3.5-5.3,10-5.8,14.7-9.2c4.4-3.2,10.1-3.4,14.3-6.9c1.4-1.2,3.1-1.1,4.5,0.3
		C35.6,110.7,36.6,114.2,33.1,117z"/>
	<path class="st45" d="M137,345c2.5,0.4,4.2-0.5,5-3c0.4-0.3,1-0.8,1.3-0.6c4.5,3.2,10.6,1.9,14.8,5.7c2.2,2,5,1.3,7.4,2.1
		c5.3,2.2,9.5,6.6,15.3,8.1c2.4,0.6,2.6,2.6,1.2,4.7c-4,0-8,0-12,0c-5.3-2.6-10-6.8-16.4-6.6c-2.2,0.1-4.3-0.4-5.9-2.2
		c-1.4-1.7-3.6-1.6-5.5-2.2c-0.5-0.2-0.9-0.5-1.2-0.9C142,346.5,139,346.2,137,345z"/>
	<path class="st46" d="M21.2,321c-0.9-1.3-1.9-2.6-2.8-4c0.1-0.1,0.2-0.3,0.3-0.3c5.4-0.5,10.3-2.6,14.9-5.4c4.4,0.3,8.7-1.4,13.2-1
		c2.6,0.2,3.9-2.4,6.3-2.7c4,2.3,8.7,3.9,8.8,9.7c-3.5,2.1-7.4,1.1-11.2,1.2c-3.3,0.1-6.2,1-9.3,2.4C34.9,323.8,27.9,323.5,21.2,321
		z"/>
	<path class="st47" d="M36.2,25.1c5.9,2.1,9.5-4,14.5-4.2c7.5-0.4,13.7-6.2,21.5-4.9c0.6,0.1,1.5-0.2,1.8-0.7
		c2.6-4.8,7.2-2.8,11.1-3.2c0.2,4-2.4,5.1-5.7,5.3c-4.8,0.4-9,1.6-11.8,6.1c-1.9,3.1-5.9,1.2-8.7,2.5c-3.4,0.4-6.9,0.3-9.3,3.5
		c-0.8,1-2.4,0.9-3.7,0.9c-4.3,0.3-8.9-0.7-12.5,3.1c-1.3,1.3-3.7,1.1-5.4-0.5C30.2,29.8,33.1,27.3,36.2,25.1z"/>
	<path class="st48" d="M32.7,160c-0.2,0-0.4,0-0.6,0c-3-3.3-9.2-4-12.9-1c-2.7,2.2-5.6,3.4-9.1,3.4c-1.7,0-3.2,0.8-4.6,1.7
		c-1.7,1-3.4,2.3-5.5,0.9c0-1.7,0-3.3,0-5c5.5-5.6,13.4-7.6,19.4-12.5c0.9-0.7,2.2-0.7,3.3-0.8c5.9-0.6,6.8-1.5,7.9-7.5
		c0.6-1.3-0.2-4.1,2.9-2.7c1.9,7,1,14.1,0.6,21.1C34.2,158.6,33.7,159.6,32.7,160z"/>
	<path class="st49" d="M38.1,283c-1.1,1.5-2.7,0.9-4.1,1.1c-1,0.1-2.7,0-2.8,0.4c-1.8,5.5-6.4,3.1-10,3.6c-0.7,0.1-1.8-0.1-1.9,0.3
		c-2.7,5.7-7.9,3.2-12.2,3.7c-1.3-2.5-2-5.2-2.1-8c7.9-2.5,15.7-5.8,23.9-7.2c3.2-0.5,5.8,1.2,8.5,2.3
		C38.7,280.3,39.1,281.5,38.1,283z"/>
	<path class="st50" d="M311.2,347.1c-2.5,1.8-5.2,3.2-8.1,3.9c-3.7,0.6-7.1,0.6-7.3-4.5c-0.8-6.3-1.5-12.5-6.5-17.3
		c-1.9-1.8-2-4.5-1.7-7c1-1.9,2.5-2.8,4.6-2.5c2.6,3.1,6.4,5.2,6.5,10c0,1.7,1.9,2.1,3,3.1C305.8,336.9,310.5,340.6,311.2,347.1z"/>
	<path class="st51" d="M135,361.9c-0.8-2.9-2.4-4.1-5.7-3.9c-5.8,0.3-11.5,0-17.3,0.1c-3.1,0.1-4.7-1-5-4.1c2.1-2.9,4.3-3.9,7.4-1.1
		c1.4,1.2,3.6,1.4,5.6,1.1c6.7-3,13.7-1.3,20.5-1.2c3.8,2.4,7.6,4.1,12.4,4c3.1-0.1,5.1,1.6,3.1,5.1C149,361.9,142,361.9,135,361.9z
		"/>
	<path class="st52" d="M0.1,165c4.9-1.4,8.9-5.3,14.5-4.4c0.5,0.1,1.5-0.4,1.7-0.8c3.2-6,9.1-3.1,13.8-4.1c3.4-0.7,1.2,2.9,2,4.3
		c-2.7,3.4-6.1,4.6-10.4,4c-1.7-0.2-3.2,0.2-4.6,1.3c-2.9,2.3-5.7,4-9.8,3.9c-3-0.1-4,4.2-7.1,4.8C0.1,171,0.1,168,0.1,165z"/>
	<path class="st53" d="M321.9,288.8c1.2,4,2.4,8,7,9.5c1.2,0.4,1.1,1.5,1.1,2.5c0,2-0.1,4,2.5,4.7c1.2,0.3,1.7,1.8,1.4,2.9
		c-1.4,5.2,3.9,7.7,4.7,12c0.1,0.3,1.5,0.4,2.2,0.6c-1.3,3-4,4.7-6.1,7c-3.5-1-6.1-2.8-6.1-6.9c0.1-3,0.2-6-2.8-8
		c-1-0.7-1.1-2-1.1-3.2c0.3-5.7-3.4-9.4-6.7-13.4C317.4,292.9,318.7,290.4,321.9,288.8z"/>
	<path class="st54" d="M0.2,140c2.3,0,3.9,0,5.4-2.8c1.3-2.2,5.3-3.9,7.9-4.7c6.1-2.1,10.9-6.4,16.8-8.4c0.8-0.2,1.6-0.1,2.5-0.1
		c2.1,2.3,1.7,4.9,0.9,7.5c-7.7,1.9-12.8,8.8-21,10.4c-4.2,0.8-8.2,4.2-12.5,6.1C0.2,145.3,0.2,142.7,0.2,140z"/>
	<path class="st55" d="M330,321c-1.3,4.3,4.4,3.8,4.8,6.9c-1.4,3.2-4.3,5-7,7c-3.8-2.7-7.2-5.7-7.1-10.8c0.1-3.1-0.8-5.5-3.6-7.1
		c-4.5-2.6-4.4-7.5-5.7-11.7c0.8-3.1,1.9-6,5.8-6.5c2.6,4.3,6,8.1,6.4,13.7C323.8,316.4,327.9,318.2,330,321z"/>
	<path class="st56" d="M37.1,280c-6-3.9-12,0.4-18,0.1c-0.6,0-1.5,0.1-1.8,0.6c-3.2,4.4-8,3.3-12.4,3.4c-1-1.2-0.8-2.6-0.9-4
		c4.3-3.8,9.5-6,14.4-8.7c5.4-2.9,11.3-1.6,17.1-0.9C38.1,273.3,38.2,276.5,37.1,280z"/>
	<path class="st57" d="M1.7,263.1c4.8-0.5,9.6,0.7,14.2-3.4c2.2-2,7.6-0.6,11.5-0.7c2.1,0,4.3,0,6.4,0c1.3,1.1,1.2,2.4,0.7,3.8
		c-1.7,1.8-4.2,2.8-6.2,2.7c-3.8-0.4-6.4,1.6-8.8,3.6c-4.2,3.4-9.2,3.2-14,3.8c-2.1,0.2-3-0.8-3.3-2.7
		C2.1,267.8,1.9,265.5,1.7,263.1z"/>
	<path class="st58" d="M348.8,54.1c-4,6-7.9,1.2-11.8,0c-4.5-0.8-8.3-3.5-12.9-4c-2.9-0.3-3.7-2.3-2.1-5c2.4,0,4.9,0,7.3,0
		c2.1,0,4.2,0.4,5.1-2.4c0.8-2.6,4-0.7,5.5-2.3C344.2,44.1,346.5,49,348.8,54.1z"/>
	<path class="st59" d="M0.2,148c1.9-2.1,4.9-3,6.6-4.4c5.9-4.9,14.8-3.8,19.5-10.6c1.5-2.1,4.4-0.6,6.6-1c1.3,1.4,1.4,2.7-0.2,4
		c-1,1.2-0.6,2.7-0.7,4c-5.6,1.9-10.9,4.3-15.2,8.4c-0.2,0.2-0.6,0.5-0.9,0.4C8.8,147.3,5.1,153,0.1,156
		C0.1,153.3,0.2,150.7,0.2,148z"/>
	<path class="st60" d="M33.1,245.8c-1.5,2-3.6,1.1-5.5,1.2c-2.7,0.2-5.8-0.8-6.9,3.1c-0.3,1.1-1.6,0.9-2.6,1c-1.8,0-3.7,0.3-5.4,0
		c-4.7-1-8.2,1-11.5,4.1c0-1.3-0.1-2.7-0.1-4c1.4-3.3,3.8-4.6,7.4-5.7c4.2-1.3,8.4-3.5,12.2-5.9c3.3-2.1,7.1-2.7,10.7-3.9
		c0.8-0.3,1.6,0.1,2.2,0.9C34.8,239.6,35.2,242.8,33.1,245.8z"/>
	<path class="st61" d="M187,350c0.8,0.2,2.2,0.2,2.3,0.5c0.7,4,3.8,2.9,6.4,3.6c3.7,1,6.7,3.5,7.3,7.8c-4.3,0-8.7,0-13,0
		c-4.4-5.5-10.9-7.9-16.8-11.1c-4.6-2.6-7.4-7.2-11.7-10.2c0.2-3.5,2.1-3.8,4.7-2.3c1.7,1,3.3,2.2,4.6,3.8c0.9,1.2,2.1,2.5,3.6,2.3
		C179.9,343.7,183.4,347,187,350z"/>
	<path class="st62" d="M0.2,218c0-2.7-0.1-5.3-0.1-8c1.2-2.3,3.1-4.6,5.5-4.7c7.2-0.2,12.4-5.3,18.9-6.9c2.5-0.6,5.1-2.7,7.4-0.5
		c2.3,2.3,1.8,5.4,0.4,8.3c-6.1,0.3-11.1,4-16.9,5.4c-3.1,2.2-6.2,4.2-10.4,3.8c-1.6-0.2-2.6,1.2-3.5,2.4
		C1.1,218.2,0.7,218.3,0.2,218z"/>
	<path class="st63" d="M322,339.9c-1,0.8-1.9,1.5-2.9,2.3c-2,0.4-2.1-1.3-2.3-2.4c-0.7-4.4-3.2-7.4-6.8-9.7
		c-1.2-0.7-1.9-1.7-2.5-2.9c-1.8-4-3.7-8-6.2-11.7c0.9-3.7,3-6.2,7-6.7c5.1,5.9,11.2,11.3,11,20.1c0,1.6,0.9,2.8,1.9,3.9
		C323.4,334.9,323.8,337.3,322,339.9z"/>
	<path class="st64" d="M265.3,360.1c-4.3,1.3-8.8,0.9-13.2,0.8c-0.8-0.9-1.7-1.4-2.9-1.6c-3.5-0.4-5.8-2.2-6.3-5.8
		c-0.2-1.8-1.6-2.3-2.8-3.1c-0.4-0.3-0.7-0.7-0.9-1.2c-1.4-3.1-4.4-4.9-6.2-7.7c-1.1-1.9-2.6-3.6-1-5.9c4.7-1.3,7.1,2.9,10.3,4.7
		c3.4,1.9,6.7,3.9,10.2,5.6C253.6,353.5,258.6,357.6,265.3,360.1z"/>
	<path class="st65" d="M294.1,354.1c-1.7,1.3-3.7,2-5.9,2.1c-2.2,0.4-3.8-0.5-4.1-2.6c-0.8-7.5-6.6-11.4-11.4-16.1
		c-1.8-2.6-4-5-6.5-6.7c-4-2.7-1.8-3.6,0.9-4.6c3.5-0.7,6.8-2.3,10.5-1.5c1.4,2.9,5,4.7,4.6,8.6c-0.5,3.7,0.6,6.8,3.7,9.2
		c2.6,2,4.1,5.2,6.7,7.2C294.2,350.7,294.5,352.3,294.1,354.1z"/>
	<path class="st66" d="M0.2,218c0.3,0,0.6,0,0.8,0c3.3-2.5,7.3-1,10.9-1.7c3.4-3.3,7.5-4.4,11.9-3.6c3.5,0.6,5.5-2.4,8.5-3
		c3,2.3,2.1,5.1,1.3,8c-0.3,0.5-0.7,0.9-1.3,1.1c-8,1.6-15.6,4.1-22.9,7.8c-2.8,1.4-6.1,1.3-9.2,0.4C0.2,224,0.2,221,0.2,218z"/>
	<path class="st67" d="M21.2,321c4.5,0,9,0,13.5,0c2.9,0,6,0.7,7.7-3c0.8-1.7,3-0.8,4.6-1c5-0.6,10.2,1.3,15.1-1.1
		c3.4,0.2,6,1.7,8,4.4c-6.4,1.5-12.8,0.3-19.2,0.7c-2,0.1-4.4-0.7-5,2.6c-0.3,1.7-2,1.4-3.3,1.4c-2.8,0-5.6,0.2-8.4,0
		c-4-0.3-5.5,1.5-5.1,5.2C25.7,327.7,23.3,324.5,21.2,321z"/>
	<path class="st68" d="M0.2,227c1.6-1.1,3.6-0.6,5.2-1.1c5.3-1.5,10.9-3.2,15.7-5.4c3.8-1.8,7.1-2.3,10.9-2.5
		c2.8,6.4,1.3,9.1-5.4,9.3c-3,0.1-5.9,0.3-8.3,2.4c-1.2,1-2.6,1.6-4.1,1.4c-4.5-0.4-8.4,1.4-12.2,3.2c-0.6,0.1-1.1-0.1-1.6-0.5
		C0.3,231.7,0.3,229.3,0.2,227z"/>
	<path class="st69" d="M2.3,270.1c4.2,3.3,8.8,1.1,12.8,0c2.5-0.7,5.7-2.4,7.6-5c0.4-0.5,1.3-1.3,1.4-1.2c3.6,2.6,6.6-1.8,10-0.8
		c3.7,2.2,2.6,5.1,1.1,8c-2.9,0-5.9,0-8.8,0c-3.6,0-6.6,1.5-9.9,3c-4.2,1.8-7.2,6.4-12.4,6C2.8,276.8,2.5,273.5,2.3,270.1z"/>
	<path class="st70" d="M0.1,193c0-2.7,0-5.3,0-8c0.8-0.7,1.6-1.3,2.6-1.2c7.1,0.2,12.5-3.9,18.4-7c3.5-1.9,7.3-1.8,11-0.2
		c1.6,5.5-0.8,9.4-6.2,9.7c-3.2,0.2-5.9,1.2-8.8,2.7c-4.3,2.2-9.5,2.3-13.8,4.9C2.3,194.5,1,193.9,0.1,193z"/>
	<path class="st71" d="M32,177.1c-2.2,0-4.3,0-6.5-0.1c-0.7,0-1.7-0.2-1.9,0.1c-2.7,4.1-8.5,2.7-11.2,6.3c-1.7,2.3-3.8,1.5-5.8,1.6
		c-2.1,0.1-4.3,0-6.5,0c0-1.3,0-2.7,0-4c2.2-0.1,4.8,0.6,5.3-2.9c0.2-1.4,1.9-1,3-1.1c1-0.1,2.6,0,2.8-0.5c2.6-5.2,7.4-3.4,11.4-3.5
		c8.3-0.2,8.3-0.1,10-8.1c3.1,3.6,2,7.6,1,11.5C33.3,177.2,32.7,177.3,32,177.1z"/>
	<path class="st72" d="M190,0.1c0.4,3-0.8,4.2-3.9,4c-5.5-0.5-10.4,0.9-15.5,3.2c-5,2.3-11,0.5-16.6,0.7c-0.4,0.4-0.9,0.4-1.3,0
		c-1.1-2.3,0.1-3.7,1.9-4.8c1.5-0.9,3.1-1.7,4.4-3.1C169.4,0.1,179.7,0.1,190,0.1z"/>
	<path class="st73" d="M249.1,361.1c-6.3,1.3-12.7,0.8-19.1,0.8c-5.4-6.1-10.6-12.5-17.5-17.1c-0.4-1.9,0.8-3,2.3-3.7
		c2.6-0.5,5.1-1.4,7.8-0.7c1.8,2.2,3.5,4.4,6.4,5.2c2.2,0.6,2.9,2.5,3.5,4.5c1.8,6,6.8,8,12.1,9.6
		C246.3,359.8,247.9,359.7,249.1,361.1z"/>
	<path class="st74" d="M0.3,234c0.2,0,0.5,0,0.7,0c2.7,5.5,2.7,5.4,9.2,3.8c5.2-1.2,9.6-4.6,15.1-4.8c2.6-0.1,5.3-0.9,7.7,0.8
		c0.4,0.8,0.4,1.5-0.3,2.2c-6.6,1.2-13.3,4.3-18,7.8c-4.5,3.3-11.3,1.3-13.8,7.2C0,245.4,0.1,239.7,0.3,234z"/>
	<path class="st75" d="M0.1,156c2.7-6.1,6.8-8.5,13.4-8.1c0.8,0.1,2.3,0,2.4-0.2c0.8-4.9,6.7-2.8,8.7-6.7c1.2-2.4,4.9-0.6,7.5-1
		c-0.5,5.6-2.9,7.9-8.2,8c-2.1,0-4-0.3-5.3,2.5c-1.3,2.8-5.4,1.3-7.7,3.8C9,156.4,5,156,3.9,159.7c-0.1,0.4-2.5,0.2-3.8,0.3
		C0.1,158.7,0.1,157.4,0.1,156z"/>
	<path class="st76" d="M215,361.9c-0.7-4.4-8.1-11.9-12.4-11.7c-4.1,0.2-4.3-4.6-7.6-5.1c0.7-1.1,1-2.2,0.1-3.5
		c-1.3-1.9-0.8-3.6,1-5c3.4-0.6,4.2,3.7,7.2,3.7c8,4.2,13.1,11.7,19.7,17.6c1.2,1.1,1.2,2.6,0,4C220.4,361.9,217.7,361.9,215,361.9z
		"/>
	<path class="st77" d="M0.1,205c0-2.3,0-4.7,0-7c3.9-3.7,8.3-6.4,13.9-6.4c2.7,0,5-0.5,7.3-2.3c3.3-2.6,7.1-2.2,10.8-0.7
		c2.2,3.5,0.5,5.9-2.5,7.8c-1.2,0.8-2.7,1.5-4.1,1.6C16.5,198.5,8.6,202.9,0.1,205z"/>
	<path class="st78" d="M15.9,313.1c-2-2.3-2.9-5.2-4.1-8c1.2-2.7,3.7-2.5,6-2.5c5.1-0.1,9.9-0.1,14.7-3.1c3.3-2.1,8-1.6,12.1-1.6
		c2.5,0.7,3.9,2.4,4,5c-1.7,3.5-5.3,2.7-7.9,2.6c-3.4-0.1-5.3,1.1-6.6,3.9c-1,0.7-2.2,1-3.3,0.9C25.5,310,20.6,310.8,15.9,313.1z"/>
	<path class="st79" d="M159,0.1c0.3,2.2-1.1,3.4-2.9,3.8c-2.4,0.5-3.2,1.9-3.1,4.2c-3.1,2.4-6.7,1.3-10.1,1.4
		c-4.3,0.1-8.6,0-12.3,2.8c-1.8,1.4-4,1.3-6.2,0.4c-1.7-1.2-2.1-2.8-1.4-4.7c3.4-0.2,7.2,1.1,9.3-3.3c0.6-1.3,2.8-0.8,4.2-0.6
		c3,0.3,3.8-1.3,3.5-3.9C146.4,0.2,152.7,0.1,159,0.1z"/>
	<path class="st80" d="M311.2,347.1c-2.1-3-4.2-6-6.3-9c-0.7-0.9-1.2-2.1-2.1-2.7c-3.3-2.2-6.7-3.9-6.4-9.1c0.1-1.1-3.8-3.2-4.4-6
		c1.7-3.4,4.6-4.5,8.2-4.4c3.2,8,8.5,15,11,23.2c0.7,2.3,2.6,3.8,3.2,6.1C313.4,345.9,312.3,346.5,311.2,347.1z"/>
	<path class="st81" d="M45.4,298.9c-3.8,0.2-7.5,1.6-11.3,1.2c-0.3,0-0.8,0-1,0.1c-5,6.1-11.9,3.1-18,3.9c-1.1,0.1-2.2,0.7-3.3,1.1
		c-1.2-1.5-1.6-3.2-2-5c4.5-0.5,8.7,0.4,13.1-3.3c3-2.5,9.1-1.4,13.8-1.7c2-0.1,3.9-0.4,5.3-2.1C45.2,293.8,45.1,296.5,45.4,298.9z"
		/>
	<path class="st82" d="M314.4,345.2c-2.6-1.5-4.5-3.2-4.5-6.5c0-3.8-2.8-6.7-4.7-9.6c-2.7-4.2-3.8-8.7-5.2-13.2
		c0-1.3,0.9-1.5,1.9-1.2c2.6,2.5,4.5,5.4,5.4,8.9c1,3.5,4,5.1,6.6,7.3c3.3,2.8,4.3,7.2,5.3,11.3
		C317.9,343.7,316.3,344.6,314.4,345.2z"/>
	<path class="st83" d="M281,357.9c-2.2,0.8-4.5,1.4-7,1.1c-2.6,0-3.1-2.5-3.7-4c-1.9-4.7-6.5-7.7-7.7-12.7c0-1.9-1-3.3-2.1-4.7
		c-1.2-1.4-1.9-3-0.7-4.8c1.4-0.9,3.3-1.2,4.1,0.1c2.7,4.8,8.4,6.5,11.1,11.3c1.1,1.9,2.3,3.6,2.9,5.7c0.4,1.4,1.4,2.5,2.5,3.4
		C282,354.6,282.5,356.2,281,357.9z"/>
	<path class="st84" d="M322,339.9c-0.1-2.9,0.8-6.2-3.2-7.4c-0.4-0.1-0.6-1.4-0.7-2.2c-0.5-3.7,0.7-7.1-3.3-10.8
		c-2.4-2.2-4.9-6.6-6.6-10.5c-0.4-2.9,1.1-4.1,3.8-4c0.7,1.4,2.2,2.5,2,4.4c-0.5,3.6,1.8,5.9,4.5,7c3.2,1.3,3.6,3.2,3.6,6.1
		c0,2.7-1.3,5.9,3.1,7.1c1.8,0.5,0.1,4.3,2.6,5.3C326.5,337.4,324.4,338.7,322,339.9z"/>
	<path class="st85" d="M0.1,205c1.1-1.3,1.5-3.1,3.9-3.2c7.5-0.4,13.9-5.7,21.9-5.1c3.8,0.3,6.8-2.9,6.1-7.7c-1-1.8-1.6-3.4,1.3-3.8
		c2.1,6.7,1.6,13.5,0.3,20.3c-0.4,0.6-0.9,0.8-1.6,0.5c0-8.9,0-8.9-7.9-5.9c-3.5,1.3-7.4,1.9-10,5.1c-0.4,0.5-1.6,0.9-2.3,0.7
		c-4.8-1.1-8.1,1.9-11.8,4.1C0.1,208.3,0.1,206.7,0.1,205z"/>
	<path class="st86" d="M32.7,185c-0.9,1.2-0.5,2.7-0.7,4c-4.2,0.4-9.1-1.7-11.9,3.6c-0.1,0.3-1,0.4-1.4,0.3
		c-7.1-1.6-12.6,2.8-18.6,5c0-1.7,0-3.3,0-5c2.4,0.2,4.5-0.2,6.2-2.1c1.4-1.5,3.2-2.2,5.4-2c2.7,0.3,5.1,0.1,6.6-2.9
		c0.9-1.9,3.3-1,5-1c6.8-0.1,7.9-1.1,8.7-8c0.2,0,0.4-0.1,0.6-0.1C35.2,179.7,35.2,182.4,32.7,185z"/>
	<path class="st87" d="M264,342c0.1,1,0.1,2.8,0.3,2.8c5.8,0.8,3.8,7.7,7.7,10c1.5,0.9,0.4,3.3,2,4.3c-1.9,1.1-4,0.9-6,0.9
		c-4-2.2-8-4.3-9.7-9c-0.9-1.9-2-3.7-2.8-5.6c-0.2-0.5-0.3-0.9-0.4-1.4c-0.1-1.3,0-2.6,1.3-3.5C259.2,339.5,261.7,340.3,264,342z"/>
	<path class="st88" d="M156,362c0.5-3.5-1.4-4.3-4.4-3.9c-4.2,0.5-8.1-0.1-10.6-4c-0.8-1.6,0-2.8,1-4c2.8,0.2,5.8-0.9,7.5,3
		c0.9,2.1,3.9,0.7,5.9,1c2.6,0.4,6.1-1.4,7.1,3.2c0.3,1.3,2.3,0.9,3.6,0.8c3.1-0.3,4.3,1,3.9,4C165.4,362,160.7,362,156,362z"/>
	<path class="st89" d="M31,58c-3.7,2.1-7,4.9-11.8,4.2c-1.7-0.2-3.2,1.6-4.7,2.6c-1.9,1.3-4.2,2.5-5.5-0.8c0.2-2.2,1.2-4.1,2.3-6
		c7.2-1.7,14.2-4.6,21.7-5C34.9,55.7,32.9,56.8,31,58z"/>
	<path class="st90" d="M93,8c-4,0-8,0-12,0c-1.3-1.8-0.6-3,1-4c10.2-2.6,20.6-3.1,31-3c-0.5,0.8-1.1,2.4-1.5,2.4
		C104.7,2.2,100,9.9,93,8z"/>
	<path class="st91" d="M223,361.9c1.2-4.1-3.2-5.3-4.8-6.8c-5-4.7-9.4-10.2-15.2-14.1c5.6-2.6,7.6-1.8,10,4
		c4.7,0.9,7.5,4.1,10.4,7.7c1.5,1.8,3.2,3.9,5.3,5.3c1.7,1.1,1.2,2.5,1.4,3.9C227.7,361.9,225.4,361.9,223,361.9z"/>
	<path class="st92" d="M341,142c0.1,0.1,0.3,0.2,0.4,0.2c5.7,1.2,10.2,4.1,13.8,8.8c1.5,2.1,4.4,0.6,6.7,1c0,4.3,0,8.7,0.1,13
		c-1.1,0-2.2,0.2-2.9-1c-5-1.8-6.3-6.9-9.2-10.4c-1.6-1.9-2.9-3.7-5.5-4.6C341.2,147.8,339.6,145.5,341,142z"/>
	<path class="st93" d="M294.1,354.1c-3.2-4-5.9-8.9-9.9-11.7c-4-2.8-2.9-6-3.2-9.3c2.1-1.6,3.5-0.6,5.1,0.9c4,3.7,7.5,7.8,10.9,12.1
		c-0.8,5,3.5,3.9,6,5C300.3,352.7,297.4,354,294.1,354.1z"/>
	<path class="st94" d="M28,33c2.7-0.1,4.8,0,7.1-2.8c2.4-2.9,7.2-0.7,10.9-1.2c1,1.1,1.1,2.4,0.6,3.7c-2,2.6-6.5,0.3-7.9,4.1
		c-0.3,0.4-0.7,0.7-1.1,1c-5.1,5.3-12.3,4.5-18.6,6.1C21.6,40.1,24.2,36.1,28,33z"/>
	<path class="st95" d="M173,350c2.2,0.1,4.6-0.6,5.5,2.6c0.5,1.6,2.6,1,3.9,1.5c3.7,1.4,7.1,3.3,7.6,7.9c-2.7,0-5.3,0-8,0
		c-0.2-1.4,0.2-4.1-1.4-3.6c-5.3,1.6-6.7-4.6-11.1-4.9c-1.6-0.1-3.1-2.3-4.6-3.5c0.2-3.2,2.1-3.3,4.2-2.1
		C170.5,348.6,171.9,349.2,173,350z"/>
	<path class="st96" d="M15.9,313.1c2.2-3.8,5.7-4.4,9.7-4.1c2.8,0.2,5.6,0,8.4,0c0.9,1,0.8,2,0,3c-4.4,4.3-9.6,6-15.7,5
		C17.5,315.7,16.7,314.4,15.9,313.1z"/>
	<path class="st97" d="M281,357.9c-0.2-1.5,0.5-3.5-1.8-3.8c-2.7-0.4-2.1-2.4-2.2-4.1c-0.1-4.7-3.2-8.5-4-13
		c3.8,0.7,5.4,4.2,7.9,6.5c3,2.8,4.9,5.8,4.3,10.3c-0.2,1.3,1.8,1.7,2.9,2.4C286,357.3,283.6,357.8,281,357.9z"/>
	<path class="st98" d="M259,350c1.8,4.4,6.4,6.2,9,9.9c-0.9,0.1-1.8,0.1-2.8,0.2c-8.6-0.3-13.2-5.2-13.2-14.1
		c-0.3-0.5-0.3-1,0.2-1.4c1.4-0.8,2.6-0.6,3.8,0.4C256.9,346.8,256.9,349.1,259,350z"/>
	<path class="st99" d="M18.9,44c3.1-2.7,6.7-3.4,10.7-3c1.5,0.2,2.9,0.1,3.5-1.8c0.8-2.5,3-2.1,4.9-2.2c1.5,1.7,1,3.3-0.5,4.7
		c-1.2,1.1-2.5,2.1-3.5,3.3l0,0c-4.6,2.1-10.2,0.8-14.5,4.4c-1.2,1-3.4,0.4-2.5-2.3C17.5,45.9,17.8,44.7,18.9,44z"/>
	<path class="st100" d="M82,4c-0.6,1.3-1.2,2.6-1,4c-3.9,0.4-7.6-0.7-11.4,3.3c-2.1,2.2-8.4,0.6-12.8,0.7C64.8,7.8,73.2,5.2,82,4z"
		/>
	<path class="st101" d="M17.1,47.1c0.2,1.8,1.8,2.6,2.6,1.3c3.2-5.1,8.1-2.9,12.4-3.4c0.6-0.1,1.3,0,2,0c-2.4,2.3-4.9,4.3-8.5,4.3
		c-3.3,0-4.7,3.9-8.1,4.1c-1.3,0.1-2.5,0.9-3.5-0.6C14.4,50.7,15.7,48.8,17.1,47.1z"/>
	<path class="st102" d="M249.1,361.1c-1.7-0.1-3.4-0.1-5.1-0.2c-4.1-2.6-5.6-6.2-4-10.9c2,0,4.1-0.2,4,2.9c-0.1,3.5,1.6,5.3,5.1,5.1
		c2.2-0.1,3,0.9,2.9,3C251.1,361,250.1,361,249.1,361.1z"/>
	<path class="st35" d="M265.3,2c-2.1-0.2-4.3,0.8-6.2-0.7C261.2,1.2,263.3,1,265.3,2z"/>
	<path class="st0" d="M32.7,185c0-2.7,0-5.3,0-8c0-4,0-8,0-12c0-1.7,0-3.3,0-5c0-8,0-16,0.1-24c0.1-1.3,0.1-2.7,0.2-4
		c0-2.7,0-5.3,0-8c0-2.3,0.1-4.7,0.1-7c0.9-3.3,0.9-6.6,0.6-10c-1.5-2.8-1.5-5.4,0.4-8c1.2-2.6,0.9-5.3,1.1-8c1-4,1.9-8,2.9-12
		c1.7-4,3.3-8,5-12c2.6-3.7,5.2-7.4,7.8-11.1c3.7-3.3,7.5-6.6,11.2-9.9c1.5-3.1,4.8-3.4,7.2-5.2c8.1-3.6,16.4-6.6,25.4-7.3
		c7.2-1.6,14.6-0.4,21.8-1.8c6.3-0.7,12.6-0.4,18.8-0.3c30.4,0,60.7,0.2,91.1,0c16.6,0.1,33.1,0.2,49.5,3.5
		c4.6,0.9,9.6,1.4,13.1,5.3c3.2,1.6,6.5,3.2,9.7,4.8c3.7,1.1,6.9,3,8.4,6.9c2.3,2.4,4.6,4.8,6.9,7.2c2.1,3.6,4.2,7.2,6.4,10.8
		c1.2,3,2.5,6,3.7,9c1,4,2,8.1,2.9,12.1c0,2.7-0.1,5.3,1,7.9c0.2,5.7-0.1,11.5,1,17.1c0.1,3.3,0.2,6.6,0.2,9.8
		c0,33.3,0.1,66.7,0.1,100c0,0.3-0.1,0.7-0.1,1c0,2.7,0,5.3,0,8c-0.6,10.7-1.3,21.3-1.9,32c-0.9,4.3-1.7,8.6-2.6,12.9
		c-0.9,2.9-1.9,5.9-2.8,8.8c-1.2,2.4-2.4,4.8-3.6,7.3c0.3,1.3-0.3,2.1-1.5,2.6c-1.6,2.1-3.2,4.3-4.8,6.4c-1.3,1.3-2.6,2.7-3.8,4
		c-2.1,1.8-4.2,3.7-6.3,5.5c-0.6,0.4-1.3,0.8-1.9,1.2c-2.6,1.5-5.3,3-7.9,4.5c-1.3,0.6-2.7,1.2-4,1.8c-3,2.1-5.9,4.5-10,3.1
		c-3.7,0.7-7.4,1.4-11,2c-3.4,0.3-6.3,2.9-9.9,2.2c-3.7,0.2-7.4-0.4-11,0.6c-2,0.4-4.1,0.4-6.1,0.4c-4.1,0-8.3,0.3-12.4-0.3
		c-0.6-0.2-1.1-0.5-1.6-0.9c-23.1-0.1-46.3-0.1-69.4-0.2c-20.5,0-40.9,0.3-61.3-2.1c-5.1-0.6-10.1-1.9-15.2-2.8
		c-3.3-1.3-6.7-2.6-10-3.9c-2.9-0.9-5.4-2.7-8-4.4c-3-2.6-6.1-5.2-9.1-7.8c-2.4-1.1-4.1-2.8-4.8-5.4c-0.9-1.3-1.8-2.6-2.7-3.9
		c-1.1-2-2.2-3.9-3.4-5.9c-1.3-3.3-2.7-6.7-4-10c0-1.1-0.1-2.2-0.9-3c-0.7-3-1.3-6-2-9c-0.1-2.7,0.1-5.4-1.1-8
		c-0.1-1.3-0.2-2.7-0.2-4c0.1-4.4,0.2-8.9-0.7-13.2c-0.1-3.3-0.2-6.5-0.3-9.8c0-0.7,0-1.3,0-2c-1.4-1.7-1.7-3.8-1.1-5.7
		c1.1-3.4,0.6-6.9,0.9-10.3c0.1-2.7,1-5.4-0.6-8c-1.4-1.6-0.6-2.9,0.7-4C32.7,199,32.7,192,32.7,185z"/>
	<path class="st103" d="M173,350c-1.3,0.1-2.5-0.2-3.7-1.1c-1.9-1.5-3.3-0.9-4.3,1.1c-3.4-0.1-7.1,0.9-9.1-3.3
		c-0.1-0.2-0.5-0.5-0.8-0.5c-4.7-0.4-9-2.1-13.1-4.2c-3.7-0.5-5-5.2-9-5c-0.4-3.1,0.9-4.4,4-4c3.2-2.1,6.2-1.9,9,0.7
		c1,0.9,2,1.9,3.4,1.7c5.3-0.5,9,2.4,12.6,5.6C167.7,341.6,169.3,347.1,173,350z"/>
	<path class="st104" d="M162,341c-0.3,0-0.7,0.1-1,0c-4.6-2.4-9.1-5.3-14.8-4.2c-1.6-4.9-5.7-3.7-9.3-3.8c-0.2-2.9,1.6-3,3.8-3
		c5.4,0.1,10.8,0,16.2,0.1c6.2,1.5,11,5.2,16,8.9c2.2,1.7,5.7-0.2,8,2c1.2,3.6,5.5,5,6,9c-1.1-0.1-3,0.1-3.3-0.4
		c-2.3-4.6-6.5-3.3-10.2-3.7c-3.8-0.4-4.5-4.7-7.5-6.5C163,337.7,162.6,338.5,162,341z"/>
	<path class="st105" d="M196,337c-0.1,1.6-1.2,3,0.8,4.7c2.4,2,0.9,3.3-1.8,3.3c-1.9-3.9-5.4-4.1-9-4c-0.8-0.8-1.6-2-2.7-2
		c-5.7,0.4-10.1-3.1-15-4.9c-2.1-0.8-3.7-1.5-2.2-4.1c8,0,16,0,24,0C192.1,332.4,194.4,334.4,196,337z"/>
	<path class="st106" d="M196,337c-3.1-1.3-5.2-3.6-6-7c4.3,0,8.7,0,13,0c3.6,1.9,6.1,5.3,10.4,6.1c3.2,0.6,3.2,3.3,1.6,5.8
		c-1.3,0.6-2,1.6-2,3c-2.5-3.5-5.8-4.8-10-4C199.1,342.5,199.2,336.9,196,337z"/>
	<path class="st107" d="M225.9,329.3c0.4,0,0.7-0.1,1.1-0.1c1.2,1.2,2.3,2.3,3.7,3.2c1.2,0.8,2.5,1.8,1.3,3.6
		c-0.2,4.6,3.8,6.5,6.1,9.4c0.9,1.2,2.1,1.9,1.9,3.6c-4.5,0.7-6.8-3-9.7-5.2c-2.4-1.9-4.4-4.4-7.7-5c-5.1-2-7.9-5.2-7.6-8.8
		C218.7,329.6,222.4,330.9,225.9,329.3z"/>
	<path class="st108" d="M166.1,330.1c0.2,0.8,0.5,2.3,0.5,2.3c5.8-0.8,9,6.4,15.2,4.8c2.7-0.7,4.4,0.8,4.2,3.9c-1.7,0-3.3,0-5,0
		c-6.9,1-12.5-1.2-16.5-7.2c-0.9-1.4-2.7-0.8-4.2-0.8c-2.2,0.1-3.6-0.5-3.4-3C160.1,330.1,163.1,330.1,166.1,330.1z"/>
	<path class="st109" d="M215.1,330.1c1.7,3.6,4.6,6.1,8,7.9c0.8,1,0.9,2,0,3c-2.7,0-5.2,1.5-8,1c0.4-3.3-0.2-5.1-4.4-5.2
		c-3.9,0-5.8-3.7-7.6-6.8C207.1,330.1,211.1,330.1,215.1,330.1z"/>
	<path class="st110" d="M142,350c0.2,1.5-0.3,2.8-1,4c-7,0-14,0-21,0c0-2.1,0.2-4.2-2.9-4c-4.8,0.3-9.4-2-14.3-0.5
		c-2.7,0.8-2.7-1.6-2.8-3.5c2.1,0.2,3.8-0.9,5.6-1.8c2.6-1.3,4.4-2.6,7.5,0.6c1.9,2,7,1,10.6,1.2c3.8,0.2,7.8-1,10.6,3.3
		c1.2,1.8,4.4,0.5,6.7,0.7C141.4,350,141.7,350,142,350z"/>
	<path class="st111" d="M341,142c0.8,3,1,6.4,5.6,6.1c1.8-0.1,2.2,1.8,3.1,2.9c3.1,4.3,6.2,8.6,9.3,12.9c-4.9,0.4-9.1,0.1-9.1-6.5
		c0-2-1.6-2.9-3.6-2.1c-2.3,1-4.7,0.7-6-1c-2.8-3.8-6.4-3.5-10.3-3.4c0-4.3,0.1-8.6-0.1-12.9c-0.1-2.6,2.4-3.1,2.7-1.8
		C334,141,339,139.2,341,142z"/>
	<path class="st112" d="M265,25c-0.7,1.2-1.2,2.5-1,4c-1.9,1.8-4.3,1.5-6.6,1.5c-9.1,0.1-18.3,0-27.4,0c-2.5,0-4.9,0.3-7.1,1.8
		c-6.8,0.3-13.7,0.1-20.5,0.1c-2.2-2.1-1.1-3.6,1.1-4.5c5.7-2.2,11.4-4.6,17.7-4.4c6,0.2,11.9-0.8,17.6-2.9
		c3.6-1.3,7.4-0.8,11.1-0.6C254.6,22.9,260.8,21.1,265,25z"/>
	<path class="st113" d="M250,20c-10.8,1.1-20.8,5.9-32,5.3c-4.9-0.3-10,2.5-15,4c-1.1,0.3-0.9,1.6-1,2.6c-7,1.2-14.1,0.3-21.1,0.5
		c-4.8,0.1-9.6,0.1-14.3,0c-2.5-2.5-0.8-3.7,1.6-4.5c1.7-0.6,3.6-0.4,5.4-0.4c2.3,0.1,4.9,0.4,6.8-0.9c5.3-3.8,11.3-3.2,17.3-3.2
		c4.7,0.1,9.3-0.1,13.4-2.8c0.6-0.4,1.2-0.7,1.8-0.7c10.4-0.6,20.7-2.5,31.2-1c2.4,0.4,4.2-0.7,6-2C250,18,250,19,250,20z"/>
	<path class="st114" d="M223,32c0.9-2.8,3-3,5.5-3c11.8,0.1,23.6,0,35.5,0c6,0.1,12.1,0.1,18.1,0.2c0.8,0,1.9,0.3,2.2,0.8
		c2.4,4,6.2,2.9,9.7,3c-1,1.5-0.7,4-3.5,4.2c-1.8,0.1-1.4,1.9-1.6,3.2c-17.6-6.9-36.1-6.6-54.5-7.3c-2.5-0.1-5-0.2-7.5-0.2
		C225.8,32.1,224.2,33.1,223,32z"/>
	<path class="st115" d="M307.1,52c-2.8-2.3-5.6-4.6-8.4-6.9c7.8-1.4,15.6,0.3,23.4-0.1c0.1,1.7-0.5,4.2,2.3,3.9
		c5.3-0.7,8.6,3.2,12.7,5.1c-6.3-1.3-12.7,1.3-19-0.5c-1.1-0.3-2.9-0.3-3.2-1C312.5,47.7,309.8,50.1,307.1,52z"/>
	<path class="st116" d="M244,19c-5.7,2.3-11.8,0.3-17.7,1.4c-6.5,1.2-13.2,0.3-19.5,3.8c-4.6,2.6-10.7,0.7-16.2,0.7
		c-3.1,0-5.8,0.5-8.2,2.6c-3.6,3.1-8,0.9-11.9,1.4c-2.1,0.3-4.6-0.5-4.4,3c-2,0.5-4.7,1.8-5.3-1c-0.5-2.5,1.4-5,4.1-5.4
		c2.9-0.4,5.7-2.1,8.7-1c1.9,0.7,2.7-0.4,3.3-2c1.2-2.9,3.8-2.9,6.3-2.9c3.3-0.1,6.6,0,9.7-1.3c3-2.2,6.1-3,9.7-1.3
		c3.2,1.5,5.9-1.3,9.1-1.6c7.8-0.8,15.9,0,23.4-3.4c6.7,0,13.3,0,20,0c0.2,2.9-1.2,4.1-4.1,4C248.3,16,245.4,15.8,244,19z"/>
	<path class="st117" d="M235,12c-3.4,2.9-7.1,4.2-11.7,4.1c-5.9-0.1-12-0.2-17.7,2.6c-1.4,0.7-3,0.3-4.3-0.6c-3.1-2-5.6-1.2-7.4,1.8
		c-1.7-4.1,1.2-5.4,4-5.1c6.4,0.6,11.6-2.5,17-4.9c1.6-0.1,2.8,0.5,4.1,1.4c1.5,1,3.8,1.3,4.5-0.2c1.9-4.1,5.3-3.1,8.4-3.2
		C232.4,9.9,232.7,11.7,235,12z"/>
	<path class="st118" d="M141,16c4.7,0,9.3,0,14,0c2.8,0,5.6,0.3,7.4-2.8c1-1.6,2.9-1.3,4.6-1.3c5,0,10,0,15,0c0.6-0.3,1-0.2,1.3,0.4
		c-0.3,4.2-3.2,5.2-6.6,5.1c-5.7-0.1-11.2-0.7-16.2,3.2c-1.9,1.5-4.9,0.4-7.3,1.3c-1.1,0.2-2.2,0.4-3.2,0.4
		c-3.8-0.1-7.7,0.6-11.2-1.6C136.6,17.8,139.6,17.3,141,16z"/>
	<path class="st119" d="M183,12c-0.3,0-0.7,0-1,0c-0.4-2.9,0.7-4.1,3.9-4.1c5.8,0.1,11.5,0.3,17-3.3c2.9-1.9,8-0.5,12.1-0.6
		c0.3,2.8-0.6,4.3-3.8,4c-2.1-0.2-4.5-0.4-4.2,3c0.1,0.7-0.2,1.5-0.8,1.6C198.5,13.5,190.7,15.7,183,12z"/>
	<path class="st120" d="M124,12c3.2,0.2,6.3,0.1,8.5-2.9c1.1-1.5,3-1.1,4.6-1.1c5.3,0,10.6,0,15.9,0c0.3,0,0.7,0,1,0
		c-0.6,4-3.4,4-6.6,4.1c-3.8,0.1-8.7-1.9-10.4,3.9c-1.4,1.4-3.2,1.3-4.9,1.4c-2.5,0-5-0.2-7.4,0.3c-1.9,0.4-3.6,0.3-4.9-1.4
		C119.3,13,120.3,11.1,124,12z"/>
	<path class="st121" d="M132,16c1.7,0,3.3,0,5,0c1.3,0,2.7,0,4,0c-1,1.3-2,2.7-3,4c-0.1,0.2-0.2,0.4-0.4,0.6c-1.7,1.2-3.6,2.2-4.8,4
		c-6.3,3.3-12.9,1.6-19.5,1.4c-0.5-0.2-1-0.4-1.4-0.8c-0.4-3.5,2.4-4.9,4.7-5.1C122.2,19.8,126.6,16.2,132,16z"/>
	<path class="st122" d="M124,12c-2.4,0.3-3.7,1.6-4,4c-1.4,1.5-3.3,1.4-5.1,1.3c-4.2,0-7.8,0.9-11.5,3.6c-3.6,2.6-8.9,2.2-12.9,4.8
		c-3.4,1.6-8-1-10.8,2.9c-0.2,0.1-0.4,0.3-0.6,0.4c-2.7,0-5.3,0-8,0c-0.4-3.2,1.7-4.2,4.2-5.2c4.4-1.8,9-3.6,12.2-7.4
		c3.1-2.5,7.8-1.3,10.7-4.3c3,0,6,0,9,0c2.3,0,4,0,5.8-2.5c2.4-3.3,6.8-0.9,10.3-1.5C123.7,9.3,124.2,10.6,124,12z"/>
	<path class="st123" d="M94,34.9c-8.7,1.3-16.9,4-25,7.2c-1.3-0.2-3.1,0.3-3-2c-0.2-3.5,2.2-2.9,4.4-3c3.8-0.1,8.1-4.1,8.6-8
		c1.5-1.4,3.3-1.5,5.2-1.4c3.1,0.2,5.5-0.9,7.5-3.1c6.8-1.2,13.6-2.4,20.4,0.5l0,0c0.8,0.9,0.9,2,0.5,3.1c-0.6,1.1-1.7,2-2.8,1.9
		C103.7,29.2,99.4,33.6,94,34.9z"/>
	<path class="st124" d="M88,17c-2.6,4.5-7.4,6-11.7,7.7c-2.6,1-4,2.3-5.3,4.3c-3.2,0.4-6.8-1.4-9.1,3.4c-0.9,1.9-5.2,0.4-7.9,0.6
		c-2.4,1.6-5,2-7.7,1.4C45.8,34,45.7,33.6,46,33c0-1.3,0-2.7,0-4c1-0.1,2.6,0.1,2.8-0.3c2-5.3,6.5-3.4,10.2-3.7
		c7.1,0.1,13.4-2.4,19.5-6C81.4,17.3,84.7,16.8,88,17z"/>
	<path class="st125" d="M66,40c1,0.7,2,1.4,3,2c-2.3,1.3-4.7,2.7-7,4c-2.5-1.8-4.7-1.2-7.1,0.5c-4.2,3-8.4,6.5-14,6.5
		c-2.4,0-2.3,2.8-3.7,3.5c-1.8,0.9-4.1,1-6.2,1.5c0.9-1.6,2.4-2.9,2-5c2.8-3.1,7.9-2.9,9.8-7.4c0.5-1.2,2.4-0.5,3.7-0.6
		c2.7-0.2,6.1,1.2,7.1-3.2c0.3-1.2,2.4-0.7,3.7-0.8C60.2,40.8,63.3,41.7,66,40z"/>
	<path class="st101" d="M46,34c2.6-0.8,5.3-1.2,8-1c-0.4,2-1.1,3.3-3.4,4.1c-4.3,1.6-8.4,3.8-12.2,6.4c-1.5,1-2.8,1.4-4.4,1.5
		c0.2-1.5-0.6-3.6,1.8-3.9c2.7-0.4,2.1-2.4,2.2-4.1c0,0,0,0,0,0C40.4,35.1,43.7,36,46,34z"/>
	<path class="st126" d="M183,12c6.5,0,12.9,0,19.4,0c1.6,0,3.3,0.5,4.6-1c2.5-1.5,5.3-0.8,8-1c-4.3,4.4-9.3,7.1-15.8,6.1
		c-2.8-0.5-5.5,0-5.2,3.9c-4,1-8.1,1.2-12.2,1c-2.2-0.1-4.1,0.1-3.8,3c-5.5,0-11,1.8-16.6,0.8c-2.3-2.4-5.9-1.9-8.4-3.8
		c8.1-1.2,15.2-7.4,24.2-4.7C180.1,17.2,182.1,14.8,183,12z"/>
	<path class="st127" d="M88,17c-2.3,3.1-6.5,0.9-9.3,3.4c-5.6,5-12.7,5-19.7,4.6c0.7-0.3,1.5-1,2.2-0.9c3.2,0.3,5.1-0.5,6.9-3.7
		c1.8-3.4,6.1-4.5,10-4.3c3.5,0.2,5.6-1.2,7-4.1c2.7,0,5.3,0,8,0c1.7,0,3.3,0,5,0C96.7,17.6,91.2,14.9,88,17z"/>
	<path class="st128" d="M34.1,99.1c-0.1,2.7-0.3,5.3-0.4,8c-3.8,3.8-10.2,2.6-13.8,7c-0.2,0.2-0.4,0.6-0.7,0.6
		c-6,1.5-11.5,4.1-16.1,8.3c-0.4,0.3-1.3,0.1-1.9,0.1c-0.1-8.1,1.5-10.2,9.7-12c1.1-0.2,2-0.5,2.2-1.7c0.3-2.3,2-2.3,3.7-2.3
		c1.9,0,4.2,0.5,4.6-2.5c0.1-0.4,0.6-1.2,0.8-1.1C27,104.5,30.1,100.4,34.1,99.1z"/>
	<path class="st96" d="M48.2,302.8c1.6,1.8,3.2,3.6,4.8,5.4c-5.5,5.5-12.4,3.8-18.9,3.8c0-1,0-2,0-3c-0.3-3.5,0.1-5.6,4.8-4.8
		C41.8,304.8,45.3,304.9,48.2,302.8z"/>
	<path class="st129" d="M278,325.3c3.3-1,6.7-2.1,10-3.1c0.8,3.2,2.4,5.6,4.4,8.3c3,4.2,4.7,9.9,4.6,15.6c-2,0-4.1,0.2-4-2.8
		c0.1-2.9-4.7-1.9-4.2-5.1c-3.5-0.3-3.4-6.1-7.7-5.1c-0.1-1.7,0.5-3.6-2.2-4.1C276.1,328.5,277.3,326.7,278,325.3z"/>
	<path class="st130" d="M316.9,298.7c0.5-0.9,1-1.7,1.5-2.6c1.6,0.1,2.9-0.2,3.8,2c1.7,4.3,3.2,8.7,4.7,13c1,3.1,3.4,6.1,3.2,9.9
		c-4.4-1-8.2-5-7.9-9.1c0.3-3.4-1.8-5.4-3.3-7.8C317.9,302.5,317.5,300.5,316.9,298.7z"/>
	<path class="st131" d="M32.8,206c-0.2,1.3-0.5,2.7-0.7,4c-1.7,3.1-4.2,4.5-8,4.1c-4.2-0.5-8.7-1-11.1,3.9c-2.4-3,0.4-5.4,1-8
		c2.8-0.2,5.3,0.4,7.6-2.9c2-2.8,6.8-0.6,10.4-1.1C32.3,206,32.5,206,32.8,206z"/>
	<path class="st132" d="M14,210c-0.3,2.7-0.7,5.3-1,8c-4,0-8,0-12,0c-0.5-3.4,1.3-4.4,4.3-4C9.2,214.6,12.1,213.3,14,210z"/>
	<path class="st133" d="M232,336c-0.1-1.7-0.9-2.8-2.6-2.9c-2.7-0.2-2.4-2.1-2.4-3.9c4.3-0.1,8.7-0.1,13-0.2
		c4.2,3.7,6.4,9.2,11.3,12.2c1.4,0.9,1.9,2.3,0.7,3.8c0,0.3,0,0.7,0,1c-3.3-0.4-5.9-1.3-8.9-3.5C239.9,340.2,236.7,336.6,232,336z"
		/>
	<path class="st134" d="M223,341c0-1,0-2,0-3c3.7-0.6,5.8,2.3,7.7,4.3c2.8,2.8,6,4.7,9.3,6.7c0,0.3,0,0.7,0,1
		c0.5,3.9,1.8,7.6,4,10.9c-4.5-0.3-11.9-5.5-12.3-9.4c-0.4-3.5-2.3-4.7-5.1-5.6C224.2,345.1,222.4,344,223,341z"/>
	<path class="st135" d="M257,328.2c3.3-0.3,6.6-0.6,10-0.9c-0.7,0.4-1.3,0.8-2,1.2c3.7,1.9,7.1,4.1,8,8.6c3.8,3.6,4.5,8.1,4,13
		c-2.6-3.6-4-8-8.5-10.3c-1.8-0.9-4.1-2.3-4.6-4.9c-0.4-2.4-2.4-1.7-4-1.8c-1.5,1.1-3.2,1.3-4.3-0.3
		C254.6,330.9,255,329.3,257,328.2z"/>
	<path class="st136" d="M32.7,218c0.1,5.3,0.1,10.7,0.2,16c-8.8-1.3-16.1,3.7-24.1,5.7c-7.8,2-7.7,2.3-7.7-5.7c3.8-3.8,9-3,13.4-4.5
		c5.3-1.7,10.3-3.5,16-4.1c3.2-0.3,0.9-4.9,1.5-7.4C32.2,218.1,32.5,218,32.7,218z"/>
	<path class="st137" d="M257,328.2c-1.9,3.4-1,5.1,3,4.8c-0.2,1.9,0.5,3.5,2.2,4.5c1.9,1.1,1.9,2.8,1.8,4.5c-2.7-0.3-5.3-0.7-8-1
		c-3.4-4.1-8.6-6.5-10.2-12.1C249.5,328,253.3,328.2,257,328.2z"/>
	<path class="st138" d="M245.8,328.9c3.1,4.3,9,6.2,10.2,12.1c0,1.3,0,2.7,0,4c-1.3,0-2.7,0-4,0c0.1-1.6-0.7-2.3-2.1-3.3
		c-4.6-3.1-8.1-7.2-9.9-12.7C242,329,243.9,329,245.8,328.9z"/>
	<path class="st138" d="M259,350c-3.3-0.3-3-2.7-3-5C257.7,346.3,258,348.4,259,350z"/>
	<path class="st99" d="M46,34c-0.9,5.8-5.4,1.8-8,3c-0.1-7,5.2-2.9,8-4C46,33.4,46,33.7,46,34z"/>
	<path class="st139" d="M250.2,119c4.8,4.7,8.5,10.1,11.6,16.1c-2.8,1.8-5.9,0.9-8.1-0.3c-5.6-3.1-11.9-2.6-17.7-4.4
		c-8-2.5-16.5-3.9-24.9-0.6c-8.5-3.7-17.4-5.9-26.3-8.5c1.1-5.1,7.6-8.8,12-6.5c2.3,1.2,4.3,2.5,6.7,0.3c0.6-0.5,1.6-0.7,2.4-0.3
		c6.1,4.1,13.1,2.5,19.7,2.9c5.4,0.4,10.9-0.6,16.1,2.1C244.5,121.2,247.2,117.3,250.2,119z"/>
	<path class="st140" d="M183,273.9c-24,0.6-45-6.8-63-22.8c4.6-2.2,9.2-2.5,13.3,1c2.2,1.9,4.7,1.4,7.1,1.5c3.8,0.1,7.5-0.3,10.6,3
		c1.8,1.9,4.7,1.1,7.2,1c3.8-0.1,7.2,0.5,9.9,3.5c3.5,3.9,9,4.8,12.7,8.4C182.2,270.7,184.2,271.5,183,273.9z"/>
	<path class="st141" d="M137.7,98.9c27.2-14.2,54.7-14.8,82.6-2c-3,3.7-6.9,2-10.1,1c-5.3-1.5-10-2.2-14.4,1.9
		c-1.5,1.4-3.7,1.5-5.7,1.1c-2.2-0.5-4.4-0.5-6.5-1.4c-4.3-3.7-8.9-4.1-13.8-1.3c-2.2,1.2-4.6,1.8-7.1,2c-6.8,0.5-13.6,0.3-20.4,0.2
		C140.6,100.4,138.9,100.4,137.7,98.9z"/>
	<path class="st142" d="M273.9,177c0.1,5.1,0.8,10.2-0.7,15.2c-7.2-5.1-15.4-8.3-22.8-13.2c-3.2-2.1-5.8-0.6-7.2,3.4
		c-0.4,1.2-0.1,3.4-2.6,2.2c-1-8.1-2.5-16-3.1-24.2c4.9-2.4,8-2,12,1.3c2.9,2.4,6.7,3.8,10,5.1C265.2,169.2,269.1,173.6,273.9,177z"
		/>
	<path class="st143" d="M267.9,148c2,4.1,3.2,8.5,3.9,13c-2.8,1.8-4.7-0.5-6.7-1.6c-2-1.2-4-2.3-6-3.3c-5.5-2.7-11-4.1-17.2-3
		c-2.9,0.5-5.6-1.8-8.6-2.1c-4-2.5-6-6.7-8.9-10.1c-0.8-0.9-1.3-2.4,0.1-3.5c6.5-2.6,12.3-3.4,19.4-0.2c5,2.3,10.2,5.8,16.4,5.6
		C263.9,142.8,265.3,146.4,267.9,148z"/>
	<path class="st144" d="M258.7,73.9c5.2-9,14.6-13.1,24.5-10.7c8.8,2.2,15.2,9.8,15.8,18.8c-4,2.5-8,1.8-11.8-0.3
		c-3-1.7-6.1-2.6-9.5-2.3c-5.2,0.5-10-2.4-15.3-1.7C260.3,78.1,259.2,76,258.7,73.9z"/>
	<path class="st145" d="M183,273.9c-1.3-3.5-4.8-5.6-7.3-6.4c-4.4-1.4-7.1-4.2-10-7.1c-2.2-2.2-4.7-1-7-1.4
		c-3.6-0.7-8.5,2.3-10.5-3.5c-0.2-0.5-1.8-0.5-2.8-0.5c-3-0.1-6,0-9,0c-1,0-2.7,0.2-2.9-0.2c-3.1-6.3-8.9-2.9-13.4-3.7
		c-2.5-1.5-4.4-3.6-6.1-5.8c0.1-2.8,2.5-2.6,4-2.2c8.8,1.8,17.9,2.3,26.8,3.4c2.3,3.4,6.3,3,9.6,4.4c0.9,0.9,1.4,2.7,2.8,2.5
		c5.7-0.7,9.8,3.1,14.7,4.5c2.9,0.8,5.1,3,7.5,4.4c6.2,3.8,14.4,3.1,19.4,9.2c0.1,0.2,0.2,0.4,0.4,0.7
		C193.8,273.7,188.5,274.2,183,273.9z"/>
	<path class="st146" d="M137.7,98.9c8.5,0,16.9,0.1,25.4-0.1c2.2-0.1,4.5-0.5,6.5-2c4.4-3.4,11.1-2.3,14.4,2.2c-3,2.4-4.3,6-6.7,8.8
		c-2.5,0.9-5.1,0.6-7.6,0.6c-10.1,0.3-20.1-0.4-30.2,0c-3.2,0.2-6.2,0.2-8.8,2.5c-1.7,1.5-4,1.7-6,0.6c-1.6-0.9-1.6-2.3-0.8-3.8
		C128.1,104,132.6,101,137.7,98.9z"/>
	<path class="st147" d="M233,150.1c4.7-0.7,8.8,3.9,13.8,1.3c2.3-1.2,5.1-0.5,7.1,0.9c4.4,3,10.2,3.2,14,7.2c1.1,1.1,2.4,1.7,4,1.6
		c1.3,5.2,2.2,10.6,2,16c-4.2-0.2-6.4-3.7-9.3-5.8c-1.4-1-2.4-2.3-4.4-2.2c-1.7,0.1-3.4-0.1-4-2.1c-0.6-2-2.1-1.8-3.6-1.9
		c-1,0-2.7,0-2.8-0.4c-2.2-6.4-7.9-3.2-11.9-4.5C234.2,157.7,232.4,154.5,233,150.1z"/>
	<path class="st148" d="M258.7,73.9c1.9,2.4,4.6,1.9,7,2.6c7.5,2.2,15.9-0.6,22.7,4.4c3.2,2.4,7.1,0.7,10.6,1.1
		c1.1,4.3,0.2,8.2-2.1,11.9c-5.6-2.6-11.2-5-17.5-2.9c-1.3,0.4-2.9,0.6-3.9,0c-5-3.2-10.6,0.7-15.7-1.4c-0.8-0.3-1.9,0.5-2.9,0.7
		C254.9,84.5,255.6,79.1,258.7,73.9z"/>
	<path class="st149" d="M267.9,148c-0.3,0-0.8,0.1-1,0c-4.1-2.9-8.4-5-13.6-4.2c-2.3-6.6-10.3-1.9-13.8-7.1c-1.2-1.9-5.6-1-8.5-0.1
		c-2.4,0.7-4.7,1.7-7.2,1.6c-5.4-1.6-9.2-5.2-12.6-9.5c7.3-3.4,14.6-2.3,22-0.5c9.6,2.4,19.2,4.6,28.8,6.9
		C264.4,139.1,266.6,143.4,267.9,148z"/>
	<path class="st150" d="M215.2,267.1c-2.4,1.8-5.2,2.5-8.1,2.9c-5.4-5-11-9.8-19-9.9c-1,0-1.9-0.5-2.5-1.3c-2-3.2-5.4-4.5-8.4-6.3
		c-1.2-0.2-2.4-0.4-3.4-1.2c-1.3-2.4-3.4-3-5.9-2.8c-4.1,0.3-7.7-0.9-11.4-2.9c-7.2-3.8-14.4-7.5-22.2-9.8c-1-0.6-1.6-1.4-1.4-2.6
		c2-1.8,4.5-2.3,6.9-1.3c4.1,1.8,8.4,1.1,12.6,1.3c6.6,2.5,13.4,4.5,19.9,7.1c1.5,3,4.8,3.5,7.3,4.7c9,4.4,17.8,9.1,25.7,15.5
		C208.2,262.8,212.4,263.9,215.2,267.1z"/>
	<path class="st151" d="M250.2,119c-4.3,2.2-8.2,3.6-13.2,0.5c-2.6-1.6-6.8-0.7-10.3-0.4c-5.9,0.6-11.9-0.1-17.6-0.8
		c-3.2-0.4-5.8-3.2-8.7,0.5c-0.1,0.1-0.9-0.2-1.3-0.5c-7-4.4-7.5-4.4-14,2.5c-2.4,2.3-5,1.9-7.7,0.6c0.9-2.5,0.9-2.5,4.3-2.3
		c-1.2-2.8-2.8-5.5-0.6-8.6c1.5-0.9,3.2-1,4.8-1c9.5,0.2,19-0.5,28.4,0c3.6,0,7.3-0.1,10.8,1.3c0.6,0.2,1.4,0.6,1.9,0.3
		c7.3-3.4,12.8,2.2,19.1,3.8C247.8,116,249.2,117.3,250.2,119z"/>
	<path class="st152" d="M97.8,139.9c1-2.9,2.4-5.5,4.4-7.9c3.3-1.9,7.5-4,10.5-3.8c5.6,0.3,10.4-1.8,15.7-2.1
		c7.9-0.6,15.5-2.5,23.2-4c3-0.4,6-1.2,8.7,0.9c0.7,1.6-0.4,2.8-1.5,3.2c-8.3,3.7-14.9,10.1-22.6,14.7c-0.7,0.1-1.4,0.2-1.9-0.2
		c-7.8-5.9-16.8-2.5-25.3-3.1c-1.5-0.1-2.7,1-3.9,1.9C102.6,141.5,100.2,142.1,97.8,139.9z"/>
	<path class="st153" d="M241.3,185c0.3-0.8,0.6-1.5,0.8-2.3c0.5-1.9-1.3-5,1.7-5.4c3-0.4,6.6-1.8,9,1.8c0.9,1.3,2.2,2,3.8,1.9
		c1.8-0.1,3.2,0.2,3.6,2.4c0.3,1.8,2,1.2,3.1,1.7c3.8,1.6,8.1,2.7,9.8,7.2c0.1,4.1-0.7,8-2.2,11.8c-2,1.3-3.9,0.2-5-1
		c-4.8-4.9-12-6.4-16.2-12.1c-2.2-2.9-6.2-2.1-9-3.9C240.5,186.3,240.5,185.6,241.3,185z"/>
	<path class="st154" d="M215.2,267.1c-1.7-0.2-3.8,0.5-4.2-2.3c-0.1-0.9-0.6-1.7-1.6-1.6c-5.3,0.2-7.8-3.9-11.1-6.9
		c-2-1.9-4.9-3.4-7.4-4.4c-6.6-2.5-12.1-7.1-19-9c-2.8-0.7-1.2-1.5,0.3-2c4.6-2.5,9.3-1.4,14.1-0.9c6.2,1.9,11.2,6.4,16.9,8.5
		c5.1,1.9,8.9,4.2,12.7,7.9c2.5,2.4,5.3,4.9,8.4,6.7C221.5,265.1,218.7,266.8,215.2,267.1z"/>
	<path class="st155" d="M224.4,263.2c-6.3-0.6-9.5-5.5-13.2-9.7c-0.6-0.6-0.4-2.5-1.5-2.2c-5.1,1.2-8.8-1.9-12.5-4.4
		c-3.3-2.2-6.9-3.6-10.1-5.7c5-2.7,10.4-4,16.1-4.5c1.7,0.8,3.2,1.8,4.5,3.1c4.9,5.1,11.1,7.8,17.6,10.2c4,1.5,6.7,5.6,5.9,9.3
		C229.2,261.1,226.9,262.4,224.4,263.2z"/>
	<path class="st156" d="M268.2,213.1c-0.9,4-2.6,7.7-4.8,11.1c-0.6,0.3-1.6,0.8-1.8,0.3c-2.4-4.9-8.2-4.8-11.6-8.3
		c-2.2-2.3-4.6-4.7-8.3-5.1c-2.6-0.3-3.9-3-5.7-4.6c-1.1-3.7,1.2-6.5,2.5-9.5c2.7-2.8,5.7-1.8,8.1-0.1
		C254.1,201.7,261.2,207.3,268.2,213.1z"/>
	<path class="st157" d="M256.9,90.3c1.3-3.8,4.2-2,6.6-1.8c0.9,0.1,2.3,1.4,2.5,1.2c3.5-3.8,6.6-1.4,9.8,0.3c0.8,0.4,2.2,0.5,2.9,0
		c5.6-3.7,10.6,1,15.8,1c2,0,2.5,1.2,2.4,3c-1.4,4.1-4.4,6.8-8,8.9c-1.5-1.2-3.3-2-5-1.9c-8.2,0.7-15.1-4-23-4.8
		c-0.8-0.1-1.5-0.6-2.2-1.1C257.6,93.7,256.8,92.2,256.9,90.3z"/>
	<path class="st158" d="M236.1,206c1.7-0.2,2.8,0.5,3.5,2.1c0.5,1.1,1.3,2,2.6,1.9c4.9-0.4,6.9,3.7,9.8,6.3c0.2,0.2,0.3,0.9,0.4,0.9
		c5.8-1.1,7.1,4.8,10.9,7c-1.5,3.7-3.5,7.1-6.2,10.1c-3.8-2.8-6.4-7.4-11.9-7.4c-2.6-6.6-10.5-6.5-14.5-11.4
		C231,211.4,232.3,208,236.1,206z"/>
	<path class="st159" d="M123.9,107.8c0.1,1.5,0,3.2,2.2,3.2c1.6,0,3.8,0.5,4.4-1.5c1-2.9,3.1-2.5,5.2-2.5c11.4,0,22.8,0,34.3,0
		c1.7,4.1-1.2,5-4.1,5.2c-4.9,0.5-9.9,0-14.8,0.6c-1.6,0.2-3.3,0.1-4.7,1.2c-3,2.2-6.4,2.6-9.9,2.4c-3.5-0.2-6.5,0.7-9,3.1
		c-2.8,1.1-5.8,1.3-8.7,2.1c-2.7,0.8-5.3,0.2-6.8-2.7C115.7,115,118.9,110.4,123.9,107.8z"/>
	<path class="st160" d="M111.9,119c3.2,1.6,6.2,2.5,9.7,0.3c1.3-0.8,3.6-0.2,5.4-0.2c1.7-1.1,3.7-1.7,5.7-1.4
		c5.9,0.9,11.5,3.1,17.4,3.8c0.7,0.1,0.9,0.9,0.9,1.6c-0.5,0.4-1,1.2-1.5,1.2c-7.4-0.4-14.1,4.4-21.6,3c-2.4-0.5-4.1,1-6,1.9
		c-2.2,1.1-4.3,2.7-6.5-0.1c-0.9-1.2-2.1-0.7-3,0.3c-2.9,2.8-6.6,2.9-10.2,2.8C104.7,127.2,107.9,122.8,111.9,119z"/>
	<path class="st161" d="M268.2,213.1c-3.3-1.2-6.7-2.5-9-5.4c-3.5-4.4-9.1-6-13.1-9.9c-1.5-1.4-4.3-2.7-6.8-0.8
		c-1.7-3.8-0.6-7,1.9-10c7-1.5,9.9,4.8,14.7,7.4c5.3,2.8,9.3,7.7,15.1,9.6C269.7,206.9,270.4,210.5,268.2,213.1z"/>
	<path class="st162" d="M97.8,139.9c2.6-0.1,5.6,1.1,7-2.7c0.6-1.6,2.6-1.2,4-1.2c6.3,0,12.5,0,18.8,0c2.2,0,4.3,0,5.3,2.5
		c0.7,1.8,2.4,1.4,3.8,1.5c0.4,4.1-2.4,5.1-5.6,5.8c-7.3-0.6-14.6-0.2-21.9-0.3c-2.4,0-4.5,0.5-6.4,2.1c-2.7,2.2-5.7,2.5-8.6,0.4
		C94.9,145.1,96,142.4,97.8,139.9z"/>
	<path class="st163" d="M145,247c-8.8,0.1-17.5-0.2-26.1-2.8c-1.6-0.5-3.6-0.8-5,1c-3.7-3.1-6.7-6.8-9.1-11.1c1.7-1.8,3.9-1.5,6-1.2
		c3.4,0.6,6.9,0.7,10.3,0.7c3.8-0.1,7.1,1.1,10.4,3c3.4,2.1,6.8,4.1,10.5,5.7C144,243.1,146.3,244.1,145,247z"/>
	<path class="st164" d="M94.2,214c-1.1-2.2-2.1-4.4-2.2-6.9c0.8-3.3,3.9-4.1,6.1-3.6c8.9,1.9,17.8,0.4,26.7,1.3c0.3,0,0.6,0.1,1,0.2
		c4.5,3.3,5.5,6,3.6,9.8c-10.8,1.6-21.7,0.7-32.6,0.5C95.8,215.3,94.9,214.7,94.2,214z"/>
	<path class="st165" d="M126,206c-7.6,0-15.3,0.4-22.8-0.2c-4-0.3-7.7-1.5-11.2,1.3c-1.3-2.5-2-5.2-2-8.1c-0.2-1,0.4-1.7,1.2-1.8
		c9.6-1.7,19.2-2.9,28.8-0.6c1,0.2,1.8,0.9,2.7,1.2C125.4,199.9,127.4,202.3,126,206z"/>
	<path class="st166" d="M190,100c2.6,0.2,5-0.4,6.7-2.3c3.3-3.7,7.1-3.1,11.2-1.7c4,1.3,8.1,2.4,12.3,0.9
		c6.2,2.4,11.8,5.8,16.8,10.1c-3.3,2.6-7.2,1.4-10.9,1.5c-3.4,0.1-6.9,0.4-10.3-0.5c-3.8-2.5-8.9-2.3-12.1-6.3
		c-1.1-1.5-2.7-0.7-3.8,0.5c-2.2,2.4-5,2.3-7.8,1.8C190,103.7,188.6,102.6,190,100z"/>
	<path class="st167" d="M230.9,215c2.1,1.8,4,3.3,7.2,3.2c2.9-0.1,5,2.5,5.7,5.3c0.6,2.1,1.6,2.5,3.5,2.5c5.6-0.1,7.7,4.1,9.8,8.2
		c-0.6,2-2.1,3.4-3.4,4.8c-2.2,1.6-4.2,0.5-5.8-0.9c-1.5-1.3-3.9-2-4.8-3.2c-4.5-6.1-14.1-6.2-16.7-14.4
		C226.9,217.8,228,215.7,230.9,215z"/>
	<path class="st168" d="M123.2,199c-10.1-3.6-20.4-1.5-30.6-1c-1,0.1-2,0.1-2.6,1c-1.3-2.1-1-4.5-1.1-6.8c-1.2-3.1,0.5-4.5,3.2-4.6
		c9.4-0.2,18.8-0.9,28.2,0.4C124.2,191,124.7,194.7,123.2,199z"/>
	<path class="st169" d="M89,169.8c0.1-1.3,0.2-2.5,0.3-3.8c1.8-3.1,5.2-3.3,7.9-3c7.1,0.7,14.1-0.7,21.2-0.1c2.9,0.2,4.8,1.2,5,4.3
		c0.1,2.6,0,5.1-2.5,6.6c-9.7,1.5-19.5,0.5-29.2,0.5C89,174.3,87.9,172.5,89,169.8z"/>
	<path class="st170" d="M94.2,148c3.2-0.4,7.2,1.5,8.8-3.2c0.1-0.3,0.8-0.7,1.3-0.7c9.4,0.3,18.9-1.4,28.2,1
		c0.2,3.8-1.7,6.3-4.9,7.9c-5.2,0.4-10.4,1.1-15.7,0.5c-5.2-0.5-10.5-0.4-15.6,1.5c-1.4,0.5-2.8,1-4.2-0.1
		C92.1,152.5,93,150.2,94.2,148z"/>
	<path class="st171" d="M91.9,155c7.9-3.1,15.9-3.4,24.3-2.4c3.7,0.4,7.8-0.5,11.8-0.6c1,4-0.4,6.8-4.3,8.4c-9.5,1.6-19,1-28.6,1.1
		c-1.6,0-3.3,0.3-4.9-0.5C90.6,158.9,90.8,156.8,91.9,155z"/>
	<path class="st172" d="M231.1,259.2c-0.5-3.6-4.7-8-8-8.2c-1.8-0.1-3.8,0.3-4.1-2.3c-0.1-0.9-0.8-1.6-1.7-1.5
		c-7.4,0.6-9.4-6.7-14.2-9.9c1.4-3.1,3.9-4,7-3.7c3.4,4.1,9,4.6,13.1,7.8c3,2.3,6.5,3.9,9,6.9c0.9,1.1,2.2,1.5,3.5,1.7
		c1.9,0.3,3.6,0.8,4,3.1C237.4,255.9,234,257.2,231.1,259.2z"/>
	<path class="st173" d="M153,21c2.8,0.7,6.8-2,8,3c-5.2,3.5-9.6,8.6-16.6,8.5c-3.1,0-6.2-0.4-9.3,0.3c-6.3,0.1-12.5,0.2-18.8,0.3
		c-3.1,0.7-6,1.1-4.7-3.7c1.4-1.8,3.5-1.7,5.5-1.8c4-0.1,8-0.1,12,0c2.7,0,5.3-0.3,7.5-2.2c2.2-1.9,5-1.6,7.6-2.1
		c2.2-0.3,4.2-1.2,6-2.3C151,21,152,21,153,21z"/>
	<path class="st174" d="M239.7,253c-0.7-0.5-1.3-1.4-2-1.4c-8-0.2-11-8.7-18-10.8c-1.4-0.4-3-1.9-4.7-2.1c-2.9-0.3-4.2-2-5-4.5
		c0.9-3.7,4-4.3,7.1-5c7.1,2.7,12.5,8,18.2,12.7c2.2,1.8,3.9,4,7,4.3c1.5,0.1,2.9,1.1,1.8,3.1C243.3,251.2,241.1,251.6,239.7,253z"
		/>
	<path class="st175" d="M99.9,226.1c-1.9-2.4-3.2-5.1-3.9-8c3.9-2.8,8.4-1.3,12.6-1.5c4.6-0.2,9-0.1,13.3,2.9
		c3.7,2.6,8.8,0.7,13.2,1c5.2,1.7,8.7,5.3,8.7,9.1c-2.1,1.8-4.3,1.6-6.3-0.1c-2.2-1.9-4.7-2-7.5-2.2c-5.9-0.3-11.8,1.1-17.4-2.5
		c-1.8-1.2-4.8,0.3-7.1,1.2C103.5,226.9,101.7,227.5,99.9,226.1z"/>
	<path class="st176" d="M227.1,220.2c2,3,3.4,6.4,8.1,6.2c1.8-0.1,3,2.3,4.3,3.8c3.8,4.4,8.8,6.9,14.2,8.8c-1.5,2.4-3.2,4.6-5.6,6.2
		c-6.1-3-11.4-7.2-16.7-11.2c-1.8-1.3-3.2-2.6-5.5-2.8c-3.4-0.3-5-2.3-4.5-5.8C222.9,223.3,223.4,220,227.1,220.2z"/>
	<path class="st177" d="M88.2,185c0-2.7,0-5.3,0-8c0.8-0.9,1.9-1.3,3.1-1.4c8.5-0.4,16.9-0.5,25.4,0c4.1,0.2,4.8,1.8,4.4,7.7
		c-1.1,2.8-3,2.9-5,1.2c-2.8-2.4-5-1.5-8,0C101.8,187.9,94.9,187.3,88.2,185z"/>
	<path class="st178" d="M136,221.3c-4.7,1.6-9.5,0.4-14.2,0.7c-0.2,0-0.4,0-0.5-0.1c-6.8-7.5-15.6-2.4-23.4-3.8c-0.6-0.1-1.3,0-2,0
		c-1.1-1.1-1.6-2.5-1.8-4c12,0,24.1-0.1,36.1-0.1C133.5,215.4,135.9,217.4,136,221.3z"/>
	<path class="st179" d="M222.1,225.4c0,3.2,1.5,5.4,4.9,4.6c4.3-1,4.8,3.4,7.3,4.9c4.9,3.1,10.4,5.4,13.9,10.3c-1,1.6-2.4,3-4,4
		c-0.1-0.8-0.4-1.9-1.3-1.9c-7.6-0.5-10.5-7.6-16-11.1c-3.4-2.2-6.8-4.2-10.2-6.3C217.5,227.2,218.5,224.8,222.1,225.4z"/>
	<path class="st180" d="M135.1,32.8c1.3-1.2,2.9-1,4.3-0.7c5.1,0.9,9.8-0.6,13.3-3.8c2.6-2.4,5.5-3,8.4-4.3c5.7,1,11.3-2.3,17,0
		c-1.2,1.8-2.1,3.6-5,1.8c-3-1.8-5.9,1.5-9.2,1.3c-0.7-0.1-2.7,2.5-2.2,3.9c0.7,1.9,2.9,0.7,4.4,0.9c12,0,24,0,36,0c7,0,14,0,21,0
		c1.3,0.2,2.8-0.4,3.9,0.8C196.3,32.8,165.7,32.8,135.1,32.8z"/>
	<path class="st181" d="M99.9,226.1c1.8,0,3.5-0.7,5.2-1.2c3.6-1,6.9-2.9,11.1,0.2c3.7,2.7,9.1,0.6,13.7,0.9c3.2,0.2,6.6-0.7,8.8,3
		c1.4,2.3,3.6,0,5.5,0c3.5,0.3,6.5,1.4,7.8,5.1c-4-0.1-8.1,1.6-11.8-1c-2.4-1.6-4.7,0.6-7.1,0c-2.2-1.3-4.6-1.7-7.1-1.7
		c-4.8,0.1-9.5,0.5-13.6-3c-1.5-1.2-3.5-0.6-5.2-0.1c-1.7,0.5-3.4,1.2-5.3,1.1C100.8,228.5,99.9,227.6,99.9,226.1z"/>
	<path class="st182" d="M258.9,95.1c4.5-0.2,8.8-0.4,12.8,2.7c2.8,2.2,6.4,1,9.7,1.3c3,0.3,6.5-0.2,7.7,3.8c-12.7,5-20.3,4-27.5-3.7
		C260.5,98,259.3,96.8,258.9,95.1z"/>
	<path class="st183" d="M186,258c0.7,0.3,1.5,1,2.2,0.9c7.2-1.1,11.6,4.3,17.1,7.2c1.6,0.8,1.8,2.3,1.7,3.8c-2.5,1.4-5.1,2-8,2.1
		l-0.1-0.1c-2-2.5-4.9-3.3-7.6-4.7c-4.7-2.4-10.7-3.3-13.8-8.5c-0.5-1-0.5-2-0.2-3c0.2-0.5,0.5-0.9,1-1.1
		C181.7,253.8,183.4,256.9,186,258z"/>
	<path class="st184" d="M101.8,229.4c6.1-4.1,8.1-3.9,13.9-0.4c4,2.4,8.7,0.6,13,1c2.1,0.2,4.6-0.4,4.3,3c0.3,0.7,0.7,1.3,1,2
		c-2.1,1.5-4.2,0.2-6.2-0.1c-2-0.3-3.9-0.9-5.8,0.1c-5.8,0.7-11.4-1.4-17.2-0.9C103.4,232.8,102.4,231.3,101.8,229.4z"/>
	<path class="st185" d="M88.2,185c4.2,0,8.3,0.1,12.5,0c3-0.1,5.8,0.7,8.1-3.1c1.1-1.8,5.9-2.4,8,1.2c1,1.6,1.6,2.6,3.2,0.9
		c0.6-0.3,1.1-0.2,1.4,0.3c0.8,1.7,0.9,3.3-0.5,4.7c-9.3,0-18.6,0-27.9,0c-2.4,0-4.4,0.1-4.2,3.3C87.9,190,88.1,187.5,88.2,185z"/>
	<path class="st186" d="M90.3,161c4.8-2,9.9-0.4,14.8-1c5.5-0.6,11.2,1.5,16.5-1.7c1.3-0.8,2.4,0.4,2.6,2c1,2.8,1.1,5.3-2.1,6.9
		c-0.1-1.5-0.1-3.4-2.2-3c-4.4,0.7-8.8-0.7-13.2,0.5c-4.7,1.2-9.7-1.6-14.5,0.5c-0.9,0.4-1.9,0.6-2.8,1
		C89.6,164.3,89.9,162.7,90.3,161z"/>
	<path class="st187" d="M120.8,184c-0.2,0-0.5,0-0.7,0c-0.1-7-0.1-7-6.9-7c-8.3,0-16.6,0-24.9,0c-0.1-2.5-0.3-4.9,0.7-7.3
		c-0.2,3.1,1.8,3.3,4.2,3.3c9.3-0.1,18.6,0,27.9,0C123.2,176.8,123.6,180.4,120.8,184z"/>
	<path class="st188" d="M215,107c7.4,0,14.7,0,22.1,0c3.5,2.1,6.6,4.7,9.1,8c-3.7,0.2-7.3,0.5-9.9-3c-0.5-0.6-2.1-1.2-2.6-0.8
		c-6.3,4.2-12.4-1.5-18.6-0.1C214.1,109.7,213.8,108.4,215,107z"/>
	<path class="st189" d="M112,29c-0.5,3.4,1.3,4.3,4.3,4.1c-7.4,0.6-14.8,1.2-22.3,1.8c4-2.4,7-6.9,12.7-5.9c1.8,0.3,3.7,0,5.3-1
		c0.3,0.2,0.3,0.4,0.3,0.7C112.2,28.9,112.1,29,112,29z"/>
	<path class="st190" d="M112,29c0-0.3,0-0.7,0-1c0-1,0-2,0-3c5.1,0,10.1,0,15.2,0c2.2,0,4.3-0.2,5.8-2c1.4-1.4,3.6-1.6,5-3
		c4,0.9,8,1.2,12,1c-1.7,3.1-4.2,4.5-7.8,4c-2.4-0.3-4.6,0.2-6,2.5c-1.1,1.8-2.8,1.5-4.4,1.5C125.3,29,118.7,29,112,29z"/>
	<path class="st191" d="M112,25c-7,0-14,0-21,0c-0.3,0.3-0.7,0.4-1,0c3-2.4,6.2-4.2,10.3-4c0.6,0,1.6,0.1,1.9-0.3
		c4.6-6.9,11.6-4.1,17.8-4.7c4,1.8,8-1,12,0c-5.1,0.9-8.8,5.9-14.7,5.1C115.4,20.8,113.1,22.7,112,25z"/>
	<path class="st118" d="M138,20c-1.1,2-2.9,2.7-5,3C133.6,20.3,136.2,20.7,138,20z"/>
	<path class="st21" d="M90,25c0.3,0,0.7,0,1,0c0.3,2.8-0.6,4.3-3.7,4c-2.7-0.2-5.5,0-8.3,0c-0.3-2.8,0.6-4.3,3.7-4
		C85.2,25.2,87.6,25,90,25z"/>
	<path class="st0" d="M120.8,184c0.1-3.7,0.2-7.3,0.3-11c0.9-1.9,1.1-3.8,1.1-5.9c1.2-2.1,1.7-4.5,2.1-6.9c1.3-2.8,2.6-5.5,3.8-8.3
		c1.5-2.3,3-4.6,4.4-6.9c1.4-1.7,2.9-3.4,4.3-5.1c6.7-6.9,14.9-11.7,23.3-16c5.3-3.1,10.8-5.1,17-3.2c2.6,0,5.3,0,7.9,0
		c9.2,0.7,17.8,3.6,26,7.8c4.2,3.2,8.4,6.3,12.6,9.5c3.1,4,6.2,7.9,9.3,11.9c1.6,3.3,3.2,6.7,4.9,10c2.4,8.1,3.8,16.4,3.4,24.9
		c0,0.7,0,1.3-0.1,2c-0.6,3.3-1.3,6.7-1.9,10c-1.1,3-2.1,6-3.2,9c-1.7,3-3.5,6-5.2,9c-1.3,1.7-2.6,3.4-3.8,5.2
		c-1.7,1.7-3.3,3.5-5,5.2c-1.8,1.5-3.6,3-5.4,4.5c-2.2,1.4-4.4,2.8-6.6,4.2c-2.3,1.1-4.7,2.1-7,3.2c-5.3,1.4-10.4,3.6-16,3.9
		c-4.9-0.1-9.9-0.1-14.8-0.2c-7-1.7-13.7-3.9-20.2-6.9c-2.6-1.7-5.2-3.4-7.8-5.1c-2.7-2.6-5.5-5.1-8.2-7.7c-1.9-2.4-3.8-4.9-5.7-7.3
		c-1.4-2.6-2.9-5.3-4.3-7.9c-0.9-2.4-1.8-4.7-2.8-7.1c-0.7-3.3-1.5-6.6-2.2-9.9C120.9,187.4,120.9,185.7,120.8,184z"/>
	<path class="st192" d="M215,107c0,1.3,0,2.7,0,4c-11.3,0-22.7,0-34,0c-3.8,0.5-4.2,0-3-4c-0.4-4.4,1.9-6.9,6-8c2,0.3,4.2-0.8,6,1
		c-0.1,2,0.7,3.3,2.9,3c2.1-0.3,4.8,1.4,6.1-1.8c1.4-3.6,4.7-2.9,5.7-1.1c1.8,3.4,4.6,3.8,7.6,4.5C213.6,105,215,105.2,215,107z"/>
	<path class="st193" d="M122,235c4-2,8-0.9,12,0c6.1-1,10.5,3.3,15.5,5.4c6.7,2.8,12.6,7.8,20.6,6.6c3.1-0.5,4.3,1,3.9,4
		c-1.8,1.8-4.1,1.2-6.2,1.5c-4.6-0.4-9.4,1.2-13.8-1.5c-3.3-0.7-8.2,2.2-9-4c-0.1-0.5-0.1-1.3-0.3-1.4
		C137.1,242.2,131,235.7,122,235z"/>
	<path class="st194" d="M154,251c4.7,0,9.3,0,14,0c2.3,1.8,5,2.8,7.9,3.5c1.3,0.8,1.1,2.5,2.1,3.5c3.5,1.7,5.4,6.6,10.5,5.2
		c1.9,4.1,5.9,4.1,9.5,5.2c1.5,0.5,0.9,2.3,0.9,3.5c-5.1-4.3-12.5-3.6-17.7-8c-1-0.8-2.1-0.9-3.3-0.9c-1.8,0-3.7,0.3-4.1-2.4
		c-0.2-1.5-1.5-1.6-2.7-1.6c-2.5,0-4.4,0.1-5.9-3c-1.1-2.3-4.9-1-7.4-0.9C154.8,255.2,153.7,254,154,251z"/>
	<path class="st195" d="M178,107c-0.1,2.1-0.2,4.3,3,4c0,0.8-0.2,1.8,0.1,2.4c2.1,4.4,1,7-4,7.4c-5.8,0.3-11.3,2.3-17,3.2
		c-2.8-2.1-6-0.6-9-1c-3.2-2.3-7.4,0.3-10.5-1.8c-4.2-2.7-8.9-2.2-13.5-2.2c1.4-3,3.5-4.3,7-4.1c4.5,0.2,8.9,0.9,12.9-3.2
		c1.6-1.6,5.9-0.6,8.9-0.7c3.3-0.1,6.6-0.1,9.9,0c2.9,0.1,4.4-1,4.2-4C172.7,107,175.4,107,178,107z"/>
	<path class="st183" d="M176,255c-3.6,0.5-6.5-0.3-8-4c2,0,4,0,6,0c1.3,0,2.7,0,4,0c1.1,1.3,1.1,2.7,0,4
		C177.4,255.6,176.7,255.6,176,255z"/>
	<path class="st193" d="M178,255c0-1.3,0-2.7,0-4c2.3,2.8,7,2.8,8,7C182.5,259.3,181.4,254.2,178,255z"/>
	<path class="st193" d="M176,255c0.7,0,1.3,0,2,0c0,1,0,2,0,3C176.7,257.5,176.1,256.5,176,255z"/>
	<path class="st151" d="M174.1,115.4c0.1-1.6,0.5-3.3,2.3-3.1c2.3,0.2,2.2,2.6,2.4,4.3c0.2,1.5-1,2.4-2.5,2.4
		C173.7,119,174.1,117,174.1,115.4z"/>
</g>
</svg>
