<?xml version="1.0" encoding="utf-8"?>
<!-- Generator: Adobe Illustrator 19.1.0, SVG Export Plug-In . SVG Version: 6.00 Build 0)  -->
<svg version="1.1"
	 id="svg3070" xmlns:svg="http://www.w3.org/2000/svg" xmlns:rdf="http://www.w3.org/1999/02/22-rdf-syntax-ns#" xmlns:dc="http://purl.org/dc/elements/1.1/" xmlns:sodipodi="http://sodipodi.sourceforge.net/DTD/sodipodi-0.dtd" xmlns:cc="http://creativecommons.org/ns#" xmlns:inkscape="http://www.inkscape.org/namespaces/inkscape" sodipodi:docname="New document 4" inkscape:version="0.48.0 r9654"
	 xmlns="http://www.w3.org/2000/svg" xmlns:xlink="http://www.w3.org/1999/xlink" x="0px" y="0px" viewBox="-199 200.8 75.8 76.2"
	 style="enable-background:new -199 200.8 75.8 76.2;" xml:space="preserve">
<style type="text/css">
	.st0{fill:#006699;}
	.st1{fill:#FFFFFF;}
</style>
<sodipodi:namedview  showgrid="false" borderopacity="1.0" fit-margin-left="0" inkscape:cy="33.703355" inkscape:zoom="2.8" bordercolor="#666666" pagecolor="#ffffff" inkscape:cx="142.93233" fit-margin-top="0" id="base" fit-margin-right="0" inkscape:window-maximized="1" inkscape:window-y="-8" inkscape:window-x="-8" inkscape:document-units="px" inkscape:window-height="750" inkscape:current-layer="layer1" fit-margin-bottom="0" inkscape:pageshadow="2" inkscape:window-width="1280" inkscape:pageopacity="0.0">
	</sodipodi:namedview>
<path id="path14" inkscape:connector-curvature="0" class="st0" d="M-199,206.2c0-3,2.5-5.5,5.6-5.5h64.6c3.1,0,5.6,2.4,5.6,5.5
	v65.3c0,3-2.5,5.5-5.6,5.5h-64.6c-3.1,0-5.6-2.4-5.6-5.5C-199,271.5-199,206.2-199,206.2z"/>
<path id="path28" inkscape:connector-curvature="0" class="st1" d="M-176,264.7v-34.4h-11.4v34.4H-176z M-181.8,225.4
	c4,0,6.5-2.6,6.5-5.9c-0.1-3.4-2.5-5.9-6.4-5.9s-6.5,2.6-6.5,5.9C-188.2,222.8-185.7,225.4-181.8,225.4L-181.8,225.4L-181.8,225.4z"
	/>
<path id="path30" inkscape:connector-curvature="0" class="st1" d="M-169.7,264.7h11.4v-19.2c0-1,0.1-2.1,0.4-2.8
	c0.8-2.1,2.7-4.2,5.9-4.2c4.1,0,5.8,3.2,5.8,7.8v18.4h11.4V245c0-10.6-5.6-15.5-13.2-15.5c-6.2,0-8.9,3.5-10.4,5.8h0.1v-5h-11.4
	C-169.6,233.4-169.7,264.7-169.7,264.7L-169.7,264.7z"/>
</svg>
