<?xml version="1.0" encoding="utf-8"?>
<!-- Generator: Adobe Illustrator 19.2.1, SVG Export Plug-In . SVG Version: 6.00 Build 0)  -->
<svg version="1.1" id="Layer_1" xmlns="http://www.w3.org/2000/svg" xmlns:xlink="http://www.w3.org/1999/xlink" x="0px" y="0px"
	 viewBox="0 0 339.4 289.2" style="enable-background:new 0 0 339.4 289.2;" xml:space="preserve">
<style type="text/css">
	.st0{fill:#534741;}
</style>
<g>
	<path class="st0" d="M242.4,61c0.8,0.8,0.7,1.4-0.5,1.8c-0.5-0.2-1.1-0.2-1.8-0.2c-0.5,0-1,0-1.5,0c-1.7,0-4.1,0.5-7.4,1.5
		s-7.8,3.5-13.6,7.5c-5.8,4-13.2,10.1-22.1,18.4c-8.9,8.2-19.9,19.6-32.9,34.1c-3.3,3.7-7.2,8.2-11.6,13.5
		c-4.4,5.3-8.8,10.7-13.2,16.1c-4.4,5.4-8.5,10.6-12.1,15.5c-3.7,4.9-6.4,9-8.2,12.1c-0.3,0.7-0.8,1.3-1.5,1.9
		c-0.7,0.6-1.4,1-2.2,1.1c-2.2,0.3-4.3,0.9-6.4,1.6c-2.1,0.8-3.8,1.8-5.1,3.1c-1.5,0-1.7-0.8-0.5-2.5c0.5-0.5,1-2.4,1.4-5.8
		c0.4-3.3,0.8-7.5,1.1-12.4c0.3-4.9,0.6-10.4,0.9-16.5c0.2-6.1,0.4-12.2,0.5-18.4c0.1-6.2,0.2-12.1,0.2-17.8
		c0.1-5.7,0.1-10.6,0.1-14.8c0-2.3-0.6-3.5-1.8-3.5c-0.5,0-1.3,0.4-2.5,1.2c-1.3,1.2-3.7,3.3-7.1,6.5c-3.4,3.2-7.5,7-12.2,11.5
		s-10,9.5-15.9,15c-5.8,5.5-11.7,11.2-17.6,17c-5.9,5.8-11.7,11.7-17.2,17.5c-5.6,5.8-10.7,11.3-15.4,16.5c-0.5,0.5-1,1-1.5,1.5
		s-1,0.8-1.5,0.8c-2.5,0-4.7,0.3-6.6,0.9c-1.9,0.6-3.7,1.3-5.4,2.1c-1.2,0-1.4-0.8-0.7-2.2c1.3-2,2.7-4.6,4.1-7.9
		c1.4-3.2,3-7,4.9-11.4c0.8-2,2.1-5.3,3.8-9.9c1.7-4.6,3.5-9.8,5.5-15.5s4-11.8,6.1-18c2.1-6.2,4-12.1,5.8-17.6s3.2-10.2,4.4-14.1
		c1.2-3.9,1.8-6.5,1.8-7.6c0-2.3-1.2-3.5-3.8-3.5c-2.3,0-4.7,0.3-7.1,1c-2.4,0.7-4.4,1-5.9,1c-0.8,0-1.3-0.3-1.4-1
		c-0.1-0.7,0.4-1.1,1.4-1.2c8-1.5,14.2-2.7,18.5-3.6c4.3-0.9,7.5-1.6,9.6-2.1c2.1-0.5,3.4-0.9,4-1.1c0.6-0.2,1-0.4,1.4-0.4
		c0.8,0,1.2,0.3,1.2,1c0,0.7-0.2,1.2-0.8,1.5c-0.5,0.5-1.1,1.4-1.8,2.6c-0.7,1.2-1.4,2.8-2.1,4.5S48.4,86,47.6,88
		c-0.8,2-1.6,3.9-2.2,5.8c-4.3,11.5-8.5,23.8-12.6,36.8c-4.1,13-7.9,25.7-11.4,38c-0.5,1.8-0.5,2.8-0.1,2.9c0.4,0.1,0.9-0.1,1.4-0.6
		c7.2-6.7,15-14.1,23.4-22.2c8.4-8.2,17-16.5,25.8-24.9c8.8-8.4,17.3-16.6,25.6-24.5c8.3-7.9,16-15,23-21.4c0.5-0.2,1,0,1.4,0.5
		c0.4,0.5,0.5,0.9,0.1,1.2c-0.8,0.3-1.6,1-2.2,2c-0.7,1-1.1,2.1-1.2,3.2c-0.3,2.8-0.7,6.4-1,10.8c-0.3,4.3-0.6,9-0.9,14
		s-0.4,10.1-0.5,15.4c-0.1,5.2-0.1,10.4-0.1,15.4c0,7.7,0.1,14.1,0.2,19.2c0.2,5.2,0.2,9.3,0.2,12.5c0,1.2,0.2,1.8,0.5,1.8
		c0.5,0,1-0.3,1.5-1c3-3.7,6.3-7.6,9.9-11.9c3.6-4.2,7.2-8.6,11-13.1s7.5-8.9,11.2-13.2c3.8-4.3,7.2-8.3,10.4-12
		c3.8-4.3,8-8.9,12.5-13.8c4.5-4.8,9-9.6,13.6-14.2c4.6-4.7,9-9.2,13.4-13.5c4.3-4.3,8.2-8.1,11.8-11.2c3.2-2.8,6.5-5.5,9.9-8
		c3.4-2.5,7.3-3.8,11.6-3.8c0.3,0,1,0.1,1.9,0.4c0.9,0.2,1.8,0.5,2.8,0.9c0.9,0.3,1.8,0.7,2.6,1C241.7,60.6,242.2,60.8,242.4,61z"/>
	<path class="st0" d="M339.4,18.8c0,2.7-0.1,4.7-0.4,6c-0.2,1.3-0.5,2.2-0.8,2.8s-0.5,0.6-0.8,0.4s-0.4-0.5-0.4-0.9
		c0-1.2-0.3-2.8-0.9-4.8c-0.6-2-1.8-4-3.5-5.9c-1.8-1.9-4.2-3.6-7.4-5c-3.2-1.4-7.2-2.1-12.2-2.1c-4.3,0-8.8,0.6-13.4,1.9
		c-4.6,1.2-9.5,3.7-14.9,7.2c-5.3,3.6-11,8.5-17.1,14.9c-6.1,6.3-12.7,14.5-19.9,24.6c-7.2,10.1-15,22.3-23.4,36.8
		c-8.4,14.4-17.6,31.5-27.6,51.1c1.2-1,3-2.5,5.5-4.5s5.2-4,8.2-6s5.9-3.8,8.8-5.2c2.8-1.5,5.2-2.2,7.2-2.2c1.5,0,2.2,0.6,2.2,1.8
		c0,1-0.8,2.5-2.2,4.5c-1.3,2-3.1,4.8-5.2,8.2c-2.2,3.5-4.3,7.2-6.4,11.2c-2.1,4-3.9,7.9-5.4,11.8c-1.5,3.8-2.2,6.9-2.2,9.2
		c0,2.7,0.7,4.7,2,6c1.3,1.3,3.2,2,5.5,2c3.8,0,9.2-2.5,16.2-7.5s15-13.5,24-25.5c0.3-0.3,0.7-0.5,1-0.5c0.3,0,0.5,0.3,0.5,1
		c-3.2,4.5-6.9,9-11.1,13.5s-8.6,8.6-13,12.2c-4.4,3.7-8.8,6.6-13.2,8.9c-4.4,2.2-8.5,3.4-12.1,3.4c-2.8,0-5.1-0.8-6.8-2.4
		c-1.7-1.6-2.5-3.8-2.5-6.6c0-2.7,0.9-6.1,2.8-10.2c1.8-4.2,3.9-8.4,6.1-12.6s4.3-8.2,6.1-11.8c1.8-3.6,2.8-6.1,2.8-7.6
		c0-0.8-0.2-1.2-0.8-1.2c-1.5,0-4.2,1.4-8.1,4.2c-3.9,2.8-8.8,8.2-14.6,16c-2.3,4.2-4.8,8.5-7.2,13s-4.7,8.5-6.5,12
		c-1.3,2.7-2.6,4-3.8,4c-0.8,0-1.9-0.2-3.2-0.6c-1.3-0.4-2-1.2-2-2.4c0-0.8,0.2-1.8,0.8-2.8c7-12.7,13.8-24.6,20.5-35.9
		c6.7-11.2,13.4-22.3,20.2-33.1c8-12.5,16.3-25.2,24.9-38.2c8.6-13,17.4-24.8,26.4-35.5c9-10.7,18.1-19.4,27.4-26.1S308,0,317.4,0
		c2.3,0,4.8,0.3,7.2,0.9c2.5,0.6,4.9,1.5,7.1,2.9c2.2,1.3,4.1,3.2,5.5,5.6C338.7,11.8,339.4,14.9,339.4,18.8z"/>
	<path class="st0" d="M246.6,180.8c-2.3,0-4.2-0.5-5.5-1.5c-1.3-1-2-2.5-2-4.5c0-3.3,2-8.3,6.1-14.9c4.1-6.6,9-14.4,14.9-23.4
		c0.7-0.8,1.2-1.5,1.6-1.9c0.4-0.4,0.9-0.8,1.4-1.1c0.8-0.2,2-0.4,3.4-0.6c1.4-0.2,2.3-0.4,2.6-0.4c0.7,0,1,0.2,1,0.8
		c-6,10.5-11,19-15.1,25.6c-4.1,6.6-6.1,11.7-6.1,15.4c0,2,0.9,3,2.8,3c0.8,0,1.9-0.2,3.2-0.8c1.3-0.5,2.7-1.2,4.2-2
		c1.5-0.8,2.9-1.7,4.2-2.6c1.3-0.9,2.3-1.8,3-2.6c1.5-1.5,3.7-5,6.6-10.6c2.9-5.6,6.5-12.1,10.6-19.6c2-3.7,3.9-6.8,5.6-9.2
		s3.2-3.8,4.4-3.8c0.7,0.3,1.3,1.2,1.9,2.5c0.6,1.3,0.9,2.7,0.9,4c0,0.7-0.8,2.2-2.2,4.6c-1.5,2.4-3.4,5.2-5.8,8.5
		c-2.3,3.2-4.9,6.7-7.6,10.4c-2.8,3.7-5.4,7.1-7.9,10.2c-6,9.2-12,18.6-18.1,28.4c-6.1,9.8-12.2,19.2-18.4,28.2
		c-6.2,9.1-12.5,17.7-19,25.8c-6.5,8.1-13.2,15.1-20.1,21.1c-6.9,6-14.1,10.8-21.5,14.2c-7.4,3.5-15.2,5.2-23.4,5.2
		c-4.8,0-9.2-1.2-13-3.5c-3.8-2.3-5.8-6.4-5.8-12.2c0-1.3,0.1-2.7,0.4-4.1c0.2-1.4,0.5-2.5,0.9-3.4c0.2-0.5,0.4-0.8,0.8-1
		c0.3-0.2,0.5,0.1,0.5,0.8c0,4.5,1.7,8.6,5,12.2c3.3,3.7,9.2,5.5,17.8,5.5c6.8,0,13.6-1.7,20.4-5.1c6.8-3.4,13.3-8,19.8-13.6
		c6.4-5.7,12.6-12.2,18.6-19.7c6-7.5,11.8-15.3,17.4-23.5c5.6-8.2,10.9-16.4,15.9-24.6s9.6-16,13.7-23.4c0.3-0.7,0.3-0.9,0-0.8
		c-0.3,0.2-0.6,0.3-0.8,0.5c-1.8,1.5-4.3,3.1-7.5,4.9C253.2,179.9,249.9,180.8,246.6,180.8z"/>
</g>
</svg>
